<svg width="162" height="32" viewBox="0 0 162 32" fill="none" xmlns="http://www.w3.org/2000/svg">
<g clip-path="url(#clip0_1209_45966)">
<path fill-rule="evenodd" clip-rule="evenodd" d="M155.494 18.0451V23.6591C155.494 23.9649 155.594 24.4361 156.742 24.6917C156.782 25.3183 154.737 26.9424 154.235 26.7719C153.398 26.4311 153.133 24.9474 152.18 25.198C152.045 25.198 151.925 24.8972 151.97 24.6967C152.276 24.4411 152.847 24.1153 152.862 23.6642V16.5414C152.857 16.4188 152.826 16.2987 152.772 16.1888C152.717 16.079 152.64 15.9818 152.546 15.9038C152.451 15.8257 152.341 15.7685 152.223 15.7359C152.105 15.7032 151.981 15.6959 151.86 15.7143C151.574 15.8095 151.173 15.599 151.654 15.213C152.169 14.7072 152.72 14.2398 153.303 13.8145C154.306 13.0376 155.504 15.0677 155.504 15.609V15.8997C155.649 16.401 158.06 12.9574 158.581 13.7744C159.203 14.5392 159.999 15.1442 160.902 15.5388C161.283 15.6792 161.078 15.9599 160.802 16.1404C160.23 16.3709 159.469 17.1429 158.762 17.1429C157.759 17.1429 156.922 16.5414 156.175 17.0526C155.991 17.1539 155.833 17.2977 155.716 17.472C155.598 17.6464 155.524 17.8463 155.499 18.0551L155.494 18.0451ZM143.133 26.807C143.85 26.807 146.942 24.3008 147.068 24.8822C147.193 25.4637 148.401 27.0426 149.148 26.782C149.661 26.5038 150.121 26.1373 150.506 25.6992C151.509 24.6967 149.699 24.6015 149.504 23.0476V16.9023C149.504 16.5464 150.2 15.8997 150.326 15.7293C150.521 15.4386 150.165 15.3534 149.559 14.9073C149.188 14.6095 148.864 14.2581 148.596 13.8647C148.406 13.6391 148.13 13.3985 147.789 13.8396C147.048 14.6717 143.619 16.4862 143.714 15.8747C143.714 15.2381 143.539 14.0451 142.682 13.8145C141.318 13.4486 140.641 14.6065 140.972 15.6491C141.373 16.9223 142.511 17.8145 143.403 18.7068C143.664 18.9825 143.674 19.0677 143.358 19.2932C141.895 20.5865 139.945 21.5439 139.93 23.9198C139.93 25.7845 142.015 26.7569 143.123 26.807H143.133ZM144.23 24.6466C143.831 24.65 143.443 24.5112 143.136 24.255C142.83 23.9989 142.624 23.642 142.556 23.2481C142.508 22.5897 142.645 21.931 142.95 21.3458C143.256 20.7606 143.718 20.272 144.286 19.9348C144.451 19.7694 144.922 20.3008 145.058 20.406C145.654 20.8772 145.814 20.5564 145.469 20.0702C144.967 19.3634 144.501 18.6667 143.99 18C143.829 17.7644 143.649 17.198 143.829 17.0977C144.832 16.5965 146.907 15.4937 146.897 17.0075V22.6817C146.897 23.5238 144.892 24.6867 144.23 24.6466ZM69.5437 26.807C68.436 26.7569 66.3457 25.8045 66.3508 23.9198C66.3508 21.5439 68.3157 20.5865 69.7793 19.2932C70.0951 19.0677 70.0801 18.9825 69.8244 18.7068C68.9322 17.8145 67.8194 16.9223 67.3934 15.6491C67.0625 14.6065 67.7392 13.4486 69.1026 13.8145C69.9598 14.0451 70.1051 15.2381 70.1352 15.8747C70.04 16.4862 73.4686 14.6717 74.2104 13.8396C74.5513 13.3985 74.827 13.6391 75.0174 13.8647C75.2847 14.2581 75.609 14.6095 75.9798 14.9073C76.5864 15.3534 76.9422 15.4386 76.7468 15.7293C76.6214 15.9198 75.9147 16.5464 75.9247 16.9023V23.0576C76.1102 24.6115 77.9297 24.7068 76.9272 25.7093C76.5417 26.1473 76.0818 26.5138 75.5688 26.792C74.8219 27.0526 73.639 25.4937 73.4886 24.8922C73.3382 24.2907 70.2706 26.792 69.5538 26.817L69.5437 26.807ZM70.6415 24.6466C71.3182 24.6466 73.3282 23.5238 73.3082 22.6817V17.0075C73.3082 15.5038 71.263 16.6065 70.2405 17.0977C70.06 17.198 70.2405 17.7644 70.4009 18C70.9021 18.6667 71.3733 19.3634 71.8796 20.0702C72.2254 20.5714 72.065 20.8772 71.4686 20.406C71.3332 20.3008 70.862 19.7694 70.6966 19.9348C70.1291 20.272 69.6667 20.7606 69.3613 21.3458C69.0558 21.931 68.9194 22.5897 68.9673 23.2481C69.0351 23.642 69.2407 23.9989 69.5474 24.255C69.8541 24.5112 70.2419 24.65 70.6415 24.6466ZM46.3057 29.9599C44.9623 28.4561 45.3783 25.3684 47.5337 23.7644C48.6029 23.0005 49.8307 22.4879 51.1257 22.2648C52.4207 22.0418 53.7493 22.114 55.0124 22.4762V6.55639C52.862 6.88221 50.4109 7.12782 48.3808 6.22556C47.8404 5.98803 47.3669 5.62086 47.0023 5.15658C46.6377 4.6923 46.3932 4.14525 46.2906 3.56391C46.1453 2.28571 46.5262 3.06266 46.6966 3.36842C48.3257 5.15789 50.5763 4.49123 52.7117 4.09524C55.2179 3.62907 58.3608 2.84712 60.9272 3.23308C63.1077 3.5589 64.862 5.30326 64.8671 7.46366V21.9549C64.9874 22.6717 65.5287 23.0526 65.1528 23.6642C64.9222 24.0852 63.1478 23.0376 60.5463 24.3659C59.2813 25.1016 58.1156 25.9961 57.0776 27.0276C56.6966 27.4486 54.827 25.2732 52.8871 24.9023C50.9473 24.5313 48.3307 24.8722 47.233 26.5664C44.7869 30.3659 51.3533 32.787 54.6365 29.0727C55.1377 28.5163 55.6741 29.1228 55.1377 29.5739C52.4911 31.7694 48.6816 32.5815 46.3307 29.9699L46.3057 29.9599ZM58.7869 24.0852C59.2881 24.0852 61.8796 23.0075 61.8796 22.0802V18.8672C61.8796 18.3158 60.9573 17.6441 58.9673 17.6692C56.0701 17.7043 56.1001 18.381 56.1001 18.9223V22.7719C57.1026 23.1529 58.2806 24.0702 58.7869 24.0852ZM49.8144 22C49.6841 22.2607 51.5838 21.8045 52.2706 21.2932C52.6961 20.9952 53.0426 20.598 53.2802 20.136C53.5178 19.674 53.6392 19.1611 53.634 18.6416V9.21303C53.634 8.03509 54.0951 7.70927 54.05 7.58396C53.7493 7.29825 50.7167 8.18546 50.7167 10.8521V12.3559C50.7167 12.7519 50.6415 13.0025 50.3257 13.1128C49.629 13.3033 48.1052 13.614 47.8595 15.5589C47.8347 16.0667 47.9237 16.5737 48.1202 17.0426C48.2806 17.3283 48.3959 17.4386 48.5362 17.0827C48.6786 16.693 48.9205 16.3474 49.238 16.0802C49.5989 15.7895 50.7417 15.7293 50.7417 16.406V19.6992C50.687 20.5457 50.362 21.3522 49.8144 22ZM56.1001 16.6617C56.1001 17.7895 57.5538 16.7719 58.9723 16.7669C60.3909 16.7619 61.8796 17.7243 61.8796 16.7669V12.9373C61.8796 12.015 60.4811 12.8972 58.9723 12.9373C57.4635 12.9774 56.1051 12.0451 56.1001 12.8321V16.6767V16.6617ZM58.9523 11.985C60.4911 11.985 61.8796 11.7343 61.8796 10.8321C61.8796 7.96992 61.8796 6.18045 59.2129 6.18045C58.1713 6.17686 57.1308 6.25058 56.1001 6.401V10.9524C56.1001 11.6892 57.4134 11.995 58.9523 11.985ZM109.98 31.8246C107.975 31.5439 107.474 29.7243 108.266 27.7694C109.208 25.3784 111.975 23.0226 115.198 22.0451C116.787 21.5696 118.461 21.4532 120.1 21.7043C120.521 20.9774 121.604 19.2682 122 18.4211C119.118 17.6642 115.799 16.6316 114.261 14.9123C113.048 13.5338 113.288 11.4035 114.1 9.75438C114.16 9.46366 114.551 9.25313 114.481 9.82456C114.481 11.4185 114.892 12.0702 116.02 13.0226C117.469 14.2406 121.664 15.3684 123.539 15.8546C123.739 15.5739 124.145 14.8521 124.341 14.4812C122.266 13.9799 118.972 12.9774 117.223 11.604C116.425 11.0172 115.853 10.175 115.6 9.21746C115.347 8.25994 115.43 7.2448 115.834 6.34085C117.032 3.42857 120.817 2.97744 123.639 3.3985C124.992 3.62314 126.296 4.08468 127.489 4.7619C128.05 4.99248 128.491 4.7218 129.253 4.4812C129.865 5.24812 125.328 8.59649 124.952 7.88471C123.759 5.60401 120.441 3.5589 118.02 5.24311C117.193 5.81955 116.06 7.4787 117.975 9.02757C119.744 10.4612 123.358 11.1028 126.1 11.8847C127.042 10.6366 128 9.40351 129.042 8.20551C129.544 7.6391 130.902 6.01003 130.857 6.80702C131.022 8.25063 129.103 9.31328 128.306 10.3759C128.035 10.7368 127.183 11.7995 126.952 12.2155C128.04 12.7168 129.534 13.188 130.912 14.9223C132.842 17.3584 131.499 20.4361 130.095 22.1153C129.594 22.7068 124.732 27.6892 124.04 27.1278C122.331 26.0952 121.534 25.0526 119.529 24.3208C117.714 27.0276 113.589 32.3409 109.97 31.8396L109.98 31.8246ZM110.406 31.2932C113.027 31.5288 118.04 25.1278 118.596 23.99C114.942 22.6967 112.175 24.0602 109.784 26.7168C108.531 28.1103 107.574 31.0376 110.406 31.2932ZM125.945 24.5363C126.446 24.9474 129.203 21.8045 129.724 21.0025C130.631 19.614 130.401 17.1328 129.027 16.2707C127.876 15.5048 126.579 14.9844 125.218 14.7419C125.002 15.1729 124.662 15.6992 124.516 16.0852C126.521 16.7419 128.055 17.4837 128.707 19.1779C128.88 19.6987 128.872 20.2628 128.685 20.7786C128.497 21.2944 128.141 21.7319 127.674 22.0201C127.363 22.2206 127.032 22.0702 127.368 21.7794C128.075 21.0576 127.398 20.2757 127.022 20.1053C125.721 19.4794 124.347 19.018 122.932 18.7318C122.546 19.4185 121.323 21.4035 121.063 21.8847C122.827 22.5079 124.479 23.4118 125.955 24.5614L125.945 24.5363ZM92.862 31.9298C92.818 31.9295 92.7746 31.9195 92.7348 31.9005C92.6951 31.8815 92.66 31.854 92.632 31.82C92.604 31.786 92.5839 31.7462 92.573 31.7035C92.5621 31.6609 92.5607 31.6163 92.5689 31.573C92.5771 31.5298 92.5947 31.4888 92.6205 31.4531C92.6462 31.4174 92.6796 31.3878 92.718 31.3663C92.7565 31.3449 92.7992 31.3322 92.8432 31.3291C92.8871 31.326 92.9312 31.3326 92.9723 31.3484C95.0575 31.6892 98.065 31.7544 99.5538 30.7168C100.702 29.9248 99.0876 29.1378 97.238 29.7644C96.0199 30.0351 93.0174 31.3033 91.8645 30.3258C90.5463 29.203 92.5362 27.5338 93.4836 26.9173C93.6239 26.8271 93.8295 26.6867 93.5337 26.6065C92.4761 26.2456 91.263 25.0226 91.2931 23.8246V16.9925C91.2931 16.3258 90.7919 16.0501 90.0751 16.2356C89.659 16.3358 89.3031 16.1554 89.8395 15.8095C90.6839 15.1934 91.4738 14.5058 92.2004 13.7544C92.5663 13.5088 92.7868 13.5689 92.9723 13.7895C93.2542 14.2058 93.5915 14.5819 93.9748 14.9073C94.5763 15.3534 94.9372 15.4386 94.7417 15.7293C94.6716 15.8346 93.9347 16.5714 93.9297 16.9825V23.8045C93.9297 25.193 95.5488 25.8095 96.466 25.8095C97.3833 25.8095 98.7869 25.1729 98.7869 23.8045V16.9925C98.7869 16.3258 98.2856 16.0501 97.5688 16.2356C97.1528 16.3358 96.7969 16.1554 97.3332 15.8095C98.1797 15.196 98.9698 14.5082 99.6941 13.7544C100.06 13.5088 100.281 13.5689 100.466 13.7895C100.748 14.2058 101.085 14.5819 101.469 14.9073C102.075 15.3534 102.431 15.4386 102.235 15.7293C102.165 15.8346 101.428 16.5714 101.428 16.9825V23.7845C101.514 25.4436 99.6039 26.2907 98.2906 26.6466C97.639 26.802 93.3132 27.2431 93.3132 28.2807C93.3884 29.1128 94.7869 28.5013 96.9924 27.7444C98.4009 27.2431 100.812 27.4687 101.133 29.0075C101.207 29.526 101.097 30.0541 100.822 30.5001C100.548 30.946 100.125 31.2817 99.629 31.4486C97.5638 32.2556 95.1528 31.9499 92.9272 31.9499L92.862 31.9298ZM31.6139 23.7544V16.9674C31.6139 16.6165 30.9673 16.2556 30.7969 15.9048C30.6916 15.6892 30.7367 15.5739 30.9322 15.5639C31.4348 15.6056 31.9407 15.5786 32.436 15.4837C33.6004 15.2491 34.6856 14.7212 35.5889 13.9499C36.5914 12.9123 37.7593 14.1955 38.2405 14.8972C38.7217 15.599 40.1803 17.5739 39.639 18.0902C38.1352 19.2932 35.8345 20.6767 34.2455 21.7744V23.3935C34.2455 23.7143 36.6014 24.8972 36.9222 24.7168C37.1985 24.6342 37.4581 24.5035 37.6891 24.3308C38.6064 23.7343 38.6916 24.2005 37.8846 24.8772C37.5087 25.2481 35.1327 26.8822 34.6716 26.807C33.8345 26.6967 32.1653 24.802 30.9473 25.198C30.8119 25.198 30.6916 24.8972 30.7367 24.6967C31.0174 24.4561 31.5337 24.1454 31.6189 23.7594L31.6139 23.7544ZM34.2405 17.0727V20.4311C35.2622 19.8417 36.2481 19.1923 37.1929 18.4862C37.4736 18.2857 36.3207 16.8521 35.8595 16.2005C35.3984 15.6992 35.1578 15.0727 34.2756 15.7895C34.1452 15.9198 34.2255 16.6416 34.2405 17.0727ZM2.66154 21.6241C1.65884 18.9881 1.6039 16.0855 2.50615 13.4135C3.24738 11.5291 4.5226 9.90194 6.17533 8.73183C6.8009 8.24069 7.47234 7.81096 8.18034 7.44862C8.41091 7.34336 9.13272 7.08772 8.48109 7.7594C7.22796 9.3985 5.30315 11.1378 4.76681 14.1754C4.51035 15.5256 4.5572 16.9159 4.90396 18.2457C5.25072 19.5755 5.88872 20.8117 6.77182 21.8647C8.22044 23.4837 9.35327 24.3709 11.5437 24.7118C12.7016 24.8972 14.2204 24.9223 15.2781 24.1303V7.90476C14.5112 7.86466 13.8194 7.72431 13.0174 7.65414C12.675 7.94321 12.3657 8.26935 12.0951 8.62657V19.2932C11.9548 21.0276 11.3633 22.2055 9.61894 22.802C9.38836 22.8421 8.83197 22.9323 8.847 22.7619C9.05486 21.8285 9.16573 20.876 9.17783 19.9198V12.9023C9.17783 10.5865 8.58134 11.7544 7.77432 11.9799C7.57884 11.9799 7.5237 11.7995 7.35828 11.5439C7.67407 11.3133 10.2806 9.19799 10.7518 8.71178C11.1777 8.37052 11.5134 7.92988 11.7292 7.42857C10.5695 7.01157 9.38197 6.67657 8.17533 6.42606C6.10014 6.19549 3.54876 5.8797 1.71919 7.5188C0.766805 8.36591 0.029963 10.1754 1.6841 12.0952C1.92971 12.3759 2.18535 12.8972 1.47357 12.3308C0.591367 11.4486 -0.255751 10.5213 0.0700633 8.3208C0.335727 6.55639 2.97232 3.7594 6.76179 3.80952C10.7718 3.80952 14.2806 4.94737 18.2555 4.77193C18.3558 4.77193 18.5763 4.6416 18.6114 4.87719C18.8771 6.45614 17.2029 7.75439 16.2154 7.94987C16.0951 8 16.1703 8.5213 16.1302 8.6416V22.7469C16.1603 22.9073 16.2956 23.5038 16.5463 23.589C16.7067 23.6491 17.1227 23.3133 17.3382 23.0877C18.1001 22.386 18.5011 21.5238 18.3407 22.2757C17.644 25.4035 14.9222 26.7018 11.9949 26.9323C8.01994 27.2682 4.31568 25.5639 2.65152 21.6241H2.66154ZM20.8119 26.7719C21.3132 26.9424 23.3182 25.3183 23.3182 24.6917C22.1553 24.4361 22.055 23.9649 22.055 23.6591V17.6892L24.2906 16.1855C24.7919 15.7694 25.9197 16.2556 25.9347 17.1028V23.6591C25.9347 24.1103 25.3483 24.4361 25.0475 24.6917C24.9974 24.8972 25.1177 25.193 25.258 25.193C26.2054 24.9424 26.4711 26.4261 27.3082 26.7669C27.8094 26.9373 29.8445 25.3133 29.8144 24.6867C28.6515 24.4361 28.5713 23.9649 28.5713 23.6591V16.7769C28.5713 16.4461 29.1828 16.1855 29.1728 15.9799C29.0275 15.208 27.1177 13.4737 26.4761 13.584C25.9498 13.5338 22.5212 16.0401 22.055 16.396V8.94236C22.055 6.401 23.7192 4.8421 23.5588 4.60652C23.1277 4.17043 21.0224 6.69674 20.852 6.77193C20.3959 7.04762 20.1202 6.03008 19.4736 6.14035C19.3483 6.18045 19.4285 6.5213 19.4335 6.6416V23.6842C19.4335 24.1353 18.847 24.4612 18.5412 24.7168C18.4961 24.9223 18.6164 25.218 18.7518 25.218C19.7041 24.9674 19.9698 26.4511 20.8069 26.792L20.8119 26.7719ZM136.155 26.7719C135.318 26.4311 135.053 24.9474 134.105 25.198C133.97 25.198 133.844 24.8972 133.895 24.6967C134.195 24.4411 134.767 24.1153 134.782 23.6642V16.5013C134.782 15.6642 132.506 16.2957 132.471 15.8847C132.495 15.3657 132.616 14.8557 132.827 14.381C133.007 13.7093 134.787 14.2406 134.787 13.8496V9.66917C134.787 9.13785 136.291 8.0802 137.078 7.72431C137.413 7.56391 137.428 7.82456 137.403 8.19549V13.8296C137.403 14.3058 140.346 13.2431 139.539 15.203C139.424 15.5359 139.19 15.8145 138.882 15.985C138.256 16.1754 137.378 15.8396 137.403 16.5614V23.6591C137.403 23.9649 137.504 24.4361 138.652 24.6917C138.697 25.3183 136.646 26.9424 136.145 26.7719H136.155ZM88.065 8.94236C88.0672 8.68563 88.0873 8.42937 88.1252 8.17544L89.7242 7.98997L88.1803 7.80952V7.77945C88.5563 5.92982 89.6841 4.802 89.5738 4.60652C89.1377 4.17043 87.0375 6.69674 86.862 6.77193C86.4109 7.04762 86.1352 6.03008 85.4836 6.14035C85.3633 6.18045 85.4435 6.5213 85.4435 6.6416V7.49373L83.9046 7.31328L82.5663 7.99499L83.9046 8.67669L85.4435 8.49624V10.5013L83.7944 9.05764L82.2906 8.98246L83.1077 10.2406L85.4385 11.0376V23.6591C85.4385 24.1103 84.852 24.4361 84.5513 24.6917C84.5011 24.8972 84.6265 25.193 84.7618 25.193C85.7142 24.9424 85.9798 26.4261 86.8119 26.7669C87.3132 26.9373 89.3483 25.3133 89.3182 24.6867C88.1753 24.4311 88.0751 23.9599 88.0701 23.6541V8.94236H88.065ZM81.9698 14.9073C82.5763 15.3534 82.9322 15.4386 82.7367 15.7293C82.6665 15.8346 81.9297 16.5714 81.9297 16.9825V23.6591C81.9297 23.9649 82.03 24.4361 83.1778 24.6917C83.2229 25.3183 81.1728 26.9424 80.6716 26.7719C79.8345 26.4311 79.5688 24.9474 78.6214 25.198C78.4811 25.198 78.3608 24.8972 78.4109 24.6967C78.7117 24.4411 79.2831 24.1153 79.2981 23.6642V16.9925C79.2981 16.6416 79.2981 16.0451 78.5312 15.9298C77.9598 15.8396 77.9548 15.7343 78.2806 15.3784C78.8355 14.801 79.4468 14.2805 80.1051 13.8246L79.8595 11.3434L80.5563 10.0251L81.238 11.3634L80.9974 13.8045C81.256 14.2309 81.5847 14.6105 81.9698 14.9273V14.9073ZM81.5638 9.73434L82.8219 10.5514L83.9598 13.8847L81.639 11.2331L81.5638 9.72932V9.73434ZM79.5588 9.73434L78.2956 10.5514L77.1578 13.8847L79.4786 11.2331L79.5588 9.72932V9.73434ZM78.8069 9.02256L77.3031 9.09774L74.6515 11.4185L77.9848 10.2807L78.8069 9.02256ZM78.5362 8.02005L77.1929 7.30827L71.3783 7.98997L77.1929 8.67168L78.5312 7.98997L78.5362 8.02005ZM78.8069 7.01754L77.9899 5.75439L74.6565 4.62155L77.3082 6.93734L78.8119 7.01754H78.8069ZM79.5488 6.27569L78.2856 5.45865L77.1478 2.12531L79.4686 4.77694L79.5488 6.2807V6.27569ZM80.5513 6.01003L81.233 4.67168L80.5563 0L79.8746 4.63659L80.5563 5.97494L80.5513 6.01003ZM81.5538 6.27569L81.629 4.77193L83.9498 2.1203L82.8119 5.45363L81.5538 6.27068V6.27569ZM82.2906 7.01754L83.1077 5.75439L86.441 4.62155L83.7894 6.93734L82.2856 7.01754H82.2906ZM80.5463 10.1855L79.9297 11.3885L80.5463 17.6792V10.1604V10.1855ZM80.5463 5.85965V0.461153L81.1578 4.62155L80.5463 5.82456V5.85965ZM81.6239 6.15038L83.7743 2.43108L82.7718 5.4386L81.639 6.17544L81.6239 6.15038ZM82.4159 6.94236L86.1402 4.79198L83.7643 6.87218L82.4159 6.94236ZM82.7067 8.02506H89.1327L83.9097 8.63659L82.7067 7.98997V8.02506ZM82.4159 9.10777L86.1402 11.2531L83.1327 10.2506L82.3959 9.12281L82.4159 9.10777ZM81.6239 9.89975L83.7743 13.619L81.7041 11.208L81.634 9.86466L81.6239 9.89975ZM79.4635 9.89975L78.3307 10.6316L77.3282 13.6391L79.4786 9.9198L79.4635 9.89975ZM78.6966 9.06767L77.3483 9.14286L74.9723 11.218L78.6966 9.06767ZM78.4059 7.98997H71.9648L77.1929 7.37343L78.3959 7.98997H78.4059ZM78.6966 6.90727L74.9723 4.75689L77.9798 5.7594L78.6966 6.90727ZM79.4886 6.11529L77.3382 2.39599L79.4184 4.76692L79.4886 6.11529Z" fill="#040D33"/>
</g>
<defs>
<clipPath id="clip0_1209_45966">
<rect width="161.108" height="32" fill="white"/>
</clipPath>
</defs>
</svg>
