<svg width="182" height="32" viewBox="0 0 182 32" fill="none" xmlns="http://www.w3.org/2000/svg">
<path d="M0 23.9532H0.735273C0.912819 23.9021 1.07488 23.7848 1.20142 23.616C1.32796 23.4471 1.41343 23.2341 1.44728 23.0031V10.1292C1.41392 9.9011 1.32814 9.69133 1.20112 9.52721C1.07411 9.3631 0.911769 9.25226 0.735273 9.20915H0V5H7.39461V28H0V23.9532ZM8.1578 28V23.7608H8.23692C10.7266 23.7608 12.025 21.5299 12.025 16.6293C12.025 11.7286 10.7778 9.50379 8.23692 9.50379H8.1578V5.00601H8.31137C15.0498 5.00601 18.1212 8.61386 18.1212 16.3346C18.1212 24.0554 14.9707 28 8.1578 28Z" fill="#231F20"/>
<path d="M25.6514 23.9532H27.0926V28H18.9956V23.9532H19.6184C19.7665 23.9047 19.9011 23.8015 20.0066 23.6556C20.112 23.5098 20.184 23.3273 20.214 23.1294V9.99686C20.1869 9.80112 20.1154 9.62092 20.009 9.48022C19.9026 9.33951 19.7664 9.24497 19.6184 9.20915H18.9092V5H24.8194C25.315 5 25.615 5.55922 25.615 6.44314L25.6514 23.9532ZM28.2337 17.2186C28.2337 15.9378 27.7791 15.6792 26.6425 15.6792H26.397V12.0714C27.4995 10.8936 28.876 10.2562 30.2932 10.2675C32.0344 10.2675 33.6711 11.2175 33.6711 14.4044V23.1294C33.6967 23.3297 33.7672 23.5153 33.8734 23.6621C33.9795 23.809 34.1165 23.9104 34.2667 23.9532H34.6668V28H28.2337V17.2186Z" fill="#231F20"/>
<path d="M42.2549 24.0806L42.7162 26.847C41.8038 27.621 40.7131 28.0104 39.6067 27.957C37.3922 27.957 35.4546 26.4315 35.4546 23.2609C35.4546 19.6805 37.4984 18.1379 40.6217 18.1379C41.1778 18.135 41.7337 18.1673 42.2871 18.2347V21.0808C42.1868 21.0572 42.0847 21.0476 41.9827 21.0523C41.1015 21.0523 40.6217 21.4565 40.6217 22.6632C40.6217 23.87 41.1522 24.1603 41.8304 24.1603C41.9739 24.1539 42.1163 24.1272 42.2549 24.0806ZM43.0622 17.3353C43.0622 16.1968 42.5547 15.6561 41.2722 15.6561C40.3204 15.6133 39.3914 16.0205 38.6748 16.7945H36.3681V12.1439C38.3756 11.3336 40.4799 10.9486 42.5916 11.0055C46.7761 11.0055 48.5892 12.7132 48.5892 16.5725V23.1129C48.6149 23.3055 48.688 23.4836 48.7986 23.6231C48.9092 23.7627 49.0519 23.8568 49.2074 23.8928H49.6364V27.1317C48.6602 27.7369 47.5775 28.0342 46.4854 27.9969C44.7738 27.9969 43.0853 27.3138 43.0853 23.8017L43.0622 17.3353Z" fill="#231F20"/>
<path d="M56.8857 23.9532H57.9399V28H50.4726V23.9532H51.07C51.2187 23.913 51.3553 23.8133 51.4624 23.6666C51.5696 23.5199 51.6424 23.3329 51.6718 23.1294V10.0329C51.6419 9.82976 51.5688 9.6432 51.4618 9.49664C51.3547 9.35009 51.2184 9.25007 51.07 9.20915H50.4243V5H56.1346C56.5738 5 56.8813 5.55922 56.8813 6.44314L56.8857 23.9532ZM57.628 17.1584L58.59 16.0701C59.1874 15.3846 59.0293 14.7893 58.467 14.7893H58.0278V10.6523H65.3237V14.9576H65.0338C64.7481 14.9914 64.4782 15.1519 64.2651 15.4146L61.7482 18.1746L64.3837 23.0993C64.599 23.4962 64.823 23.9532 65.1041 23.9532H65.394V28H59.082V24.0374L57.6676 21.6682L57.628 17.1584Z" fill="#231F20"/>
<path d="M72.9888 24.0806L73.4506 26.847C72.537 27.6203 71.4454 28.0095 70.3381 27.957C68.1214 27.957 66.1819 26.4315 66.1819 23.2609C66.1819 19.6805 68.2277 18.1379 71.354 18.1379C71.9107 18.1352 72.4671 18.1675 73.0211 18.2347V21.0808C72.9207 21.0572 72.8185 21.0476 72.7163 21.0523C71.8343 21.0523 71.354 21.4565 71.354 22.6632C71.354 23.87 71.8851 24.1603 72.5639 24.1603C72.7075 24.1536 72.8501 24.1269 72.9888 24.0806ZM73.7969 17.3353C73.7969 16.1968 73.289 15.6561 72.0052 15.6561C71.0525 15.6133 70.1225 16.0205 69.4052 16.7945H67.0962V12.1439C69.1057 11.3336 71.2121 10.9486 73.3259 11.0055C77.5144 11.0055 79.3293 12.7132 79.3293 16.5725V23.1129C79.3541 23.3032 79.4253 23.4796 79.5333 23.6189C79.6413 23.7582 79.7812 23.8537 79.9342 23.8928H80.3637V27.1317C79.3865 27.7369 78.3028 28.0342 77.2096 27.9969C75.4964 27.9969 73.8062 27.3138 73.8062 23.8017L73.7969 17.3353Z" fill="#231F20"/>
<path d="M85.6985 9.40272H84.9986L84.6281 13.613H81.1516V5H85.6985V9.40272ZM92.3451 5V23.0018C92.3783 23.2328 92.4623 23.4459 92.5867 23.6148C92.7111 23.7837 92.8704 23.901 93.0449 23.9521H93.8729V28H84.9758V23.9521H85.7992C85.972 23.8989 86.1293 23.7808 86.252 23.612C86.3746 23.4433 86.4573 23.2313 86.4899 23.0018V5H92.3451ZM93.0998 5H97.6971V13.637H94.2663L93.8638 9.42678H93.1181L93.0998 5Z" fill="#EC1C24"/>
<path d="M98.5673 24.0792H99.2271C99.3893 24.0348 99.5377 23.9364 99.6553 23.7952C99.7728 23.654 99.8548 23.4758 99.8918 23.2811V16.1561C99.8573 15.9606 99.7761 15.7815 99.658 15.6408C99.5399 15.5 99.3902 15.4037 99.2271 15.3638H98.4849V11.1925H104.554C105.083 11.1925 105.665 11.577 105.665 14.2802V24.0792H107.232V28H98.5673V24.0792ZM106.461 17.4611V13.1383C106.748 12.486 107.179 11.9413 107.707 11.5642C108.235 11.187 108.84 10.9919 109.454 11.0003C109.744 11.0039 110.032 11.069 110.303 11.1925V17.1698H109.721C108.629 17.164 107.539 17.2614 106.461 17.4611Z" fill="#EC1C24"/>
<path d="M111.158 24.001H111.803C111.951 23.9604 112.087 23.8613 112.192 23.7168C112.297 23.5723 112.366 23.3892 112.39 23.1917V15.9675C112.36 15.7736 112.29 15.5949 112.186 15.4525C112.082 15.3101 111.949 15.2101 111.803 15.1642H111.091V10.9348H116.99C117.478 10.9348 117.747 11.5255 117.747 12.5828V23.2154C117.776 23.4145 117.85 23.5976 117.958 23.7416C118.067 23.8856 118.205 23.9841 118.356 24.0246H118.97V28H111.158V24.001ZM112.578 7.06571C112.578 5.22274 113.595 4 115.046 4C116.497 4 117.541 5.22274 117.541 7.06571C117.541 8.90869 116.515 10.0665 115.046 10.0665C113.577 10.0665 112.578 8.87325 112.578 7.06571Z" fill="#EC1C24"/>
<path d="M125.81 22.873C125.81 25.7955 124.49 27.6747 124.007 27.6747H120.289V9.96176C120.258 9.76256 120.181 9.57958 120.069 9.43529C119.956 9.29101 119.813 9.19172 119.657 9.14962H118.97V5H125.034C125.499 5 125.819 5.55131 125.819 6.42273L125.81 22.873ZM126.572 23.7207H127.037C128.124 23.7207 129.119 22.873 129.119 19.251C129.119 16.0143 128.189 15.3325 127.06 15.3325H126.553V11.7105C127.452 10.7418 128.597 10.2235 129.774 10.2522C132.316 10.2522 134.727 12.1611 134.727 18.6345C134.727 25.1079 132.316 27.9948 129.04 27.9948C127.899 28.0554 126.781 27.5833 125.894 26.6669L126.572 23.7207Z" fill="#EC1C24"/>
<path d="M143.547 22.996V26.3862C142.412 27.4743 140.999 28.0445 139.553 27.9973C137.723 27.9973 135.903 27.0759 135.903 24.0102V15.9375C135.869 15.7474 135.793 15.5726 135.681 15.4332C135.569 15.2937 135.428 15.1953 135.272 15.1494H134.727V11H141.612V21.4313C141.612 22.7295 142.162 23.0134 143.313 23.0134L143.547 22.996ZM144.326 15.1494H142.945V11H150.045V23.025C150.075 23.2163 150.151 23.3929 150.261 23.5337C150.372 23.6745 150.515 23.7735 150.671 23.819H151.273V27.7191H145.425C144.904 27.7191 144.326 27.2091 144.326 24.6419V15.1494Z" fill="#EC1C24"/>
<path d="M152.133 23.8922H152.751C152.903 23.8457 153.042 23.7426 153.152 23.5946C153.263 23.4467 153.339 23.26 153.374 23.056V15.5911C153.342 15.3864 153.266 15.1987 153.155 15.0512C153.044 14.9038 152.904 14.8029 152.751 14.761H152.061V10.3908H157.742C158.237 10.3908 158.787 10.7936 158.787 13.6258V23.8922H160.251V28H152.133V23.8922ZM159.533 15.4935V11.8313C160.635 10.6357 162.011 9.98876 163.428 10.0001C165.164 10.0001 166.805 10.9645 166.805 14.1995V23.056C166.835 23.2618 166.909 23.451 167.019 23.5998C167.129 23.7486 167.27 23.8503 167.423 23.8922H167.818V28H161.391V17.056C161.391 15.7559 160.937 15.4935 159.805 15.4935H159.533Z" fill="#EC1C24"/>
<path d="M175.621 23.9459V27.9773C169.733 27.7956 167.818 24.7238 167.818 19.6079C167.818 14.492 170.457 11.2328 174.793 11.017V14.9519C174.046 15.0768 173.422 16.1329 173.422 19.4205C173.422 22.8444 174.046 23.7472 175.621 23.9459ZM174.254 17.7796H176.732C176.704 15.7582 176.292 15.0768 175.569 14.9405V11C179.933 11.1533 182 13.7595 182 19.341C182 20.1132 181.948 20.7378 181.948 20.9536H174.254V17.7796ZM176.396 28V23.9005C176.81 23.8897 177.215 23.7604 177.579 23.5234C177.943 23.2864 178.254 22.9484 178.486 22.5377H181.456V26.4726C179.888 27.4329 178.156 27.9421 176.396 27.9603V28Z" fill="#EC1C24"/>
</svg>
