<svg width="278" height="158" viewBox="0 0 278 158" fill="none" xmlns="http://www.w3.org/2000/svg">
<g clip-path="url(#clip0_1095_68513)">
<path d="M1.44483 158.376H245.148L230.233 148.382H16.58L1.44483 158.376Z" fill="#DBDBDB"/>
<path d="M27.8183 141.399H219.363L205.778 132.667H41.4919L27.8183 141.399Z" fill="#DBDBDB"/>
<path d="M47.0464 128.168H198.539L186.758 119.436H58.2724L47.0464 128.168Z" fill="#DBDBDB"/>
<path d="M190.99 50.0864C189.546 48.4062 187.424 47.3789 185.196 47.3789H60.8131C57.8811 47.3789 55.2133 49.1114 53.9454 51.7232L51.2072 57.3994L195.727 55.5886L190.99 50.0864Z" fill="#AE1D0D"/>
<path d="M223.945 63.1901C223.76 57.3572 218.777 52.5254 212.702 52.5254H27.4081C22.3279 52.5254 17.8815 56.06 16.552 60.7699L2.70231 110.01L3.97019 125.812C4.1815 128.484 6.50591 130.487 9.30579 130.487H218.777C220.696 130.487 223.945 63.1901 223.945 63.1901Z" fill="#F04935"/>
<path d="M220.944 116.749H218.276C216.947 116.749 215.749 118.386 215.749 120.292V128.18C215.749 129.573 216.665 130.478 217.634 130.478H219.94C220.909 130.478 221.648 129.573 221.648 128.18V117.916C221.648 117.324 221.358 116.749 220.944 116.749Z" fill="url(#paint0_linear_1095_68513)"/>
<path d="M187.257 113.925H211.919C212.166 113.925 212.359 113.734 212.359 113.49C212.359 113.246 212.166 113.055 211.919 113.055H187.257C187.011 113.055 186.817 113.246 186.817 113.49C186.817 113.725 187.02 113.925 187.257 113.925Z" fill="white"/>
<path opacity="0.58" d="M69.1692 113.927H159.126C159.373 113.927 159.566 113.736 159.566 113.492C159.566 113.248 159.373 113.057 159.126 113.057H69.1692C68.9226 113.057 68.7289 113.248 68.7289 113.492C68.7289 113.727 68.9226 113.927 69.1692 113.927Z" fill="white"/>
<path opacity="0.58" d="M81.9582 127.744H107.298C108.478 127.744 109.438 126.795 109.438 125.628V118.367C109.438 117.201 108.478 116.252 107.298 116.252H81.9582C80.7784 116.252 79.8187 117.201 79.8187 118.367V125.628C79.8099 126.795 80.7784 127.744 81.9582 127.744ZM107.289 117.123C107.985 117.123 108.548 117.68 108.548 118.367V125.628C108.548 126.316 107.985 126.873 107.289 126.873H81.9494C81.2539 126.873 80.6904 126.316 80.6904 125.628V118.367C80.6904 117.68 81.2539 117.123 81.9494 117.123H107.289Z" fill="white"/>
<path opacity="0.58" d="M130.085 126.148H139.762C140.986 126.148 141.98 125.338 141.98 124.337V119.644C141.98 118.791 141.144 118.104 140.105 118.104H129.399C128.272 118.104 127.356 118.852 127.356 119.784V123.945C127.356 125.164 128.58 126.148 130.085 126.148ZM140.105 118.983C140.642 118.983 141.091 119.288 141.091 119.653V124.346C141.091 124.851 140.484 125.277 139.762 125.277H130.085C129.064 125.277 128.236 124.676 128.236 123.945V119.784C128.236 119.348 128.765 118.983 129.399 118.983H140.105V118.983Z" fill="white"/>
<path d="M7.99896 110.495C7.61155 110.104 7.07447 109.895 6.51977 109.93L2.68976 110.138L3.56141 121.291L5.41038 120.02C7.11848 118.844 8.19264 116.973 8.33352 114.927L8.54484 111.975C8.58886 111.427 8.38636 110.887 7.99896 110.495Z" fill="#FCD7D3"/>
<path d="M12.8578 122.251H4.60787C2.67084 122.251 0.408057 123.191 0.408057 125.115V128.084C0.408057 129.999 2.67084 131.183 4.60787 131.183H12.8578C13.6678 131.183 14.293 130.905 14.293 130.104V123.104C14.293 122.286 13.6678 122.251 12.8578 122.251Z" fill="#AE1D0D"/>
<path d="M175.014 143.537C166.295 143.537 159.227 136.548 159.227 127.927C159.227 119.306 166.295 112.317 175.014 112.317C183.733 112.317 190.801 119.306 190.801 127.927C190.801 136.548 183.733 143.537 175.014 143.537Z" fill="#4D0D06"/>
<path d="M175.016 140.604C167.936 140.604 162.197 134.928 162.197 127.928C162.197 120.927 167.936 115.252 175.016 115.252C182.096 115.252 187.836 120.927 187.836 127.928C187.836 134.928 182.096 140.604 175.016 140.604Z" fill="#CFE6F9"/>
<path d="M185.788 132.594C185.902 132.594 186.008 132.524 186.061 132.419C186.668 131 186.977 129.494 186.977 127.936C186.977 121.589 181.755 116.427 175.337 116.427C173.347 116.427 171.384 116.932 169.649 117.889C169.508 117.968 169.455 118.142 169.535 118.29C169.614 118.429 169.79 118.481 169.94 118.403C171.577 117.498 173.444 117.019 175.337 117.019C181.43 117.019 186.395 121.92 186.395 127.953C186.395 129.425 186.105 130.861 185.524 132.211C185.462 132.359 185.533 132.533 185.682 132.594C185.709 132.585 185.753 132.594 185.788 132.594Z" fill="white"/>
<path d="M180.77 127.928C180.77 131.14 178.137 133.743 174.888 133.743C171.639 133.743 169.007 131.14 169.007 127.928C169.007 124.715 171.639 122.112 174.888 122.112C178.137 122.121 180.77 124.724 180.77 127.928Z" fill="#611007"/>
<path d="M12.787 102.919C12.787 102.919 21.9261 102.687 30.0994 102.282C37.5303 101.921 43.9377 95.9395 46.0423 87.4279L51.6425 64.7418C51.938 63.5369 51.1812 62.332 50.1361 62.332H21.7459L12.2825 102.119C12.1888 102.515 12.4338 102.902 12.787 102.919Z" fill="#FEF2F0"/>
<path d="M55.8194 96.1737L60.9261 64.6409C61.2783 62.4644 63.2241 60.8538 65.5133 60.8451L212.586 59.9571C215.474 59.9397 217.684 62.4122 217.235 65.1546L211.82 97.5753C211.459 99.7518 209.504 101.354 207.206 101.354H60.433C57.5715 101.354 55.3792 98.8899 55.8194 96.1737Z" fill="#FEF2F0"/>
<path d="M115.362 65.5042C115.362 64.947 115.617 64.207 116.128 64.207H160.547C161.049 64.207 161.551 64.9557 161.551 65.5042V65.6261C161.551 66.1833 161.049 66.6099 160.547 66.6099H116.119C115.617 66.6099 115.353 66.1833 115.353 65.6261V65.5042H115.362Z" fill="#FDE5E2"/>
<path d="M28.8828 66.5664C28.8828 66.0093 29.0677 65.574 29.2878 65.574H48.8165C49.0366 65.574 49.019 66.0093 49.019 66.5664V66.6883C49.019 67.2455 49.0366 67.6373 48.8165 67.6373H29.2878C29.0677 67.6373 28.8828 67.2368 28.8828 66.6883V66.5664Z" fill="#FDE5E2"/>
<path d="M165.373 65.5042C165.373 64.947 165.743 64.207 166.244 64.207H210.673C211.174 64.207 211.914 64.9557 211.914 65.5042V65.6261C211.914 66.1833 211.174 66.6099 210.673 66.6099H166.253C165.751 66.6099 165.382 66.1833 165.382 65.6261V65.5042H165.373Z" fill="#FCD7D3"/>
<path d="M65.0056 65.5042C65.0056 64.947 65.4986 64.207 66.0005 64.207H110.429C110.931 64.207 111.547 64.9557 111.547 65.5042V65.6261C111.547 66.1833 110.931 66.6099 110.429 66.6099H66.0005C65.4986 66.6099 65.0056 66.1833 65.0056 65.6261V65.5042V65.5042Z" fill="#FDE5E2"/>
<path d="M56.9203 143.537C48.2015 143.537 41.1336 136.548 41.1336 127.927C41.1336 119.306 48.2015 112.317 56.9203 112.317C65.6391 112.317 72.707 119.306 72.707 127.927C72.707 136.548 65.6391 143.537 56.9203 143.537Z" fill="#4D0D06"/>
<path d="M56.9226 140.604C49.8426 140.604 44.1031 134.928 44.1031 127.928C44.1031 120.927 49.8426 115.252 56.9226 115.252C64.0027 115.252 69.7422 120.927 69.7422 127.928C69.7422 134.928 64.0027 140.604 56.9226 140.604Z" fill="#CFE6F9"/>
<path opacity="0.58" d="M67.6942 132.594C67.8086 132.594 67.9143 132.524 67.9671 132.419C68.5746 131 68.8828 129.494 68.8828 127.936C68.8828 121.589 63.6617 116.427 57.2431 116.427C55.2532 116.427 53.2898 116.932 51.5553 117.889C51.4144 117.968 51.3616 118.142 51.4408 118.29C51.5201 118.429 51.6962 118.481 51.8458 118.403C53.4835 117.498 55.3501 117.019 57.2431 117.019C63.3359 117.019 68.3017 121.92 68.3017 127.953C68.3017 129.433 68.0112 130.861 67.43 132.211C67.3684 132.359 67.4389 132.533 67.5885 132.594C67.6149 132.585 67.659 132.594 67.6942 132.594Z" fill="white"/>
<path d="M62.6758 127.928C62.6758 131.14 60.0432 133.743 56.7943 133.743C53.5454 133.743 50.9128 131.14 50.9128 127.928C50.9128 124.715 53.5454 122.112 56.7943 122.112C60.0432 122.112 62.6758 124.724 62.6758 127.928Z" fill="#611007"/>
<path d="M26.7509 61.3779C26.5307 60.4377 25.6767 59.7412 24.6994 59.7412H11.7125C10.6031 59.7412 9.58181 60.3419 9.00951 61.2734L2.05384 72.5998L5.79582 74.3236L10.3654 65.5219C10.8409 64.5991 11.8006 64.0158 12.8483 63.9984L24.8667 63.8069C25.4654 63.7982 26.0201 63.5109 26.3899 63.0407C26.7508 62.5706 26.8917 61.9525 26.7509 61.3779Z" fill="#4D0D06"/>
<path d="M0.751722 71.9385C0.751722 70.1363 2.23091 68.665 4.06227 68.665H4.74023C6.56279 68.665 8.05078 70.1276 8.05078 71.9385V79.4778C8.05078 81.2799 6.57159 82.7512 4.74023 82.7512H4.06227C2.23971 82.7512 0.751722 81.2886 0.751722 79.4778V71.9385Z" fill="#4D0D06"/>
<path d="M4.4776 68.6731H4.84739C5.13794 68.6731 5.38448 68.6209 5.64862 68.6905C4.44239 69.0562 3.52669 70.2315 3.52669 71.7463V79.303C3.52669 80.7656 4.38074 81.9931 5.50774 82.411C5.50774 82.4371 5.52534 82.3849 5.52534 82.411C5.29642 82.4632 5.07631 82.411 4.82978 82.411H4.45999C2.63743 82.411 1.08781 81.1051 1.08781 79.2943V71.7637C1.09662 69.9529 2.64623 68.6731 4.4776 68.6731Z" fill="#FDE5E2"/>
<path d="M232.995 3.78832C241.042 8.68104 240.241 21.7312 243.948 28.4608C246.184 32.5091 251.124 32.4481 254.936 40.5969C258.749 48.7543 253.017 52.5762 256.556 58.3395C260.087 64.1028 274.896 67.4894 277.071 79.9998C278.744 89.6372 275.592 102.2 264.753 102.2C253.915 102.2 208.474 74.5412 208.474 74.5412C208.175 74.3932 224.904 86.9993 207.911 73.8273C190.918 60.6553 200.233 54.979 200.233 34.2067C200.233 13.4345 203.235 4.14526 210.27 4.08432C221.822 3.97114 224.948 -1.10439 232.995 3.78832Z" fill="#151414"/>
<path d="M265.567 158.31C265.567 158.31 268.701 132.419 268.199 121.075C267.698 109.723 266.148 69.5883 234.055 63.4681C201.962 57.3478 198.643 64.5824 194.619 70.102C157.666 133.089 150.332 78.7469 150.332 78.7469L140.154 87.2526C140.154 87.2526 150.807 140.62 192.788 106.11C192.788 106.11 191.863 110.332 199.057 120.683C206.25 131.035 206.849 158.284 206.849 158.284L265.567 158.31Z" fill="#F99746"/>
<path d="M210.146 47.2763C210.243 47.938 212.391 62.0763 213.051 64.9145C213.712 67.7526 223.547 67.3347 228.856 64.7839L223.203 46.6582L210.146 47.2763Z" fill="url(#paint1_linear_1095_68513)"/>
<path d="M196.055 19.4842C196.055 19.4842 193.22 29.2435 199.146 43.6431C205.071 58.0427 213.295 58.8175 218.208 54.8563C223.13 50.8951 229.39 43.9739 229.363 30.593C229.337 17.212 201.1 6.87808 196.055 19.4842Z" fill="url(#paint2_linear_1095_68513)"/>
<path d="M219.253 30.3588C214.278 32.5701 204.082 13.8002 196.176 23.7946C194.767 26.0233 195.736 29.7494 195.78 30.7071C195.78 30.7071 182.511 26.6501 185.989 14.8798C189.458 3.10068 201.617 -3.30687 215.837 3.2835C230.056 9.87386 237.971 16.0028 237.91 26.5283C237.848 37.0537 229.677 33.9631 229.677 33.9631C229.677 33.9631 228.084 25.0831 224.263 23.9513C220.441 22.8195 224.219 28.1388 219.253 30.3588Z" fill="#151414"/>
<path d="M224.659 32.4672C224.659 32.4672 218.892 22.5512 225.425 21.7676C231.958 20.9841 229.95 31.3615 228.885 35.1747L224.659 32.4672Z" fill="url(#paint3_linear_1095_68513)"/>
<path d="M150.805 72.8603C150.805 72.8603 150.576 68.6379 148.797 66.2264C147.01 63.8149 146.262 59.1224 144.747 60.4457C143.224 61.769 142.731 61.7603 144.192 65.0685C145.636 68.3855 148.551 82.1234 150.805 72.8603Z" fill="url(#paint4_linear_1095_68513)"/>
<path d="M142.824 93.5048C143.07 94.0097 143.528 94.3841 144.074 94.5147C144.62 94.654 145.201 94.5408 145.659 94.21L157.078 85.9829C157.518 85.6608 157.651 85.0688 157.378 84.5986L139.557 53.6405C139.478 53.5099 139.355 53.4054 139.205 53.3706C139.055 53.3271 138.897 53.3532 138.765 53.4315L128.296 59.4473C127.442 59.9435 127.107 61.0056 127.539 61.8849L142.824 93.5048Z" fill="#4D4D4F"/>
<path d="M144.489 87.6348C144.621 87.896 144.876 88.0788 145.185 88.1397C145.493 88.2007 145.818 88.1223 146.074 87.9395L153.575 82.507C154.007 82.1936 154.148 81.6451 153.892 81.2186L139.673 57.1206C139.602 56.99 139.47 56.903 139.312 56.8768C139.162 56.8507 138.995 56.8768 138.863 56.9639L131.722 61.4649C131.476 61.6216 131.379 61.9176 131.502 62.1613L144.489 87.6348Z" fill="#BDD0FB"/>
<path d="M150.534 88.2984C150.746 88.2984 150.975 88.2288 151.186 88.0808L153.731 86.3309C153.986 86.1568 154.162 85.9043 154.206 85.6518L154.25 85.3994L153.871 84.79L153.528 84.6942C153.273 84.6507 152.973 84.7203 152.718 84.9031L150.182 86.653C149.927 86.8271 149.751 87.0709 149.707 87.3321L149.663 87.5846L149.892 87.985C150.041 88.194 150.279 88.2984 150.534 88.2984ZM150.913 87.2712L150.341 87.5323L150.851 87.1841C150.86 87.1928 150.878 87.2102 150.887 87.2276C150.895 87.245 150.904 87.2624 150.913 87.2712Z" fill="white"/>
<path d="M127.243 72.1382C128.696 70.2839 128.405 61.6824 130.421 63.3278C132.438 64.9733 133.23 68.4382 134.093 69.1434C134.947 69.8399 140.098 73.4963 140.6 76.3258C140.969 78.3629 143.038 84.0653 144.165 87.0775C144.535 88.0787 144.148 89.2018 143.241 89.7677C142.325 90.3335 141.137 90.1855 140.388 89.4107C140.089 89.0973 125.79 73.9926 127.243 72.1382Z" fill="url(#paint5_linear_1095_68513)"/>
<path d="M244.92 159.23C245.07 159.23 245.202 159.117 245.211 158.961C246.769 137.84 245.431 121.238 241.011 106.716C240.967 106.56 240.8 106.473 240.641 106.525C240.483 106.568 240.395 106.734 240.447 106.891C244.85 121.342 246.179 137.884 244.63 158.926C244.621 159.082 244.744 159.222 244.903 159.239C244.911 159.23 244.911 159.23 244.92 159.23Z" fill="#D17F3A"/>
<path d="M193.1 104.595C193.267 104.595 193.391 104.465 193.391 104.308C193.382 97.5524 196.358 90.6225 202.239 83.6926C202.345 83.5707 202.327 83.3879 202.204 83.2834C202.081 83.179 201.896 83.1964 201.79 83.3183C195.821 90.3526 192.801 97.4131 192.809 104.308C192.809 104.465 192.942 104.595 193.1 104.595Z" fill="#D17F3A"/>
<rect width="0.730296" height="28.9973" transform="matrix(0.985962 0.166972 -0.169527 0.985525 113.598 68.2441)" fill="#FDE5E2"/>
<rect width="0.730296" height="28.9973" transform="matrix(0.985962 0.166972 -0.169527 0.985525 163.27 68.2441)" fill="#FDE5E2"/>
</g>
<defs>
<linearGradient id="paint0_linear_1095_68513" x1="211.421" y1="114.032" x2="237.842" y2="148.243" gradientUnits="userSpaceOnUse">
<stop stop-color="#FF928E"/>
<stop offset="1" stop-color="#FE7062"/>
</linearGradient>
<linearGradient id="paint1_linear_1095_68513" x1="225.111" y1="77.1008" x2="214.861" y2="45.1378" gradientUnits="userSpaceOnUse">
<stop stop-color="#FEBBBA"/>
<stop offset="1" stop-color="#FF928E"/>
</linearGradient>
<linearGradient id="paint2_linear_1095_68513" x1="224.987" y1="52.7301" x2="247.84" y2="88.6668" gradientUnits="userSpaceOnUse">
<stop stop-color="#FEBBBA"/>
<stop offset="1" stop-color="#FF928E"/>
</linearGradient>
<linearGradient id="paint3_linear_1095_68513" x1="239.237" y1="46.9002" x2="261.944" y2="82.6084" gradientUnits="userSpaceOnUse">
<stop stop-color="#FEBBBA"/>
<stop offset="1" stop-color="#FF928E"/>
</linearGradient>
<linearGradient id="paint4_linear_1095_68513" x1="140.734" y1="65.4597" x2="164.162" y2="75.3748" gradientUnits="userSpaceOnUse">
<stop stop-color="#FEBBBA"/>
<stop offset="1" stop-color="#FF928E"/>
</linearGradient>
<linearGradient id="paint5_linear_1095_68513" x1="123.634" y1="71.5709" x2="172.127" y2="92.0942" gradientUnits="userSpaceOnUse">
<stop stop-color="#FEBBBA"/>
<stop offset="1" stop-color="#FF928E"/>
</linearGradient>
<clipPath id="clip0_1095_68513">
<rect width="278" height="158" fill="white" transform="matrix(-1 0 0 1 278 0)"/>
</clipPath>
</defs>
</svg>
