<svg width="265" height="155" viewBox="0 0 265 155" fill="none" xmlns="http://www.w3.org/2000/svg">
<path d="M96.42 27.1218H76.375V84.0768H96.42V27.1218Z" fill="#FDE5E2"/>
<path d="M113.912 33.5801H96.4219V75.8559H113.912V33.5801Z" fill="#FDE5E2"/>
<path d="M137.889 24.9688H120.398V55.5013H137.889V24.9688Z" fill="#FDE5E2"/>
<path d="M155.572 12.2461H132.973V60.785H155.572V12.2461Z" fill="#FDE5E2"/>
<path d="M175.615 22.2305H151.246V63.5277H175.615V22.2305Z" fill="#FDE5E2"/>
<path d="M195.662 1.48242H175.617V68.6149H195.662V1.48242Z" fill="#FDE5E2"/>
<path d="M205.686 18.3145H191.34V68.6149H205.686V18.3145Z" fill="#FDE5E2"/>
<path d="M242.628 29.8633H210.398V79.3808H242.628V29.8633Z" fill="#FDE5E2"/>
<path d="M251.083 55.501H234.969V95.6239H251.083V55.501Z" fill="#FDE5E2"/>
<path d="M222.977 130.66C222.977 130.66 223.566 134.183 225.924 137.314C227.497 139.271 229.855 140.446 232.41 140.446H246.362C246.952 140.446 247.345 140.446 247.935 140.25C249.9 139.663 255.795 136.336 258.35 124.592L260.119 110.696C260.119 110.696 262.87 118.525 263.067 111.283C263.263 104.042 257.368 96.4085 256.778 96.017C255.992 95.6256 247.542 94.2555 246.952 94.0598C246.362 93.8641 237.912 99.3443 237.716 99.54C237.322 99.7357 231.82 107.76 232.016 108.152C232.213 108.543 227.103 119.308 227.103 119.308L222.977 130.66Z" fill="#151414"/>
<path d="M103.492 141.032C103.492 141.032 104.475 145.925 107.619 150.231C109.781 152.971 113.122 154.733 116.659 154.733H136.311C137.097 154.733 137.687 154.537 138.473 154.341C141.42 153.363 148.888 150.231 151.836 141.032L154.391 141.424C154.391 141.424 160.876 133.203 161.072 122.83C161.269 112.457 151.836 92.689 150.853 92.2975C149.871 91.7104 137.883 89.7531 136.901 89.5574C136.114 89.3617 124.323 96.9948 123.93 97.3863C123.341 97.7777 115.48 109.13 115.873 109.521C116.069 110.108 108.995 125.179 108.995 125.179L103.492 141.032Z" fill="#151414"/>
<path d="M22.5508 138.404C22.5508 138.404 23.2724 142.318 25.5814 145.762C27.1689 147.954 29.6223 149.363 32.2201 149.363H46.6518C47.2291 149.363 47.662 149.206 48.2393 149.05C50.404 148.267 55.8881 145.762 58.0529 138.404L59.929 138.717C59.929 138.717 64.6915 132.142 64.8358 123.844C64.9801 115.547 58.0529 99.7344 57.3313 99.4213C56.6097 98.9516 47.8063 97.3861 47.0847 97.2295C46.5075 97.073 37.8484 103.179 37.5598 103.492C37.1268 103.805 31.3541 112.885 31.6428 113.198C31.7871 113.668 26.5917 125.723 26.5917 125.723L22.5508 138.404Z" fill="#151414"/>
<path d="M95.5761 13.9039C90.1764 8.65017 83.0796 5.94824 75.9829 5.94824C68.8861 5.94824 61.7893 8.65017 56.3896 13.9039C49.6014 20.5086 46.8245 30.1155 48.9843 39.1219C49.6014 41.5236 50.6814 43.9253 51.9156 46.1769L71.8174 80.4014C73.6687 83.5536 78.4513 83.5536 80.3026 80.4014L100.05 46.1769C101.284 43.9253 102.364 41.6737 102.981 39.1219C103.444 37.0204 103.753 35.069 103.753 32.9675C103.598 25.9125 100.821 19.1577 95.5761 13.9039ZM75.9829 49.3292C66.5719 49.3292 59.0124 41.9739 59.0124 32.8174C59.0124 23.6609 66.5719 16.3056 75.9829 16.3056C85.3938 16.3056 92.9533 23.6609 92.9533 32.8174C92.9533 41.9739 85.3938 49.3292 75.9829 49.3292Z" fill="#F04935"/>
<path d="M88.9592 142.99C80.3124 142.99 72.2551 142.598 64.5908 141.815C55.1579 140.837 44.9389 140.249 35.899 139.858C20.5704 139.075 6.028 138.292 3.66976 135.552C1.70457 133.399 2.29413 122.439 4.84888 109.913C5.0454 108.543 5.43844 107.173 5.63496 105.998C7.01059 100.127 7.99319 98.5608 8.18971 98.1693L8.38623 97.9736C11.9236 94.2549 39.4363 79.1843 83.0636 75.6613H83.2602L83.4567 75.4656C83.6532 75.2699 110.773 54.5234 127.477 51.1962C135.927 49.6304 151.256 48.4561 166.781 48.4561C179.751 48.4561 203.53 49.2389 218.073 54.132C234.58 59.8079 240.476 66.4624 246.568 73.5084C248.926 76.2485 251.284 78.9886 254.429 81.7287C262.289 88.579 262.289 92.102 262.289 96.995C262.289 98.5608 262.289 100.322 262.682 102.475C263.862 110.5 263.469 117.35 262.682 119.894C262.289 121.069 260.521 123.026 258.752 124.396C258.949 120.873 258.949 114.218 258.359 109.717C256.787 97.1907 251.481 94.6463 247.354 94.6463C246.371 94.6463 245.192 94.8421 244.21 95.0378C241.065 95.8207 238.118 98.5608 235.956 103.062C232.222 110.695 230.65 122.439 230.65 131.051L154.99 140.445C155.579 136.726 156.955 125.766 154.99 115.001C153.811 108.543 151.649 103.454 148.505 99.5394C145.164 95.4292 141.233 93.2763 136.91 93.2763C127.084 93.2763 117.062 104.237 114.114 118.329C111.362 131.833 111.952 138.488 112.542 141.424C112.542 141.619 112.738 141.815 112.738 142.207C109.987 142.207 100.75 142.99 88.9592 142.99Z" fill="white"/>
<path d="M167.169 47.4775V49.4348C179.943 49.4348 203.721 50.2176 218.067 55.1107C234.378 60.5909 240.077 67.2454 246.17 74.0957C248.528 76.8358 251.083 79.5759 254.03 82.316C261.498 88.7748 261.498 92.1021 261.695 96.9951C261.695 98.5609 261.695 100.518 262.088 102.671C263.267 110.304 262.874 117.35 262.088 119.699C261.891 120.286 261.105 121.265 260.122 122.243C260.122 118.524 260.122 113.436 259.729 109.717C257.961 96.6036 252.262 93.8635 247.742 93.8635C246.563 93.8635 245.58 94.0593 244.401 94.255C240.864 95.2336 237.916 98.1694 235.558 102.867C231.627 110.891 230.252 122.243 230.252 130.463L156.753 139.662C157.343 135.161 158.325 125.179 156.557 115.393V115.197C155.378 108.738 153.019 103.258 149.875 99.3437C146.338 95.0379 142.211 92.6892 137.494 92.6892C127.079 92.6892 116.663 104.041 113.715 118.524C111.161 131.638 111.554 138.488 112.143 141.62C108.213 142.011 99.5661 142.598 89.1506 142.598C80.7002 142.598 72.4464 142.207 64.9787 141.424C55.5457 140.445 45.3267 139.858 36.2868 139.271C22.5305 138.488 6.80892 137.705 4.84373 135.357C3.07505 133.204 3.07505 123.222 5.82632 110.108C6.02284 108.738 6.41588 107.368 6.6124 106.194C8.18456 100.127 8.97063 98.7566 9.16715 98.5609C12.508 95.0379 40.4138 80.163 83.255 76.6401H83.8445L84.2376 76.2486C84.4341 76.0529 111.357 55.3064 127.865 52.1749C136.119 50.6091 151.644 49.4348 166.972 49.4348L167.169 47.4775ZM167.169 47.4775C150.858 47.4775 135.529 48.6519 127.668 50.2176C110.571 53.5449 83.255 74.6828 83.255 74.6828C40.4138 78.0101 11.9184 92.8849 7.79152 97.1908C7.595 97.3865 7.595 97.3865 7.595 97.5822C6.80892 98.5609 5.82632 101.692 4.84373 105.803C4.45069 106.977 4.25417 108.347 3.86113 109.717C1.69941 119.895 0.323779 133.204 2.87853 136.139C7.00544 140.641 38.6451 140.054 64.3891 142.794C73.036 143.773 81.4863 143.968 88.7575 143.968C103.496 143.968 114.305 142.794 114.305 142.794C114.305 142.794 114.109 142.207 113.715 141.032C113.126 138.292 112.536 131.638 115.288 118.329C118.039 104.824 127.668 94.0593 137.101 94.0593C141.032 94.0593 144.766 95.8208 148.106 99.9309C151.447 104.237 153.412 109.521 154.395 115.001C156.95 127.919 154.395 141.424 154.395 141.424L232.217 131.834C232.02 123.417 233.396 111.283 237.326 103.454C239.291 99.5395 241.65 96.7994 244.99 96.0165C245.973 95.8208 246.956 95.625 247.938 95.625C255.209 95.625 257.371 104.433 257.961 109.913C258.747 115.98 258.157 126.745 258.157 126.745C258.157 126.745 263.267 123.026 264.053 120.482C264.839 117.937 265.429 110.891 264.053 102.671C262.874 94.4507 266.018 90.732 255.406 81.3374C244.597 71.9427 241.846 61.5695 218.657 53.5449C206.276 49.0433 185.838 47.4775 167.169 47.4775Z" fill="#DBDBDB"/>
<path d="M230.837 61.1772C230.837 61.1772 243.414 69.5933 244.593 74.4863C245.772 79.1836 243.218 79.1836 234.571 79.3794C225.727 79.5751 196.839 78.205 185.048 78.4007C173.257 78.5965 168.344 79.9665 168.344 76.835C168.344 73.7034 177.973 53.5441 187.21 51.1954C196.446 48.8468 217.277 52.9569 230.837 61.1772Z" fill="#151414"/>
<path d="M178.371 51.9792C178.371 51.9792 167.563 66.854 164.615 72.3342C161.667 77.8144 148.304 75.0743 125.704 74.8786C103.104 74.6829 84.8281 74.6829 84.8281 74.6829C84.8281 74.6829 110.572 53.7407 130.224 51.9792C149.876 50.2177 178.371 51.9792 178.371 51.9792Z" fill="#151414"/>
<path d="M115.68 95.0362C115.68 95.0362 104.281 106.975 101.334 107.562C98.3858 107.954 77.3582 109.324 75.393 108.541C73.6244 107.758 71.4626 104.822 69.694 104.822C67.9253 104.822 59.2784 104.627 59.2784 104.627C59.2784 104.627 55.7411 111.673 53.5794 112.064C51.4177 112.455 18.2059 112.064 16.4372 110.498C14.6685 108.932 14.865 105.214 13.6859 105.018C12.5068 104.822 11.9172 105.409 11.9172 105.409L10.7381 106.584C10.7381 106.584 7.20078 106.779 5.03906 105.605C6.02166 101.495 7.00426 98.5592 7.79033 97.3849C7.79033 97.1891 7.98685 97.1891 7.98685 96.9934C9.55901 97.5806 11.7207 98.3635 13.8824 98.7549L16.0441 99.5378C16.0441 99.5378 18.2059 97.7763 19.1885 97.3849C20.3676 96.9934 57.3132 97.972 58.0993 98.1677C58.8854 98.3635 59.6715 99.7335 59.6715 99.7335C59.6715 99.7335 69.694 100.321 74.607 98.7549C79.7165 97.1891 102.513 93.079 104.674 93.079C106.836 92.8833 115.68 95.0362 115.68 95.0362Z" fill="#151414"/>
<path d="M133.56 149.841C141.809 149.841 148.496 140.29 148.496 128.507C148.496 116.725 141.809 107.174 133.56 107.174C125.312 107.174 118.625 116.725 118.625 128.507C118.625 140.29 125.312 149.841 133.56 149.841Z" fill="#B6B6B6"/>
<path d="M247.934 135.16C251.841 135.16 255.009 128.412 255.009 120.089C255.009 111.766 251.841 105.019 247.934 105.019C244.027 105.019 240.859 111.766 240.859 120.089C240.859 128.412 244.027 135.16 247.934 135.16Z" fill="#B6B6B6"/>
<path d="M114.5 142.599C114.5 142.599 90.3282 145.34 64.3876 142.599C38.6436 139.859 7.00392 140.642 2.87702 135.945C1.6979 134.771 1.30486 131.443 1.50138 127.529C1.50138 125.572 1.6979 123.419 1.89442 121.266C2.28746 117.351 3.07353 113.241 3.66309 109.522C5.43177 110.501 8.37956 112.458 9.7552 115.198C11.1308 117.743 11.7204 120.091 12.31 122.44C12.703 123.81 12.8995 125.18 13.2925 126.746C13.6856 128.312 14.2751 129.486 14.8647 130.66C15.8473 132.422 17.4195 133.596 19.7777 133.988C23.7081 134.379 52.793 136.532 55.9373 135.358C59.0816 134.183 63.6015 119.113 67.1389 115.198C70.4797 111.284 82.4674 110.697 88.9525 110.697C88.9525 110.697 72.2484 113.633 69.8902 116.177C67.5319 118.721 62.8155 132.618 62.8155 132.618L70.8727 132.422C70.8727 132.422 72.0519 126.55 75.1962 123.81C75.1962 123.81 70.0867 122.244 70.8727 122.244C71.4623 122.244 92.4899 121.266 92.4899 121.266C92.4899 121.266 87.3804 120.091 80.3057 119.504C73.231 118.917 71.8553 118.721 71.8553 118.721C71.8553 118.721 93.0795 118.33 95.0447 119.896C97.0098 121.266 99.9576 132.226 101.726 135.945C103.102 138.685 110.177 140.251 113.517 140.838C114.304 142.208 114.5 142.599 114.5 142.599Z" fill="#DBDBDB"/>
<path d="M232.212 131.834L154.391 141.424C154.391 141.424 156.945 127.919 154.587 115.002C154.784 115.197 154.784 115.197 154.784 115.393C156.945 118.329 157.535 122.439 157.731 125.962C157.731 128.702 157.928 131.834 160.286 133.008C161.858 133.791 163.627 133.399 165.396 133.008C172.667 131.051 179.742 128.115 187.209 127.136C191.729 126.549 196.446 126.549 201.162 126.549C204.896 126.549 208.63 126.549 212.167 126.745C215.508 126.745 218.849 126.745 221.797 125.375C226.317 123.222 228.675 118.133 230.64 113.436C232.212 109.717 234.178 105.803 237.322 103.454C233.391 111.283 232.016 123.418 232.212 131.834Z" fill="#DBDBDB"/>
<path d="M163.623 82.9021C163.623 82.9021 131.197 84.0765 115.672 89.3609C115.672 89.3609 134.538 80.5535 163.623 82.9021Z" fill="white"/>
<path d="M55.9365 124.003L17.8118 122.829C16.4361 122.829 15.4535 124.003 15.65 125.373C15.8466 126.744 16.4361 128.505 17.2222 129.875C18.0083 131.245 19.3839 132.028 20.9561 132.028L51.2201 133.79C53.1853 133.985 54.9539 133.007 55.74 131.245C56.3296 130.071 57.1156 128.701 57.7052 126.939C58.2948 125.569 57.3122 124.199 55.9365 124.003Z" fill="#B6B6B6"/>
<path d="M16.2378 130.855C15.8447 130.855 15.6482 130.855 15.2552 130.855C9.75262 131.051 4.25007 128.898 1.69531 127.528C1.69531 125.571 1.89183 123.418 2.08835 121.265C5.6257 122.048 10.5387 122.439 12.5039 122.635C13.0934 122.635 13.4865 122.83 13.4865 122.83L16.2378 130.855Z" fill="#151414"/>
<path d="M73.0391 132.617C73.0391 132.617 75.3973 124.984 78.1486 124.005C80.8998 123.027 96.2284 124.005 96.2284 124.005L98.5866 131.443C98.7831 131.443 84.0442 133.008 73.0391 132.617Z" fill="#151414"/>
</svg>
