<svg width="162" height="120" viewBox="0 0 162 120" fill="none" xmlns="http://www.w3.org/2000/svg">
<path d="M1.18505 73.2964L82.6163 73.2964V32.0132L1.18505 32.0132V73.2964Z" fill="white"/>
<path d="M43.2634 78.7559C41.3501 73.6151 42.3458 67.0082 40.8816 61.6133C35.1808 59.6977 28.1329 59.639 22.5298 62.4147C19.1132 64.0957 21.5927 66.4609 22.276 69.647C22.8226 72.1491 24.4235 78.0913 23.2521 80.3197L43.2634 78.7559Z" fill="#383C3D"/>
<path d="M78.1904 57.0979H55.563V71.719H78.1904V57.0979Z" fill="#666C6D"/>
<path d="M78.19 57.0979H56.6949V71.719H78.19V57.0979Z" fill="#383C3D"/>
<path d="M68.8584 61.3396H65.7542V73.8887H68.8584V61.3396Z" fill="#666C6D"/>
<path d="M68.859 61.3396H66.731V73.8887H68.859V61.3396Z" fill="#383C3D"/>
<path d="M43.554 56.9223L35.9985 51.5078C35.9595 51.801 35.6666 52.1138 35.53 52.4265C35.3152 52.8956 35.1981 53.4625 35.1005 53.9707C34.8662 55.2413 35.4128 56.4141 35.6862 57.6456C36.2914 60.343 36.428 62.6105 34.7881 64.8975C37.1113 66.9304 41.0355 66.5394 43.0659 64.1742C43.8469 63.2751 44.2764 61.4181 44.2959 60.2453C44.3154 59.0725 43.515 58.056 43.554 56.9223Z" fill="#151414"/>
<path d="M48.358 99.6514C45.9762 100.609 33.4618 100.257 32.8176 98.7131C32.5833 98.1463 33.6571 86.6331 36.156 82.2546L38.4403 81.9418L47.0695 80.7886C47.1086 80.9254 48.358 90.8553 48.5923 96.2502C48.6899 98.1854 48.6509 99.5341 48.358 99.6514Z" fill="#F9D570"/>
<path d="M48.358 99.6512C45.9762 100.609 33.4618 100.257 32.8176 98.7129C32.5833 98.1461 33.6571 86.6329 36.156 82.2544L38.4403 81.9417C37.9912 83.525 37.0932 85.4406 36.9565 86.9261C36.7613 89.3304 37.2493 92.7707 38.655 94.7644C40.1583 96.8755 42.6963 97.9311 45.2343 97.4424C46.0934 97.2665 47.4405 96.856 48.6119 96.2305C48.6899 98.1852 48.6509 99.5339 48.358 99.6512Z" fill="#EAB839"/>
<path d="M46.8346 74.1622C46.4637 75.5892 47.8498 85.519 47.8498 85.519C47.8498 85.519 41.4657 86.9459 35.0231 84.6589C35.1207 83.0365 37.2683 80.1045 37.0926 78.4039C37.0535 77.9543 36.6826 76.9183 36.1945 75.6283C34.8279 72.0707 32.446 66.5389 32.7584 65.6593C33.3051 64.1737 36.0188 63.7633 37.3854 63.3723L44.1014 63.9392C44.7066 64.2519 45.7413 64.3106 46.2099 64.7211C46.698 65.1511 47.9279 70.1551 48.0255 70.6438C48.0646 70.9174 48.0646 71.1911 48.006 71.4452C47.7913 72.3835 47.0689 73.2631 46.8346 74.1622Z" fill="#F43B3B"/>
<path d="M39.7476 57.4496C39.728 57.4301 39.7083 57.4105 39.6691 57.3909L39.7476 57.4496Z" fill="#FFA471"/>
<path d="M39.5522 56.0815L39.4933 56.0227C39.513 56.0423 39.5326 56.0619 39.5522 56.0815Z" fill="#FFA471"/>
<path d="M42.1095 62.7473C42.1485 63.1578 43.0661 63.6269 43.6909 63.9201C42.7928 66.8913 40.7429 67.5168 37.0334 63.4119C37.502 63.1578 38.4782 62.8255 38.8101 62.0436C39.0834 61.379 39.2981 60.558 39.3762 59.6198C39.3762 59.6002 39.3762 59.5807 39.3762 59.5611C39.4348 58.877 40.04 56.7073 39.5519 56.0818L42.3633 59.1898L42.988 59.8934C42.6171 60.8512 42.0509 61.7895 42.1095 62.7473Z" fill="#FFA471"/>
<path d="M42.1083 62.7465C41.874 62.8247 41.6202 62.8833 41.3273 62.9029C40.4683 62.942 39.5117 62.6097 38.7893 62.0428C39.0626 61.3782 39.2774 60.5573 39.3555 59.619L42.3425 59.189L42.9673 59.8927C42.6159 60.8505 42.0497 61.7887 42.1083 62.7465Z" fill="#E07F4F"/>
<path d="M44.4718 51.3121C44.0032 50.5888 43.1637 50.1393 42.3828 49.9438L41.758 49.8265C40.5866 49.1815 38.9076 50.4325 38.4 51.4294C37.7948 52.6022 37.2872 55.5342 37.3848 56.8829C37.5801 59.6195 40.6452 62.2193 42.9685 61.7306C44.2765 61.4569 45.7212 57.6257 45.1941 56.3161C44.1399 53.6382 45.7212 53.2277 44.4718 51.3121Z" fill="#FFA471"/>
<path d="M41.0552 56.6284C40.9381 56.6479 40.899 56.3352 40.7819 56.3352C40.4304 56.3547 40.079 56.2961 39.7276 56.1984C39.6105 56.1593 39.4348 56.472 39.3176 56.4329C39.3176 56.4329 39.5324 55.7488 39.6495 55.5338C39.9033 55.0256 40.8795 54.9669 41.0357 55.9834C41.0747 56.2375 41.0552 56.4329 41.0552 56.6284Z" fill="#E07F4F"/>
<path d="M41.0552 56.6277C40.9381 56.6473 40.8209 56.6668 40.7038 56.6668C40.3524 56.6864 40.0009 56.6277 39.6495 56.53C39.5324 56.4909 39.4348 56.4714 39.3176 56.4323C39.3176 56.4323 39.4348 56.2563 39.6105 56.0609C39.8448 55.8459 40.7428 55.7677 40.8404 55.924C40.9771 56.1391 41.0552 56.4323 41.0552 56.6277Z" fill="white"/>
<path d="M40.8407 55.9443C40.8602 56.042 40.8602 56.1593 40.8407 56.2766C40.8212 56.4329 40.7626 56.5698 40.6845 56.687C40.3331 56.7066 39.9817 56.648 39.6303 56.5502C39.5717 56.4134 39.5522 56.257 39.5912 56.0811C39.845 55.8465 40.4307 55.1624 40.8407 55.9443Z" fill="#2B2221"/>
<path d="M40.5462 56.3933C40.5268 56.491 40.4683 56.5692 40.4294 56.5692C40.371 56.5692 40.332 56.4715 40.3515 56.3737C40.371 56.276 40.4294 56.1978 40.4683 56.1978C40.5268 56.1783 40.5657 56.276 40.5462 56.3933Z" fill="white"/>
<path d="M45.0967 56.6091C44.9991 56.6482 44.921 56.3354 44.8039 56.355C44.4915 56.4331 44.1791 56.4136 43.8472 56.3745C43.7496 56.355 43.6129 56.6873 43.5153 56.6677C43.5153 56.6677 43.6129 55.964 43.691 55.7295C43.8472 55.2017 44.7062 54.9867 44.9991 55.9836C45.0577 56.2181 45.0772 56.4136 45.0967 56.6091Z" fill="#E07F4F"/>
<path d="M45.0967 56.609C44.9991 56.6481 44.8819 56.6872 44.7843 56.7068C44.472 56.7654 44.1596 56.7654 43.8277 56.7263C43.7301 56.7068 43.6129 56.6872 43.5153 56.6677C43.5153 56.6677 43.5934 56.4722 43.7301 56.2767C43.7301 56.2767 43.7301 56.2767 43.7301 56.2572C43.9058 56.0031 44.7062 55.8076 44.8039 55.9444C44.9796 56.1399 45.0772 56.4136 45.0967 56.609Z" fill="white"/>
<path d="M44.8229 55.9449C44.862 56.0426 44.8815 56.1599 44.8815 56.2772C44.8815 56.4335 44.862 56.5899 44.8034 56.7072C44.491 56.7658 44.1787 56.7658 43.8468 56.7267C43.7882 56.5899 43.7491 56.4335 43.7491 56.2772C43.7491 56.2772 43.7491 56.2772 43.7491 56.2576C43.9053 56.0035 44.3348 55.2412 44.8229 55.9449Z" fill="#2B2221"/>
<path d="M44.6274 56.4335C44.6274 56.5312 44.5884 56.629 44.53 56.629C44.4716 56.629 44.4326 56.5508 44.4326 56.4335C44.4326 56.3358 44.4716 56.238 44.53 56.238C44.5689 56.238 44.6274 56.3358 44.6274 56.4335Z" fill="white"/>
<path d="M45.1556 54.5962C44.9994 54.303 44.648 54.1076 44.3552 54.0098C44.199 53.9512 43.4571 53.8534 43.4571 54.2248C43.4571 54.5571 44.1404 54.4008 44.2966 54.4203C44.6285 54.4398 44.8823 54.5376 45.1751 54.694L45.1556 54.5962Z" fill="#632118"/>
<path d="M39.2402 54.6739C39.4745 54.3221 39.9626 54.0875 40.353 53.9898C40.5678 53.9311 41.544 53.7943 41.5244 54.2243C41.5049 54.6153 40.6264 54.4394 40.3921 54.4589C39.9431 54.4784 39.5916 54.5957 39.2207 54.7716L39.2402 54.6739Z" fill="#632118"/>
<path d="M42.3834 57.7432C42.4615 57.9386 42.7544 58.095 42.9301 58.1341C43.1643 58.1732 43.3986 57.9777 43.5353 57.7432C43.2229 57.88 42.6567 57.9582 42.3834 57.7432Z" fill="#E07F4F"/>
<path d="M43.3788 59.2679L41.9146 59.1897C41.9536 59.5806 42.3441 59.8934 42.7345 59.9129C42.8907 59.9129 43.2031 59.9129 43.3397 59.7761C43.4569 59.6197 43.2421 59.3852 43.3788 59.2679Z" fill="#D81D1D"/>
<path d="M43.4955 59.1115C43.4369 59.0724 43.3784 58.9355 43.3198 58.8964C43.1636 58.8183 42.9488 59.0137 42.7536 58.9942C42.5193 58.9551 42.3827 58.7205 42.1679 58.8964C41.7775 59.2092 41.797 59.1115 41.4456 58.9551C41.4456 58.9551 42.3241 59.9911 43.7688 59.2287C43.886 59.1896 43.5736 59.1896 43.4955 59.1115Z" fill="#D81D1D"/>
<path d="M43.2807 51.3118C43.066 52.4846 39.7665 51.7614 39.0051 52.6019C38.4585 53.1883 38.5366 54.107 38.3413 54.8498C38.1852 55.4362 38.1656 57.8014 37.5214 57.8796L36.7795 56.7459C36.4866 56.4722 35.9205 54.5175 35.8619 53.9311C35.7448 52.8756 35.8229 51.7614 36.2719 50.8622C36.5647 50.2954 36.9942 49.8067 37.658 49.4744C38.7318 48.9466 42.0703 48.8489 42.9879 50.3736C43.2417 50.7645 43.3198 51.0773 43.2807 51.3118Z" fill="#151414"/>
<path d="M45.4476 50.1783C45.1352 49.3769 44.1395 48.8296 43.3586 48.6732C42.6362 48.5364 41.621 48.7123 40.5472 49.1228L39.3759 49.5724C39.7468 49.8851 42.031 49.6896 42.48 50.0024C42.8705 50.276 43.2805 50.7256 43.5148 51.1557C43.6319 51.3707 43.671 51.6052 43.8271 51.8007C44.0029 52.0353 44.2567 52.1526 44.4714 52.348C44.9595 52.7976 44.9009 53.2081 44.8814 53.7945C44.8814 53.8727 44.8619 53.9509 44.8619 54.0291C45.428 52.954 45.9552 51.4684 45.4476 50.1783Z" fill="#151414"/>
<path d="M43.2807 51.3122C43.066 52.485 39.7665 51.7618 39.0051 52.6023C38.4585 53.1887 38.5366 54.1074 38.3413 54.8502C38.1852 55.4366 38.1656 57.8018 37.5214 57.88L36.7795 56.7462C36.4866 56.4726 35.9205 54.5179 35.8619 53.9315C35.7448 52.8759 35.8229 51.7618 36.2719 50.8626C36.2328 51.2145 36.2719 51.5858 36.5062 51.7813C36.8966 52.1136 37.2285 51.3317 37.4628 51.1167C37.7752 50.8235 38.3804 50.5108 38.8294 50.5694C38.3218 50.8626 37.619 51.5468 37.8728 52.2114C38.068 52.1723 38.2047 51.9377 38.3804 51.8204C38.5756 51.664 38.8099 51.5663 39.0442 51.5077C39.5323 51.3904 40.0594 51.3904 40.5475 51.449C41.4846 51.5663 42.4022 51.7031 43.2807 51.3122Z" fill="#151414"/>
<path d="M36.3887 57.626C36.6425 58.2906 37.1891 58.7011 37.6186 58.5447C38.0481 58.3883 38.2043 57.7237 37.9505 57.0591C37.6967 56.3945 37.1501 55.984 36.7206 56.1404C36.291 56.2968 36.1349 56.9614 36.3887 57.626Z" fill="#FFA471"/>
<path d="M37.4421 56.7264C37.4421 56.7264 37.4421 56.7264 37.4226 56.7068C37.4226 56.7068 37.4226 56.6873 37.4031 56.6677C37.4031 56.6482 37.3836 56.6482 37.3836 56.6286C37.364 56.6091 37.3445 56.57 37.3055 56.5309C37.2664 56.4918 37.2274 56.4527 37.1493 56.4332C37.0907 56.4136 37.0126 56.3941 36.9345 56.4136C36.8955 56.4136 36.8564 56.4332 36.8174 56.4527C36.7783 56.4723 36.7393 56.4918 36.7002 56.5309C36.6612 56.57 36.6417 56.5895 36.6222 56.6286C36.6026 56.6677 36.5831 56.7068 36.5636 56.7459C36.5441 56.785 36.5441 56.8241 36.5245 56.8827V56.9218V56.9414V57C36.5245 57.0978 36.5245 57.1759 36.5441 57.2541C36.5441 57.2932 36.5636 57.3323 36.5636 57.3714C36.5636 57.391 36.5831 57.4105 36.5831 57.4301C36.5831 57.4496 36.6026 57.4692 36.6026 57.4887C36.6222 57.5669 36.6612 57.6255 36.7002 57.6842C36.7198 57.7233 36.7393 57.7428 36.7588 57.7819C36.7783 57.8014 36.7979 57.8405 36.8174 57.8601C36.8369 57.8796 36.8564 57.8992 36.876 57.9383C36.8955 57.9578 36.915 57.9774 36.9345 57.9969C36.9736 58.036 36.9931 58.0556 37.0321 58.0947C37.0517 58.1142 37.0907 58.1337 37.0907 58.1533C37.0907 58.1337 37.0712 58.1142 37.0517 58.0751C37.0321 58.036 37.0126 58.0165 36.9931 57.9578C36.9931 57.9383 36.9736 57.9187 36.954 57.8992C36.9345 57.8796 36.9345 57.8405 36.915 57.821C36.8955 57.8014 36.8955 57.7624 36.876 57.7428C36.8564 57.7233 36.8564 57.6842 36.8369 57.6451C36.8174 57.5864 36.7979 57.5082 36.7783 57.4496C36.7588 57.391 36.7393 57.3128 36.7393 57.2346C36.7393 57.1564 36.7198 57.0978 36.7198 57.0196V56.9609V56.9414V56.9218C36.7198 56.8827 36.7393 56.8632 36.7393 56.8241C36.7588 56.7655 36.7979 56.7068 36.8174 56.6677C36.8369 56.6482 36.8564 56.6286 36.876 56.6091C36.8955 56.5895 36.915 56.5895 36.954 56.57C37.0126 56.5504 37.0517 56.5504 37.1102 56.57C37.1688 56.57 37.2078 56.5895 37.2469 56.6091C37.2859 56.6286 37.325 56.6482 37.3445 56.6677C37.364 56.6873 37.4031 56.7068 37.4031 56.7068C37.4226 56.7264 37.4421 56.7264 37.4421 56.7264Z" fill="#E07F4F"/>
<path d="M46.0719 55.2412C45.7986 54.8698 45.252 54.6353 44.6077 54.6353C43.9634 54.6353 43.4168 54.8698 43.1434 55.2412C43.1239 55.2803 43.1044 55.3194 43.1044 55.3585C42.9677 55.2608 42.8116 55.1826 42.6554 55.1826C42.382 55.163 42.2259 55.3194 42.0892 55.4367C42.0892 55.4171 42.0697 55.3976 42.0501 55.378C41.7378 55.0066 41.074 54.7916 40.3126 54.7916C39.5512 54.7916 38.8874 55.0262 38.575 55.378C38.4969 55.4758 38.5165 55.5931 38.5165 55.7103C38.5165 55.7494 38.5165 55.769 38.5165 55.8081C38.5165 56.9809 39.3169 57.9387 40.3126 57.9387C41.2887 57.9387 42.1087 56.9809 42.1087 55.8081C42.1087 55.769 42.1087 55.7494 42.1087 55.7103V55.6908C42.1478 55.6517 42.1868 55.6321 42.2259 55.5931C42.343 55.4758 42.4406 55.378 42.6358 55.3976C42.8116 55.3976 43.0068 55.5149 43.1044 55.6712C43.1044 56.8441 43.7877 57.7823 44.6077 57.7823C45.4277 57.7823 46.111 56.8245 46.111 55.6517C46.111 55.6126 46.111 55.5931 46.111 55.554C46.111 55.4562 46.1305 55.3389 46.0719 55.2412ZM41.894 55.6908C41.894 55.7299 41.894 55.769 41.894 55.8081C41.894 56.8636 41.1911 57.7237 40.3126 57.7237C39.4536 57.7237 38.7312 56.8636 38.7312 55.8081C38.7312 55.769 38.7312 55.7299 38.7312 55.6908C38.7312 55.6321 38.7117 55.5344 38.7312 55.5149C39.0045 55.2021 39.6098 55.0066 40.3126 55.0066C41.0154 55.0066 41.6011 55.2021 41.894 55.5149C41.9135 55.5344 41.894 55.6517 41.894 55.6908ZM45.8962 55.554C45.8962 55.5931 45.8962 55.6321 45.8962 55.6712C45.8962 56.7268 45.3105 57.5868 44.6077 57.5868C43.9049 57.5868 43.3192 56.7463 43.3192 55.6908L43.3387 55.6712C43.3387 55.6517 43.3192 55.6321 43.2996 55.6126C43.2996 55.5931 43.2996 55.5735 43.2996 55.554C43.2996 55.4953 43.2801 55.3976 43.2996 55.378C43.5339 55.0653 44.022 54.8698 44.5882 54.8698C45.1543 54.8698 45.6424 55.0653 45.8767 55.378C45.9157 55.3976 45.8962 55.4953 45.8962 55.554Z" fill="#FFF6F5"/>
<path d="M47.8513 85.5191C47.8513 85.5191 41.4672 86.946 35.0245 84.6591C35.1221 83.0367 37.2697 80.1046 37.094 78.404C37.0549 77.9544 36.684 76.9185 36.1959 75.6284C36.1959 75.042 36.1373 74.436 36.0592 73.7909C35.7664 71.6603 35.2197 69.5688 34.8293 67.4968C36.235 69.8229 38.2263 72.4227 40.94 72.9309C43.1852 73.3414 45.9185 72.6572 47.9879 71.4649C47.7732 72.3836 47.0703 73.2632 46.8361 74.1623C46.4651 75.5893 47.8513 85.5191 47.8513 85.5191Z" fill="#D32929"/>
<path d="M31.7634 90.0147L32.9543 89.9561C32.9543 89.917 32.9739 89.8779 32.9739 89.8388C33.4229 87.0827 34.7114 84.4243 35.0433 81.7268C35.0824 81.4922 35.1019 81.199 35.1409 80.8667C35.1605 80.6713 35.1995 80.4563 35.219 80.2217C35.7462 75.9409 36.859 67.2621 36.7223 65.6397C36.7223 65.6397 33.2862 64.545 32.8958 65.4051C31.9391 67.5162 32.6225 73.0871 32.681 74.729C32.7591 77.1528 32.1734 78.1693 31.783 79.8503C31.6463 80.4367 31.5292 81.0818 31.4706 81.9027C31.3925 83.2906 31.7049 89.4283 31.7634 90.0147Z" fill="#FFA471"/>
<path d="M32.9741 89.8187C33.4231 87.0625 34.7116 84.4041 35.0435 81.7067C35.0826 81.4721 35.1021 81.1789 35.1411 80.8466C35.1607 80.6511 35.1997 80.4361 35.2192 80.2015C34.7116 80.1625 33.9502 79.8302 33.4426 79.8497C34.165 82.7622 33.384 85.7333 33.0522 88.5481C33.0131 88.9977 32.9741 89.3886 32.9741 89.8187Z" fill="#E07F4F"/>
<path d="M31.7828 79.8503C32.5247 80.2021 33.2471 80.554 34.0671 80.7495C34.4575 80.8472 34.8089 80.8863 35.1408 80.8472C35.6289 76.8596 37.0151 66.617 36.8784 64.9164C36.8784 64.9164 33.2861 64.545 32.8957 65.4051C31.939 67.5162 32.6223 73.0871 32.6809 74.729C32.7785 77.1528 32.1928 78.1693 31.7828 79.8503Z" fill="#F43B3B"/>
<path d="M32.056 93.1621C32.1537 93.4553 32.4075 93.7485 32.5441 94.0222C32.6222 94.1785 32.9151 94.9018 32.837 95.0777C32.6808 95.41 31.8999 94.1199 31.8022 93.9635L32.056 93.1621Z" fill="#E07F4F"/>
<path d="M31.9967 92.3804C32.0943 92.6736 32.3481 92.9668 32.4847 93.2404C32.5628 93.3968 32.8557 94.12 32.7776 94.296C32.6214 94.6283 31.8405 93.3382 31.7429 93.1818L31.9967 92.3804Z" fill="#E07F4F"/>
<path d="M31.9203 91.9106C32.0179 92.2038 32.2717 92.4971 32.4084 92.7707C32.4865 92.9271 32.7793 93.6503 32.7012 93.8262C32.545 94.1585 31.7641 92.8684 31.6665 92.7121L31.9203 91.9106Z" fill="#E07F4F"/>
<path d="M31.3533 92.3604C31.3728 91.8131 31.4509 91.2267 31.5095 90.6794C31.5681 90.1711 31.8219 89.3502 31.8609 88.7051L33.0713 88.6465C32.9347 89.4088 33.3251 90.8357 33.5204 91.4026C33.6961 91.9108 33.7742 93.846 33.5008 93.8264C33.0713 93.8264 33.2275 92.8882 33.0713 92.4581C32.7785 91.559 32.5637 92.2236 32.4661 92.5559C32.349 92.9664 32.2123 93.5528 32.2123 93.9828C32.2123 94.3542 32.6809 95.6247 32.2904 95.6247C32.1537 95.6443 31.6852 94.3151 31.5485 93.8655C31.3728 93.3378 31.3143 92.9664 31.3533 92.3604Z" fill="#FFA471"/>
<path d="M81.5084 13H1.18994V34.0325H81.5084V13Z" fill="#DBDBDB"/>
<path d="M26.5312 13H24.0322V82.0985H26.5312V13Z" fill="#DBDBDB"/>
<path d="M25.2231 13H24.0322V82.0985H25.2231V13Z" fill="#C8C8C8"/>
<path d="M2.49897 13H0V82.0985H2.49897V13Z" fill="#DBDBDB"/>
<path d="M1.19092 13H0V82.0985H1.19092V13Z" fill="#C8C8C8"/>
<path d="M82.6214 13H80.1224V82.0985H82.6214V13Z" fill="#DBDBDB"/>
<path d="M81.3134 13H80.1224V82.0985H81.3134V13Z" fill="#C8C8C8"/>
<path d="M83.0708 79.3228H0.0581665V118.808H83.0708V79.3228Z" fill="#DBDBDB"/>
<path d="M83.0712 79.3228H27.9767V118.808H83.0712V79.3228Z" fill="#EDEDED"/>
<path opacity="0.5" d="M83.0708 85.1873H0.0581665V90.0349H83.0708V85.1873Z" fill="#C8C8C8"/>
<path opacity="0.5" d="M46.3696 84.7959H45.7839V118.788H46.3696V84.7959Z" fill="#B6B6B6"/>
<path opacity="0.5" d="M70.7738 84.7959H70.1881V118.788H70.7738V84.7959Z" fill="#B6B6B6"/>
<path opacity="0.5" d="M13.7845 84.7959H13.1988V118.788H13.7845V84.7959Z" fill="#B6B6B6"/>
<path d="M85.0431 72.2471H0V85.2849H85.0431V72.2471Z" fill="#DBDBDB"/>
<path d="M85.0427 72.3062H25.7117V85.344H85.0427V72.3062Z" fill="#EDEDED"/>
<path opacity="0.4" d="M80.4355 33.7983V72.1886H57.3981C57.6715 71.4653 57.8276 70.6639 57.8276 69.8234C57.8276 66.2854 55.153 63.4315 51.8535 63.4315C48.5541 63.4315 45.8599 66.2854 45.8599 69.8234C45.8599 70.6639 46.0161 71.4458 46.2894 72.1886H25.8486V33.7983H80.4355Z" fill="#EFF7FD"/>
<path opacity="0.4" d="M24.3842 33.7983H2.12775V72.1886H24.3842V33.7983Z" fill="#EFF7FD"/>
<path d="M26.7273 35.1665H25.1264V37.6294H26.7273V35.1665Z" fill="#C8C8C8"/>
<path d="M26.7273 68.2595H25.1264V70.7224H26.7273V68.2595Z" fill="#C8C8C8"/>
<path d="M2.81135 35.1665H1.21045V37.6294H2.81135V35.1665Z" fill="#C8C8C8"/>
<path d="M2.81135 68.2595H1.21045V70.7224H2.81135V68.2595Z" fill="#C8C8C8"/>
<path d="M81.0604 35.1665H79.4595V37.6294H81.0604V35.1665Z" fill="#5B5D6A"/>
<path d="M81.0604 68.2595H79.4595V70.7224H81.0604V68.2595Z" fill="#5B5D6A"/>
<path d="M79.8492 14.6421H27.8784V31.5502H79.8492V14.6421Z" fill="#EDEDED"/>
<path opacity="0.4" d="M49.8041 34.0322L35.1031 72.2074H40.6673L55.3682 34.0322H49.8041Z" fill="#DFEEFB"/>
<path opacity="0.4" d="M57.5741 34.0322L42.8732 72.2074H46.2702C45.9969 71.4842 45.8407 70.6828 45.8407 69.8422C45.8407 66.3042 48.5154 63.4504 51.8343 63.4504C55.1337 63.4504 57.8084 66.3042 57.8084 69.8422C57.8084 70.6828 57.6522 71.4646 57.3789 72.2074H63.9973L78.6982 34.0322H57.5741Z" fill="#DFEEFB"/>
<path opacity="0.49" d="M158.997 118.5C158.997 119.326 127.434 120 88.4973 120C49.5608 120 17.9973 119.326 17.9973 118.5C17.9973 117.674 49.5608 117 88.4973 117C127.434 117 158.997 117.674 158.997 118.5Z" fill="#EDEDED"/>
<path d="M99.3993 63.8411C102.035 64.1734 105.432 63.3133 107.853 62.7464C109.083 62.4532 110.879 62.5314 111.953 63.2351C112.948 63.8997 114.276 64.2906 113.944 65.5025C113.241 68.1414 101.059 67.4768 99.087 66.2649L99.3993 63.8411Z" fill="#DE7F50"/>
<path d="M106.585 55.5535C105.043 47.4415 101.216 52.2696 100.884 53.0515C100.201 54.6739 100.064 56.7263 100.064 58.4856C100.064 59.287 100.045 60.0884 100.103 60.8703C100.182 61.7304 100.201 62.1017 100.962 62.2972C102.017 62.5709 105.668 62.5122 106.312 61.6131C106.702 61.0853 106.78 56.5895 106.585 55.5535Z" fill="#2F91E7"/>
<path d="M119.117 115.465H116.872C116.423 111.282 114.763 107.568 114.471 106.375C113.104 101.078 114.041 101.919 112.557 97.7943C112.421 97.4425 112.284 97.032 112.108 96.5824C111.093 93.9436 107.462 74.8071 107.501 72.696L115.447 73.6148C116.911 74.6116 116.521 80.3975 116.521 82.3718C116.521 85.2843 116.403 88.4118 116.56 91.5002C116.813 96.602 119.273 98.0289 119.996 102.134C120.113 102.837 120.191 103.639 120.191 104.538C120.191 105.652 120.23 112.572 119.117 115.465Z" fill="#FDA271"/>
<path d="M111.914 104.518C111.894 104.636 111.894 104.753 111.875 104.89C111.738 105.965 110.898 112.845 109.415 115.562L107.189 115.269C107.267 111.047 106.115 107.157 105.959 105.945C105.256 100.335 106.154 101.547 105.041 96.7583C104.983 96.5042 104.924 96.2305 104.846 95.9569C104.514 94.6277 103.968 89.9559 103.499 85.2256H109.844C109.708 87.493 109.61 89.8582 109.473 91.5197C109.024 97.3838 112.519 98.7521 111.914 104.518Z" fill="#FDA271"/>
<path d="M109.532 46.3071C109.962 48.1445 112.246 48.7114 111.894 49.5323C110.723 52.3276 105.315 52.8162 104.319 52.2689C103.773 51.9757 104.456 51.057 104.807 49.7278C105.081 48.6918 104.651 47.4604 104.358 47.0694L108.38 41.479C108.888 42.2609 109.102 44.4306 109.532 46.3071Z" fill="#FDA271"/>
<path d="M108.889 45.2125C108.576 48.8091 105.589 49.7865 104.945 49.5714C104.789 48.4964 104.672 47.4604 104.398 47.0694L108.01 41.7917C108.479 42.5736 108.459 43.336 108.889 45.2125Z" fill="#DE7F50"/>
<path d="M109.103 43.3173C109.064 43.9428 108.986 44.7637 108.752 45.702C108.4 47.1485 106.799 48.7513 105.199 49.0054C104.398 49.1227 103.168 48.634 102.973 47.8326C102.543 46.1711 102.407 46.2689 101.723 44.9006C101.665 44.7637 101.606 44.6269 101.548 44.451C101.45 44.1773 101.353 43.8646 101.274 43.5323V43.5127C101.235 43.3564 101.196 43.2 101.157 43.0241C101.138 42.9459 101.138 42.8872 101.118 42.8091C101.099 42.7113 101.079 42.594 101.06 42.4963C101.04 42.4377 101.04 42.3595 101.021 42.2813C101.001 42.1249 100.962 41.9881 100.943 41.8317C100.923 41.7535 100.923 41.6558 100.903 41.5776C100.884 41.4994 100.884 41.4212 100.864 41.343C100.747 40.5025 100.65 39.7011 100.591 39.1342C100.591 39.0756 100.591 39.0365 100.572 38.9778C100.572 38.8801 100.552 38.8019 100.552 38.7237C100.533 38.411 100.513 38.2155 100.513 38.2155C100.298 35.6549 103.812 34.5993 105.589 35.8503C106.194 36.2804 106.78 36.8472 107.307 37.4727C107.444 37.6291 107.561 37.805 107.678 37.9614C107.854 38.2155 108.01 38.4696 108.147 38.7237C108.166 38.7433 108.166 38.7628 108.186 38.7824C108.361 39.1147 108.498 39.4665 108.576 39.7988C108.596 39.8379 108.596 39.877 108.615 39.9356C108.654 40.092 108.693 40.2289 108.732 40.3852C108.771 40.5221 108.791 40.6393 108.83 40.7762C108.849 40.8544 108.869 40.913 108.869 40.9716C109.006 41.5971 109.103 42.0858 109.142 42.5549C109.181 42.8677 109.123 43.0241 109.103 43.3173Z" fill="#FDA271"/>
<path d="M103.364 45.2517C103.403 44.7826 103.403 43.5316 103.227 43.1016C103.208 43.8248 102.993 44.939 102.954 45.5645C103.657 45.7599 104.34 45.5254 104.73 44.9781C104.477 45.2517 103.735 45.3495 103.364 45.2517Z" fill="#DE7F50"/>
<path d="M105.12 41.6555C104.515 41.9096 104.769 42.9456 104.769 42.9456C105.315 42.8283 106.213 42.8088 106.545 42.2028C106.291 41.6164 105.628 41.4601 105.12 41.6555Z" fill="#DE7F50"/>
<path d="M106.546 42.2223C106.448 42.3787 106.331 42.4959 106.195 42.6132C106.097 42.6914 105.98 42.7696 105.863 42.8282C105.609 42.9455 105.336 43.0433 105.101 43.1019C105.082 43.1019 105.062 43.1019 105.062 43.1215C104.965 43.141 104.886 43.1605 104.808 43.1801C104.808 43.1801 104.711 42.7892 104.828 42.4569C104.867 42.32 104.945 42.2027 105.082 42.105C105.121 42.0855 105.16 42.0659 105.199 42.0464C105.238 42.0268 105.277 42.0073 105.316 42.0073C105.55 41.9291 105.785 41.9095 105.999 41.9682C106.214 41.9877 106.409 42.0855 106.546 42.2223Z" fill="white"/>
<path d="M106.194 42.6132C106.096 42.6914 105.979 42.7696 105.862 42.8282C105.608 42.9455 105.335 43.0433 105.1 43.1019C105.081 43.1019 105.061 43.1019 105.061 43.1215C104.983 43.0237 104.925 42.926 104.886 42.7892C104.847 42.6719 104.827 42.5741 104.827 42.4569C104.866 42.32 104.944 42.2027 105.081 42.105C105.12 42.0855 105.159 42.0659 105.198 42.0464C105.237 42.0268 105.276 42.0073 105.315 42.0073C105.55 41.9291 105.784 41.9095 105.999 41.9682C106.057 42.0464 106.096 42.1441 106.135 42.2614C106.194 42.3591 106.213 42.4764 106.194 42.6132Z" fill="#312C2B"/>
<path d="M105.334 42.6333C105.373 42.7701 105.354 42.9069 105.276 42.946C105.198 42.9655 105.12 42.8678 105.081 42.731C105.042 42.5942 105.061 42.4573 105.139 42.4182C105.217 42.3987 105.295 42.4769 105.334 42.6333Z" fill="white"/>
<path d="M102.603 43.4727C102.583 43.4727 102.583 43.4727 102.603 43.4727C102.466 43.5314 102.329 43.59 102.173 43.6486C101.9 43.7659 101.607 43.8832 101.334 43.8832C101.314 43.8832 101.314 43.8832 101.295 43.8832C101.256 43.6877 101.217 43.4923 101.178 43.2772C101.158 43.1991 101.139 43.1013 101.139 43.0231C101.314 42.7886 101.529 42.6127 101.763 42.5345C101.822 42.5149 101.88 42.4954 101.939 42.4954C102.037 42.4758 102.134 42.4954 102.212 42.554C102.544 42.7495 102.603 43.4727 102.603 43.4727Z" fill="#DE7F50"/>
<path d="M102.602 43.6681C102.544 43.6877 102.505 43.7072 102.446 43.7268C102.407 43.7463 102.368 43.7463 102.349 43.7659C102.29 43.7854 102.212 43.805 102.153 43.8245C101.978 43.8636 101.802 43.9027 101.626 43.9223C101.568 43.9223 101.49 43.9223 101.431 43.9223C101.411 43.9223 101.392 43.9223 101.353 43.9223C101.333 43.9223 101.333 43.9223 101.314 43.9223C101.314 43.9027 101.314 43.9027 101.314 43.8832C101.275 43.6877 101.236 43.4922 101.197 43.2772C101.275 43.1795 101.372 43.1208 101.49 43.0426C101.529 43.0231 101.548 43.0035 101.587 42.984C101.665 42.9449 101.743 42.9058 101.821 42.8863C101.841 42.8863 101.861 42.8667 101.88 42.8667C101.919 42.8667 101.958 42.8472 101.997 42.8472C102.036 42.8472 102.075 42.8472 102.114 42.8472C102.173 42.8472 102.212 42.8667 102.251 42.8863C102.466 42.984 102.563 43.2772 102.602 43.4727C102.602 43.59 102.602 43.6681 102.602 43.6681Z" fill="white"/>
<path d="M102.447 43.7275C102.408 43.7471 102.369 43.7471 102.349 43.7666C102.291 43.7862 102.213 43.8057 102.154 43.8253C101.978 43.8644 101.803 43.9034 101.627 43.923C101.568 43.923 101.49 43.923 101.432 43.923C101.412 43.8644 101.393 43.8057 101.393 43.7471C101.354 43.493 101.393 43.2193 101.471 43.0238C101.51 43.0043 101.529 42.9847 101.568 42.9652C101.646 42.9261 101.724 42.887 101.803 42.8675C101.822 42.8675 101.842 42.8479 101.861 42.8479C101.9 42.8479 101.939 42.8284 101.978 42.8284C102.017 42.8284 102.056 42.8284 102.095 42.8284C102.154 42.8284 102.193 42.8479 102.232 42.8675C102.33 42.9847 102.408 43.1411 102.447 43.3561C102.466 43.493 102.466 43.6102 102.447 43.7275Z" fill="#312C2B"/>
<path d="M101.548 43.6685C101.587 43.8053 101.646 43.9031 101.704 43.8835C101.763 43.864 101.782 43.7271 101.763 43.5903C101.724 43.4535 101.665 43.3557 101.607 43.3753C101.529 43.3948 101.509 43.5317 101.548 43.6685Z" fill="white"/>
<path d="M106.214 40.463C105.823 40.4435 103.715 40.7562 103.715 40.7562L104.047 41.7922C104.379 41.6749 104.652 41.4208 105.023 41.3817C105.023 41.2449 105.023 41.1276 105.023 40.9908C105.062 41.0494 105.14 41.2645 105.199 41.284C105.277 41.3036 105.472 41.2058 105.569 41.1863C105.823 41.1472 106.077 41.069 106.331 41.0494C106.253 40.8735 106.272 40.6585 106.214 40.463Z" fill="#312C2B"/>
<path d="M102.543 42.4767C102.406 42.4767 102.25 42.4376 102.094 42.418C101.957 42.3985 101.821 42.3789 101.703 42.4376C101.703 42.4376 101.703 42.418 101.684 42.418C101.664 42.3594 101.625 42.3203 101.606 42.2617C101.586 42.203 101.547 42.1444 101.528 42.0857C101.528 42.1248 101.528 42.1835 101.528 42.2617C101.528 42.3398 101.528 42.3985 101.528 42.418C101.489 42.4571 101.293 42.4376 101.235 42.4571C101.176 42.4767 101.098 42.4767 101.04 42.4962C101.02 42.4376 101.02 42.3594 101.001 42.2812C100.864 42.3008 100.727 42.3203 100.571 42.3399C100.532 42.2226 100.493 42.1053 100.454 42.0076C100.532 41.9685 100.708 41.9098 100.922 41.8316C101.196 41.7339 101.528 41.6362 101.801 41.558C102.094 41.4798 102.309 41.4211 102.309 41.4211L102.348 41.6362L102.484 42.2812L102.543 42.4767Z" fill="#312C2B"/>
<path d="M108.342 38.1764L105.726 37.4141C105.824 38.0005 106 38.4891 106.351 38.9778C106.703 39.4469 106.507 40.5807 106.859 40.913C107.64 41.6362 107.718 42.9849 108.792 43.4541C108.85 42.1444 108.987 39.2515 108.342 38.1764Z" fill="#312C2B"/>
<path d="M109.181 40.5022C108.576 40.5022 108.263 41.2645 108.166 41.6946C108.166 41.6946 108.205 42.6719 108.283 42.9651C108.42 43.4342 109.103 44.0597 109.591 43.6884C110.001 43.3756 110.059 42.5351 110.04 42.066C110.079 41.5382 109.903 40.5217 109.181 40.5022Z" fill="#FDA271"/>
<path d="M109.727 41.4012C109.552 40.3457 108.478 40.9712 108.576 41.7726C109.356 41.5771 108.673 42.7695 108.673 42.7695C109.649 43.3168 110.001 41.5967 109.025 41.4012C109.161 41.0689 109.552 41.0689 109.727 41.4012Z" fill="#DE7F50"/>
<path d="M105.785 45.448C105.746 46.6404 104.652 47.129 103.852 46.9336C103.637 46.8749 103.461 46.7772 103.325 46.6404C103.325 46.6404 103.52 46.6599 103.832 46.6208C104.359 46.5622 105.218 46.3081 105.785 45.448Z" fill="#DE7F50"/>
<path d="M105.784 45.4473C105.745 46.6396 104.651 47.1283 103.851 46.9328C103.831 46.8156 103.831 46.7178 103.812 46.6201C104.358 46.5614 105.217 46.3073 105.784 45.4473Z" fill="white"/>
<path d="M105.023 47.2454L104.555 47.3431C104.437 47.6754 104.555 48.2423 104.847 48.4768C104.769 48.0077 104.75 47.6558 105.023 47.2454Z" fill="#DE7F50"/>
<path opacity="0.5" d="M108.205 38.7427C108.205 38.7622 108.205 38.7818 108.205 38.8209C108.01 40.8928 106.643 43.3362 104.633 44.2354C103.813 44.6068 102.622 44.7045 101.567 44.4699C101.47 44.1963 101.372 43.8835 101.294 43.5512V43.5317C101.255 43.3753 101.216 43.2189 101.177 43.043C101.157 42.9648 101.157 42.9062 101.138 42.828C101.118 42.7303 101.099 42.613 101.079 42.5152C101.06 42.4566 101.06 42.3784 101.04 42.3002C101.021 42.1438 100.982 42.007 100.962 41.8506C100.943 41.7725 100.943 41.6747 100.923 41.5965C100.904 41.5183 100.904 41.4402 100.884 41.362L108.186 38.7427H108.205Z" fill="#DE7F50"/>
<path d="M108.029 39.0165C107.834 39.1142 107.658 39.2315 107.483 39.3683C107.307 39.5052 107.131 39.6615 106.956 39.8179C106.702 40.0525 106.467 40.3261 106.253 40.5802C106.097 40.7757 105.94 40.9712 105.804 41.1666C105.706 41.3035 105.628 41.4208 105.53 41.5576C105.472 41.6553 105.394 41.7531 105.335 41.8508C105.316 41.8703 105.316 41.8899 105.296 41.9094C105.179 42.0854 105.081 42.2417 104.984 42.359C104.945 42.4177 104.906 42.4567 104.867 42.5154C104.828 42.5545 104.808 42.5936 104.769 42.6131C104.769 42.6131 104.749 42.6131 104.749 42.6327C104.73 42.6522 104.73 42.6522 104.71 42.6522C104.671 42.6718 104.613 42.6718 104.554 42.6718C104.164 42.6913 103.422 42.4567 102.485 42.3395C102.211 42.3004 101.899 42.2808 101.587 42.3004C101.567 42.3004 101.548 42.3004 101.528 42.3004C101.352 42.3004 101.177 42.3199 101.001 42.3395C100.864 42.359 100.728 42.3786 100.571 42.3981C99.8101 42.5349 98.9901 42.8672 98.2092 43.5123C98.1116 43.5905 98.053 43.5905 98.0335 43.5514C97.8187 43.2777 99.0292 40.4434 100.103 39.2706C100.142 39.2315 100.181 39.1924 100.201 39.1533L100.259 39.0947L100.532 38.7624L100.591 38.6842C101.001 38.391 101.294 38.3128 101.665 38.2541C101.938 38.2151 102.231 38.176 102.602 38.0782C103.11 37.9414 104.73 38.2932 106.077 38.606C106.155 38.6255 106.233 38.6451 106.311 38.6646C107.092 38.8015 107.737 38.9578 108.029 39.0165Z" fill="#48A43F"/>
<path d="M108.868 40.0916L108.146 39.642C105.94 38.5865 103.695 38.3324 101.449 38.8797C101 38.997 100.571 39.1338 100.122 39.2902C100.122 39.212 100.141 39.1338 100.141 39.0752C100.141 39.0361 100.141 38.997 100.161 38.9774C100.337 37.316 100.493 35.6936 101.508 35.2831C103.206 34.5989 104.515 34.4817 106.174 34.7553C106.779 34.853 107.248 35.1462 107.619 35.5567C108.693 36.7491 108.888 38.8406 108.868 40.0916Z" fill="#48A43F"/>
<path d="M108.869 40.091L108.147 39.6415C104.809 37.9409 100.552 38.9573 100.142 39.0746C100.142 39.0355 100.142 38.9964 100.162 38.9769C100.709 38.5664 101.314 38.1754 101.997 37.9409C102.993 37.589 104.164 37.6477 105.199 37.6672C105.785 37.6868 106.917 37.7649 107.425 37.4326C107.854 37.159 107.717 36.1035 107.639 35.5757C108.694 36.7485 108.889 38.84 108.869 40.091Z" fill="#3E8E37"/>
<path d="M108.03 39.0169C107.835 39.1146 107.659 39.2319 107.483 39.3687C107.308 39.5056 107.132 39.6619 106.956 39.8183C106.702 40.0529 106.468 40.3265 106.253 40.5806C106.097 40.7761 105.941 40.9716 105.804 41.167C105.707 41.3039 105.629 41.4212 105.531 41.558C105.472 41.6557 105.394 41.7535 105.336 41.8512C105.316 41.8707 105.316 41.8903 105.297 41.9098C105.179 42.0858 105.082 42.2421 104.984 42.3594C104.945 42.4181 104.906 42.4571 104.867 42.5158C104.828 42.5549 104.809 42.594 104.77 42.6135C104.77 42.6135 104.75 42.6135 104.75 42.6331C104.73 42.6526 104.73 42.6526 104.711 42.6526C104.672 42.6722 104.613 42.6722 104.555 42.6722C104.164 42.6917 103.422 42.4571 102.485 42.3399C102.212 42.3008 101.9 42.2812 101.587 42.3008C101.568 42.3008 101.548 42.3008 101.529 42.3008C101.353 42.3008 101.177 42.3203 101.002 42.3399C100.865 42.3594 100.728 42.379 100.572 42.3985C99.8106 42.5353 98.9906 42.8676 98.2097 43.5127C98.1121 43.5909 98.0535 43.5909 98.034 43.5518C98.6197 42.7894 99.5959 42.1639 100.299 41.8316C100.494 41.7339 100.709 41.6753 100.884 41.6362C101.197 41.5775 101.49 41.5775 101.802 41.6166C101.978 41.6362 102.134 41.6557 102.329 41.6948H102.349C102.934 41.7926 103.461 41.8707 103.95 41.5775C104.067 41.5189 104.164 41.4407 104.281 41.3234C104.477 41.128 104.633 40.8738 104.789 40.6197C105.023 40.2092 105.219 39.7792 105.511 39.4078C105.648 39.2319 105.804 39.0755 105.98 38.9387C105.999 38.9387 105.999 38.9192 106.019 38.9192C106.078 38.8605 106.156 38.8019 106.214 38.7628C106.253 38.7237 106.312 38.6846 106.351 38.665C107.093 38.8019 107.737 38.9582 108.03 39.0169Z" fill="#3E8E37"/>
<path d="M116.659 75.1584C116.717 76.0185 115.097 76.9958 112.695 77.5041C109.415 77.9732 105.862 77.465 103.988 76.9176C103.91 76.8785 103.812 76.859 103.734 76.8395C103.148 75.5689 102.641 65.815 102.055 63.0198C102.016 62.8047 101.958 62.6288 101.919 62.492C101.372 61.0846 100.571 59.5599 100.571 58.0353C100.571 56.4715 100.825 54.3214 101.196 52.8358C101.528 51.5262 104.984 49.1023 104.984 49.1023C105.042 50.5293 104.788 53.2658 107.697 52.0148C109.103 51.4089 110.099 48.3205 109.864 46.9326C111.192 47.4995 112.032 47.8122 113.437 48.2227C115.292 48.7896 117.596 48.5941 117.908 51.3893C118.006 52.9726 116.366 54.5559 116.151 56.6865C116.151 56.7452 116.131 56.8234 116.131 56.882C115.78 62.0033 116.229 69.4116 116.659 75.1584Z" fill="#2F91E7"/>
<path d="M112.597 74.5142C112.421 79.2836 109.747 91.3441 109.747 91.3441C109.747 91.3441 105.159 92.3605 102.933 89.8781C102.933 89.8194 102.933 89.7608 102.933 89.7021C102.816 86.7505 103.675 78.0522 103.695 74.9637C103.695 74.4164 103.675 74.045 103.616 73.9082L112.597 74.5142Z" fill="#151414"/>
<path d="M110.528 88.5875C108.302 89.0761 105.12 88.4897 102.914 87.6101L102.406 89.9948C104.261 91.4609 107.482 91.9104 109.922 91.6954C110.176 90.7963 110.567 89.4671 110.528 88.5875Z" fill="#18313D"/>
<path d="M109.492 76.4293C108.497 76.3315 107.677 75.7647 106.701 75.9406C107.325 77.2893 106.896 78.7945 107.696 79.42L111.64 78.1494C111.777 77.993 111.933 77.6803 111.991 77.5044C110.976 77.6216 110.527 76.527 109.492 76.4293Z" fill="#18313D"/>
<path d="M116.268 74.5923L108.166 76.1365C108.751 76.8988 109.161 88.5097 110.02 91.6568C112.715 93.6115 116.99 91.6568 116.99 91.6568C116.99 91.6568 117.107 79.3031 116.268 74.5923Z" fill="#151414"/>
<path d="M117.206 88.8032C115.137 89.761 111.896 89.8588 109.573 89.4483V91.8916C111.701 92.9472 114.941 92.6931 117.284 91.9698C117.343 91.0316 117.44 89.6437 117.206 88.8032Z" fill="#274756"/>
<path d="M110.567 78.5424C110.61 78.5213 110.61 78.5213 110.567 78.5424V78.5424Z" fill="#0D2129"/>
<path d="M108.478 80.183C109.376 79.5966 110.293 79.1665 111.035 78.2087C110.118 78.7561 107.033 79.2252 106.076 79.4988L108.165 81.6295C108.654 81.2972 109.883 80.9649 110.625 80.9062C110.137 80.6521 109.024 80.2221 108.478 80.183Z" fill="#151414"/>
<path d="M117.205 84.1708C117.127 83.3694 116.932 82.6462 116.873 81.8447C115.955 82.7634 113.105 82.8807 111.856 82.783L112.578 87.2006C113.203 87.2397 114.042 87.2592 114.823 87.181C115.448 87.1224 116.971 87.0247 117.322 86.3992C117.556 86.0082 117.244 84.6595 117.205 84.1708Z" fill="#0D2129"/>
<path d="M117.459 83.604C117.42 83.174 117.244 82.8026 117.225 82.3921C116.268 82.9199 113.418 83.0958 112.188 83.0958L112.715 85.4219C113.32 85.4219 114.179 85.3828 114.94 85.3241C115.565 85.2655 117.088 85.1482 117.459 84.8159C117.732 84.5618 117.498 83.8581 117.459 83.604Z" fill="#18313D"/>
<path d="M112.695 77.5052C109.415 77.9743 105.862 77.4661 103.987 76.9187C103.89 76.8992 103.812 76.8601 103.734 76.8406C103.148 75.57 102.64 65.8161 102.055 63.0209C104.144 64.1546 104.476 63.7246 106.994 63.9787C110.469 64.311 112.597 64.1741 113.593 60.6166C113.964 59.3069 113.847 57.1177 113.73 55.6908C113.612 54.2052 113.847 52.7196 114.218 51.3318L116.131 56.6877C116.131 56.7463 116.111 56.8245 116.111 56.8831C115.799 61.9849 116.248 69.4127 116.678 75.14C116.717 76.0196 115.077 76.9969 112.695 77.5052Z" fill="#2F91E7"/>
<path d="M104.145 76.7641C104.166 76.7641 104.166 76.7641 104.145 76.7641C104.124 76.7219 104.124 76.7219 104.145 76.7641Z" fill="#18313D"/>
<path d="M97.8767 63.6457C98.0719 63.3134 98.1891 63.0202 98.6381 63.0788C99.0481 63.1375 99.4776 63.4502 99.7704 63.6848C100.161 64.0171 100.161 64.2321 100.2 64.7208C100.219 64.9358 100.317 65.8349 100.571 65.8349L100.942 66.1086C100.961 66.265 100.883 66.4213 100.786 66.5191C100.551 66.7732 100.044 66.7927 99.9462 67.1641C99.8485 67.4964 100.298 67.7896 99.9462 68.0046C99.6533 68.1806 99.1848 68.2978 98.8529 68.2197C98.6771 68.1806 97.9548 67.9265 98.0524 67.6723C97.7596 67.6723 97.4862 67.731 97.3105 67.4182C97.1153 67.0468 97.4081 67.0468 97.6034 66.9296C97.3105 66.9491 96.9982 66.8905 96.7444 66.7536C95.0849 66.0109 97.3886 64.4275 97.8767 63.6457Z" fill="#DE7F50"/>
<path d="M97.8772 66.8901L98.4629 67.0661C98.5996 67.3788 99.0096 67.4961 99.2634 67.6916C99.6929 68.0434 99.3219 68.3171 98.8924 68.3171C98.131 68.2975 97.272 67.672 97.8772 66.8901Z" fill="#FDA271"/>
<path d="M98.5226 67.0668L98.463 67.047C98.5226 67.0273 98.5027 67.0668 98.5226 67.0668Z" fill="#FC9584"/>
<path d="M96.2364 65.5027L96.822 65.6786C96.9587 65.9914 97.3687 66.1086 97.6225 66.3041C98.052 66.656 97.6811 66.9296 97.2516 66.9296C96.4902 66.9101 95.6311 66.2846 96.2364 65.5027Z" fill="#FDA271"/>
<path d="M96.8817 65.6791L96.8221 65.6593C96.8817 65.6396 96.8618 65.6791 96.8817 65.6791Z" fill="#FC9584"/>
<path d="M96.2953 65.1699C96.5881 64.8181 97.2324 64.1535 97.6424 63.9384C98.2476 63.6061 98.3062 64.1535 98.15 64.5835C98.0719 64.7985 97.1348 66.0886 97.291 66.1668L96.2172 66.2841C95.8853 65.8736 95.9243 65.5999 96.2953 65.1699Z" fill="#FDA271"/>
<path d="M96.7054 66.3435L97.2911 66.5194C97.4278 66.8322 97.8377 66.9495 98.0915 67.1449C98.5211 67.4968 98.1501 67.7704 97.7206 67.7704C96.9592 67.7509 96.1002 67.1254 96.7054 66.3435Z" fill="#FDA271"/>
<path d="M97.3507 66.5202L97.2911 66.5004C97.3507 66.4806 97.3309 66.5202 97.3507 66.5202Z" fill="#FC9584"/>
<path d="M95.2216 65.5027C95.3192 65.6199 96.7639 65.835 98.4234 66.05C100.864 66.3627 103.812 66.695 103.812 66.695L104.3 65.8936L98.4429 65.2486L95.3387 64.9163C95.3387 64.9163 94.9482 65.2095 95.2216 65.5027Z" fill="#343537"/>
<path d="M95.2216 65.5027C95.3192 65.62 96.7639 65.835 98.4234 66.05C98.3648 65.8545 98.3453 65.659 98.3843 65.4245C98.4038 65.3658 98.4038 65.3072 98.4429 65.2486L95.3387 64.9163C95.3387 64.9163 94.9482 65.2095 95.2216 65.5027Z" fill="#7D7D7D"/>
<path d="M98.0139 66.5387C98.053 66.6364 98.1115 66.7342 98.1896 66.8319C98.2091 66.8515 98.2287 66.8905 98.2677 66.9101C98.5996 67.2815 99.2048 67.6333 99.771 67.6529C99.771 67.6724 99.7905 67.692 99.7905 67.7115C99.8296 67.7702 99.9077 67.8483 100.005 67.907C100.22 68.0438 100.552 68.1611 100.942 68.2588C101.099 68.2979 101.274 68.337 101.47 68.3566C101.919 68.4152 102.426 68.4348 102.953 68.3957C103.558 68.337 104.359 68.1025 104.945 67.9265C105.628 67.692 107.346 67.7702 108.049 67.6529C108.342 66.8124 108.4 66.05 107.912 65.2877L105.706 64.9749C105.374 65.014 104.652 64.2713 104.32 63.9976C103.715 63.4698 103.519 63.0398 102.719 63.2744C101.919 63.4894 101.606 63.3135 101.411 64.0758C101.216 64.7599 100.435 65.1118 100.786 65.3463C101.235 65.4832 101.626 65.3268 101.879 64.9554C102.25 64.4276 102.797 64.2908 102.719 64.7208C102.641 65.1313 101.333 65.9327 100.962 66.0891C100.552 66.2455 97.7796 65.8741 98.0139 66.5387Z" fill="#FDA271"/>
<path d="M98.1696 66.8519C98.1891 66.8715 98.2086 66.9106 98.2477 66.9301C98.9895 67.1842 100.239 67.2233 101.196 67.067C101.391 67.0279 101.742 66.9888 102.25 66.676C101.137 67.0279 99.2043 67.0279 98.1696 66.8519Z" fill="#DE7F50"/>
<path d="M99.7909 67.7309C99.8299 67.7896 99.908 67.8678 100.006 67.9264C100.396 67.9264 100.767 67.8873 101.118 67.8287C101.314 67.7896 101.665 67.7505 102.173 67.4377C101.528 67.6332 100.63 67.7309 99.7909 67.7309Z" fill="#DE7F50"/>
<path d="M100.942 68.2782C101.098 68.3173 101.274 68.3564 101.469 68.376C101.664 68.3173 101.899 68.2392 102.192 68.0632C101.821 68.161 101.391 68.2392 100.942 68.2782Z" fill="#DE7F50"/>
<path d="M98.4617 63.1767C98.7546 63.2744 99.0279 63.7631 99.3403 64.0172C99.5941 64.2322 100.082 64.6818 99.7698 64.975C99.1646 65.5614 98.0908 64.2713 97.7589 63.9781C97.466 63.7435 97.8565 62.9616 98.4617 63.1767Z" fill="#FDA271"/>
<path d="M120.27 66.6756C120.192 66.9688 119.957 67.2425 119.606 67.4575C116.912 69.1581 107.15 68.513 105.413 67.438L105.705 65.0141C108.341 65.3464 111.738 64.4864 114.159 63.9195C114.881 63.7436 115.799 63.7045 116.638 63.8413C116.677 63.8413 116.717 63.8609 116.756 63.8609C117.029 63.9 117.283 63.9781 117.537 64.0563C117.79 64.1541 118.044 64.2713 118.259 64.4082C119.274 65.0728 120.602 65.4637 120.27 66.6756Z" fill="#FDA271"/>
<path d="M121.03 64.3499C120.991 65.2686 120.659 67.1842 119.625 67.4579C119.41 67.5165 119.176 67.497 118.902 67.3993C117.653 66.9301 117.204 65.0536 116.813 63.9004C116.813 63.8808 116.794 63.8613 116.794 63.8417C116.794 63.8222 116.774 63.8026 116.774 63.7831C116.56 63.2162 116.384 62.6494 116.189 62.0629C115.857 61.0074 115.544 59.9323 115.232 58.8572C114.978 57.9581 114.744 57.0394 114.51 56.1402C114.334 55.4561 114.471 54.4005 113.963 53.9119L118.98 54.6547C119.703 57.8213 121.187 60.8706 121.03 64.3499Z" fill="#FDA271"/>
<path d="M118.221 64.897C117.772 64.4865 117.283 64.1737 116.815 63.9196C116.776 63.9001 116.717 63.861 116.678 63.8414C116.717 63.8414 116.756 63.861 116.795 63.861C116.795 63.8414 116.776 63.8219 116.776 63.8023C116.561 63.2355 116.385 62.6686 116.19 62.0822L117.674 59.4238C117.44 60.6357 117.42 62.4732 117.381 63.9392C117.44 63.9783 117.498 64.0174 117.557 64.0565C117.85 64.291 118.025 64.6038 118.221 64.897Z" fill="#DE7F50"/>
<path d="M119.723 53.1097C115.565 45.115 113.554 51.4092 113.495 52.3474C113.398 54.2826 113.964 56.4718 114.53 58.3288C114.784 59.1693 114.921 61.3976 115.252 62.1991C115.623 63.0787 121.656 61.8668 121.949 60.7135C122.144 60.0098 120.25 54.1262 119.723 53.1097Z" fill="#2F91E7"/>
<path d="M119.118 115.465H116.873C116.424 111.282 114.765 107.568 114.472 106.376C113.105 101.078 114.042 101.919 112.558 97.7946C113.593 98.5374 115.077 98.0682 116.19 97.3059C115.741 98.3223 114.277 98.7524 113.242 99.026C114.101 100.473 114.452 102.095 116.307 102.74C117.576 103.17 118.884 102.838 120.016 102.154C120.133 102.857 120.212 103.659 120.212 104.558C120.192 105.652 120.231 112.572 119.118 115.465Z" fill="#FDA271"/>
<path d="M111.914 104.518C111.894 104.636 111.894 104.753 111.875 104.89C111.738 105.965 110.899 112.845 109.415 115.562L107.189 115.269C107.267 111.047 106.116 107.157 105.959 105.945C105.257 100.335 106.155 101.547 105.042 96.7583C105.666 97.0906 106.506 97.1297 107.131 96.9733C106.936 97.4229 106.35 97.6575 105.862 97.6184C105.764 99.5535 105.666 102.427 107.17 103.815C108.4 104.968 110.391 105.203 111.914 104.518Z" fill="#FDA271"/>
<path d="M110.078 117.244C110.078 117.694 110.059 118.085 110 118.3C109.766 119.101 102.562 119.062 102.074 118.593C101.976 118.495 101.898 118.417 101.839 118.319C101.332 117.537 102.855 117.244 103.362 117.107C104.182 116.912 105.08 116.443 105.783 115.934C107.462 114.683 106.681 113.413 107.638 113.882C108.399 114.253 109.258 115.211 109.941 114.312C109.941 114.332 110.078 116.013 110.078 117.244Z" fill="#0D2129"/>
<path d="M110.078 117.244C110.078 117.693 110.058 118.084 110 118.299C109.765 119.101 102.561 119.062 102.073 118.593C101.976 118.495 101.897 118.417 101.839 118.319C102.425 118.514 103.186 118.475 103.752 118.475C104.533 118.475 105.295 118.475 106.036 118.339C106.759 118.202 107.462 117.967 108.184 117.733C108.653 117.596 109.473 117.244 110.078 117.244Z" fill="white"/>
<path d="M119.568 117.517C119.568 117.967 119.548 118.358 119.49 118.573C119.255 119.374 112.051 119.335 111.563 118.866C111.466 118.768 111.387 118.69 111.329 118.593C110.821 117.811 112.344 117.517 112.852 117.381C113.672 117.185 114.57 116.716 115.273 116.208C116.952 114.957 116.171 113.686 117.127 114.155C117.889 114.527 118.748 115.485 119.431 114.585C119.431 114.605 119.587 116.286 119.568 117.517Z" fill="#0D2129"/>
<path d="M119.567 117.517C119.567 117.967 119.548 118.358 119.489 118.573C119.255 119.374 112.051 119.335 111.563 118.866C111.465 118.768 111.387 118.69 111.329 118.592C111.914 118.788 112.676 118.749 113.242 118.749C114.023 118.749 114.784 118.749 115.526 118.612C116.248 118.475 116.951 118.241 117.674 118.006C118.142 117.869 118.962 117.517 119.567 117.517Z" fill="white"/>
<path d="M136.909 116.75C138.907 116.75 140.097 115.652 141.644 115.604V107.94H137.741L137.694 113.837L134.719 115.915C134.696 115.939 134.91 116.75 136.909 116.75Z" fill="#FA9D6A"/>
<path d="M137.695 112.549L141.621 113.933V107.964H137.742L137.695 112.549Z" fill="#222222"/>
<path d="M130.984 117.801H141.621V115.628C140.074 115.652 138.908 116.775 136.886 116.775C134.887 116.775 134.696 115.963 134.696 115.963C134.696 115.963 130.984 116.679 130.984 117.801Z" fill="#659CEE"/>
<path d="M151.52 115.103C152.329 114.244 155.041 108.871 155.041 108.871L153.4 104.812L149.402 107.033L151.306 110.519C151.187 112.596 150.853 114.053 150.021 115.008C150.044 115.008 150.711 115.963 151.52 115.103Z" fill="#FA9D6A"/>
<path d="M146.737 117.801H151.9L157.326 110.567L155.065 108.895C155.065 108.895 152.352 114.268 151.543 115.127C150.734 115.987 150.068 115.008 150.068 115.008C150.068 115.008 149.211 115.843 148.474 116.154C146.475 117.037 146.737 117.801 146.737 117.801Z" fill="#659CEE"/>
<path d="M150.901 109.755L154.755 108.131L153.399 104.812L149.401 107.033L150.901 109.755Z" fill="#222222"/>
<path d="M133.577 60.3058C135.885 54.3365 140.811 55.4348 139.24 50.946C137.67 46.4571 138.383 42.6129 140.287 42.0398L140.168 41.4668C139.906 40.2252 140.787 39.0791 142.191 38.8164C141.929 37.6942 142.928 36.763 144.428 36.7869C145.379 35.7124 147.164 34.9006 150.305 37.1689C154.112 39.9148 150.543 43.162 151.4 46.8152C152.256 50.4684 154.398 55.2199 148.044 57.0107C141.691 58.8015 149.091 64.4842 140.834 67.3734C133.767 69.8327 133.696 66.4899 134.433 65.0334C133.315 64.3171 132.577 62.9322 133.577 60.3058Z" fill="#222222"/>
<path d="M149.02 41.7058C149.02 41.7058 149.639 45.0725 148.687 50.0628C147.687 55.268 140.739 53.0474 142.119 47.4841C143.523 41.9207 149.02 41.7058 149.02 41.7058Z" fill="#222222"/>
<path d="M134.028 58.6818C133.695 58.5385 132.505 57.7506 132.433 57.2014C132.314 55.8165 132.338 55.5061 131.125 54.7182C130.649 54.4078 130.173 54.0735 129.673 53.5959C129.673 53.5959 129.031 53.7631 129.768 54.6227C130.506 55.5061 130.744 55.5539 130.03 55.6494C129.483 55.721 128.959 55.7449 128.436 55.7449C128.15 55.7449 127.96 56.0553 128.126 56.3179C128.126 56.3179 128.126 56.3418 128.15 56.3418C128.15 56.3418 127.865 56.7238 128.269 57.082C128.269 57.082 127.984 57.5834 128.531 57.8699C128.531 57.8699 128.317 58.5146 129.316 58.7056C129.959 58.8489 130.101 58.8011 130.696 59.016C131.196 59.1832 132.433 59.9711 132.886 60.4487L134.028 58.6818Z" fill="#FA9D6A"/>
<path d="M129.316 55.7927C130.339 55.9599 130.672 56.2941 130.316 56.3897C129.84 56.509 128.15 56.318 128.15 56.318C128.15 56.318 130.506 56.5329 130.458 56.8911C130.435 57.2492 128.269 57.0582 128.269 57.0582C128.269 57.0582 130.268 57.106 130.244 57.5596C130.22 58.0133 128.507 57.8461 128.507 57.8461C128.507 57.8461 130.006 57.9178 130.006 58.3476" stroke="#222222" stroke-width="0.2" stroke-miterlimit="10" stroke-linecap="round" stroke-linejoin="round"/>
<path d="M130.696 55.7927C130.696 55.7927 130.648 56.9149 131.243 57.6313" stroke="#222222" stroke-width="0.2" stroke-miterlimit="10" stroke-linecap="round" stroke-linejoin="round"/>
<path d="M131.007 57.2495L130.245 57.6077" stroke="#222222" stroke-width="0.2" stroke-miterlimit="10" stroke-linecap="round" stroke-linejoin="round"/>
<path d="M141.311 49.418C140.359 49.7761 138.931 51.7818 138.289 55.244C137.646 58.7061 137.408 59.8045 137.408 59.8045L132.935 57.6078L131.555 59.8045L136.552 64.1979C138.027 65.4872 140.407 64.8903 140.978 63.0279C141.001 62.9563 141.025 62.8846 141.025 62.813L141.977 58.7061L141.311 49.418Z" fill="#EDEDED"/>
<path d="M141.86 59.2078L141.027 62.8133C141.003 62.8849 140.979 62.9565 140.979 63.0281C140.67 64.031 139.837 64.6757 138.909 64.8428C140.194 62.1686 140.456 58.1572 140.456 58.1572L141.86 59.2078Z" fill="#222222"/>
<path d="M151.566 49.8001C151.566 49.8001 149.758 48.4152 145.712 48.5585C141.786 48.7018 140.787 49.7285 140.787 49.7285C140.787 49.7285 141.001 52.5698 140.43 54.1218C139.882 55.6977 139.502 57.011 140.43 58.1332L140.739 65.941H150.924C150.924 65.941 150.9 63.5055 150.971 60.9746C151.019 57.4169 151.566 49.8001 151.566 49.8001Z" fill="#EDEDED"/>
<path d="M144.404 53.9314C144.404 53.9314 144.523 57.2264 143.262 59.3037" stroke="#222222" stroke-width="0.25" stroke-miterlimit="10" stroke-linecap="round" stroke-linejoin="round"/>
<path d="M143.499 53.0478C144.07 52.2121 145.784 52.4747 145.831 53.6208C145.879 54.9818 142.762 54.1461 143.499 53.0478Z" fill="#FD7060"/>
<path d="M144.428 55.4353C143.762 55.4831 142.786 54.146 143.5 53.0476L145.832 53.6207C145.832 53.6207 146.236 55.2921 144.428 55.4353Z" fill="#FD7060"/>
<path d="M143.499 53.0478C144.07 52.2121 145.784 52.4747 145.831 53.6208C145.879 54.9818 142.762 54.1461 143.499 53.0478Z" stroke="#222222" stroke-width="0.25" stroke-miterlimit="10" stroke-linecap="round" stroke-linejoin="round"/>
<path d="M143.929 53.5729C144.238 53.1193 145.214 53.2625 145.238 53.8833C145.262 54.6713 143.501 54.1937 143.929 53.5729Z" fill="#222222"/>
<path d="M143.952 57.7038C143.667 55.8653 143.548 54.6953 142.501 55.1012C141.43 55.531 143.952 57.7038 143.952 57.7038Z" fill="#74B12A"/>
<path d="M146.284 55.7222C147.378 56.343 143.952 57.6801 143.952 57.6801C143.952 57.6801 145.165 55.1014 146.284 55.7222Z" fill="#74B12A"/>
<path d="M150.233 49.1555C150.233 49.1555 148.734 51.3045 145.212 51.0179C143.57 50.8747 142.523 50.039 141.833 49.2033" stroke="#222222" stroke-width="0.2" stroke-miterlimit="10" stroke-linecap="round" stroke-linejoin="round"/>
<path d="M142.928 48.8926C143.642 48.7494 144.546 48.63 145.712 48.5822C147.259 48.5106 148.473 48.7016 149.401 48.9165L148.116 49.6806C146.426 50.6834 144.261 50.3491 142.928 48.8926Z" fill="#FA9D6A"/>
<path d="M150.924 65.9645C151.257 66.6331 151.685 67.9702 152.066 69.3312C152.78 71.8861 153.803 75.4676 153.636 78.0941C153.47 80.7922 151.304 90.9161 151.304 90.9161L154.779 107.009L149.424 108.872L146.664 97.0286C145.451 92.3964 145.284 90.2953 145.379 85.3766L145.451 75.2527L144.618 74.3693L142.072 111.808H137.074C137.074 111.808 136.813 87.3106 136.789 79.9804C136.789 75.6109 138.336 71.2653 140.168 67.2778L140.787 65.9407H150.924V65.9645Z" fill="#151414"/>
<path d="M143.834 73.6055L140.383 111.809" stroke="white" stroke-width="0.2" stroke-miterlimit="10" stroke-linecap="round" stroke-linejoin="round"/>
<path d="M150.045 67.5881L151.115 72.865C151.71 75.7302 151.734 78.6671 151.187 81.5323L149.378 91.107L153.614 107.415" stroke="white" stroke-width="0.2" stroke-miterlimit="10" stroke-linecap="round" stroke-linejoin="round"/>
<path d="M144.595 74.3698L144.095 81.5568L143.048 72.7939L144.595 74.3698Z" fill="#222222"/>
<path d="M149.024 41.7049C149.19 43.4002 148.762 45.1671 148.167 45.9312C148.072 46.0744 147.953 46.1938 147.834 46.3132C146.549 47.6026 144.764 47.3638 144.764 47.3638C144.764 47.3638 144.693 47.3399 144.574 47.3161C143.908 47.125 141.814 46.2893 141.98 43.1614C142.075 41.3229 142.789 39.9858 143.479 39.1023C143.955 38.4815 144.907 38.5532 145.264 39.2456C145.716 40.0813 146.692 41.0841 148.714 41.6333L149.024 41.7049Z" fill="#FA9D6A"/>
<path d="M144.476 48.94L144.595 47.3163C144.714 47.3402 144.785 47.3641 144.785 47.3641C144.785 47.3641 146.546 47.579 147.855 46.3135L147.95 48.8922L144.476 48.94Z" fill="#FA9D6A"/>
<path d="M144.786 47.3641C144.786 47.3641 146.547 47.579 147.855 46.3135V46.3612C147.784 46.5045 147.689 46.6478 147.617 46.7433C147.522 46.8865 147.403 47.0059 147.284 47.1253C146.332 48.0804 145.119 48.1998 144.548 48.1998L144.595 47.3402C144.714 47.3641 144.786 47.3641 144.786 47.3641Z" fill="#222222"/>
<path d="M149.214 44.357C149.214 44.357 150.547 44.5003 150.785 43.1154C151.023 41.7305 149.642 41.8021 149.642 41.8021C149.642 41.8021 149.738 42.8289 149.214 44.357Z" fill="#BA5D56"/>
<path d="M149.927 42.3508C149.927 42.3508 150.45 42.3747 150.546 42.9716" stroke="#222222" stroke-width="0.2" stroke-miterlimit="10" stroke-linecap="round" stroke-linejoin="round"/>
<path d="M150.238 42.4946C150.238 42.4946 150.285 43.0916 149.809 43.4975" stroke="#222222" stroke-width="0.2" stroke-miterlimit="10" stroke-linecap="round" stroke-linejoin="round"/>
<path d="M150.095 44.2136C150.048 44.4046 149.881 44.524 149.691 44.4762C149.5 44.4285 149.381 44.2613 149.429 44.0703C149.477 43.8793 149.643 43.7599 149.833 43.8076C150.024 43.8315 150.143 44.0225 150.095 44.2136Z" fill="#659CEE"/>
<path d="M145.808 41.0835C146.117 41.1551 146.474 41.3461 146.807 41.7282" stroke="#222222" stroke-width="0.2" stroke-miterlimit="10" stroke-linecap="round" stroke-linejoin="round"/>
<path d="M142.882 41.2032C143.096 41.06 143.382 40.9167 143.786 40.8928" stroke="#222222" stroke-width="0.2" stroke-miterlimit="10" stroke-linecap="round" stroke-linejoin="round"/>
<path d="M144.715 41.7764C144.715 41.7764 144.715 42.3733 144.144 42.827C143.477 43.4 143.668 43.6627 144.215 43.9253" stroke="#222222" stroke-width="0.2" stroke-miterlimit="10" stroke-linecap="round" stroke-linejoin="round"/>
<path d="M144.379 44.8805C144.379 44.8805 145.069 44.9282 145.426 44.3313" stroke="#222222" stroke-width="0.2" stroke-miterlimit="10" stroke-linecap="round" stroke-linejoin="round"/>
<path d="M146.118 42.5162C146.118 42.7073 145.951 42.8266 145.785 42.8266C145.594 42.8266 145.475 42.6595 145.475 42.4924C145.475 42.3014 145.642 42.182 145.809 42.182C145.975 42.1581 146.118 42.3252 146.118 42.5162Z" fill="#222222"/>
<path d="M146.76 42.5158C146.522 42.5874 146.189 42.5874 145.808 42.468" stroke="#222222" stroke-width="0.2" stroke-miterlimit="10" stroke-linecap="round" stroke-linejoin="round"/>
<path d="M146.737 42.1584C146.523 42.3017 146.237 42.4211 145.833 42.4211" stroke="#222222" stroke-width="0.2" stroke-miterlimit="10" stroke-linecap="round" stroke-linejoin="round"/>
<path d="M142.619 41.9197C142.809 42.0629 143.095 42.2062 143.499 42.254" stroke="#222222" stroke-width="0.2" stroke-miterlimit="10" stroke-linecap="round" stroke-linejoin="round"/>
<path d="M142.787 41.5854C142.93 41.8003 143.144 42.0152 143.525 42.1824" stroke="#222222" stroke-width="0.2" stroke-miterlimit="10" stroke-linecap="round" stroke-linejoin="round"/>
<path d="M143.832 42.2537C143.832 42.4447 143.666 42.5641 143.499 42.5641C143.309 42.5641 143.19 42.397 143.19 42.2298C143.19 42.0388 143.357 41.9194 143.523 41.9194C143.69 41.9194 143.832 42.0866 143.832 42.2537Z" fill="#222222"/>
<path d="M152.398 61.285C152.826 62.3356 153.112 63.4339 153.278 64.198C153.659 65.8216 153.778 71.3611 153.04 70.9552C152.279 70.5254 151.018 69.9762 151.018 69.9762C149.59 69.9046 147.877 71.0029 147.877 71.0029C148.329 71.4805 149.566 70.9313 150.018 70.8835C150.447 70.8358 150.78 71.5043 150.78 71.5043C148.709 72.34 147.781 73.701 147.781 73.701C147.781 73.701 147.9 74.0114 148.495 73.8204L147.71 74.3457C147.71 74.3457 147.996 75.0381 148.876 74.489L148.21 74.8949C148.21 74.8949 148.4 75.5157 149.233 75.0381L148.9 75.2769C148.9 75.2769 149.043 76.0649 149.947 75.4918C150.685 75.0381 152.35 74.2741 152.826 74.1308C152.85 74.1308 152.898 74.1069 152.921 74.1069C153.707 73.9398 154.444 73.5816 155.039 72.9847C157.538 70.6209 156.967 64.6516 156.681 62.8131C156.657 62.646 156.514 62.0013 156.277 61.0701L152.398 61.285Z" fill="#FA9D6A"/>
<path d="M148.472 73.7966C148.472 73.7966 149.662 72.7699 151.018 72.2446" stroke="#222222" stroke-width="0.2" stroke-miterlimit="10" stroke-linecap="round" stroke-linejoin="round"/>
<path d="M148.877 74.4887C148.877 74.4887 149.71 73.8201 151.28 73.0083" stroke="#222222" stroke-width="0.2" stroke-miterlimit="10" stroke-linecap="round" stroke-linejoin="round"/>
<path d="M149.209 75.038C149.209 75.038 150.732 74.0352 151.518 73.7009" stroke="#222222" stroke-width="0.2" stroke-miterlimit="10" stroke-linecap="round" stroke-linejoin="round"/>
<path d="M151.043 58.3244C151.615 59.9003 153.518 67.1589 153.518 67.1589H157.183C157.183 67.1589 156.921 60.6405 156.397 58.1573C155.826 55.3875 154.637 51.6388 151.543 49.8003L150.02 55.7696L151.043 58.3244Z" fill="#EDEDED"/>
<path d="M145.381 75.2049L142.549 72.2441" stroke="white" stroke-width="0.2" stroke-miterlimit="10" stroke-linecap="round" stroke-linejoin="round"/>
<path d="M137.408 59.804L139.217 60.7352" stroke="#222222" stroke-width="0.2" stroke-miterlimit="10" stroke-linecap="round" stroke-linejoin="round"/>
<path d="M140.74 65.9646L140.431 58.1568C139.503 57.0345 139.883 55.7213 140.431 54.1454C140.716 53.3575 140.788 52.2591 140.811 51.3518" stroke="#222222" stroke-width="0.2" stroke-miterlimit="10" stroke-linecap="round" stroke-linejoin="round"/>
<path d="M151.044 58.3233C150.972 59.7321 150.972 59.9709 150.949 60.9976C150.925 61.7139 150.925 62.4302 150.925 63.0749L150.116 55.7446L151.044 58.3233Z" fill="#222222"/>
<path d="M151.021 58.2763L149.807 54.8857" stroke="#222222" stroke-width="0.2" stroke-miterlimit="10" stroke-linecap="round" stroke-linejoin="round"/>
<path d="M151.519 67.5408L139.859 67.875" stroke="white" stroke-width="0.2" stroke-miterlimit="10" stroke-linecap="round" stroke-linejoin="round"/>
<path d="M67.7256 64.4876C67.0423 65.5236 65.578 66.3641 64.4847 66.7746C63.0791 67.3023 57.3393 68.3774 55.426 68.612L54.7231 67.2046C55.1527 67.0091 55.6407 66.755 56.1288 66.4618C56.2655 66.3836 56.4021 66.3054 56.5388 66.2272C57.6516 65.5822 58.7644 64.8394 59.4282 64.468C60.463 63.8816 62.552 62.396 63.6843 62.0051C63.8405 61.9465 64.0162 61.9074 64.2114 61.8487C64.9338 61.6728 65.8514 61.536 66.6128 61.5751C66.9251 61.5946 67.1985 61.6142 67.4327 61.6924C68.4675 61.966 68.2722 63.6666 67.7256 64.4876Z" fill="#FFA471"/>
<path d="M66.6321 61.5746C66.0269 62.2588 65.3046 62.8647 64.8751 63.197C63.6061 64.1744 61.7904 64.8976 60.3066 65.5427C58.94 66.1291 57.4953 66.1486 56.1482 66.4809C56.2849 66.4027 56.4215 66.3245 56.5582 66.2463C57.671 65.6013 58.7838 64.8585 59.4476 64.4871C60.4823 63.9007 62.5713 62.4151 63.7037 62.0242C63.8599 61.9656 64.0356 61.9265 64.2308 61.8678C64.9336 61.6724 65.8512 61.5551 66.6321 61.5746Z" fill="#FFA471"/>
<path d="M72.8992 57.4502C72.6063 58.7989 71.513 60.3236 70.8297 61.6137C70.1269 62.9625 69.385 64.3503 68.0574 65.2885C67.9598 65.3667 67.8622 65.4254 67.7646 65.484C66.4956 66.2854 65.9684 65.7577 64.9727 64.6435C64.0747 63.6271 63.3523 62.5911 62.8252 61.3791C63.5866 61.0468 64.2113 60.8123 64.7385 60.4213C65.207 60.0695 65.578 59.5808 65.8903 58.799C66.437 57.4111 66.6322 56.0428 67.1008 54.6354C67.5108 53.4235 68.2331 50.2765 68.7603 49.0841C69.2679 47.9308 70.4197 47.4031 71.0445 47.4031L72.8992 57.4502Z" fill="#4D4D4F"/>
<path d="M67.7646 65.484C66.4956 66.2855 65.9684 65.7577 64.9727 64.6435C64.0747 63.6271 63.3523 62.5911 62.8252 61.3792C63.5866 61.0469 64.2113 60.8123 64.7385 60.4214C64.9728 61.2815 65.3242 62.0829 65.8318 62.9038C66.2613 63.6271 66.9446 64.8585 67.7646 65.484Z" fill="#747476"/>
<path d="M51.1311 69.1201C50.4087 68.4555 53.591 68.5533 53.9619 68.5142C54.0205 68.5142 54.7038 68.9442 54.6648 68.9637C53.9424 69.3156 51.5606 69.5306 51.1311 69.1201Z" fill="#FFA471"/>
<path d="M56.0304 67.6926C55.9718 67.9663 56.167 67.9858 55.9718 68.2204C55.757 68.4745 55.269 68.8459 54.9566 68.9045C54.2733 69.0218 52.9847 68.9436 52.3795 68.6113L56.0304 67.6926Z" fill="#FFA471"/>
<path d="M48.7684 66.8914L48.9831 69.2957C48.9831 69.3739 49.0612 69.4521 49.1588 69.4325L53.4149 69.0611C53.5125 69.0611 53.5711 68.9829 53.5711 68.8852L53.3563 66.4809C53.3563 66.4027 53.2782 66.3246 53.1806 66.3441L48.9246 66.7155C48.8269 66.735 48.7684 66.8132 48.7684 66.8914Z" fill="#89CEF4"/>
<path d="M53.5086 68.0993L48.9186 68.5022L48.9493 68.8527L53.5393 68.4498L53.5086 68.0993Z" fill="#182C3A"/>
<path d="M53.0827 66.6604L52.2269 66.7356L52.2645 67.164L53.1202 67.0888L53.0827 66.6604Z" fill="#FF9B24"/>
<path d="M49.4918 67.0139L49.1223 67.0464L49.1598 67.4748L49.5293 67.4423L49.4918 67.0139Z" fill="#FC2424"/>
<path d="M51.462 67.2042C52.2038 67.1652 52.7895 66.7351 53.4924 66.6569C54.0585 66.5983 55.0933 67.0479 55.5423 66.8329L56.3818 67.5952C55.679 68.4162 54.5076 68.768 53.4924 68.4748C53.141 68.3771 52.9067 68.2207 52.6138 68.0252C52.3015 67.8298 52.1257 67.8102 51.7548 67.7907C51.5401 67.7711 51.0325 67.7711 50.8958 67.5756C50.5834 67.1652 51.2082 67.2238 51.462 67.2042Z" fill="#FFA471"/>
<path d="M86.9172 77.3486H86.4681C86.1948 77.3486 85.98 77.0945 85.98 76.7817C85.98 76.469 86.1948 76.2148 86.4681 76.2148H86.9172C87.1905 76.2148 87.4052 76.469 87.4052 76.7817C87.4052 77.0945 87.1905 77.3486 86.9172 77.3486ZM86.4681 76.3908C86.2924 76.3908 86.1362 76.5667 86.1362 76.7622C86.1362 76.9576 86.2729 77.1336 86.4681 77.1336H86.9172C87.0929 77.1336 87.249 76.9576 87.249 76.7622C87.249 76.5667 87.1124 76.3908 86.9172 76.3908H86.4681Z" fill="#DB8109"/>
<path d="M86.5461 62.9034C86.7803 69.4125 86.3508 75.863 86.2142 76.684H87.1708C87.3465 75.218 87.7175 69.1584 87.5027 63.0402C87.1708 53.7554 85.7261 48.2627 83.1686 46.6794L82.6609 47.5004C83.8519 48.2432 84.789 50.1393 85.4723 53.1886C86.058 55.7101 86.4094 58.9745 86.5461 62.9034Z" fill="#280500"/>
<path d="M74.2463 112.436C74.2854 113.002 74.6173 113.941 74.793 114.625C74.9101 115.094 74.9297 116.736 75.2615 117.029C76.4329 118.104 76.3744 113.472 76.3548 112.963L74.2463 112.436Z" fill="#FFA471"/>
<path d="M76.1994 116.071L75.1647 115.974C74.6571 115.387 74.4423 116.091 74.2471 116.384C74.0128 116.736 73.5247 116.99 73.1733 117.205C72.5486 117.557 70.9672 117.85 71.2015 118.847C72.4705 118.945 75.1256 118.925 76.4532 118.73C77.0194 118.651 76.5703 118.202 76.4141 117.42C76.2775 116.853 76.3165 116.599 76.1994 116.071Z" fill="#171F26"/>
<path d="M84.5162 112.299C84.5358 112.866 84.8091 113.823 84.9457 114.508C85.0434 114.977 84.9653 116.619 85.2776 116.931C86.3905 118.065 86.5857 113.433 86.5857 112.924L84.5162 112.299Z" fill="#FFA471"/>
<path d="M85.7851 115.661C85.0433 115.583 84.9066 116.208 84.7895 116.482C84.6333 116.834 84.3795 116.931 84.1452 117.127C83.7157 117.479 82.6419 117.772 82.8371 118.769C83.7157 118.866 85.9413 118.945 86.8589 118.749C87.2494 118.671 86.9956 118.397 86.6442 117.537C86.4489 117.049 86.4685 115.739 85.7851 115.661Z" fill="#171F26"/>
<path d="M77.7811 75.6089C77.8202 76.899 77.8787 78.326 77.9178 79.8115C78.1325 86.3989 78.3668 94.3545 78.4254 99.4953C78.484 104.753 77.3516 110.872 76.5316 114.351H74.1303C74.0522 112.69 73.896 110.305 73.6812 107.47C72.9979 98.2639 72.0413 80.9257 71.2408 72.1882L77.7811 75.6089Z" fill="#151414"/>
<path d="M74.1304 114.332C74.0523 112.67 73.8962 110.286 73.6814 107.451C74.189 107.099 74.6771 106.728 75.1652 106.357C75.868 105.809 76.727 105.458 77.0003 104.519C77.1956 103.835 77.0394 102.936 77.0784 102.213C77.1565 100.727 77.2541 99.183 77.2541 97.7169C77.2541 94.3549 77.176 90.9537 77.176 87.5525C77.176 85.7737 77.0784 84.0341 77.0003 82.2944C76.9613 81.2584 76.9222 81.1216 76.1413 80.457C75.4775 79.9097 74.8723 79.3233 74.2671 78.6978C75.458 78.9714 76.3561 79.8706 77.586 79.7924C77.7032 79.7924 77.8203 79.7728 77.9375 79.7533C78.1522 86.3406 78.3865 94.2962 78.4451 99.4371C78.5036 104.695 77.3713 110.813 76.5513 114.293H74.1304V114.332Z" fill="#151414"/>
<path d="M87.0943 114.332H84.6344C83.3263 106.963 78.8946 85.1091 76.4346 74.2215L84.3611 72.384C84.4196 74.2019 84.6539 76.9385 84.9858 80.0855C85.0248 80.3983 85.0639 80.7306 85.0834 81.0433C85.6301 85.9692 86.4305 91.7355 87.3481 96.6222C88.3828 102.115 87.6409 110.168 87.0943 114.332Z" fill="#151414"/>
<path d="M68.7604 54.6737C68.9752 57.4298 69.8147 60.0296 70.3613 62.7466C70.3613 62.7857 70.3809 62.8052 70.3809 62.8443C70.4785 63.3134 70.5566 63.7826 70.6152 64.2517C71.0056 66.9687 71.2008 73.2433 71.6304 75.9603C71.6304 75.9799 71.6499 75.9799 71.6694 75.9994C71.6694 75.9994 71.6889 75.9994 71.6889 76.019H71.7084C71.7475 76.0385 71.7865 76.0385 71.8256 76.0581C71.8451 76.0581 71.8646 76.0581 71.8842 76.0776C71.9037 76.0776 71.9232 76.0776 71.9427 76.0971C71.9622 76.0971 71.9818 76.0971 72.0013 76.0971C72.0403 76.0971 72.0599 76.0971 72.0989 76.1167C72.1184 76.1167 72.138 76.1167 72.1575 76.1167C72.177 76.1167 72.1965 76.1167 72.2161 76.1167C73.6022 76.2535 77.0578 76.1949 79.9277 75.9603C79.9863 75.9603 80.0449 75.9603 80.1034 75.9408C80.4158 75.9212 80.7086 75.8821 81.0015 75.8626C81.0405 75.8626 81.0796 75.8626 81.1186 75.843C81.1382 75.843 81.1577 75.843 81.1967 75.843C81.2553 75.843 81.3139 75.8235 81.3724 75.8235C83.0514 75.6476 84.2619 75.3935 84.34 75.1003C84.5157 74.2402 84.3985 74.2597 84.4571 73.0869C84.5547 71.269 84.5547 69.158 84.5352 67.0078C84.5352 66.9883 84.5352 66.9492 84.5352 66.9296C84.5157 65.0922 84.4961 63.2353 84.5157 61.5151C84.5352 60.3423 84.5547 59.2477 84.6328 58.2703C84.6523 57.938 84.6719 57.6253 84.7109 57.3125C84.7499 56.8825 84.8085 56.4916 84.8671 56.1397C85.1599 54.4196 85.2771 52.0153 86.2142 50.3147C86.2337 50.2756 86.2532 50.2561 86.2532 50.2365C86.2923 50.1779 86.3118 50.1192 86.3508 50.0802C86.4289 49.9433 86.5266 49.826 86.6242 49.6892C86.7608 49.5133 86.917 49.3374 87.0732 49.2005C87.0927 49.181 87.1318 49.1419 87.1513 49.1224C87.0732 49.0051 86.9756 48.8878 86.8584 48.7901C86.6632 48.5946 86.4289 48.3991 86.1751 48.2036C86.1361 48.1841 86.097 48.145 86.0775 48.1255C86.0775 48.1255 86.058 48.1255 86.058 48.1059C86.0385 48.0864 86.019 48.0668 85.9799 48.0473C85.9604 48.0277 85.9409 48.0277 85.9213 48.0082C85.8432 47.9691 85.7847 47.9104 85.7066 47.8713C85.238 47.5586 84.7109 47.2654 84.2423 47.0113C83.9104 46.8549 83.5981 46.6985 83.3247 46.6008H83.3052C82.8757 46.4249 82.4267 46.2685 81.9776 46.0926C81.9386 46.073 81.88 46.0535 81.841 46.0339C81.5677 45.9167 81.2943 45.7994 81.021 45.6821C80.8063 45.5844 80.2401 45.3302 79.9277 45.1152C79.752 44.9979 79.6349 44.8807 79.7325 44.822L74.2855 46.073L73.6803 46.2099L73.4851 46.2489C73.2117 46.3467 72.8994 46.4444 72.5675 46.5422C71.3961 46.9135 70.0295 47.4218 69.3852 48.4187C69.3071 48.5555 69.229 48.6923 69.1704 48.8291C68.6043 50.3734 68.5457 51.9958 68.7604 54.6737Z" fill="#F26050"/>
<path d="M73.368 48.7713C73.3485 52.8957 74.2661 60.2258 74.3637 59.874C75.9255 54.4204 77.4679 51.3124 78.7954 49.3968C80.1816 47.3835 81.3139 46.6993 81.8801 45.9956L80.6501 45.4092C79.8887 44.7446 79.5959 44.4905 79.4202 43.9237C78.6978 41.6758 80.1425 38.9783 79.4202 37.4341C78.6002 37.7077 77.0969 39.2129 76.2184 39.3888C75.7303 39.4865 75.2422 39.5452 74.7541 39.6038C74.7737 40.1511 74.7737 40.7375 74.6956 41.3239C74.5784 42.3208 74.4222 43.2591 74.2465 44.1582C74.1684 44.5687 73.7584 46.1325 73.7584 46.1325C73.4851 46.367 73.3875 47.3835 73.368 48.7713Z" fill="#FFA471"/>
<path d="M71.4547 38.3717C71.4352 37.6289 72.0795 36.9057 72.1185 36.3193C72.3333 31.0807 74.5784 31.7062 74.5784 31.7062C75.6132 31.5889 76.8431 31.7257 77.6241 32.5076C78.1707 33.0549 78.4831 34.13 78.7174 34.8728C79.3616 36.8861 80.0254 38.6649 78.9516 40.5414C78.2488 41.7533 77.7021 43.1216 76.3746 43.6298C75.3203 44.0403 73.4656 44.6267 72.7628 43.6103C72.0404 42.5352 71.4938 39.6227 71.4547 38.3717Z" fill="#FFA471"/>
<path d="M72.3137 32.4102C72.3918 32.5666 72.5089 32.6643 72.626 32.7034C73.6803 33.0357 78.3463 33.1334 78.1902 33.8762C77.7216 36.0655 78.9516 35.6745 78.7173 36.4955C78.3463 37.7661 78.0144 39.2321 78.3659 40.0335C78.6587 40.7177 79.0882 38.8998 79.2835 39.6035L80.3768 38.7825C80.8453 37.6097 81.5872 36.0459 81.8215 34.6972C81.9386 34.7754 82.0362 34.8731 82.1143 34.9904C82.3291 34.5408 82.1338 33.3876 81.8215 32.9966C82.1729 33.0357 82.4657 33.2312 82.7976 33.3289C82.7976 33.3289 82.8172 33.3289 82.8172 33.3485C82.6219 33.0748 82.4267 32.7816 82.2119 32.547C81.9777 32.3125 81.6262 32.1756 81.392 31.9606C81.5481 31.7652 81.8215 31.6283 82.0557 31.5501C81.6458 31.511 81.1577 31.687 80.7477 31.7065C80.123 31.2374 79.2249 30.9442 78.5221 30.7096C76.4135 29.9864 74.1879 29.6541 71.9427 29.615C71.8842 30.1037 71.9232 31.7261 72.3137 32.4102Z" fill="#151414"/>
<path d="M75.5342 37.7856C75.5733 37.8052 75.6123 37.8247 75.6514 37.8443C76.0028 37.9811 76.4909 38.0788 76.8813 38.157C77.2132 38.2157 77.4475 38.4698 77.4475 38.4698C77.5256 38.0007 77.3499 37.4338 77.0375 37.1992C76.6666 36.9256 76.1394 36.8278 75.7295 36.8474C75.6904 36.8474 75.5537 36.8865 75.5147 36.906C75.4952 37.1797 75.6318 37.512 75.5342 37.7856Z" fill="#E07F4F"/>
<path d="M75.4956 38.2351C75.5347 38.2546 75.5737 38.2742 75.6127 38.2937C75.9642 38.4306 76.4522 38.5283 76.8427 38.6065C77.1746 38.6651 77.4284 38.7042 77.4284 38.7042C77.5065 38.2351 77.3113 37.8833 76.9989 37.6487C76.6279 37.375 76.1008 37.2773 75.6908 37.2968C75.6518 37.2968 75.6127 37.2968 75.5932 37.3164C75.5737 37.6096 75.5932 37.981 75.4956 38.2351Z" fill="white"/>
<path d="M75.6128 37.8246C75.5932 37.981 75.6128 38.1569 75.6323 38.2937C75.9837 38.4306 76.4718 38.5283 76.8623 38.6065C76.9403 38.411 76.9989 38.1765 77.0184 37.9028C77.0184 37.8246 77.0184 37.7269 77.0184 37.6487C76.6475 37.375 76.1204 37.2773 75.7104 37.2968C75.6518 37.4532 75.6323 37.6291 75.6128 37.8246Z" fill="#151414"/>
<path d="M76.4917 37.9809C76.4917 38.0982 76.5307 38.1959 76.5696 38.1959C76.628 38.1959 76.667 38.1177 76.6864 38.0004C76.6864 37.8831 76.6475 37.7854 76.6085 37.7854C76.5501 37.7854 76.5112 37.8636 76.4917 37.9809Z" fill="white"/>
<path d="M71.9029 36.9837C71.9224 37.0033 71.9615 37.0228 72.0005 37.0423C72.2543 37.1792 72.6058 37.2769 72.8596 37.3356C73.0938 37.3942 73.25 37.6288 73.25 37.6288C73.3086 37.1596 73.1914 36.5928 72.9767 36.3778C72.7229 36.1236 72.3519 36.0064 72.0591 36.0455C72.0396 36.0455 71.9224 36.0845 71.9029 36.1041C71.8834 36.3973 71.981 36.7296 71.9029 36.9837Z" fill="#E07F4F"/>
<path d="M71.8651 37.4527C71.8846 37.4722 71.9237 37.4918 71.9627 37.5113C72.2165 37.6482 72.5679 37.7459 72.8217 37.8045C73.056 37.8632 73.2317 37.8827 73.2317 37.8827C73.2903 37.4136 73.1732 37.0618 72.9584 36.8467C72.7046 36.5926 72.3337 36.4754 72.0408 36.5144C72.0213 36.5144 71.9823 36.5144 71.9627 36.534C71.9237 36.8272 71.9432 37.1986 71.8651 37.4527Z" fill="white"/>
<path d="M71.9622 37.0422C71.9426 37.1986 71.9622 37.355 71.9622 37.5113C72.216 37.6482 72.5674 37.7459 72.8212 37.8045C72.8798 37.6091 72.9188 37.3745 72.9383 37.1009C72.9383 37.0227 72.9383 36.9249 72.9383 36.8467C72.6845 36.5926 72.3136 36.4754 72.0207 36.5144C72.0012 36.6708 71.9622 36.8467 71.9622 37.0422Z" fill="#151414"/>
<path d="M72.5873 37.1789C72.5873 37.2961 72.6068 37.3939 72.6458 37.3939C72.6847 37.3939 72.7237 37.3157 72.7237 37.1984C72.7237 37.0811 72.7042 36.9834 72.6652 36.9834C72.6263 36.9834 72.5873 37.0616 72.5873 37.1789Z" fill="white"/>
<path d="M75.3014 36.3C75.438 36.1631 77.5465 36.2609 77.9565 36.4759L78.0541 37.1991C77.7613 37.2187 76.6875 37.0818 76.6875 37.0818C76.6875 37.0818 76.5118 37.1209 76.3166 36.6714C76.2775 36.8082 76.4142 37.0037 76.3947 37.16C76.0823 37.2382 75.6528 37.1796 75.3404 37.2382C75.3209 37.1014 75.2037 36.4172 75.3014 36.3Z" fill="#151414"/>
<path d="M71.6306 35.225C71.7672 35.1273 73.212 35.8114 73.4462 36.1437L73.3096 36.867C73.0948 36.8083 72.3725 36.3783 72.3725 36.3783C72.3725 36.3783 72.2358 36.3783 72.2163 35.8896C72.1577 36.0069 72.1772 36.2219 72.1382 36.3783C71.9039 36.3588 71.611 36.1828 71.3768 36.1633C71.3963 35.9874 71.5134 35.3032 71.6306 35.225Z" fill="#151414"/>
<path d="M72.3147 32.4106C72.3928 32.567 72.5099 32.6648 72.6271 32.7038C73.6813 33.0361 78.3474 33.1339 78.1912 33.8767C77.7226 36.0659 78.9526 35.675 78.7183 36.496C78.3474 37.7665 78.0155 39.2325 78.3669 40.034C78.6597 40.7181 79.0893 38.9002 79.2845 39.6039L80.3778 38.7829C80.8463 37.6101 81.5882 36.0464 81.8225 34.6976C81.9396 34.7758 82.0373 34.8736 82.1153 34.9908C82.3301 34.5413 82.1349 33.388 81.8225 32.9971C82.1739 33.0361 82.4668 33.2316 82.7987 33.3294C82.5644 33.1534 82.3496 32.958 82.0373 32.8407C81.6858 32.7038 81.2758 32.5279 80.8854 32.5279C81.2563 32.9384 81.4125 34.1503 80.944 34.5804C80.6511 34.0526 80.2997 33.6812 79.8311 33.3098C79.9092 33.6616 79.6554 34.7954 79.1673 34.7758C79.0892 34.2285 78.9526 33.7007 78.6012 33.2316C78.3278 32.8602 77.8983 32.782 77.4688 32.7625C76.2974 32.6843 75.1456 32.7429 73.9742 32.6648C73.447 32.6452 72.8809 32.5475 72.3147 32.4106Z" fill="#151414"/>
<path d="M71.7281 40.4631C72.1772 40.3263 72.8995 40.2285 73.3876 40.3458C74.3638 40.5804 75.1252 41.5382 76.0233 41.9291C76.687 42.2223 77.058 41.7727 77.4485 41.245C77.7023 40.8931 78.0146 40.5608 78.2099 40.1503C78.3465 39.8767 78.4051 39.5444 78.4832 39.2903L79.0493 40.5999C78.8346 41.1277 77.9365 43.1019 77.6632 43.5906C77.3899 44.0402 74.559 44.9003 74.3247 44.9198C73.8171 44.9784 73.251 44.6657 72.8019 44.4507C72.5872 44.3529 72.3334 44.2552 72.1772 44.0793C72.0015 43.9034 71.7281 40.9322 71.7281 40.4631Z" fill="#151414"/>
<path d="M72.763 40.3269C72.763 40.2682 72.763 40.2096 72.763 40.1705C72.763 40.1119 72.763 40.0728 72.763 40.0141C72.763 39.9555 72.763 39.9164 72.763 39.8577C72.763 39.7991 72.763 39.76 72.7825 39.7014C72.802 39.6036 72.802 39.4863 72.8216 39.3886C72.8216 39.33 72.8411 39.2909 72.8411 39.2322C72.8411 39.1736 72.8606 39.1345 72.8801 39.0759C72.8997 39.0172 72.8997 38.9781 72.9192 38.9195C72.9387 38.8608 72.9387 38.8218 72.9582 38.7631C72.9778 38.7045 72.9778 38.6654 72.9973 38.6067C73.0168 38.5481 73.0363 38.509 73.0558 38.4504C73.0949 38.3526 73.1339 38.2549 73.1925 38.1572C73.212 38.1181 73.2511 38.0594 73.2901 38.0203C73.3096 38.0008 73.3292 37.9812 73.3487 37.9617C73.3682 37.9421 73.4073 37.9421 73.4268 37.9421C73.3877 37.9617 73.3682 38.0203 73.3487 38.0594C73.3292 38.0985 73.3292 38.1572 73.3096 38.1962C73.2901 38.294 73.2706 38.3917 73.2706 38.4895L73.2511 38.6458L73.2316 38.8022L73.1925 39.0954L73.1535 39.3886L73.1144 39.6818C73.1144 39.7405 73.0949 39.7796 73.0949 39.8382L73.0754 39.9946C73.0754 39.9946 73.0363 40.19 73.0754 40.19L73.2316 40.2487C73.3292 40.2878 73.4463 40.3073 73.5439 40.3464C73.6025 40.366 73.6415 40.3855 73.7001 40.4051C73.7587 40.4246 73.7977 40.4441 73.8563 40.4637C73.9149 40.4832 73.9539 40.5028 74.0125 40.5223C74.032 40.5419 74.0711 40.5419 74.0906 40.5614C74.1101 40.581 74.1491 40.581 74.1687 40.6005C74.1101 40.581 74.0515 40.581 74.0125 40.581C73.9539 40.581 73.8953 40.5614 73.8563 40.5614C73.7392 40.5419 73.6415 40.5419 73.5244 40.5223C73.4073 40.5028 73.3096 40.5028 73.1925 40.4832L73.0363 40.4637C72.9778 40.4637 72.9192 40.4441 72.8606 40.4246L72.763 40.4051V40.3269Z" fill="#E07F4F"/>
<path d="M78.7761 39.1733C78.3465 39.9161 78.4246 40.7566 78.9322 41.0303C79.4398 41.3235 80.1817 40.9521 80.6112 40.2093C81.0407 39.4665 80.9627 38.626 80.455 38.3524C79.9474 38.0592 79.2056 38.4306 78.7761 39.1733Z" fill="#FFA471"/>
<path d="M80.4745 39.4859C80.4745 39.4859 80.4745 39.4859 80.4941 39.4663C80.4941 39.4663 80.5136 39.4468 80.5136 39.4272C80.5136 39.4077 80.5331 39.3881 80.5526 39.3686C80.5721 39.3295 80.5917 39.2904 80.6112 39.2122C80.6307 39.1536 80.6307 39.0754 80.6112 38.9972C80.6112 38.9581 80.5917 38.919 80.5722 38.8604C80.5526 38.8213 80.5136 38.7626 80.4745 38.7235C80.3964 38.6454 80.2793 38.5867 80.1622 38.5476C80.1036 38.5281 80.045 38.5281 79.9865 38.5281C79.9279 38.5281 79.8693 38.5476 79.8107 38.5476C79.7522 38.5672 79.6936 38.5867 79.6546 38.6063H79.635L79.596 38.6258C79.5765 38.6258 79.5765 38.6454 79.5569 38.6454L79.5179 38.6649C79.4788 38.704 79.4398 38.7431 79.4008 38.7626C79.3812 38.7822 79.3617 38.8017 79.3422 38.8213C79.3227 38.8408 79.3031 38.8604 79.3031 38.8799C79.2836 38.8995 79.2641 38.919 79.2641 38.9386C79.2446 38.9581 79.2446 38.9777 79.225 38.9972C79.2055 39.0363 79.186 39.0754 79.147 39.1145C79.1274 39.1536 79.1079 39.1927 79.0884 39.2318C79.0689 39.2709 79.0493 39.31 79.0493 39.349C79.0298 39.3881 79.0298 39.4272 79.0103 39.4663C79.0103 39.5054 78.9908 39.5445 78.9908 39.5836C78.9908 39.6227 78.9712 39.6618 78.9712 39.6813C78.9712 39.7204 78.9712 39.74 78.9517 39.7791C78.9517 39.8377 78.9517 39.8964 78.9517 39.9355C78.9517 39.9746 78.9517 40.0136 78.9517 40.0332C78.9517 40.0136 78.9712 39.9746 78.9712 39.9355C78.9712 39.8964 78.9908 39.8377 79.0103 39.7986C79.0103 39.7791 79.0298 39.74 79.0493 39.7204C79.0689 39.6813 79.0689 39.6618 79.0884 39.6227C79.1079 39.5836 79.1079 39.5641 79.1274 39.525C79.147 39.4859 79.1665 39.4468 79.186 39.4272C79.2055 39.3881 79.225 39.349 79.2446 39.31C79.2641 39.2709 79.2836 39.2318 79.3031 39.1927C79.3422 39.1145 79.4008 39.0558 79.4593 38.9777C79.4788 38.9581 79.4984 38.9386 79.4984 38.919C79.5179 38.8995 79.5374 38.8799 79.5374 38.8799L79.596 38.8408C79.6155 38.8213 79.635 38.8213 79.6546 38.8017L79.6741 38.7822C79.6741 38.7822 79.6936 38.7626 79.7131 38.7626L79.7522 38.7431H79.7717C79.8107 38.7235 79.8498 38.704 79.8888 38.704C79.9669 38.6845 80.0645 38.6649 80.1426 38.6844C80.2207 38.704 80.2988 38.7235 80.3574 38.7822C80.416 38.8408 80.455 38.8995 80.4941 38.9581C80.5136 39.0167 80.5331 39.0949 80.5331 39.1536C80.5331 39.2122 80.5331 39.2709 80.5136 39.31C80.5136 39.349 80.4941 39.3881 80.4941 39.4077C80.4745 39.4859 80.4745 39.4859 80.4745 39.4859Z" fill="#E07F4F"/>
<path d="M72.3729 41.1667C72.4119 41.284 72.451 41.4404 72.49 41.5772C72.6071 41.9291 72.7633 42.2809 73.1928 42.3787C73.6419 42.4764 74.3252 42.2809 74.7742 41.9095C74.7742 41.9095 74.6961 41.89 74.5595 41.8509C74.0909 41.6945 72.9781 41.3818 72.3729 41.1667Z" fill="#E07F4F"/>
<path d="M72.3729 41.1667C72.4119 41.284 72.451 41.4404 72.49 41.5772C72.939 41.7532 73.7981 42.0268 74.0128 42.0073C74.1885 41.9877 74.3837 41.9095 74.5399 41.8509C74.0909 41.6945 72.9781 41.3818 72.3729 41.1667Z" fill="white"/>
<path d="M73.368 48.771C73.3485 52.8954 74.2661 60.2255 74.3637 59.8737C75.9255 54.4201 77.4679 51.3121 78.7954 49.3965C78.5612 49.1424 78.3269 48.9078 78.1707 48.771C77.3507 48.0282 77.136 48.0869 76.1208 48.1455C74.7151 48.2237 73.9927 48.1064 73.368 48.771Z" fill="#4D4D4F"/>
<path d="M80.3164 44.9595L82.2688 46.1518C81.605 46.6796 79.106 49.5921 78.9108 50.374C78.0127 49.6507 76.7242 48.3411 75.5333 48.2434C76.3337 47.8329 79.5746 45.0377 80.3164 44.9595Z" fill="#747476"/>
<path d="M73.7767 45.5657L72.4492 46.2107C72.8591 46.7385 72.4492 48.1459 72.8201 49.7878C73.3667 49.0646 75.1824 48.4 75.9048 48.3022C75.3972 47.8918 74.2258 45.6439 73.7767 45.5657Z" fill="#747476"/>
<path d="M70.3614 62.747C70.3614 62.7861 70.381 62.8057 70.381 62.8448C70.4786 63.3139 70.5567 63.783 70.6152 64.2521C71.0057 66.9692 71.2009 73.2437 71.6305 75.9608C71.6305 75.9803 71.65 75.9803 71.6695 75.9999C71.6695 75.9999 71.689 75.9999 71.689 76.0194H71.7085C71.7476 76.039 71.7866 76.039 71.8257 76.0585C71.8452 76.0585 71.8647 76.0585 71.8843 76.0781C71.9038 76.0781 71.9233 76.0781 71.9428 76.0976C71.9623 76.0976 71.9819 76.0976 72.0014 76.0976C72.0404 76.0976 72.06 76.0976 72.099 76.1171C72.1185 76.1171 72.1381 76.1171 72.1576 76.1171C72.1771 76.1171 72.1966 76.1171 72.2161 76.1171C74.7932 76.3713 84.4962 76.0194 84.6524 75.1593C84.8086 74.3188 84.5353 69.2366 84.4962 67.0278C84.4962 67.0083 84.4962 66.9692 84.4962 66.9496C84.4767 65.1122 84.4572 63.2552 84.4767 61.5351C84.4962 60.3623 84.5158 59.2677 84.5939 58.2903C84.6134 57.958 84.6329 57.6453 84.672 57.3325C84.711 56.9025 84.7696 56.5115 84.8281 56.1597C85.121 54.4396 85.2381 52.0353 86.1752 50.3347C86.1948 50.2956 86.2143 50.2761 86.2143 50.2565C86.2533 50.1979 86.2729 50.1392 86.3119 50.1001C86.39 49.9633 86.4876 49.846 86.5852 49.7092C86.7219 49.5333 86.8781 49.3574 87.0343 49.2205L86.8195 48.81L86.7805 48.7319C86.5462 48.5168 86.2924 48.3214 86.0386 48.1455C86.0386 48.1455 86.0386 48.1455 86.0191 48.1455C85.9995 48.1259 85.98 48.1064 85.941 48.0868C85.9214 48.0673 85.9019 48.0673 85.8824 48.0477C85.8043 48.0086 85.7457 47.95 85.6676 47.9109C81.9192 50.2565 82.3487 56.3747 80.7868 59.7954C78.8931 63.9589 74.1685 64.174 70.3419 62.8252C70.381 62.747 70.3614 62.747 70.3614 62.747Z" fill="#F26050"/>
<path d="M86.0964 48.1064L86.1551 48.4583L86.1943 48.4778L86.0964 48.1064Z" fill="#66B9DD"/>
<path d="M84.5359 61.5152C84.653 60.8701 84.7506 59.971 84.7897 58.7591C84.7897 58.4072 84.8287 58.0554 84.8678 57.7231C84.9263 57.1171 85.024 56.5503 85.1216 56.0616C85.4144 54.3415 85.3363 52.0154 86.2539 50.3148C86.2734 50.2757 86.293 50.2562 86.293 50.2366C86.332 50.178 86.3515 50.1193 86.3906 50.0802L86.1758 48.4774L85.883 48.4187C85.8634 48.4383 85.9415 48.3015 85.9806 48.1842C86.0001 48.1255 86.0196 48.0864 86.0196 48.0669C85.9611 48.1451 85.883 48.2233 85.7854 48.3015C85.4925 48.5556 85.1216 48.751 84.8678 49.0638C84.8482 49.0833 84.8482 49.1029 84.8287 49.1029C84.7116 49.2593 84.5944 49.4352 84.4968 49.6307C84.3016 49.9825 84.1649 50.3539 84.0283 50.7057C83.8721 51.0967 83.7159 51.5072 83.5792 51.9176C83.5402 52.0154 83.5207 52.1131 83.4816 52.2109C83.1692 53.11 82.8959 54.0287 82.7593 54.9474C81.9588 60.1078 83.833 65.1705 84.5359 61.5152Z" fill="#4D4D4F"/>
<path d="M81.3329 73.5952V82.0004C81.3329 82.8214 81.9967 83.4859 82.8167 83.4859H86.4285C87.2485 83.4859 87.9123 82.8214 87.9123 82.0004V73.5952C87.9123 72.7742 87.2485 72.1096 86.4285 72.1096H82.8167C81.9967 72.1096 81.3329 72.7742 81.3329 73.5952Z" fill="#EDEDED"/>
<path d="M79.6351 73.5954V82.0006C79.6351 82.8216 80.5918 83.4862 81.7632 83.4862H84.2231C83.0517 83.4862 82.0951 82.8216 82.0951 82.0006V73.5954C82.0951 72.7745 83.0517 72.1099 84.2231 72.1099H81.7632C80.5918 72.1099 79.6351 72.7745 79.6351 73.5954Z" fill="white"/>
<path d="M88.4798 76.5866H81.5296C80.8853 72.0126 81.4515 72.1104 81.4515 72.1104C82.2715 72.1104 84.6728 72.0713 85.4733 72.1104C86.2347 72.1299 86.9766 71.9149 87.5818 72.4622C88.6165 73.4005 88.4213 74.6124 88.4213 76.2348C88.4408 76.2934 88.4603 76.4302 88.4798 76.5866Z" fill="#EDEDED"/>
<path d="M86.2734 78.0718V78.1109L86.9958 78.2282V78.1891C87.0348 77.9154 87.0934 77.6222 87.1129 77.2899C87.1715 76.684 87.152 75.9998 86.9567 75.2766L86.2539 75.4721C86.4296 76.1171 86.4296 76.7426 86.371 77.2899C86.3515 77.5636 86.3125 77.8373 86.2734 78.0718Z" fill="#DB8109"/>
<path d="M86.3919 77.2704H87.1338C87.1924 76.6645 87.1728 75.9803 86.9776 75.2571L86.2748 75.4525C86.4505 76.0976 86.431 76.7231 86.3919 77.2704Z" fill="#151414"/>
<path d="M83.1688 78.0135V78.0526L83.8912 78.1699V78.1308C83.9302 77.8571 83.9888 77.5639 84.0083 77.2316C84.0669 76.6256 84.0474 75.9415 83.8521 75.2183L83.1493 75.4137C83.325 76.0588 83.325 76.6843 83.2664 77.2316C83.2469 77.5248 83.2079 77.7789 83.1688 78.0135Z" fill="#DB8109"/>
<path d="M83.2872 77.2316H84.0291C84.0877 76.6256 84.0682 75.9415 83.8729 75.2183L83.1701 75.4137C83.3263 76.0588 83.3263 76.6843 83.2872 77.2316Z" fill="#151414"/>
<path d="M79.9659 75.9609C79.9659 76.2737 80.1807 76.5278 80.454 76.5278H80.9031C81.1764 76.5278 81.3911 76.2737 81.3911 75.9609C81.3911 75.9218 81.3911 75.8827 81.3716 75.8241C81.3326 75.6481 81.2349 75.4918 81.0788 75.4331C81.0202 75.4136 80.9616 75.394 80.8835 75.394H80.4345C80.3174 75.394 80.2002 75.4331 80.1221 75.5309C80.044 75.6091 79.9659 75.785 79.9659 75.9609ZM80.1416 75.9609C80.1416 75.8827 80.1612 75.8241 80.1807 75.785C80.2393 75.6677 80.3369 75.5895 80.4735 75.5895H80.9226C81.0007 75.5895 81.0788 75.6286 81.1373 75.6872C81.1764 75.7263 81.2154 75.785 81.235 75.8632C81.235 75.9023 81.2545 75.9414 81.2545 75.9805C81.2545 76.1955 81.1178 76.3518 80.9226 76.3518H80.4735C80.2783 76.3323 80.1416 76.1564 80.1416 75.9609Z" fill="#DB8109"/>
<path d="M80.1427 75.5115C80.1427 75.6093 80.1622 75.6874 80.1622 75.7656C80.1622 75.8047 80.1622 75.8243 80.1818 75.8634H81.1384C81.1384 75.8634 81.1384 75.8634 81.1384 75.8438C81.1384 75.8047 81.1189 75.7461 81.1189 75.6679C81.1189 75.5897 81.0994 75.5115 81.0994 75.4138C80.9432 73.6741 80.6113 67.9078 80.826 62.0828C80.9627 58.1538 81.3336 54.8895 81.8803 52.3484C82.466 49.69 83.2664 47.8917 84.2621 46.9925C83.9302 46.8361 83.6178 46.6798 83.3445 46.582H83.325C81.3141 48.7908 80.1427 54.0294 79.8499 62.2196C79.6546 67.9469 79.967 73.5959 80.1427 75.5115Z" fill="#151414"/>
<path d="M85.9813 80.5936C86.0984 80.2027 86.0594 79.6749 86.2155 79.284C86.5279 78.463 87.2698 77.642 87.6407 76.821L89.0464 77.3097C89.3783 78.5803 88.6364 85.5585 86.1765 83.9166C85.8836 83.467 87.2893 83.0761 87.3479 82.4897C87.4065 81.8446 87.4845 80.8282 87.1331 80.2613C86.8598 80.6913 86.1765 82.4897 85.5518 82.3724C85.5127 81.9228 85.8446 81.0432 85.9813 80.5936Z" fill="#FFA471"/>
<path d="M88.9496 77.6418H88.9691C88.9496 77.5638 88.9302 77.5638 88.9496 77.6418Z" fill="#FFA471"/>
<path d="M91.1939 68.4163C91.0572 70.1169 89.5149 76.4696 88.8902 78.5025L87.2893 78.4243C87.3088 77.7402 87.2697 76.8996 87.2112 76.0396C87.1136 74.554 86.9378 73.0294 86.8793 72.1497C86.8012 70.7815 86.3717 67.8494 86.5083 66.5007C86.5279 66.3247 86.5669 66.1097 86.606 65.8947C86.8207 64.761 87.2893 63.2754 87.875 62.5717C88.5778 61.7117 90.0225 62.8649 90.5301 63.8814C91.1939 65.1715 91.311 67.0871 91.1939 68.4163Z" fill="#FFA471"/>
<path d="M87.9921 68.5529C88.0116 69.6671 88.0116 70.8008 87.9531 71.8954C87.875 73.3615 87.5821 74.7102 87.2112 76.0394C87.1136 74.5538 86.9378 73.0292 86.8793 72.1495C86.8012 70.7813 86.3717 67.8492 86.5083 66.5005C86.5279 66.3246 86.5669 66.1095 86.606 65.8945L87.8359 65.6013C87.9726 65.6795 87.9921 67.9665 87.9921 68.5529Z" fill="#FFA471"/>
<path d="M84.4384 56.4533C84.497 56.6488 84.5751 56.8638 84.6337 57.0593C84.6532 57.1374 84.6922 57.2352 84.7118 57.3134C84.7313 57.372 84.7508 57.4307 84.7703 57.4893C84.7899 57.5675 84.8094 57.6457 84.8484 57.7239C85.4732 59.7567 85.9808 61.7701 85.9808 63.9202C85.9808 63.9593 85.9808 63.9984 85.9808 64.0571C85.9613 64.5457 85.8441 65.2494 86.137 65.5817C86.4493 65.914 87.4841 66.09 87.9331 66.1486C89.1045 66.3441 90.4711 66.2854 91.5058 65.8554C91.5449 65.2299 91.5058 64.6044 91.4473 63.9984C91.4277 63.8421 91.4082 63.6661 91.3887 63.5098C91.1154 60.9882 90.9006 58.5839 90.1978 56.0819C89.5535 53.7167 88.9873 50.4133 86.8398 48.615C86.6055 48.4195 86.3517 48.2436 86.0979 48.0872C86.0979 48.0872 86.0979 48.0872 86.0784 48.0872C86.0589 48.0872 86.0003 48.0286 86.0003 48.0286C86.0003 48.0286 85.4146 48.2436 85.0046 48.7323C84.946 48.8104 84.8875 48.8691 84.8289 48.9473C84.7118 49.1036 84.5946 49.26 84.497 49.3969C84.0089 50.1201 83.7161 50.7651 83.5794 51.4102C83.5209 51.6643 83.5013 51.8989 83.4818 52.153C83.3842 53.5604 83.9308 54.8895 84.4384 56.4533Z" fill="#4D4D4F"/>
<path d="M91.5059 65.8361C90.4711 66.2662 89.1045 66.3248 87.9331 66.1293C87.4841 66.0511 86.4494 65.8948 86.137 65.5429C85.8441 65.2302 85.9613 64.5069 85.9808 64.0183C86.3322 64.0378 86.8203 64.1551 87.1327 64.1942C87.7184 64.2528 88.1869 64.2333 88.7726 64.1355C89.7097 63.9987 90.5297 63.8032 91.3692 63.4709C91.3887 63.6273 91.4083 63.8032 91.4278 63.9596C91.5254 64.6047 91.5644 65.2106 91.5059 65.8361Z" fill="#747476"/>
</svg>
