<svg width="169" height="120" viewBox="0 0 169 120" fill="none" xmlns="http://www.w3.org/2000/svg">
<g clip-path="url(#clip0_1095_69560)">
<path d="M145.033 118.656C147.238 118.656 148.526 117.435 150.236 117.41L149.889 112.479H145.578L145.925 115.493L142.629 117.759C142.629 117.759 142.852 118.656 145.033 118.656Z" fill="#E08983"/>
<path d="M157.273 118.656C159.479 118.656 160.767 117.435 162.477 117.41L161.932 112.479H157.62L158.166 115.493L154.87 117.759C154.87 117.759 155.093 118.656 157.273 118.656Z" fill="#E08983"/>
<path d="M145.553 112.479L145.727 113.998L150.063 115.119L149.889 112.479H145.553Z" fill="#222222"/>
<path d="M157.62 112.479L157.868 113.974L162.229 115.119L161.932 112.479H157.62Z" fill="#222222"/>
<path d="M126.943 115.568L126.82 109.565H121.889L122.533 116.564C122.533 116.539 124.54 117.336 126.943 115.568Z" fill="#BA5D56"/>
<path d="M122.26 113.675L122.533 116.564C122.533 116.564 124.54 117.336 126.943 115.568L126.894 113.675H122.26Z" fill="#EFEDEE"/>
<path d="M127.018 115.144C127.018 115.144 127.687 116.788 127.687 117.286C127.687 117.809 127.687 119.851 127.687 119.851H112.869C112.869 119.851 113.216 118.905 114.827 118.207C116.908 117.311 122.31 114.098 122.31 114.098C122.31 114.098 123.326 114.148 123.822 115.642C124.069 116.439 125.408 116.165 125.705 115.866C126.622 114.895 127.018 115.144 127.018 115.144Z" fill="#222222"/>
<path d="M141.588 115.568L140.894 109.565H135.963L137.177 116.564C137.177 116.539 139.209 117.336 141.588 115.568Z" fill="#BA5D56"/>
<path d="M136.681 113.675L137.176 116.564C137.176 116.564 139.184 117.336 141.587 115.568L141.364 113.675H136.681Z" fill="#EFEDEE"/>
<path d="M141.687 115.144C141.687 115.144 142.356 116.788 142.356 117.286C142.356 117.809 142.356 119.851 142.356 119.851H127.538C127.538 119.851 127.885 118.905 129.495 118.207C131.577 117.311 136.979 114.098 136.979 114.098C136.979 114.098 137.995 114.148 138.49 115.642C138.738 116.439 140.076 116.165 140.373 115.866C141.265 114.895 141.687 115.144 141.687 115.144Z" fill="#222222"/>
<path d="M113.587 118.979C113.018 119.452 112.894 119.851 112.894 119.851H127.712C127.712 119.851 127.712 119.452 127.712 118.979H113.587Z" fill="#EFEDEE"/>
<path d="M116.982 117.161C117.329 117.759 118.643 117.958 120.898 117.958C122.929 117.958 122.929 119.004 122.929 119.004" stroke="white" stroke-miterlimit="10"/>
<path d="M127.687 117.161C127.687 117.161 125.234 116.962 125.234 119.004" stroke="white" stroke-miterlimit="10"/>
<path d="M119.114 115.991L119.857 117.286" stroke="white" stroke-miterlimit="10"/>
<path d="M119.807 115.567L120.575 116.862" stroke="white" stroke-miterlimit="10"/>
<path d="M120.55 115.119L121.318 116.414" stroke="white" stroke-miterlimit="10"/>
<path d="M122.31 114.123H126.944" stroke="#222222" stroke-width="0.5" stroke-miterlimit="10" stroke-linecap="round" stroke-linejoin="round"/>
<path d="M128.232 118.979C127.662 119.452 127.538 119.851 127.538 119.851H142.356C142.356 119.851 142.356 119.452 142.356 118.979H128.232Z" fill="#EFEDEE"/>
<path d="M131.652 117.161C131.999 117.759 133.312 117.958 135.567 117.958C137.599 117.958 137.599 119.004 137.599 119.004" stroke="white" stroke-miterlimit="10"/>
<path d="M142.356 117.161C142.356 117.161 139.903 116.962 139.903 119.004" stroke="white" stroke-miterlimit="10"/>
<path d="M133.758 115.99L134.526 117.286" stroke="white" stroke-miterlimit="10"/>
<path d="M134.477 115.567L135.245 116.862" stroke="white" stroke-miterlimit="10"/>
<path d="M135.22 115.119L135.988 116.414" stroke="white" stroke-miterlimit="10"/>
<path d="M136.756 114.123H141.439" stroke="#222222" stroke-width="0.5" stroke-miterlimit="10" stroke-linecap="round" stroke-linejoin="round"/>
<path d="M112.522 45.4852C112.522 45.4852 111.06 39.5828 110.689 38.4122C110.391 37.4908 109.995 37.9391 110.094 38.5617C110.218 39.5579 110.49 41.874 110.49 41.874C110.49 41.874 109.276 39.2341 108.756 38.3873C108.31 37.6651 108.037 38.1881 108.186 38.6364C108.434 39.4084 109.276 41.7246 109.276 41.7246C109.276 41.7246 109.177 41.6997 108.285 42.1978C107.368 42.6959 107.591 43.2936 107.591 43.5925C107.616 43.8913 108.211 45.5599 108.781 46.8799C109.103 47.6519 109.995 47.7765 110.986 47.4776C111.952 47.1289 112.745 46.3569 112.522 45.4852Z" fill="#EA938D"/>
<path d="M107.765 43.692C107.765 43.692 108.335 45.3607 108.955 45.2112C109.549 45.0618 108.93 43.0694 108.286 42.1729" stroke="#222222" stroke-width="0.2" stroke-miterlimit="10" stroke-linecap="round" stroke-linejoin="round"/>
<path d="M109.128 44.2149C109.128 44.2149 109.599 45.0119 109.995 44.7628C110.367 44.5138 110.045 43.4678 110.045 43.4678" stroke="#222222" stroke-width="0.2" stroke-miterlimit="10" stroke-linecap="round" stroke-linejoin="round"/>
<path d="M110.316 46.1331C110.316 46.1331 109.647 44.7385 110.787 43.8668C110.787 43.8668 109.152 43.1695 109.226 42.5717C109.301 41.974 111.878 42.8457 111.878 42.8457" stroke="#222222" stroke-width="0.2" stroke-miterlimit="10" stroke-linecap="round" stroke-linejoin="round"/>
<path d="M122.286 46.083C119.684 46.357 118.272 48.6731 117.479 50.7651L115.323 56.4185L112.374 46.3819L109.178 47.1539L112.572 62.4953C112.87 63.6658 113.96 64.4628 115.149 64.3134H115.174C116.19 64.1888 117.033 63.5413 117.33 62.6198L119.733 56.4185L119.659 50.1176C119.684 48.1252 120.353 46.7056 122.286 46.083Z" fill="#EA938D"/>
<path d="M119.758 57.738L118.891 59.9047L115.496 54.7245L117.28 50.3911C118.073 48.324 119.733 46.2818 122.335 45.958C122.955 45.8833 123.103 45.8833 123.103 45.8833L119.758 57.738Z" fill="#F04935"/>
<path d="M120.426 70.4399L121.071 112.853H127.414L127.563 76.1681L128.43 77.2639L135.616 112.853H141.811L135.22 70.4399H120.426Z" fill="#4FB446"/>
<path d="M156.654 46.1329C156.282 43.9163 155.935 43.6175 154.845 42.8205C152.639 41.2017 155.34 39.9565 153.308 37.3414C152.441 36.2207 151.475 35.9966 150.682 36.3203C150.36 35.5483 149.492 34.851 147.51 34.7264C142.48 34.3778 143.397 38.7859 143.397 38.7859C138.738 41.127 143.174 44.6137 140.572 46.5562C137.053 49.1962 139.184 52.6579 139.184 52.6579H160.172C160.172 48.6981 157.001 48.1501 156.654 46.1329Z" fill="#151414"/>
<path d="M153.358 48.5484C154.051 46.8299 152.54 45.759 151.425 44.8624C151.103 44.6134 150.954 44.1651 150.88 43.6421C150.781 42.8202 149.889 42.1727 148.129 42.0233C146.519 41.8988 144.858 42.2225 143.867 43.4927C143.595 43.8164 143.421 44.19 143.372 44.5387C143.372 44.5636 143.372 44.5636 143.372 44.5885C143.124 46.4065 145.428 47.0042 143.942 49.1461C142.455 51.2879 143.818 52.6078 143.818 52.6078H155.439C155.315 49.6691 152.664 50.2668 153.358 48.5484Z" fill="#151414"/>
<path d="M141.043 49.8931L137.45 62.3704L132.148 65.3092V68.4721L136.856 67.2019C138.912 66.654 140.523 64.9854 140.994 62.8934L142.01 58.3856L141.043 49.8931Z" fill="#E08983"/>
<path d="M142.455 61.3989V52.5826C142.455 51.2876 141.91 50.0423 140.943 49.1707C139.481 49.9427 139.258 51.3125 138.565 53.6784C138.441 54.1018 138.168 55.0482 137.945 55.9199L142.455 61.3989Z" fill="#8D8D8F"/>
<path d="M119.683 50.1171L119.906 70.9625H136.087C136.087 70.9625 133.089 54.5004 133.014 49.7934C132.965 47.0289 131.528 46.1822 129.744 45.9829C128.48 45.8335 123.821 45.7837 123.078 45.9082C120.526 46.3565 119.683 47.8757 119.683 50.1171Z" fill="#F04935"/>
<path d="M132.99 49.7933C133.015 50.6401 133.114 51.8604 133.287 53.3049L142.827 63.3665L142.802 57.738L135.294 48.4734C134.08 46.9791 132.296 46.1323 130.388 46.1074C131.85 46.4312 132.965 47.3776 132.99 49.7933Z" fill="#EA938D"/>
<path d="M135.988 57.738L139.209 52.9563L136.88 50.2167C135.021 47.7014 133.757 46.3316 131.156 46.0327C130.536 45.958 129.124 45.9331 129.124 45.9331L133.485 54.849L135.988 57.738Z" fill="#F04935"/>
<path d="M141.811 67.6753H154.077C154.077 67.6753 156.035 72.3574 157.298 77.0395C158.537 81.7216 162.477 112.828 162.477 112.828H157.1L148.328 78.6334L150.385 112.828H144.934C144.934 112.828 140.325 80.1028 140.473 77.2139C140.672 73.4532 141.811 67.6753 141.811 67.6753Z" fill="#151414"/>
<path d="M154.275 71.4106C154.275 71.4106 156.084 75.769 156.406 77.2384C157.62 82.6676 161.015 110.984 161.015 110.984" stroke="#222222" stroke-width="0.2" stroke-miterlimit="10" stroke-linecap="round" stroke-linejoin="round"/>
<path d="M141.043 72.0336C141.043 72.0336 148.898 75.5203 155.241 70.7385" stroke="#222222" stroke-width="0.2" stroke-miterlimit="10" stroke-linecap="round" stroke-linejoin="round"/>
<path d="M153.234 58.46L153.036 64.3126L154.968 69.443C154.968 69.443 149.715 73.901 140.943 70.4143L142.653 61.2244C141.315 59.3068 141.489 58.0366 141.612 55.6956L140.943 49.1705C140.943 49.1705 141.835 48.0747 148.377 48.0747C149.715 48.0747 151.078 48.0498 152.342 48.2988L153.036 48.523L153.234 58.46Z" fill="#8D8D8F"/>
<path d="M151.177 40.6282C151.251 42.3715 150.706 44.1398 150.087 44.8869C149.963 45.0363 149.839 45.136 149.715 45.2605C148.327 46.4808 146.543 46.182 146.543 46.182C146.543 46.182 146.469 46.1571 146.345 46.1322C145.676 45.908 143.595 44.9367 143.941 41.7738C144.14 39.9308 144.933 38.586 145.676 37.7143C146.196 37.1166 147.138 37.2411 147.485 37.9634C147.906 38.835 148.823 39.9059 150.855 40.5784L151.177 40.6282Z" fill="#E08983"/>
<path d="M149.715 48.3236V45.2603C148.328 46.4806 146.543 46.1817 146.543 46.1817C146.543 46.1817 146.469 46.1568 146.345 46.1319L146.147 47.7756L145.775 49.519C145.8 49.4941 148.6 50.2163 149.715 48.3236Z" fill="#E08983"/>
<path d="M146.568 46.1568C146.568 46.1568 148.352 46.4806 149.74 45.2354V45.2852C149.666 45.4346 149.566 45.5591 149.467 45.6587C149.343 45.8082 149.219 45.9078 149.096 46.0323C148.08 46.9538 146.841 47.0036 146.271 46.9787L146.37 46.107C146.494 46.1568 146.568 46.1568 146.568 46.1568Z" fill="#222222"/>
<path d="M151.326 43.243C151.326 43.243 152.615 43.4173 152.887 42.0724C153.16 40.7276 151.822 40.7525 151.822 40.7525C151.822 40.7525 151.549 42.6203 151.326 43.243Z" fill="#E08983"/>
<path d="M152.095 41.4502C152.095 41.4502 152.615 41.5 152.64 42.0977" stroke="#222222" stroke-width="0.2" stroke-miterlimit="10" stroke-linecap="round" stroke-linejoin="round"/>
<path d="M152.391 41.5994C152.391 41.5994 152.391 42.1722 151.896 42.5208" stroke="#222222" stroke-width="0.2" stroke-miterlimit="10" stroke-linecap="round" stroke-linejoin="round"/>
<path d="M151.797 43.2432C151.747 43.4424 151.549 43.5421 151.375 43.4923C151.177 43.4424 151.078 43.2432 151.128 43.0689C151.177 42.8696 151.375 42.77 151.549 42.8198C151.747 42.8696 151.871 43.0689 151.797 43.2432Z" fill="#FEAA4A"/>
<path d="M143.62 42.3464C143.62 42.3464 142.356 42.0475 142.554 40.7026C142.777 39.3329 144.016 39.8559 144.016 39.8559C144.016 39.8559 143.62 41.8483 143.62 42.3464Z" fill="#E08983"/>
<path d="M143.545 40.4038C143.545 40.4038 143.049 40.2792 142.801 40.8271" stroke="#222222" stroke-width="0.2" stroke-miterlimit="10" stroke-linecap="round" stroke-linejoin="round"/>
<path d="M143.198 40.4536C143.198 40.4536 142.999 41.0015 143.346 41.4996" stroke="#222222" stroke-width="0.2" stroke-miterlimit="10" stroke-linecap="round" stroke-linejoin="round"/>
<path d="M143.149 42.2217C143.149 42.396 143.297 42.5206 143.471 42.5206C143.644 42.5206 143.768 42.3711 143.768 42.1968C143.768 42.0225 143.62 41.8979 143.446 41.8979C143.273 41.8979 143.149 42.0474 143.149 42.2217Z" fill="#FEAA4A"/>
<path d="M147.931 39.8315C148.228 39.9312 148.575 40.1304 148.922 40.5289" stroke="#222222" stroke-width="0.2" stroke-miterlimit="10" stroke-linecap="round" stroke-linejoin="round"/>
<path d="M144.982 39.8067C145.205 39.6572 145.503 39.5576 145.924 39.5576" stroke="#222222" stroke-width="0.2" stroke-miterlimit="10" stroke-linecap="round" stroke-linejoin="round"/>
<path d="M146.791 40.5042C146.791 40.5042 146.741 41.1019 146.171 41.5502C145.453 42.0981 145.651 42.372 146.196 42.6709" stroke="#222222" stroke-width="0.2" stroke-miterlimit="10" stroke-linecap="round" stroke-linejoin="round"/>
<path d="M146.295 43.5921C146.295 43.5921 146.989 43.6668 147.385 43.094" stroke="#222222" stroke-width="0.2" stroke-miterlimit="10" stroke-linecap="round" stroke-linejoin="round"/>
<path d="M147.51 41.2015C147.559 41.0272 147.733 40.9027 147.906 40.9525C148.079 41.0023 148.203 41.1766 148.154 41.351" stroke="#222222" stroke-width="0.2" stroke-miterlimit="10" stroke-linecap="round" stroke-linejoin="round"/>
<path d="M148.822 41.3506C148.649 41.3755 148.426 41.4004 148.153 41.3506" stroke="#222222" stroke-width="0.2" stroke-miterlimit="10" stroke-linecap="round" stroke-linejoin="round"/>
<path d="M148.822 41.0022C148.649 41.1018 148.426 41.1765 148.153 41.2014" stroke="#222222" stroke-width="0.2" stroke-miterlimit="10" stroke-linecap="round" stroke-linejoin="round"/>
<path d="M144.635 40.5042C144.759 40.6287 144.957 40.7283 145.18 40.803" stroke="#222222" stroke-width="0.2" stroke-miterlimit="10" stroke-linecap="round" stroke-linejoin="round"/>
<path d="M144.833 40.1799C144.932 40.3294 145.056 40.5037 145.279 40.6531" stroke="#222222" stroke-width="0.2" stroke-miterlimit="10" stroke-linecap="round" stroke-linejoin="round"/>
<path d="M145.205 40.8274C145.229 40.6531 145.403 40.5286 145.601 40.5535C145.775 40.5784 145.898 40.7527 145.874 40.9519" stroke="#222222" stroke-width="0.2" stroke-miterlimit="10" stroke-linecap="round" stroke-linejoin="round"/>
<path d="M140.968 70.4147L142.677 61.2248C141.339 59.3072 141.513 58.037 141.637 55.696L141.215 51.5867" stroke="#222222" stroke-width="0.2" stroke-miterlimit="10" stroke-linecap="round" stroke-linejoin="round"/>
<path d="M154.548 61.0752C155.044 62.1461 155.415 63.2669 155.638 64.0638C156.109 65.7324 156.555 71.5104 155.762 71.1119C154.945 70.7134 153.606 70.2153 153.606 70.2153C152.12 70.2153 150.385 71.4606 150.385 71.4606C150.881 71.9338 152.144 71.2862 152.591 71.2115C153.037 71.1368 153.408 71.8092 153.408 71.8092C151.302 72.8054 150.435 74.2748 150.435 74.2748C150.435 74.2748 150.559 74.5986 151.203 74.3495C151.203 74.3495 152.368 73.2288 153.755 72.5813C152.368 73.2039 151.203 74.3495 151.203 74.3495L150.41 74.9472C150.41 74.9472 150.757 75.6446 151.649 75.0469C151.649 75.0469 152.491 74.2997 154.077 73.3782C152.491 74.3246 151.649 75.0469 151.649 75.0469L150.98 75.5201C150.98 75.5201 151.203 76.1676 152.045 75.6197C152.045 75.6197 153.557 74.474 154.375 74.1005C153.582 74.474 152.045 75.6197 152.045 75.6197L151.698 75.8936C151.698 75.8936 151.897 76.6906 152.814 76.068C153.557 75.545 155.242 74.6484 155.737 74.474C155.762 74.4491 155.812 74.4491 155.837 74.4491C156.63 74.225 157.398 73.8016 157.992 73.179C160.445 70.564 159.529 64.3876 159.132 62.4699C159.107 62.2956 158.934 61.6231 158.612 60.6768L154.548 61.0752Z" fill="#E08983"/>
<path d="M151.178 74.3495C151.178 74.3495 152.343 73.2288 153.73 72.5813" stroke="#222222" stroke-width="0.2" stroke-miterlimit="10" stroke-linecap="round" stroke-linejoin="round"/>
<path d="M151.624 75.0217C151.624 75.0217 152.466 74.2745 154.052 73.353" stroke="#222222" stroke-width="0.2" stroke-miterlimit="10" stroke-linecap="round" stroke-linejoin="round"/>
<path d="M152.021 75.5949C152.021 75.5949 153.532 74.4493 154.35 74.0757" stroke="#222222" stroke-width="0.2" stroke-miterlimit="10" stroke-linecap="round" stroke-linejoin="round"/>
<path d="M153.234 58.4605L154.374 61.3993H159.776C159.776 61.3993 158.438 55.1232 156.406 51.5868C155.241 49.5446 154.052 48.6231 152.317 48.2993L153.234 58.4605Z" fill="#8D8D8F"/>
<path d="M153.234 58.4605L152.119 55.8455L153.036 64.3131L153.234 58.4605Z" fill="#222222"/>
<path d="M150.136 34.5516C150.111 34.5516 150.111 34.5516 150.136 34.5516L146.271 33.9041C146.246 33.9041 146.221 33.8543 146.221 33.8293C146.221 33.8044 146.271 33.7795 146.295 33.7795L150.161 34.4271C150.186 34.4271 150.211 34.4769 150.211 34.5018C150.186 34.5267 150.161 34.5516 150.136 34.5516Z" fill="white"/>
<path d="M148.403 35.1492C148.031 34.9998 147.659 35.0247 147.659 35.0247L147.635 34.9001C147.659 34.9001 148.031 34.8503 148.452 35.0247L148.403 35.1492Z" fill="#222222"/>
<path d="M147.659 34.975C147.659 34.975 147.932 34.1033 146.247 33.8294C144.586 33.5554 144.562 34.726 144.562 34.726C144.562 34.726 144.14 36.5689 145.528 36.7931C146.891 37.0421 147.51 35.8965 147.659 34.975Z" fill="#F36E5F"/>
<path d="M148.427 35.0997C148.427 35.0997 148.452 34.2032 150.112 34.4771C151.772 34.7511 151.425 35.8718 151.425 35.8718C151.425 35.8718 151.227 37.7396 149.839 37.5155C148.477 37.2914 148.278 36.0212 148.427 35.0997Z" fill="#F36E5F"/>
<path d="M149.963 37.6398C149.914 37.6398 149.889 37.6398 149.839 37.6149C149.195 37.5153 148.724 37.1666 148.501 36.6187C148.254 36.0459 148.303 35.4233 148.353 35.0995C148.353 35.0497 148.377 34.8006 148.625 34.6014C148.947 34.3524 149.443 34.2776 150.137 34.4022C150.756 34.5018 151.178 34.7508 151.401 35.0995C151.648 35.498 151.524 35.8965 151.524 35.9214C151.524 35.9463 151.401 36.9425 150.781 37.4157C150.558 37.59 150.285 37.6647 149.963 37.6398ZM149.79 34.5267C149.195 34.4769 148.898 34.6014 148.749 34.7259C148.551 34.9003 148.526 35.0995 148.526 35.0995C148.477 35.3984 148.427 35.9961 148.65 36.5191C148.873 37.0172 149.27 37.316 149.864 37.4157C150.186 37.4655 150.459 37.4157 150.682 37.2413C151.252 36.8179 151.351 35.8467 151.351 35.8467C151.351 35.8217 151.45 35.4731 151.252 35.1493C151.054 34.8505 150.682 34.6263 150.112 34.5516C149.988 34.5516 149.889 34.5267 149.79 34.5267Z" fill="#222222"/>
<path d="M145.701 36.9177C145.627 36.9177 145.577 36.8928 145.503 36.8928C145.156 36.843 144.859 36.6686 144.685 36.3947C144.264 35.7472 144.462 34.751 144.487 34.7261C144.487 34.7261 144.487 34.3027 144.859 34.0038C145.181 33.7299 145.652 33.6552 146.271 33.7548C146.965 33.8793 147.436 34.1034 147.634 34.4521C147.807 34.7261 147.758 34.9502 147.733 35C147.684 35.3238 147.535 35.9215 147.114 36.3947C146.742 36.7683 146.271 36.9426 145.701 36.9177ZM145.974 33.8793C145.528 33.8544 145.206 33.9291 144.958 34.1034C144.661 34.3525 144.636 34.7012 144.636 34.7261C144.636 34.751 144.438 35.6974 144.809 36.2702C144.958 36.4943 145.206 36.6437 145.503 36.6936C146.098 36.7932 146.569 36.6437 146.94 36.2453C147.337 35.8219 147.485 35.2491 147.535 34.9502C147.535 34.9502 147.584 34.751 147.461 34.5268C147.337 34.3276 147.015 34.0536 146.222 33.9291C146.147 33.9042 146.073 33.8793 145.974 33.8793Z" fill="#222222"/>
<path d="M122.409 40.7529C122.409 40.7529 121.121 40.5537 121.22 39.1839C121.319 37.8141 122.608 38.2126 122.608 38.2126C122.608 38.2126 122.31 39.1839 122.409 40.7529Z" fill="#EA938D"/>
<path d="M122.162 38.8101C122.162 38.8101 121.642 38.7105 121.468 39.2833" stroke="#222222" stroke-width="0.2" stroke-miterlimit="10" stroke-linecap="round" stroke-linejoin="round"/>
<path d="M121.839 38.885C121.839 38.885 121.69 39.4329 122.062 39.931" stroke="#222222" stroke-width="0.2" stroke-miterlimit="10" stroke-linecap="round" stroke-linejoin="round"/>
<path d="M131.132 37.6648C130.834 36.1705 130.017 35.0996 129.001 34.4272C128.654 34.0038 126.201 31.1149 125.11 31.4386C124.788 31.5382 124.714 31.7624 124.813 32.0612C122.93 31.1149 121.17 30.4175 121.17 31.6379C121.17 32.3103 121.592 32.8831 122.137 33.3563C121.319 32.9329 120.477 32.6091 120.08 32.8333C119.56 33.1322 120.625 33.954 121.542 34.6015C121.22 34.477 120.873 34.4272 120.6 34.5517C119.783 34.9253 122.285 35.7721 122.285 35.7721L122.36 35.7223C121.74 36.9426 121.641 38.4369 122.335 39.6323L128.158 43.1937L129.174 42.2473C131.008 41.6745 131.429 39.1093 131.132 37.6648Z" fill="#222222"/>
<path d="M124.863 46.4317L124.962 44.3148C125.086 44.3397 125.16 44.3646 125.16 44.3646C125.16 44.3646 126.919 44.514 128.158 43.1941L128.579 46.1578C128.579 46.1578 127.39 47.5773 124.863 46.4317Z" fill="#EA938D"/>
<path d="M125.16 44.3646C125.16 44.3646 126.919 44.514 128.158 43.1941V43.2688C128.084 43.4182 128.01 43.5179 127.935 43.6424C127.836 43.7918 127.737 43.9163 127.613 44.0409C126.696 45.0121 125.482 45.1865 124.912 45.2114L124.937 44.3397C125.086 44.3646 125.16 44.3646 125.16 44.3646Z" fill="#222222"/>
<path d="M124.887 34.7759C124.887 34.7759 122.285 36.5939 122.211 40.3048C122.162 43.4179 124.293 44.1899 124.937 44.3393C125.061 44.3642 125.135 44.3892 125.135 44.3892C125.135 44.3892 126.894 44.5386 128.133 43.2186C128.257 43.0941 128.356 42.9696 128.455 42.8201C129.001 42.0481 129.372 40.2549 129.149 38.5614C129.174 38.5365 125.507 37.366 124.887 34.7759Z" fill="#EA938D"/>
<path d="M129.421 41.1264C129.421 41.1264 130.735 41.1015 130.784 39.7318C130.858 38.362 129.52 38.5861 129.52 38.5861C129.52 38.5861 129.545 40.6283 129.421 41.1264Z" fill="#EA938D"/>
<path d="M129.917 39.2338C129.917 39.2338 130.437 39.2089 130.561 39.8066" stroke="#222222" stroke-width="0.2" stroke-miterlimit="10" stroke-linecap="round" stroke-linejoin="round"/>
<path d="M130.239 39.3582C130.239 39.3582 130.314 39.931 129.892 40.3543" stroke="#222222" stroke-width="0.2" stroke-miterlimit="10" stroke-linecap="round" stroke-linejoin="round"/>
<path d="M126.325 37.7893C126.647 37.864 127.018 38.0135 127.39 38.387" stroke="#222222" stroke-width="0.2" stroke-miterlimit="10" stroke-linecap="round" stroke-linejoin="round"/>
<path d="M123.351 38.1131C123.549 37.9387 123.846 37.7893 124.267 37.7395" stroke="#222222" stroke-width="0.2" stroke-miterlimit="10" stroke-linecap="round" stroke-linejoin="round"/>
<path d="M125.259 38.5864C125.259 38.5864 125.284 39.209 124.739 39.7071C124.069 40.3298 124.317 40.5788 124.887 40.8279" stroke="#222222" stroke-width="0.2" stroke-miterlimit="10" stroke-linecap="round" stroke-linejoin="round"/>
<path d="M125.06 41.8238C125.06 41.8238 125.754 41.8238 126.101 41.2012" stroke="#222222" stroke-width="0.2" stroke-miterlimit="10" stroke-linecap="round" stroke-linejoin="round"/>
<path d="M126.746 39.2339C126.746 39.4332 126.597 39.5826 126.424 39.5826C126.226 39.5826 126.077 39.4332 126.077 39.2588C126.077 39.0596 126.226 38.9102 126.399 38.9102C126.572 38.9102 126.746 39.0596 126.746 39.2339Z" fill="#222222"/>
<path d="M124.367 39.1341C124.367 39.3333 124.218 39.4828 124.045 39.4828C123.847 39.4828 123.698 39.3333 123.698 39.159C123.698 38.9598 123.847 38.8103 124.02 38.8103C124.218 38.7854 124.367 38.9349 124.367 39.1341Z" fill="#222222"/>
<path d="M115.298 56.418L116.686 59.4564" stroke="#222222" stroke-width="0.2" stroke-miterlimit="10" stroke-linecap="round" stroke-linejoin="round"/>
<path d="M119.882 70.9624L119.757 51.8354" stroke="#222222" stroke-width="0.2" stroke-miterlimit="10" stroke-linecap="round" stroke-linejoin="round"/>
<path d="M133.486 54.8493L131.776 52.9067L134.328 60.6521L133.486 54.8493Z" fill="#222222"/>
<path d="M126.201 74.4243L127.514 86.7771L127.564 76.1677L126.201 74.4243Z" fill="#222222"/>
<path d="M125.532 73.553L128.406 77.2389" stroke="white" stroke-width="0.2" stroke-miterlimit="10" stroke-linecap="round" stroke-linejoin="round"/>
<path d="M148.154 61.3993C148.154 61.3993 150.756 62.0468 152.045 59.9299" stroke="#222222" stroke-width="0.2" stroke-miterlimit="10" stroke-linecap="round" stroke-linejoin="round"/>
<path d="M146.37 73.2292L147.139 77.0646C147.238 77.5378 147.659 77.8616 148.13 77.8366C148.155 77.8366 148.155 77.8366 148.155 77.8366" stroke="#222222" stroke-width="0.2" stroke-miterlimit="10" stroke-linecap="round" stroke-linejoin="round"/>
<path d="M147.634 73.9511C147.684 74.1753 147.634 74.3994 147.535 74.3994C147.436 74.4243 147.337 74.2251 147.287 74.0009C147.238 73.7768 147.287 73.5526 147.386 73.5526C147.486 73.5277 147.585 73.727 147.634 73.9511Z" stroke="#222222" stroke-width="0.2" stroke-miterlimit="10" stroke-linecap="round" stroke-linejoin="round"/>
<path d="M123.079 74.8232L123.549 92.5804" stroke="white" stroke-width="0.2" stroke-miterlimit="10" stroke-linecap="round" stroke-linejoin="round"/>
<path d="M122.21 93.3271L125.58 95.7927" stroke="white" stroke-width="0.2" stroke-miterlimit="10" stroke-linecap="round" stroke-linejoin="round"/>
<path d="M132.148 74.8232L135.468 93.7758" stroke="white" stroke-width="0.2" stroke-miterlimit="10" stroke-linecap="round" stroke-linejoin="round"/>
<path d="M133.808 93.7754L136.608 95.7927" stroke="white" stroke-width="0.2" stroke-miterlimit="10" stroke-linecap="round" stroke-linejoin="round"/>
<path d="M123.549 96.1665L123.326 110.91" stroke="white" stroke-width="0.2" stroke-miterlimit="10" stroke-linecap="round" stroke-linejoin="round"/>
<path d="M135.468 96.5896L138.54 111.184" stroke="white" stroke-width="0.2" stroke-miterlimit="10" stroke-linecap="round" stroke-linejoin="round"/>
<path d="M138.54 119.826H150.236V117.41C148.551 117.435 147.238 118.655 145.032 118.655C142.827 118.655 142.604 117.759 142.604 117.759C142.604 117.759 138.54 118.606 138.54 119.826Z" fill="#D44618"/>
<path d="M150.781 119.826H162.477V117.41C160.792 117.435 159.479 118.655 157.273 118.655C155.068 118.655 154.845 117.759 154.845 117.759C154.845 117.759 150.781 118.606 150.781 119.826Z" fill="#D44618"/>
<path d="M153.681 66.455C153.681 66.455 153.656 66.8037 153.284 67.2022C152.912 67.6007 153.136 67.9742 153.136 67.9742C153.136 67.9742 153.928 67.5509 154.449 67.1773C154.969 66.8037 155.093 66.6045 154.944 66.1313C154.771 65.5336 153.582 65.7328 153.582 65.7328L153.705 66.3056L153.681 66.455Z" fill="#EA938D"/>
<path d="M153.978 66.4546C153.978 66.4546 155.044 66.3052 155.192 66.8531C155.316 67.3512 155.217 67.5256 154.697 67.8991C154.176 68.2727 153.383 68.6961 153.383 68.6961C153.383 68.6961 153.136 68.3225 153.532 67.924C153.904 67.5256 153.83 67.1022 153.83 67.1022" fill="#EA938D"/>
<path d="M154.226 67.0528C154.226 67.0528 155.292 66.9034 155.44 67.4513C155.564 67.9494 155.465 68.1237 154.945 68.4973C154.424 68.8708 153.631 69.2942 153.631 69.2942C153.631 69.2942 153.384 68.9207 153.78 68.5222C154.152 68.1237 154.077 67.7003 154.077 67.7003" fill="#EA938D"/>
<path d="M154.425 67.6501C154.425 67.6501 155.416 67.5007 155.565 68.0237C155.688 68.4969 155.589 68.6712 155.094 69.0199C154.598 69.3935 153.855 69.7919 153.855 69.7919C153.855 69.7919 153.632 69.4184 153.979 69.0448C154.326 68.6712 154.251 68.2728 154.251 68.2728" fill="#EA938D"/>
<path d="M153.755 65.7078C153.755 65.7078 154.796 65.5584 154.945 66.1063C155.069 66.6044 154.969 66.7787 154.449 67.1523C153.929 67.5259 153.136 67.9493 153.136 67.9493C153.136 67.9493 152.888 67.5757 153.284 67.1772C153.656 66.7787 153.706 66.2806 153.706 66.2806" stroke="#222222" stroke-width="0.2" stroke-miterlimit="10" stroke-linecap="round" stroke-linejoin="round"/>
<path d="M154.994 66.5796C155.093 66.6294 155.168 66.729 155.192 66.8535C155.316 67.3516 155.217 67.526 154.697 67.8995C154.176 68.2731 153.384 68.6965 153.384 68.6965C153.384 68.6965 153.136 68.3229 153.532 67.9245C153.631 67.8248 153.681 67.7501 153.73 67.6505" stroke="#222222" stroke-width="0.2" stroke-miterlimit="10" stroke-linecap="round" stroke-linejoin="round"/>
<path d="M155.242 67.2024C155.341 67.2522 155.391 67.3518 155.44 67.4514C155.564 67.9495 155.465 68.1239 154.944 68.4974C154.424 68.871 153.631 69.2944 153.631 69.2944C153.631 69.2944 153.383 68.9208 153.78 68.5224C153.805 68.4974 153.829 68.4725 153.854 68.4476" stroke="#222222" stroke-width="0.2" stroke-miterlimit="10" stroke-linecap="round" stroke-linejoin="round"/>
<path d="M155.489 67.8496C155.539 67.8994 155.564 67.9492 155.589 68.0239C155.712 68.4971 155.613 68.6715 155.118 69.0201C154.622 69.3937 153.879 69.7922 153.879 69.7922C153.879 69.7922 153.681 69.4933 153.928 69.1447" stroke="#222222" stroke-width="0.2" stroke-miterlimit="10" stroke-linecap="round" stroke-linejoin="round"/>
<path d="M144.686 111.184L150.237 110.91" stroke="#222222" stroke-width="0.2" stroke-miterlimit="10" stroke-linecap="round" stroke-linejoin="round"/>
<path d="M156.63 111.184L162.18 110.91" stroke="#222222" stroke-width="0.2" stroke-miterlimit="10" stroke-linecap="round" stroke-linejoin="round"/>
<path d="M93.7889 115.17L92.203 109.591H96.9854L97.9022 114.123C97.9022 114.148 96.242 115.717 93.7889 115.17Z" fill="#BA5D56"/>
<path d="M93.3424 113.725C93.6149 114.597 93.6149 115.543 93.3424 116.415C93.2185 116.763 93.1441 117.112 93.1441 117.311C93.1441 117.834 93.1441 119.852 93.1441 119.852H107.491C107.491 119.852 107.293 118.233 105.583 118.233C104.319 118.233 100.751 116.016 98.9672 114.846C98.2734 114.397 97.8274 113.7 97.6787 112.878L93.3424 113.725Z" fill="#FF8276"/>
<path d="M99.9339 115.493C99.9339 115.493 99.1161 115.718 98.3976 116.913" stroke="white" stroke-width="0.2" stroke-miterlimit="10"/>
<path d="M101.322 116.34C101.322 116.34 100.727 116.514 100.207 117.361" stroke="white" stroke-width="0.2" stroke-miterlimit="10"/>
<path d="M92.9959 112.455L97.3323 111.384L96.9606 109.616H92.203L92.9959 112.455Z" fill="#222222"/>
<path d="M73.9667 115.17L74.264 109.591H78.6004L78.08 114.123C78.1048 114.148 76.4446 115.717 73.9667 115.17Z" fill="#BA5D56"/>
<path d="M73.4457 116.34C73.3714 116.714 73.3218 117.112 73.3218 117.311C73.3218 117.834 73.3218 119.852 73.3218 119.852H87.6689C87.6689 119.852 87.4707 118.233 85.7609 118.233C84.4972 118.233 80.929 116.016 79.1449 114.846C78.8971 114.671 78.0794 114.123 78.0794 114.123L78.3272 112.878H77.8564L74.09 113.028L73.9909 115.169C73.9661 115.169 73.5448 115.892 73.4457 116.34Z" fill="#FF8276"/>
<path d="M80.1358 115.493C80.1358 115.493 79.3181 115.718 78.5995 116.913" stroke="white" stroke-width="0.2" stroke-miterlimit="10"/>
<path d="M81.524 116.34C81.524 116.34 80.9293 116.514 80.409 117.361" stroke="white" stroke-width="0.2" stroke-miterlimit="10"/>
<path d="M74.2635 109.616H78.5998L78.3768 111.608L74.1148 112.455L74.2635 109.616Z" fill="#222222"/>
<path d="M89.6508 54.1773L88.734 61.4496L89.6508 68.7716L76.5179 68.1988L77.9055 63.7159L75.1798 50.5661C76.4684 48.6983 78.2029 48.4492 80.0613 48.2002L86.157 48.1753C87.9163 48.1504 90.2951 49.0968 89.6508 54.1773Z" fill="#F36E5F"/>
<path d="M75.1803 50.5659L70.9926 58.386L76.0724 60.7271L77.014 59.432L75.1803 50.5659Z" fill="#F36E5F"/>
<path d="M77.5094 61.8482L74.4368 62.0724L75.3536 60.4037L71.4138 58.5857L69.9518 61.8731C69.927 61.9479 69.9022 61.9977 69.8775 62.0724C69.0598 64.264 70.9678 66.5303 73.2722 66.2315L77.3112 65.7085L77.9059 63.7659L77.5094 61.8482Z" fill="#F47365"/>
<path d="M71.2647 58.8596L74.9072 61.2256L75.3532 60.3788L71.4134 58.5608L71.2647 58.8596Z" fill="#222222"/>
<path d="M74.4366 62.072L72.6029 62.6697" stroke="#222222" stroke-width="0.2" stroke-miterlimit="10" stroke-linecap="round" stroke-linejoin="round"/>
<path d="M76.5179 68.1987C76.5179 68.1987 75.0063 72.3329 74.0152 76.8905C72.9992 81.4481 72.1815 111.06 72.1815 111.06H80.1852L81.9197 78.9825L82.4648 79.2067L90.5676 111.06H98.8934L89.6508 68.7715L76.5179 68.1987Z" fill="#151414"/>
<path d="M80.2098 78.2356C80.2841 78.2605 81.9443 78.9827 81.9443 78.9827C81.9443 78.9827 81.5726 86.8029 81.5974 86.7032C81.5726 86.6285 80.2098 78.2356 80.2098 78.2356Z" fill="#151414"/>
<path d="M79.8382 78.0862L84.6206 80.1284" stroke="#222222" stroke-width="0.2" stroke-miterlimit="10" stroke-linecap="round" stroke-linejoin="round"/>
<path d="M85.2155 36.8186C83.6049 36.6692 79.7641 37.1673 79.7641 40.0065C79.7641 41.8992 79.7641 43.8169 80.4331 44.6139C80.557 44.7633 80.6809 44.8878 80.8296 45.0123C82.3163 46.3323 84.2491 46.0085 84.2491 46.0085C85.7111 46.0085 86.8757 44.7384 86.8757 43.4682C86.8757 42.4969 86.8261 36.9432 85.2155 36.8186Z" fill="#F47365"/>
<path d="M84.4728 45.9339C84.3489 45.9837 84.2498 46.0086 84.2498 46.0086C84.2498 46.0086 82.3171 46.3573 80.8303 45.0125V48.2003H84.6711L84.4728 45.9339Z" fill="#F47365"/>
<path d="M84.7939 51.6369C84.7939 51.6369 85.7108 50.3419 84.2736 48.8974C84.2736 48.8974 85.3639 47.2786 85.24 46.0084C85.1161 44.7383 82.6382 42.8455 85.017 40.1309L87.7426 40.0064C87.7426 40.0064 87.8665 37.6155 85.9338 35.9967C83.332 33.8051 80.5815 35.5484 80.3585 35.648C80.3585 35.648 78.7726 35.4737 77.4593 37.1921C76.146 38.9355 77.6328 41.3014 76.2699 42.5965C74.9071 43.8666 71.9584 45.5103 73.8664 47.6273C75.7744 49.7193 70.3725 50.9645 73.2469 53.6293H85.8099C85.7851 53.6044 86.3798 51.9109 84.7939 51.6369Z" fill="#222222"/>
<path d="M94.9791 53.0815L88.041 48.6235C87.8923 48.6235 85.6374 50.6906 86.7277 54.3766L93.0712 58.461L94.9791 53.0815Z" fill="#F36E5F"/>
<path d="M104.221 40.5297C103.85 42.0987 103.924 41.6504 103.924 41.6504C103.924 41.6504 103.602 40.455 103.181 40.0067C102.759 39.5584 102.016 39.0852 102.016 39.0852C102.016 39.0852 101.595 39.2844 101.892 39.8074C102.214 40.3304 102.735 40.4052 102.859 41.6504C102.859 41.6504 102.512 40.704 101.644 40.5546C100.777 40.4052 100.43 40.4052 100.43 40.4052C100.43 40.4052 100.331 40.7538 100.752 41.0278C101.174 41.3017 101.917 41.1772 102.165 41.8995C102.165 41.8995 101.074 41.227 100.232 41.4512C100.232 41.4512 100.331 41.9244 100.951 42.1485C101.57 42.3726 101.595 42.4972 101.595 42.4972C101.595 42.4972 101.074 43.4934 100.901 43.9915C100.728 44.4896 100.926 46.2827 100.926 46.2827L95.9699 54.1277L94.8549 53.4055L94.954 53.0817L93.2195 58.0378C94.4584 58.5608 95.6726 58.8846 96.7629 58.76C98.8443 58.5608 101.52 51.7867 103.156 46.9302C103.156 46.9302 103.726 45.8344 104.271 45.0873C104.816 44.3401 104.816 42.1983 104.94 41.1025C105.064 40.0067 105.113 39.1848 105.113 39.1848C105.113 39.1848 104.593 38.9856 104.221 40.5297Z" fill="#F47365"/>
<path d="M96.9366 55.3978L96.0198 54.0779L96.1189 55.3978" stroke="#222222" stroke-width="0.2" stroke-miterlimit="10" stroke-linecap="round" stroke-linejoin="round"/>
<path d="M104.395 36.5946L101.396 36.0218C101.149 35.9719 100.926 36.1214 100.876 36.3704L99.4636 43.7921C99.4141 44.0411 99.5627 44.2653 99.8105 44.3151L102.809 44.8879C103.057 44.9377 103.28 44.7883 103.329 44.5392L104.742 37.1176C104.791 36.8685 104.618 36.6195 104.395 36.5946Z" fill="#F5E1E0"/>
<path d="M104.643 36.3705L101.223 35.698C100.976 35.6482 100.753 35.7976 100.703 36.0467L99.1915 44.0162C99.142 44.2653 99.2907 44.4894 99.5384 44.5392L102.958 45.2117C103.206 45.2615 103.429 45.1121 103.478 44.863L104.99 36.8935C105.039 36.6444 104.891 36.4203 104.643 36.3705ZM103.305 44.5392C103.255 44.7883 103.032 44.9377 102.784 44.8879L99.7862 44.3151C99.5384 44.2653 99.3898 44.0411 99.4393 43.7921L100.852 36.3705C100.901 36.1214 101.124 35.972 101.372 36.0218L102.091 36.1463C102.165 36.1712 102.215 36.221 102.19 36.2957C102.165 36.4203 102.239 36.5448 102.388 36.5697L103.231 36.744C103.354 36.7689 103.478 36.6942 103.503 36.5448C103.528 36.4701 103.577 36.4203 103.652 36.4452L104.37 36.5697C104.618 36.6195 104.767 36.8436 104.717 37.0927L103.305 44.5392Z" fill="#222222"/>
<path d="M104.32 44.7382L103.205 42.6711C103.205 42.6711 102.536 43.244 102.957 44.0409L103.354 45.336" fill="#F47365"/>
<path d="M96.7876 116.688C96.7876 117.311 96.2672 117.834 95.6477 117.834C95.0283 117.834 94.5079 117.311 94.5079 116.688C94.5079 116.065 95.0283 115.542 95.6477 115.542C96.292 115.542 96.7876 116.065 96.7876 116.688Z" fill="#EFEDEE"/>
<path d="M76.89 116.688C76.89 117.311 76.3696 117.834 75.7501 117.834C75.1307 117.834 74.6103 117.311 74.6103 116.688C74.6103 116.065 75.1307 115.542 75.7501 115.542C76.3696 115.542 76.89 116.065 76.89 116.688Z" fill="#EFEDEE"/>
<path d="M89.4039 56.1197L87.9915 55.1982L88.7349 61.2501L89.4039 56.1197Z" fill="#222222"/>
<path d="M86.7272 54.4014L93.0707 58.4609" stroke="#222222" stroke-width="0.2" stroke-miterlimit="10" stroke-linecap="round" stroke-linejoin="round"/>
<path d="M76.5181 68.1985L77.9057 63.7156L76.3942 56.4185" stroke="#222222" stroke-width="0.2" stroke-miterlimit="10" stroke-linecap="round" stroke-linejoin="round"/>
<path d="M83.4317 43.7673C83.4317 43.7673 82.1185 43.7424 82.0441 42.3726C81.9698 41.0029 83.2831 41.227 83.2831 41.227C83.2831 41.227 83.3079 43.1945 83.4317 43.7673Z" fill="#F47365"/>
<path d="M82.9119 41.8996C82.9119 41.8996 82.3916 41.8747 82.2924 42.4724" stroke="#222222" stroke-width="0.5" stroke-miterlimit="10" stroke-linecap="round" stroke-linejoin="round"/>
<path d="M82.614 41.999C82.614 41.999 82.5397 42.5718 82.9857 42.9952" stroke="#222222" stroke-width="0.5" stroke-miterlimit="10" stroke-linecap="round" stroke-linejoin="round"/>
<path d="M83.5556 43.8917C83.4813 44.066 83.2582 44.1407 83.0848 44.066C82.9113 43.9913 82.837 43.7672 82.9113 43.5928C82.9857 43.4185 83.2087 43.3438 83.3821 43.4185C83.5556 43.4932 83.6299 43.7174 83.5556 43.8917Z" fill="#FF8276"/>
<path d="M46.4107 116.09L48.2443 109.615H43.4619L42.1487 116.09C42.1734 116.09 43.9575 116.638 46.4107 116.09Z" fill="#BA5D56"/>
<path d="M47.2531 113.724C47.2531 113.724 47.2531 117.136 47.2531 117.311C47.2531 117.834 47.2531 119.851 47.2531 119.851H32.9061C32.9061 119.851 33.1538 118.705 34.814 118.232C34.814 118.232 42.5947 113.7 42.7433 112.878L43.4372 115.144C44.3788 114.297 45.5682 113.799 46.8319 113.724H47.2531Z" fill="#FFB114"/>
<path d="M47.4517 112.454L43.1153 111.383L43.487 109.615H48.2446L47.4517 112.454Z" fill="#222222"/>
<path d="M44.8495 119.876C44.8495 119.876 44.9486 117.335 47.2531 117.335V119.876H44.8495Z" fill="#EFEDEE"/>
<path d="M36.2264 117.385L35.7556 117.659C35.2601 117.958 34.7645 118.182 34.2441 118.431C33.1043 118.979 32.9061 119.851 32.9061 119.851H36.0778L36.2264 117.385Z" fill="#EFEDEE"/>
<path d="M32.9061 119.876H47.2531C47.2531 119.876 47.2531 119.477 47.2531 118.979H33.476C33.0052 119.428 32.9061 119.876 32.9061 119.876Z" fill="#EFEDEE"/>
<path d="M38.3331 116.09L39.0021 117.385" stroke="white" stroke-width="0.2" stroke-miterlimit="10"/>
<path d="M39.1261 115.592L39.8943 116.962" stroke="white" stroke-width="0.2" stroke-miterlimit="10"/>
<path d="M39.9433 115.094L40.6123 116.389" stroke="white" stroke-width="0.2" stroke-miterlimit="10"/>
<path d="M40.7364 114.596L41.5045 115.941" stroke="white" stroke-width="0.2" stroke-miterlimit="10"/>
<path d="M36.9694 119.428H47.2527" stroke="#222222" stroke-width="0.5" stroke-miterlimit="10" stroke-linecap="round" stroke-linejoin="round"/>
<path d="M66.829 115.916L66.6803 109.416L62.6414 109.814L62.9387 116.29C62.9635 116.29 65.4414 116.589 66.829 115.916Z" fill="#BA5D56"/>
<path d="M67.1265 113.724C67.1265 113.724 67.1265 117.136 67.1265 117.311C67.1265 117.834 67.1265 119.851 67.1265 119.851H52.7794C52.7794 119.851 53.0272 118.705 54.6874 118.232C54.6874 118.232 62.468 113.699 62.6167 112.877L63.3105 115.144C64.2521 114.297 65.4415 113.799 66.7052 113.724H67.1265Z" fill="#FFB114"/>
<path d="M64.6973 119.876C64.6973 119.876 64.7964 117.335 67.1009 117.335V119.876H64.6973Z" fill="#EFEDEE"/>
<path d="M56.0998 117.385L55.629 117.659C55.1334 117.958 54.6378 118.182 54.1175 118.431C52.9776 118.979 52.7794 119.851 52.7794 119.851H55.9511L56.0998 117.385Z" fill="#EFEDEE"/>
<path d="M52.7539 119.876H67.101C67.101 119.876 67.101 119.477 67.101 118.979H53.3238C52.853 119.428 52.7539 119.876 52.7539 119.876Z" fill="#EFEDEE"/>
<path d="M58.1809 116.09L58.8748 117.385" stroke="white" stroke-width="0.2" stroke-miterlimit="10"/>
<path d="M58.9739 115.592L59.7421 116.962" stroke="white" stroke-width="0.2" stroke-miterlimit="10"/>
<path d="M59.7914 115.094L60.4852 116.389" stroke="white" stroke-width="0.2" stroke-miterlimit="10"/>
<path d="M60.5842 114.596L61.3524 115.941" stroke="white" stroke-width="0.2" stroke-miterlimit="10"/>
<path d="M56.8184 119.428H67.1265" stroke="#222222" stroke-width="0.5" stroke-miterlimit="10" stroke-linecap="round" stroke-linejoin="round"/>
<path d="M62.6657 109.79L62.7401 111.633L66.7543 112.23L66.7047 109.416L62.6657 109.79Z" fill="#222222"/>
<path d="M65.4902 68.1987L68.2655 111.06H60.2619L58.5273 78.9825L57.9822 79.2067L49.9042 111.06H41.5536L50.7962 68.7715L65.4902 68.1987Z" fill="#FFB728"/>
<path d="M60.2616 78.2349C60.1872 78.2598 58.527 78.982 58.527 78.982C58.527 78.982 58.8987 86.8021 58.8739 86.7025C58.8739 86.6278 60.2616 78.2349 60.2616 78.2349Z" fill="#222222"/>
<path d="M60.6334 78.0854L55.8263 80.1276" stroke="white" stroke-width="0.2" stroke-miterlimit="10" stroke-linecap="round" stroke-linejoin="round"/>
<path d="M42.149 52.359L39.6216 48.4739C39.6216 48.4739 39.795 46.6807 39.6463 46.1826C39.4729 45.6845 38.9525 44.6883 38.9525 44.6883C38.9525 44.6883 38.9773 44.5638 39.5968 44.3397C40.2163 44.1155 40.3154 43.6423 40.3154 43.6423C39.4977 43.4431 38.3826 44.0906 38.3826 44.0906C38.6304 43.3933 39.3738 43.4929 39.795 43.2189C40.2163 42.945 40.1171 42.5963 40.1171 42.5963C40.1171 42.5963 39.7702 42.5963 38.903 42.7458C38.0357 42.8952 37.6888 43.8416 37.6888 43.8416C37.8127 42.5963 38.333 42.5216 38.6552 41.9986C38.9773 41.4756 38.5313 41.2764 38.5313 41.2764C38.5313 41.2764 37.7879 41.7496 37.3667 42.1978C36.9454 42.6461 36.6233 43.8416 36.6233 43.8416C36.6233 43.8416 36.6729 44.2899 36.3259 42.7208C35.9543 41.1518 35.4587 41.376 35.4587 41.376C35.4587 41.376 35.5082 42.1729 35.6321 43.2937C35.756 44.3895 35.756 46.5313 36.3012 47.2784C36.8463 48.0256 37.4162 49.1214 37.4162 49.1214C37.9118 50.6157 38.5313 52.3092 39.1755 53.928L42.149 52.359Z" fill="#FFB7AD"/>
<path d="M55.1828 32.5848C57.0165 32.4353 61.3528 32.9832 61.3528 36.196C61.3528 38.3378 61.3528 40.5045 60.5847 41.426C60.436 41.6003 60.2873 41.7498 60.1386 41.8743C58.4537 43.3935 56.2483 42.995 56.2483 42.995C54.5881 42.995 53.2748 41.5505 53.2748 40.106C53.2748 39.0351 53.3492 32.7591 55.1828 32.5848Z" fill="#FFB7AD"/>
<path d="M56.0007 42.9698H56.2485C56.2485 42.9698 58.429 43.3683 60.1388 41.8491V45.4603L55.7777 45.4354L56.0007 42.9698Z" fill="#FFB7AD"/>
<path d="M60.2623 72.3326C54.1667 72.8307 50.2516 70.6391 50.2516 70.6391L52.0357 55.6464L49.2356 60.9013C49.2109 60.976 49.1613 61.0507 49.1365 61.1254C48.7401 61.9722 47.9471 62.4952 47.0055 62.7193C45.0728 63.2174 43.0657 62.1963 42.1488 60.4281L38.4072 53.2555L41.232 50.4662L45.2214 55.1732C45.2214 55.1732 47.7489 50.3416 49.087 47.9259C50.425 45.5101 51.8127 45.535 53.4481 45.3108C55.3809 45.0618 58.6517 45.0618 60.7827 45.0867C62.1208 45.1116 63.3845 45.6346 64.3013 46.6059C65.2925 47.6021 65.8128 48.9968 65.7633 50.3914V70.1908C65.7633 70.1908 64.3013 72.0088 60.2623 72.3326Z" fill="#1E88E5"/>
<mask id="mask0_1095_69560" style="mask-type:luminance" maskUnits="userSpaceOnUse" x="38" y="45" width="28" height="28">
<path d="M60.2623 72.3326C54.1667 72.8307 50.2516 70.6391 50.2516 70.6391L52.0357 55.6464L49.2356 60.9013C49.2109 60.976 49.1613 61.0507 49.1365 61.1254C48.7401 61.9722 47.9471 62.4952 47.0055 62.7193C45.0728 63.2174 43.0657 62.1963 42.1488 60.4281L38.4072 53.2555L41.232 50.4662L45.2214 55.1732C45.2214 55.1732 47.7489 50.3416 49.087 47.9259C50.425 45.5101 51.8127 45.535 53.4481 45.3108C55.3809 45.0618 58.6517 45.0618 60.7827 45.0867C62.1208 45.1116 63.3845 45.6346 64.3013 46.6059C65.2925 47.6021 65.8128 48.9968 65.7633 50.3914V70.1908C65.7633 70.1908 64.3013 72.0088 60.2623 72.3326Z" fill="white"/>
</mask>
<g mask="url(#mask0_1095_69560)">
<path d="M44.9248 49.5199L66.8295 45.585" stroke="white" stroke-width="0.2" stroke-miterlimit="10" stroke-linecap="round" stroke-linejoin="round"/>
<path d="M38.7788 51.8362L45.2214 51.2883" stroke="white" stroke-width="0.2" stroke-miterlimit="10" stroke-linecap="round" stroke-linejoin="round"/>
<path d="M45.8659 52.3342L68.2662 50.2422" stroke="white" stroke-width="0.2" stroke-miterlimit="10" stroke-linecap="round" stroke-linejoin="round"/>
<path d="M37.7138 55.5967L69.654 52.9568" stroke="white" stroke-width="0.2" stroke-miterlimit="10" stroke-linecap="round" stroke-linejoin="round"/>
<path d="M40.4401 60.7274L67.5484 56.8921" stroke="white" stroke-width="0.2" stroke-miterlimit="10" stroke-linecap="round" stroke-linejoin="round"/>
<path d="M44.3055 65.8081L67.127 61.4497" stroke="white" stroke-width="0.2" stroke-miterlimit="10" stroke-linecap="round" stroke-linejoin="round"/>
<path d="M47.0803 68.3481L67.1266 66.5798" stroke="white" stroke-width="0.2" stroke-miterlimit="10" stroke-linecap="round" stroke-linejoin="round"/>
</g>
<path d="M36.1527 38.8109L39.1509 38.2381C39.3987 38.1882 39.6218 38.3377 39.6713 38.5867L41.0837 46.0084C41.1333 46.2574 40.9846 46.4816 40.7368 46.5314L37.7385 47.1042C37.4908 47.154 37.2677 47.0046 37.2182 46.7555L35.8058 39.3339C35.7562 39.0848 35.9049 38.8607 36.1527 38.8109Z" fill="#F5E1E0"/>
<mask id="mask1_1095_69560" style="mask-type:luminance" maskUnits="userSpaceOnUse" x="35" y="38" width="7" height="10">
<path d="M36.1527 38.8109L39.1509 38.2381C39.3987 38.1882 39.6218 38.3377 39.6713 38.5867L41.0837 46.0084C41.1333 46.2574 40.9846 46.4816 40.7368 46.5314L37.7385 47.1042C37.4908 47.154 37.2677 47.0046 37.2182 46.7555L35.8058 39.3339C35.7562 39.0848 35.9049 38.8607 36.1527 38.8109Z" fill="white"/>
</mask>
<g mask="url(#mask1_1095_69560)">
<path d="M40.6877 43.2438C40.7373 43.194 40.9355 42.9947 40.9355 42.8951C40.9107 42.6211 40.8859 42.5713 41.0842 42.3472C41.1585 42.2725 41.2328 42.1729 41.332 42.0732C41.332 42.0732 41.4558 42.0732 41.3567 42.2725C41.2576 42.4717 41.2081 42.4966 41.3567 42.4717C41.4558 42.4717 41.5797 42.4468 41.6789 42.4219C41.7284 42.4219 41.778 42.4717 41.7532 42.5215C41.7532 42.5215 41.8275 42.5962 41.7532 42.671C41.7532 42.671 41.8275 42.7457 41.7284 42.8453C41.7284 42.8453 41.8028 42.9698 41.6045 43.0445C41.4806 43.0943 41.4558 43.0943 41.3567 43.1691C41.2576 43.2189 41.0594 43.4181 40.985 43.5426L40.6877 43.2438Z" fill="#BA5D56"/>
<path d="M41.6541 53.8533C41.6293 53.8533 41.6293 53.8533 41.6541 53.8533L39.3992 46.5562V46.5312H39.424L41.6541 53.8533Z" fill="white"/>
<path d="M38.9036 53.5543C38.8788 53.5294 38.8788 53.5543 38.9036 53.5543L39.0275 50.1921L38.2841 48.399C38.0611 47.8511 37.9372 47.3031 37.9372 46.7054C37.9372 47.2782 38.0611 47.8511 38.2841 48.399L39.0275 50.1921L38.9036 53.5543Z" fill="white"/>
</g>
<path d="M35.533 39.1098L37.0446 47.0793C37.0941 47.3284 37.3171 47.4778 37.5649 47.428L40.9844 46.7556C41.2322 46.7057 41.3809 46.4816 41.3313 46.2326L39.8198 38.263C39.7702 38.0139 39.5472 37.8645 39.2994 37.9143L35.8799 38.5868C35.6569 38.6366 35.5082 38.8607 35.533 39.1098ZM35.8056 39.3339C35.756 39.0849 35.9047 38.8607 36.1525 38.8109L36.8711 38.6864C36.9454 38.6615 36.995 38.7113 37.0198 38.786C37.0445 38.9105 37.1684 39.0101 37.2923 38.9852L38.1348 38.8109C38.2587 38.786 38.3578 38.6615 38.3331 38.537C38.3083 38.4622 38.3578 38.4124 38.4322 38.3875L39.1508 38.263C39.3986 38.2132 39.6216 38.3626 39.6711 38.6117L41.0835 46.0333C41.1331 46.2824 40.9844 46.5065 40.7366 46.5563L37.7384 47.1291C37.4906 47.1789 37.2676 47.0295 37.218 46.7805L35.8056 39.3339Z" fill="#222222"/>
<path d="M36.2274 46.9546L37.3424 44.8875C37.3424 44.8875 38.0115 45.4603 37.5902 46.2572L37.1938 47.5523" fill="#FFB7AD"/>
<path d="M63.6815 35.598C63.3593 33.9293 62.4425 32.7588 61.3027 31.9868C60.9062 31.5136 54.6123 28.0269 52.9769 31.3392C51.9114 33.4811 56.5203 36.7187 56.5203 36.7187L56.6442 38.7858C56.6442 38.7858 56.9168 38.736 57.2637 38.5367L57.3132 38.736C57.7345 40.3797 58.7256 41.8242 60.1381 42.7706C60.7823 41.7993 61.5752 40.9276 62.4425 40.1556C63.6815 39.1096 63.954 36.9179 63.6815 35.598Z" fill="#222222"/>
<path d="M57.2143 39.5825C57.2143 39.5825 58.5276 39.5576 58.5771 38.1878C58.6515 36.818 57.3134 37.0422 57.3134 37.0422L57.2143 39.5825Z" fill="#FFB7AD"/>
<path d="M57.5859 37.7646C57.5859 37.7646 58.1063 37.7396 58.2302 38.3374" stroke="#222222" stroke-width="0.2" stroke-miterlimit="10" stroke-linecap="round" stroke-linejoin="round"/>
<path d="M57.9085 37.864C57.9085 37.864 57.9829 38.4368 57.5616 38.8602" stroke="#222222" stroke-width="0.2" stroke-miterlimit="10" stroke-linecap="round" stroke-linejoin="round"/>
<path d="M45.2211 55.1982L46.5344 56.842" stroke="#222222" stroke-width="0.5" stroke-miterlimit="10" stroke-linecap="round" stroke-linejoin="round"/>
<path d="M52.0106 55.6467L53.5222 53.1812L51.0938 63.3921L52.0106 55.6467Z" fill="#222222"/>
<path d="M52.035 55.5965L54.1164 52.1846" stroke="#222222" stroke-width="0.5" stroke-miterlimit="10" stroke-linecap="round" stroke-linejoin="round"/>
<path d="M59.5186 42.322C57.9575 43.2933 56.2477 42.9945 56.2477 42.9945H55.9999L55.876 44.2646C55.876 44.2397 58.5026 44.1899 59.5186 42.322Z" fill="#222222"/>
<path d="M60.1628 108.619L68.0673 107.822" stroke="white" stroke-width="0.2" stroke-miterlimit="10" stroke-linecap="round" stroke-linejoin="round"/>
<path d="M61.1793 108.52L61.3527 111.06" stroke="white" stroke-width="0.2" stroke-miterlimit="10"/>
<path d="M62.6656 108.37L62.8639 111.035" stroke="white" stroke-width="0.2" stroke-miterlimit="10"/>
<path d="M64.2516 108.22V111.035" stroke="white" stroke-width="0.2" stroke-miterlimit="10"/>
<path d="M67.1261 107.922V111.06" stroke="white" stroke-width="0.2" stroke-miterlimit="10"/>
<path d="M65.7623 108.071V111.06" stroke="white" stroke-width="0.2" stroke-miterlimit="10"/>
<path d="M42.3466 107.498L51.0937 106.726" stroke="white" stroke-width="0.2" stroke-miterlimit="10" stroke-linecap="round" stroke-linejoin="round"/>
<path d="M43.3127 107.398L42.6685 111.034" stroke="white" stroke-width="0.2" stroke-miterlimit="10"/>
<path d="M44.3034 107.323L43.7335 111.034" stroke="white" stroke-width="0.2" stroke-miterlimit="10"/>
<path d="M45.5929 107.199L44.8495 111.035" stroke="white" stroke-width="0.2" stroke-miterlimit="10"/>
<path d="M46.9299 107.1L46.3104 111.059" stroke="white" stroke-width="0.2" stroke-miterlimit="10"/>
<path d="M48.4418 106.975L47.5746 111.059" stroke="white" stroke-width="0.2" stroke-miterlimit="10"/>
<path d="M49.8043 106.851L49.1848 111.06" stroke="white" stroke-width="0.2" stroke-miterlimit="10"/>
<path d="M46.2365 89.6416H51.0932L49.6808 95.3946C49.2596 96.9636 49.2348 97.5364 47.6985 98.0843C46.856 98.3832 44.3285 98.5575 44.3285 98.5575" stroke="white" stroke-width="0.2" stroke-miterlimit="10" stroke-linecap="round" stroke-linejoin="round"/>
<path d="M45.889 91.3101H50.6714" stroke="white" stroke-width="0.2" stroke-miterlimit="10" stroke-linecap="round" stroke-linejoin="round"/>
<path d="M26.3661 118.78C24.2846 118.78 23.0457 117.635 21.435 117.585V109.59H25.4988L25.5484 115.742L28.6457 117.909C28.6705 117.933 28.4475 118.78 26.3661 118.78Z" fill="#FFB7AD"/>
<path d="M25.5479 114.397L21.4593 115.841V109.615H25.4983L25.5479 114.397Z" fill="#222222"/>
<path d="M32.5356 119.876H21.4593V117.609C23.07 117.634 24.2841 118.805 26.3904 118.805C28.4718 118.805 28.67 117.958 28.67 117.958C28.67 117.958 32.5356 118.705 32.5356 119.876Z" fill="#A299F7"/>
<path d="M11.1515 117.062C10.309 116.166 7.48422 110.562 7.48422 110.562L9.19398 106.328L13.3569 108.644L11.3745 112.28C11.4984 114.447 11.8453 115.966 12.7126 116.962C12.6878 116.962 11.994 117.959 11.1515 117.062Z" fill="#FFB7AD"/>
<path d="M16.1319 119.876H10.7549L5.10526 112.33L7.45927 110.587C7.45927 110.587 10.2841 116.191 11.1266 117.087C11.9691 117.984 12.6629 116.963 12.6629 116.963C12.6629 116.963 13.5549 117.834 14.3231 118.158C16.4045 119.079 16.1319 119.876 16.1319 119.876Z" fill="#A299F7"/>
<path d="M11.796 111.483L7.78175 109.79L9.19416 106.328L13.357 108.644L11.796 111.483Z" fill="#222222"/>
<path d="M29.8351 59.9054C27.4315 53.6791 22.3023 54.8248 23.9377 50.1427C25.5731 45.4605 24.8297 41.4509 22.8474 40.8531L22.9713 40.2554C23.2439 38.9604 22.3271 37.7649 20.8651 37.491C21.1377 36.3205 20.0969 35.3492 18.5359 35.3741C17.5447 34.2534 15.6863 33.4066 12.4154 35.7726C8.45078 38.6366 12.1676 42.0237 11.2756 45.8341C10.3835 49.6446 8.15343 54.6006 14.7694 56.4685C21.3854 58.3363 13.6792 64.2637 22.2775 67.2772C29.6369 69.8424 29.7112 66.3557 28.9431 64.8365C30.1077 64.0894 30.8758 62.6449 29.8351 59.9054Z" fill="#222222"/>
<path d="M13.7534 40.5042C13.7534 40.5042 13.1092 44.0157 14.1004 49.2208C15.1411 54.6501 22.3766 52.334 20.9394 46.5311C19.4774 40.7283 13.7534 40.5042 13.7534 40.5042Z" fill="#222222"/>
<path d="M31.023 56.969C31.2986 56.7107 32.1851 55.5171 32.0607 54.9531C31.687 53.5523 31.5539 53.2561 32.4637 52.0542C32.82 51.5815 33.1679 51.0853 33.4883 50.4402C33.4883 50.4402 34.1768 50.3772 33.7585 51.4812C33.3486 52.6087 33.1325 52.7396 33.8655 52.5811C34.427 52.4579 34.9482 52.2964 35.461 52.1114C35.7407 52.0105 36.0371 52.2478 35.9669 52.5643C35.9669 52.5643 35.9753 52.5877 35.952 52.5962C35.952 52.5962 36.3669 52.8701 36.0975 53.3644C36.0975 53.3644 36.5546 53.7555 36.12 54.23C36.12 54.23 36.5579 54.7869 35.6466 55.3275C35.0679 55.6951 34.9112 55.6987 34.4045 56.1197C33.9742 56.4603 33.0411 57.6706 32.7672 58.2989L31.023 56.969Z" fill="#FFB7AD"/>
<path d="M34.6158 52.4694C33.6726 52.995 33.4646 53.4407 33.8481 53.4083C34.3565 53.3572 35.9438 52.5728 35.9438 52.5728C35.9438 52.5728 33.7123 53.6161 33.8857 53.9507C34.0358 54.2937 36.0893 53.3411 36.0893 53.3411C36.0893 53.3411 34.1482 54.0943 34.3321 54.531C34.516 54.9677 36.1351 54.1982 36.1351 54.1982C36.1351 54.1982 34.692 54.7983 34.8441 55.22" stroke="#222222" stroke-width="0.2" stroke-miterlimit="10" stroke-linecap="round" stroke-linejoin="round"/>
<path d="M33.2636 52.957C33.2636 52.957 33.7075 54.0412 33.3783 54.9543" stroke="#222222" stroke-width="0.2" stroke-miterlimit="10" stroke-linecap="round" stroke-linejoin="round"/>
<path d="M33.4756 54.4951L34.3483 54.5774" stroke="#222222" stroke-width="0.2" stroke-miterlimit="10" stroke-linecap="round" stroke-linejoin="round"/>
<path d="M21.7615 48.4406C22.8021 48.6383 24.6262 50.4437 25.9059 53.8862C27.1856 57.3287 27.6266 58.4147 27.6266 58.4147L31.822 55.3569L33.6315 57.3671L29.2928 62.7757C28.0105 64.3646 25.4625 64.177 24.5428 62.3655C24.5055 62.2962 24.4683 62.2269 24.4554 62.1533L22.7429 58.1037L21.7615 48.4406Z" fill="#FFD175"/>
<path d="M21.2117 58.7596L22.0789 62.5203C22.1037 62.595 22.1285 62.6697 22.1285 62.7444C22.4506 63.7904 23.3179 64.4628 24.2843 64.6372C22.9462 61.8478 22.6736 57.6638 22.6736 57.6638L21.2117 58.7596Z" fill="#222222"/>
<path d="M11.1019 48.947C11.1019 48.947 12.9851 47.5025 17.1975 47.652C21.2861 47.8014 22.3268 48.8723 22.3268 48.8723C22.3268 48.8723 22.1038 51.836 22.6985 53.4548C23.2684 55.0985 23.6649 56.4683 22.6985 57.6388L22.3763 65.7827H11.7709C11.7709 65.7827 11.7957 63.2424 11.7213 60.6025C11.6718 56.8917 11.1019 48.947 11.1019 48.947Z" fill="#FFD175"/>
<path d="M18.5601 53.2551C18.5601 53.2551 18.4362 56.692 19.7495 58.8587" stroke="#222222" stroke-width="0.2" stroke-miterlimit="10" stroke-linecap="round" stroke-linejoin="round"/>
<path d="M19.5019 52.334C18.9072 51.4623 17.1231 51.7363 17.0735 52.9317C17.024 54.3513 20.27 53.4796 19.5019 52.334Z" fill="#FD7060"/>
<path d="M18.5363 54.8247C19.2301 54.8745 20.2461 53.4799 19.5027 52.3342L17.0743 52.9319C17.0743 52.9319 16.6531 54.6753 18.5363 54.8247Z" fill="#FD7060"/>
<path d="M19.5019 52.334C18.9072 51.4623 17.1231 51.7363 17.0735 52.9317C17.024 54.3513 20.27 53.4796 19.5019 52.334Z" stroke="#222222" stroke-width="0.2" stroke-miterlimit="10" stroke-linecap="round" stroke-linejoin="round"/>
<path d="M19.0566 52.882C18.7345 52.4088 17.7185 52.5582 17.6938 53.2057C17.669 54.0276 19.5026 53.5295 19.0566 52.882Z" fill="#222222"/>
<path d="M19.0318 57.1904C19.3291 55.2727 19.453 54.0524 20.5433 54.4758C21.6583 54.9241 19.0318 57.1904 19.0318 57.1904Z" fill="#74B12A"/>
<path d="M16.603 55.1233C15.4632 55.7708 19.0314 57.1655 19.0314 57.1655C19.0314 57.1655 17.7676 54.4758 16.603 55.1233Z" fill="#74B12A"/>
<path d="M12.4899 48.2751C12.4899 48.2751 14.051 50.5166 17.7183 50.2177C19.428 50.0683 20.5183 49.1966 21.2369 48.325" stroke="#222222" stroke-width="0.2" stroke-miterlimit="10" stroke-linecap="round" stroke-linejoin="round"/>
<path d="M20.0969 48.0009C19.3535 47.8514 18.4119 47.7269 17.1977 47.6771C15.5871 47.6024 14.3233 47.8016 13.357 48.0258L14.695 48.8227C16.4543 49.8687 18.7092 49.5201 20.0969 48.0009Z" fill="#FFB7AD"/>
<path d="M11.7704 65.8076C11.4235 66.505 10.9775 67.8996 10.5811 69.3192C9.83768 71.984 8.77218 75.7198 8.94563 78.4593C9.11909 81.2735 11.374 91.8332 11.374 91.8332L7.75624 108.619L13.3315 110.562L16.2059 98.2088C17.4696 93.3773 17.6431 91.1857 17.544 86.0553L17.4696 75.4956L18.3369 74.5741L20.9883 113.625H26.1919C26.1919 113.625 26.4644 88.0726 26.4892 80.4268C26.4892 75.8692 24.8786 71.3365 22.9706 67.1774L22.3263 65.7827H11.7704V65.8076Z" fill="#887CF5"/>
<path d="M19.1544 73.7776L22.7474 113.625" stroke="white" stroke-width="0.2" stroke-miterlimit="10" stroke-linecap="round" stroke-linejoin="round"/>
<path d="M12.6875 67.5012L11.5724 73.0052C10.953 75.9938 10.9282 79.0571 11.4981 82.0457L13.3813 92.0325L8.97063 109.043" stroke="white" stroke-width="0.2" stroke-miterlimit="10" stroke-linecap="round" stroke-linejoin="round"/>
<path d="M18.3626 74.5744L18.883 82.0707L19.9733 72.9307L18.3626 74.5744Z" fill="#222222"/>
<path d="M13.7542 40.5044C13.5807 42.2727 14.0267 44.1156 14.6462 44.9126C14.7453 45.062 14.8692 45.1865 14.9931 45.3111C16.3312 46.6559 18.1896 46.4069 18.1896 46.4069C18.1896 46.4069 18.264 46.382 18.3879 46.3571C19.0817 46.1578 21.2622 45.2862 21.0888 42.0236C20.9897 40.1059 20.2463 38.7113 19.5277 37.7898C19.0321 37.1423 18.0409 37.217 17.6693 37.9392C17.1985 38.8109 16.1825 39.8569 14.0763 40.4297L13.7542 40.5044Z" fill="#FFB7AD"/>
<path d="M18.4866 48.0508L18.3627 46.3573C18.2388 46.3822 18.1645 46.4071 18.1645 46.4071C18.1645 46.4071 16.3308 46.6312 14.968 45.3113L14.8689 48.001L18.4866 48.0508Z" fill="#FFB7AD"/>
<path d="M18.1637 46.4071C18.1637 46.4071 16.3301 46.6312 14.9672 45.3113V45.3611C15.0416 45.5105 15.1407 45.6599 15.215 45.7596C15.3141 45.909 15.438 46.0335 15.5619 46.158C16.5531 47.1542 17.8168 47.2788 18.4115 47.2788L18.362 46.3822C18.2381 46.4071 18.1637 46.4071 18.1637 46.4071Z" fill="#222222"/>
<path d="M13.5553 43.2687C13.5553 43.2687 12.1677 43.4182 11.9199 41.9737C11.6721 40.5292 13.1093 40.6039 13.1093 40.6039C13.1093 40.6039 13.0102 41.6748 13.5553 43.2687Z" fill="#FFB7AD"/>
<path d="M12.8123 41.1765C12.8123 41.1765 12.2672 41.2014 12.1681 41.824" stroke="#222222" stroke-width="0.2" stroke-miterlimit="10" stroke-linecap="round" stroke-linejoin="round"/>
<path d="M12.4901 41.3264C12.4901 41.3264 12.4405 41.949 12.9361 42.3724" stroke="#222222" stroke-width="0.2" stroke-miterlimit="10" stroke-linecap="round" stroke-linejoin="round"/>
<path d="M12.638 43.1192C12.6876 43.3184 12.8611 43.4429 13.0593 43.3931C13.2575 43.3433 13.3814 43.169 13.3319 42.9698C13.2823 42.7705 13.1089 42.646 12.9106 42.6958C12.7124 42.7207 12.5885 42.9199 12.638 43.1192Z" fill="#659CEE"/>
<path d="M17.0983 39.8569C16.7762 39.9316 16.4045 40.1309 16.0576 40.5294" stroke="#222222" stroke-width="0.2" stroke-miterlimit="10" stroke-linecap="round" stroke-linejoin="round"/>
<path d="M20.1457 39.9815C19.9226 39.832 19.6253 39.6826 19.2041 39.6577" stroke="#222222" stroke-width="0.2" stroke-miterlimit="10" stroke-linecap="round" stroke-linejoin="round"/>
<path d="M18.2386 40.5793C18.2386 40.5793 18.2386 41.202 18.8333 41.6752C19.5271 42.2729 19.3289 42.5468 18.759 42.8208" stroke="#222222" stroke-width="0.2" stroke-miterlimit="10" stroke-linecap="round" stroke-linejoin="round"/>
<path d="M17.7432 43.1946C18.0405 43.07 18.0901 43.4934 18.0901 43.4934C18.0901 43.4934 18.4618 43.2444 18.5609 43.5432C18.6352 43.8172 18.0653 44.1658 17.8671 44.0911C17.6936 43.9915 17.4954 43.2942 17.7432 43.1946Z" fill="#FF95A0"/>
<path opacity="0.2" d="M16.2564 42.3226C16.4546 42.0486 16.7024 42.3724 16.7024 42.3724C16.7024 42.3724 16.8759 41.949 17.1236 42.1731C17.3467 42.3475 17.0493 42.9701 16.8511 42.995C16.6528 43.0448 16.0829 42.5467 16.2564 42.3226Z" fill="#F43D4F"/>
<path opacity="0.2" d="M20.567 42.7212C20.4183 42.4223 20.121 42.6963 20.121 42.6963C20.121 42.6963 20.0219 42.248 19.7493 42.4223C19.5015 42.5469 19.6998 43.2193 19.8732 43.294C20.0467 43.3687 20.6909 42.9702 20.567 42.7212Z" fill="#F43D4F"/>
<path d="M18.5845 43.8167C18.5845 43.8167 17.8659 43.8665 17.4942 43.2439" stroke="#222222" stroke-width="0.2" stroke-miterlimit="10" stroke-linecap="round" stroke-linejoin="round"/>
<path d="M16.7765 41.3513C16.7765 41.5505 16.95 41.6751 17.1234 41.6751C17.3217 41.6751 17.4456 41.5007 17.4456 41.3264C17.4456 41.1271 17.2721 41.0026 17.0986 41.0026C16.9252 40.9777 16.7765 41.1521 16.7765 41.3513Z" fill="#222222"/>
<path d="M16.1074 41.3511C16.3552 41.4258 16.7021 41.4258 17.0986 41.3013" stroke="#222222" stroke-width="0.2" stroke-miterlimit="10" stroke-linecap="round" stroke-linejoin="round"/>
<path d="M16.1317 40.9778C16.3547 41.1272 16.652 41.2517 17.0733 41.2517" stroke="#222222" stroke-width="0.2" stroke-miterlimit="10" stroke-linecap="round" stroke-linejoin="round"/>
<path d="M20.4184 40.7288C20.2202 40.8782 19.9228 41.0276 19.5016 41.0774" stroke="#222222" stroke-width="0.2" stroke-miterlimit="10" stroke-linecap="round" stroke-linejoin="round"/>
<path d="M20.2454 40.3796C20.0968 40.6038 19.8738 40.8279 19.4773 41.0023" stroke="#222222" stroke-width="0.2" stroke-miterlimit="10" stroke-linecap="round" stroke-linejoin="round"/>
<path d="M19.1555 41.0774C19.1555 41.2767 19.3289 41.4012 19.5024 41.4012C19.7006 41.4012 19.8245 41.2269 19.8245 41.0525C19.8245 40.8533 19.6511 40.7288 19.4776 40.7288C19.3042 40.7288 19.1555 40.9031 19.1555 41.0774Z" fill="#222222"/>
<path d="M10.2341 60.9265C9.78804 62.0224 9.49069 63.168 9.31723 63.9649C8.92077 65.6585 8.79687 71.4364 9.56502 71.013C10.358 70.5647 11.6712 69.9919 11.6712 69.9919C13.158 69.9172 14.9421 71.0628 14.9421 71.0628C14.4713 71.5609 13.1828 70.9881 12.712 70.9383C12.2659 70.8885 11.919 71.5858 11.919 71.5858C14.0748 72.4575 15.0412 73.8771 15.0412 73.8771C15.0412 73.8771 14.9173 74.2008 14.2978 74.0016L15.1155 74.5495C15.1155 74.5495 14.8182 75.2717 13.9014 74.6989L14.5952 75.1223C14.5952 75.1223 14.3969 75.7698 13.5297 75.2717L13.8766 75.5208C13.8766 75.5208 13.7279 76.3426 12.7863 75.7449C12.0182 75.2717 10.2836 74.4748 9.78804 74.3254C9.76326 74.3254 9.7137 74.3004 9.68892 74.3004C8.87121 74.1261 8.10306 73.7525 7.48358 73.1299C4.88178 70.6643 5.47648 64.4381 5.77383 62.5204C5.79861 62.3461 5.94728 61.6737 6.19507 60.7024L10.2341 60.9265Z" fill="#FFB7AD"/>
<path d="M14.3228 73.9767C14.3228 73.9767 13.0838 72.9058 11.6714 72.3579" stroke="#222222" stroke-width="0.5" stroke-miterlimit="10" stroke-linecap="round" stroke-linejoin="round"/>
<path d="M13.9008 74.6986C13.9008 74.6986 13.0336 74.0013 11.3982 73.1545" stroke="#222222" stroke-width="0.5" stroke-miterlimit="10" stroke-linecap="round" stroke-linejoin="round"/>
<path d="M13.554 75.2719C13.554 75.2719 11.9681 74.2259 11.1504 73.8772" stroke="#222222" stroke-width="0.5" stroke-miterlimit="10" stroke-linecap="round" stroke-linejoin="round"/>
<path d="M11.6464 57.8383C11.0517 59.482 9.06938 67.0531 9.06938 67.0531H5.2534C5.2534 67.0531 5.52597 60.2541 6.07111 57.664C6.66581 54.775 7.90476 50.8649 11.126 48.9473L12.7119 55.1735L11.6464 57.8383Z" fill="#FFD175"/>
<path d="M17.5441 75.4461L20.4929 72.3579" stroke="white" stroke-width="0.2" stroke-miterlimit="10" stroke-linecap="round" stroke-linejoin="round"/>
<path d="M25.8453 59.3823L23.9621 60.3536" stroke="#222222" stroke-width="0.2" stroke-miterlimit="10" stroke-linecap="round" stroke-linejoin="round"/>
<path d="M22.3764 65.8077L22.6986 57.6638C23.6649 56.4933 23.2685 55.1235 22.6986 53.4798C22.4012 52.6579 22.3269 51.5123 22.3021 50.5659" stroke="#222222" stroke-width="0.2" stroke-miterlimit="10" stroke-linecap="round" stroke-linejoin="round"/>
<path d="M11.6471 57.8382C11.7215 59.3075 11.7215 59.5566 11.7462 60.6275C11.771 61.3747 11.771 62.1218 11.771 62.7942L12.6135 55.1484L11.6471 57.8382Z" fill="#222222"/>
<path d="M11.6714 57.7887L12.9351 54.2522" stroke="#222222" stroke-width="0.2" stroke-miterlimit="10" stroke-linecap="round" stroke-linejoin="round"/>
<path d="M11.1517 67.4514L23.2934 67.8001" stroke="white" stroke-width="0.2" stroke-miterlimit="10" stroke-linecap="round" stroke-linejoin="round"/>
<path d="M0.297516 119.876H168.2" stroke="#222222" stroke-width="0.5" stroke-miterlimit="10" stroke-linecap="round" stroke-linejoin="round"/>
</g>
<circle cx="11.1917" cy="11.1917" r="11.1917" transform="matrix(-0.974484 -0.224456 -0.224456 0.974484 40.5154 14.3506)" fill="#F15342"/>
<path d="M33.5439 30.511L32.9399 31.1136C32.5159 31.5365 32.2245 32.0945 32.2405 32.6931C32.264 33.5721 32.5413 34.15 33.3136 35.3779C33.3506 35.4366 33.3206 35.5065 33.2513 35.5013C32.6982 35.4603 30.8962 34.943 29.3297 34.0191C28.2615 33.389 25.6658 32.8425 25.6658 32.8425V32.8425" stroke="#F15342" stroke-width="0.514277"/>
<path d="M32.8363 35.4606C29.0049 34.3529 26.766 32.571 25.5548 31.4001L27.9162 28.2951C28.9547 28.7719 31.4603 29.3891 32.4109 28.5627C31.6606 31.451 32.4592 33.6332 33.2347 34.831C33.3867 35.0657 33.1049 35.5383 32.8363 35.4606Z" fill="#F15342"/>
<g clip-path="url(#clip1_1095_69560)">
<path d="M23.0773 25.6478L29.4392 27.1132L29.3345 27.5676C29.3068 27.6881 29.328 27.8147 29.3936 27.9196C29.4592 28.0244 29.5638 28.0989 29.6843 28.1267L30.1387 28.2313C30.2592 28.2591 30.3859 28.2378 30.4907 28.1723C30.5956 28.1067 30.6701 28.0021 30.6978 27.8816L31.4828 24.4734L32.0801 24.4626C32.1841 24.4607 32.2844 24.424 32.3651 24.3585C32.4458 24.293 32.5023 24.2024 32.5257 24.1011L32.601 23.7739C32.6149 23.7136 32.6043 23.6503 32.5715 23.5979C32.5387 23.5455 32.4864 23.5082 32.4261 23.4944L31.7445 23.3373L31.2234 20.4476C31.1909 20.2678 31.1064 20.1016 30.9803 19.9694C30.8542 19.8373 30.6921 19.7451 30.5141 19.7042L25.3518 18.5152C25.174 18.4742 24.988 18.4864 24.817 18.5501C24.646 18.6138 24.4975 18.7262 24.3897 18.8736L22.656 21.244L21.9744 21.087C21.9141 21.0731 21.8508 21.0837 21.7984 21.1165C21.746 21.1493 21.7087 21.2016 21.6949 21.2618L21.6195 21.589C21.5962 21.6903 21.6074 21.7965 21.6513 21.8907C21.6952 21.985 21.7694 22.0618 21.862 22.1091L22.3944 22.38L21.6093 25.7882C21.5816 25.9087 21.6028 26.0353 21.6684 26.1402C21.734 26.245 21.8386 26.3195 21.9591 26.3473L22.4135 26.452C22.534 26.4797 22.6607 26.4585 22.7655 26.3929C22.8704 26.3273 22.9449 26.2227 22.9726 26.1022L23.0773 25.6478ZM22.8322 24.6343L23.3555 22.3622L30.6263 24.0369L30.103 26.309L22.8322 24.6343ZM30.1645 22.9734L24.2361 21.6079C24.1619 21.5908 24.093 21.5557 24.0354 21.5058C23.9779 21.4559 23.9335 21.3926 23.906 21.3216C23.8786 21.2505 23.869 21.1739 23.878 21.0982C23.887 21.0226 23.9144 20.9503 23.9579 20.8878L24.9971 19.3905L30.4502 20.6466L30.7297 22.4475C30.7413 22.5228 30.7344 22.5998 30.7094 22.6717C30.6845 22.7437 30.6423 22.8084 30.5865 22.8603C30.5307 22.9122 30.4631 22.9496 30.3896 22.9694C30.316 22.9891 30.2387 22.9905 30.1645 22.9734ZM30.0672 24.3866C29.0143 24.1441 28.2255 24.3237 27.7008 24.9249C27.6743 24.9553 27.6561 24.992 27.648 25.0315C27.6399 25.071 27.6422 25.1119 27.6546 25.1502C27.6671 25.1886 27.6892 25.223 27.7189 25.2503C27.7486 25.2775 27.7849 25.2965 27.8242 25.3056L29.2988 25.6452C29.4193 25.673 29.5459 25.6517 29.6508 25.5861C29.7556 25.5205 29.8301 25.416 29.8579 25.2955L30.0672 24.3866ZM23.7053 22.9212L23.496 23.8301C23.4682 23.9506 23.4895 24.0772 23.555 24.1821C23.6206 24.2869 23.7252 24.3614 23.8457 24.3892L25.3203 24.7288C25.3596 24.7378 25.4005 24.7365 25.4391 24.7249C25.4776 24.7134 25.5126 24.6921 25.5405 24.6631C25.5683 24.634 25.5882 24.5982 25.5982 24.5592C25.6082 24.5202 25.6079 24.4793 25.5973 24.4404C25.3895 23.67 24.7587 23.1639 23.7053 22.9212Z" fill="white"/>
</g>
<circle cx="113.845" cy="14.9853" r="11.1917" transform="rotate(-26.2238 113.845 14.9853)" fill="#2F91E7"/>
<path d="M108.614 24.2134L109.34 24.6614C109.85 24.9759 110.261 25.4523 110.383 26.0386C110.562 26.8995 110.424 27.5256 109.954 28.8979C109.932 28.9635 109.977 29.0246 110.043 29.0037C110.572 28.837 112.207 27.9203 113.52 26.6619C114.416 25.8038 116.817 24.6768 116.817 24.6768V24.6768" stroke="#2F91E7" stroke-width="0.514277"/>
<path d="M110.505 29.0062C113.981 27.0497 115.751 24.802 116.662 23.3845L113.652 20.9037C112.75 21.6058 110.453 22.781 109.338 22.1945C110.73 24.8339 110.453 27.141 109.973 28.4847C109.879 28.7481 110.261 29.1434 110.505 29.0062Z" fill="#2F91E7"/>
<g clip-path="url(#clip2_1095_69560)">
<path d="M115.756 9.36712C115.867 9.31247 115.995 9.30414 116.112 9.34394C116.229 9.38375 116.326 9.46844 116.38 9.57939L117.514 11.8802C117.236 12.0168 117.025 12.258 116.925 12.5508C116.826 12.8435 116.846 13.1638 116.983 13.4411C117.12 13.7185 117.361 13.9302 117.654 14.0298C117.946 14.1293 118.267 14.1084 118.544 13.9718L119.677 16.2726C119.732 16.3835 119.74 16.5117 119.7 16.6288C119.661 16.7458 119.576 16.8423 119.465 16.897L111.935 20.606C111.824 20.6607 111.696 20.669 111.579 20.6292C111.462 20.5894 111.365 20.5047 111.311 20.3938L110.177 18.093C110.455 17.9563 110.667 17.7151 110.766 17.4224C110.866 17.1297 110.845 16.8094 110.708 16.532C110.572 16.2546 110.33 16.0429 110.038 15.9434C109.745 15.8439 109.425 15.8647 109.147 16.0013L108.014 13.7006C107.959 13.5896 107.951 13.4615 107.991 13.3444C108.03 13.2273 108.115 13.1308 108.226 13.0762L115.756 9.36712ZM115.75 10.4098L109.057 13.7068L109.668 14.9484L109.75 14.9501C110.11 14.9651 110.46 15.0726 110.767 15.2622C111.073 15.4517 111.325 15.717 111.5 16.0325L111.545 16.1199C111.711 16.458 111.784 16.8347 111.755 17.2105C111.725 17.5862 111.595 17.9471 111.378 18.2553L111.33 18.3217L111.941 19.5633L118.635 16.2664L118.023 15.0244L117.941 15.0231C117.581 15.008 117.231 14.9006 116.925 14.711C116.618 14.5214 116.366 14.2561 116.192 13.9407L116.146 13.8533C115.795 13.1404 115.886 12.3249 116.313 11.7179L116.361 11.651L115.75 10.4098ZM114.901 12.9074L116.137 15.4173L112.79 17.0658L111.554 14.5558L114.901 12.9074Z" fill="white"/>
</g>
<defs>
<clipPath id="clip0_1095_69560">
<rect width="168.498" height="90.1556" fill="white" transform="translate(0 29.845)"/>
</clipPath>
<clipPath id="clip1_1095_69560">
<rect width="11.1917" height="11.1917" fill="white" transform="matrix(-0.974484 -0.224456 -0.224456 0.974484 33.8047 18.5481)"/>
</clipPath>
<clipPath id="clip2_1095_69560">
<rect width="11.1917" height="11.1917" fill="white" transform="translate(106.353 12.4395) rotate(-26.2238)"/>
</clipPath>
</defs>
</svg>
