<svg width="179" height="102" viewBox="0 0 179 102" fill="none" xmlns="http://www.w3.org/2000/svg">
<path d="M161.302 85.4109H152.948V85.519H161.302V85.4109Z" fill="#EBEBEB"/>
<path d="M28.5836 86.1377H25.8281V86.2458H28.5836V86.1377Z" fill="#EBEBEB"/>
<path d="M78.321 87.9624H37.5424V88.0705H78.321V87.9624Z" fill="#EBEBEB"/>
<path d="M89.1369 101.996C135.75 101.996 173.537 99.8046 173.537 97.1008C173.537 94.397 135.75 92.2051 89.1369 92.2051C42.5242 92.2051 4.73718 94.397 4.73718 97.1008C4.73718 99.8046 42.5242 101.996 89.1369 101.996Z" fill="#F5F5F5"/>
<path d="M83.0698 96.1751C88.524 96.1751 92.9467 87.4735 92.9467 76.7393C92.9467 66.005 88.524 57.3035 83.0698 57.3035H70.42V96.1751H83.0698Z" fill="#263238"/>
<path d="M70.3548 96.1751C75.8096 96.1751 80.2317 87.4734 80.2317 76.7393C80.2317 66.0052 75.8096 57.3035 70.3548 57.3035C64.8999 57.3035 60.4779 66.0052 60.4779 76.7393C60.4779 87.4734 64.8999 96.1751 70.3548 96.1751Z" fill="#263238"/>
<path d="M155.49 96.1751C160.944 96.1751 165.363 87.4735 165.363 76.7393C165.363 66.005 160.962 57.3035 155.49 57.3035H142.819V96.1751H155.49Z" fill="#263238"/>
<path d="M142.77 96.1753C148.225 96.1753 152.647 87.4736 152.647 76.7395C152.647 66.0054 148.225 57.3037 142.77 57.3037C137.315 57.3037 132.893 66.0054 132.893 76.7395C132.893 87.4736 137.315 96.1753 142.77 96.1753Z" fill="#263238"/>
<path d="M18.3324 86.3879L11.5679 84.7315C10.4233 84.4531 9.3539 83.929 8.43493 83.196C7.51596 82.463 6.7697 81.539 6.24861 80.4888C5.7872 79.562 5.15018 78.7324 4.37248 78.0453L2.70964 76.5749C1.76001 75.7348 1.02311 74.6842 0.558727 73.5082C0.0943452 72.3322 -0.084427 71.064 0.0369178 69.8065L0.951041 60.2919C1.10427 58.6967 1.73406 57.1834 2.7595 55.9465C3.78493 54.7096 5.15917 53.8055 6.70567 53.3505L11.5418 51.932L28.9885 50.6951L18.3324 86.3879Z" fill="#F04935"/>
<path d="M33.0846 96.1751C38.5389 96.1751 42.9615 87.4735 42.9615 76.7393C42.9615 66.005 38.5389 57.3035 33.0846 57.3035H20.4175V96.1751H33.0846Z" fill="#263238"/>
<path d="M20.3691 96.1753C25.8239 96.1753 30.246 87.4736 30.246 76.7395C30.246 66.0054 25.8239 57.3037 20.3691 57.3037C14.9142 57.3037 10.4922 66.0054 10.4922 76.7395C10.4922 87.4736 14.9142 96.1753 20.3691 96.1753Z" fill="#263238"/>
<path d="M20.3691 92.1013C24.1964 92.1013 27.2991 85.2236 27.2991 76.7395C27.2991 68.2554 24.1964 61.3777 20.3691 61.3777C16.5418 61.3777 13.4392 68.2554 13.4392 76.7395C13.4392 85.2236 16.5418 92.1013 20.3691 92.1013Z" fill="white"/>
<path d="M120.588 86.3881L137.643 48.5198C137.643 48.5198 112.125 29.6462 79.7481 29.6462C27.273 29.6462 29.0751 36.6741 11.5153 51.9321L19.1808 57.3036C32.8187 57.3036 33.9548 78.7807 36.1357 84.8225C36.2986 85.2804 36.6004 85.6768 36.9996 85.9572C37.3987 86.2376 37.8755 86.3881 38.3644 86.3881H120.588Z" fill="#F04935"/>
<path d="M105.505 96.1753C110.959 96.1753 115.377 87.4737 115.377 76.7395C115.377 66.0053 110.959 57.3037 105.505 57.3037H92.8331V96.1753H105.505Z" fill="#263238"/>
<path d="M92.7859 96.1753C98.2408 96.1753 102.663 87.4736 102.663 76.7395C102.663 66.0054 98.2408 57.3037 92.7859 57.3037C87.3311 57.3037 82.9091 66.0054 82.9091 76.7395C82.9091 87.4736 87.3311 96.1753 92.7859 96.1753Z" fill="#263238"/>
<path d="M92.786 92.1013C96.6133 92.1013 99.7159 85.2236 99.7159 76.7395C99.7159 68.2554 96.6133 61.3777 92.786 61.3777C88.9587 61.3777 85.8561 68.2554 85.8561 76.7395C85.8561 85.2236 88.9587 92.1013 92.786 92.1013Z" fill="white"/>
<path d="M110.411 83.2612C108.84 76.1685 101.326 57.3122 92.32 57.3122L82.5607 48.5068H137.643C141.456 48.5068 158.394 50.8336 167.992 57.2906C175.745 62.5063 176.698 70.4251 177.812 81.994C178.043 84.3554 175.962 86.3837 173.333 86.3881C151.264 86.3881 124.554 86.4702 114.829 86.5005C112.683 86.5221 110.833 85.1598 110.411 83.2612Z" fill="#F04935"/>
<path opacity="0.8" d="M133.66 48.5199H97.7522C96.9216 48.5232 96.1029 48.3243 95.3676 47.9405C94.6322 47.5568 94.0028 46.9999 93.5341 46.3186C89.5381 40.4368 82.4645 34.4772 77.2802 31.6531C113.584 31.6531 133.66 48.5199 133.66 48.5199Z" fill="white"/>
<path opacity="0.8" d="M76.392 33.4218C80.745 36.553 85.6987 41.4054 88.4802 46.2276C88.6149 46.4576 88.6866 46.7187 88.688 46.9848C88.6895 47.2509 88.6208 47.5127 88.4887 47.7442C88.3565 47.9757 88.1656 48.1687 87.935 48.304C87.7044 48.4394 87.4421 48.5123 87.1743 48.5155H28.3265C22.0844 48.5155 24.1564 33.0672 56.7645 31.9081C59.8377 31.6443 67.0026 31.6356 70.9639 31.6529C72.915 31.6635 74.8136 32.2822 76.392 33.4218Z" fill="white"/>
<path d="M116.635 77.9674L135.497 79.3816C135.791 79.4035 136.066 79.5352 136.266 79.7503C136.466 79.9653 136.577 80.2477 136.576 80.5407V81.8382C136.576 82.1456 136.453 82.4404 136.235 82.6577C136.016 82.8751 135.719 82.9972 135.41 82.9972H116.561C116.252 82.9972 115.954 82.8752 115.735 82.658C115.516 82.4407 115.392 82.1459 115.39 81.8382V79.1438C115.388 78.9835 115.42 78.8246 115.482 78.6769C115.545 78.5292 115.637 78.3959 115.754 78.2855C115.871 78.175 116.01 78.0898 116.161 78.035C116.313 77.9803 116.474 77.9573 116.635 77.9674Z" fill="#263238"/>
<path d="M176.589 78.227L171.409 79.2649C171.143 79.317 170.905 79.4589 170.733 79.6663C170.562 79.8738 170.468 80.1339 170.468 80.4024V81.8079C170.468 81.9605 170.499 82.1116 170.557 82.2525C170.616 82.3934 170.703 82.5214 170.811 82.629C170.92 82.7367 171.049 82.822 171.191 82.88C171.333 82.938 171.486 82.9676 171.639 82.967H177.124C177.289 82.9675 177.453 82.9332 177.604 82.8662C177.755 82.7993 177.889 82.7012 177.999 82.5785C178.109 82.4558 178.192 82.3114 178.241 82.1547C178.291 81.9979 178.306 81.8326 178.286 81.6695L177.995 79.2303C177.976 79.0695 177.923 78.9144 177.841 78.7749C177.758 78.6354 177.647 78.5146 177.515 78.4201C177.382 78.3257 177.232 78.2597 177.072 78.2265C176.913 78.1932 176.748 78.1934 176.589 78.227Z" fill="#263238"/>
<path opacity="0.8" d="M132.159 56.1621L105.823 54.8906C105.823 54.8906 105.553 59.5268 115.313 60.5129C121.267 61.055 127.224 59.5163 132.159 56.1621Z" fill="white"/>
<path opacity="0.3" d="M0.946376 60.2872C1.01998 59.527 1.20323 58.7813 1.4905 58.0729L3.27521 58.021C3.27521 58.021 3.35792 64.824 0.772256 64.3958C0.699784 64.3846 0.628418 64.3673 0.55896 64.3439L0.946376 60.2872Z" fill="black"/>
<path opacity="0.8" d="M165.397 55.7463C166.286 56.2203 167.151 56.7385 167.987 57.299C169.26 58.1456 170.422 59.145 171.448 60.2744C171.08 60.3785 170.707 60.4622 170.329 60.5253C164.483 61.5243 160.235 56.1615 160.235 56.1615L165.397 55.7463Z" fill="white"/>
<path d="M140.316 63.4707H158.951C159.604 63.4743 160.24 63.6765 160.775 64.0502L164.031 66.3207C164.4 66.5752 164.713 66.9029 164.949 67.2833C165.185 67.6636 165.339 68.0883 165.402 68.5307L166.233 74.659C166.295 75.0556 166.27 75.4608 166.158 75.8465C166.046 76.2322 165.851 76.589 165.586 76.892C165.321 77.1951 164.993 77.4371 164.624 77.6012C164.256 77.7653 163.856 77.8475 163.452 77.8421H143.524C142.928 77.8339 142.346 77.6645 141.839 77.3521C141.333 77.0396 140.922 76.596 140.651 76.0689L136.929 68.8594C136.661 68.3681 136.54 67.8105 136.582 67.253C136.623 66.6956 136.826 66.1618 137.164 65.7152L138.096 64.5259C138.359 64.1926 138.697 63.9241 139.082 63.7411C139.467 63.5581 139.889 63.4656 140.316 63.4707Z" fill="#263238"/>
<path opacity="0.1" d="M42.0822 78.4217H78.5253C78.6461 78.4212 78.7657 78.4458 78.8765 78.4938C78.9872 78.5418 79.0867 78.6122 79.1686 78.7004C79.2505 78.7887 79.313 78.893 79.3521 79.0065C79.3913 79.1201 79.4062 79.2405 79.3959 79.3602L79.2087 81.4664C79.1891 81.682 79.0888 81.8825 78.9276 82.0282C78.7664 82.174 78.5561 82.2544 78.3381 82.2535H41.8907C41.7699 82.2539 41.6503 82.2294 41.5395 82.1814C41.4288 82.1334 41.3293 82.063 41.2474 81.9747C41.1655 81.8864 41.103 81.7822 41.0639 81.6686C41.0247 81.555 41.0098 81.4346 41.0201 81.315L41.2073 79.2045C41.228 78.9888 41.3294 78.7888 41.4914 78.6438C41.6534 78.4989 41.8642 78.4196 42.0822 78.4217Z" fill="black"/>
<path d="M53.7008 31.6529L55.8817 31.2334L51.4199 50.6952H49.3304L53.7008 31.6529Z" fill="#F04935"/>
<path d="M61.6615 52.8835H54.1961L54.0046 53.662C53.9462 53.833 53.9307 54.0156 53.9596 54.1938C53.9884 54.3721 54.0607 54.5406 54.1702 54.6848C54.2797 54.8289 54.4229 54.9443 54.5875 55.0208C54.7521 55.0973 54.9331 55.1327 55.1146 55.1238H59.6286C60.051 55.104 60.4561 54.9519 60.7861 54.6894C61.1161 54.4268 61.3539 54.0671 61.4656 53.662L61.6615 52.8835Z" fill="#151414"/>
<path d="M35.9838 52.8835H28.5228L28.3313 53.662C28.2728 53.833 28.2574 54.0156 28.2862 54.1938C28.3151 54.3721 28.3874 54.5406 28.4969 54.6848C28.6063 54.8289 28.7496 54.9443 28.9142 55.0208C29.0788 55.0973 29.2598 55.1327 29.4413 55.1238H33.9553C34.3776 55.104 34.7828 54.9519 35.1128 54.6894C35.4427 54.4268 35.6806 54.0671 35.7923 53.662L35.9838 52.8835Z" fill="#151414"/>
<path opacity="0.1" d="M50.5964 75.9046C50.5313 75.9046 50.4689 75.8792 50.4225 75.8339C50.3761 75.7886 50.3494 75.727 50.3483 75.6624L49.7998 50.1805C49.7997 50.115 49.825 50.052 49.8704 50.0045C49.9157 49.957 49.9777 49.9286 50.0436 49.9253C50.1086 49.9253 50.1711 49.9507 50.2175 49.996C50.2639 50.0413 50.2905 50.1029 50.2917 50.1675L50.8315 75.6537C50.8315 75.7188 50.8061 75.7813 50.7606 75.8281C50.7151 75.8749 50.6531 75.9023 50.5877 75.9046H50.5964Z" fill="black"/>
<path d="M65.3713 94.4796L62.7987 94.4406L62.0587 88.5156L64.6313 88.5545L65.3713 94.4796Z" fill="#FF8B7B"/>
<path d="M49.713 94.4188L47.3624 93.117L49.1167 87.6201L51.4673 88.9219L49.713 94.4188Z" fill="#FF8B7B"/>
<path d="M47.1405 92.8104L49.8654 94.3501C49.91 94.3739 49.9448 94.4124 49.9639 94.459C49.9829 94.5055 49.9851 94.5572 49.9699 94.6052L49.2821 96.8325C49.2653 96.8866 49.2363 96.9362 49.1972 96.9775C49.1582 97.0187 49.1101 97.0506 49.0568 97.0706C49.0035 97.0906 48.9463 97.0983 48.8895 97.093C48.8328 97.0877 48.778 97.0696 48.7293 97.0401C47.8587 96.5341 47.2493 96.1189 46.1436 95.4961C45.4646 95.1155 43.3752 94.03 42.4393 93.5024C41.5034 92.9748 41.9039 91.98 42.3348 92.1141C44.2719 92.7109 45.8651 92.9272 46.6878 92.7455C46.8415 92.7102 47.003 92.7333 47.1405 92.8104Z" fill="#151414"/>
<path d="M62.7454 94.1468L65.5531 94.19C65.6044 94.19 65.6541 94.2077 65.6938 94.24C65.7335 94.2723 65.7607 94.3173 65.7707 94.3673L66.2409 96.6465C66.2506 96.7003 66.2481 96.7555 66.2337 96.8082C66.2192 96.861 66.1931 96.9098 66.1572 96.9512C66.1214 96.9926 66.0767 97.0256 66.0264 97.0477C65.9761 97.0698 65.9215 97.0805 65.8665 97.079C64.8523 97.0487 63.3897 96.9666 62.1186 96.9449C60.6299 96.9233 59.3414 96.9839 57.5959 96.9449C56.5424 96.9449 56.29 95.8637 56.7253 95.7729C58.745 95.3664 60.3861 95.3404 62.1404 94.3068C62.3239 94.2005 62.5329 94.1452 62.7454 94.1468Z" fill="#151414"/>
<path d="M61.5307 19.5521C60.0563 20.7508 58.519 21.8711 56.9253 22.9082C56.1244 23.4229 55.3104 23.9332 54.4441 24.4003C53.5386 24.91 52.5869 25.3343 51.6016 25.6674C51.3077 25.7607 51.0082 25.8358 50.7049 25.8923C50.5395 25.9226 50.348 25.9442 50.1651 25.9615C49.958 25.9787 49.7498 25.9787 49.5427 25.9615C49.0863 25.9246 48.6422 25.7967 48.2368 25.5853C47.8491 25.3799 47.5035 25.1041 47.2182 24.7722C46.7781 24.2471 46.4547 23.6354 46.2692 22.9774C46.1188 22.4457 46.0183 21.9014 45.9689 21.3513C45.8375 19.3834 46.0271 17.4074 46.5304 15.4998L48.4414 15.7636C48.4326 17.4817 48.6018 19.1961 48.9463 20.8798C49.0281 21.2357 49.1432 21.5833 49.2902 21.9178C49.3758 22.1423 49.5112 22.3448 49.6863 22.5103C49.7386 22.5449 49.7603 22.5406 49.7647 22.5103C49.769 22.48 49.7647 22.4887 49.7647 22.48C49.9852 22.432 50.2009 22.3639 50.4089 22.2768C51.1509 21.9585 51.8657 21.581 52.5462 21.148C53.2775 20.7155 54.0132 20.2095 54.7227 19.6992C56.1766 18.6872 57.6435 17.5973 59.0408 16.5247L61.5307 19.5521Z" fill="#FFB7AD"/>
<path d="M62.3143 18.3754C61.1434 21.0006 56.6294 23.7166 54.1264 24.8626C53.3864 25.2 53.4822 26.186 53.0425 25.7579C53.0425 25.7579 51.1141 22.2418 51.1141 21.5239C51.1141 20.8059 51.754 21.2341 52.2764 20.7497C54.1569 19.0198 58.092 15.2183 60.547 14.7987C63.7595 14.2365 63.4113 15.9275 62.3143 18.3754Z" fill="#1E88E5"/>
<path d="M51.3853 21.057C51.1371 20.6937 50.1098 21.6451 49.7834 22.043C49.4569 22.4409 50.3536 23.8854 50.6235 24.6379C50.8934 25.3904 50.3623 26.1905 51.1894 26.3073C51.6247 26.3679 52.8653 26.2078 53.1047 25.8748C53.6662 25.1612 51.9816 21.9306 51.3853 21.057Z" fill="#151414"/>
<path opacity="0.2" d="M57.2916 23.1329C59.3985 21.8138 61.5575 20.0752 62.3193 18.3755C62.3672 18.2588 62.4238 18.1506 62.4673 18.0382L62.5108 17.6057C59.6509 18.0901 57.7095 20.9618 57.2916 23.1329Z" fill="#151414"/>
<path d="M48.0724 16.555L49.7308 14.1115L47.0233 13.0129C47.0233 13.0129 45.4911 14.7429 46.588 16.2522L48.0724 16.555Z" fill="#FFB7AD"/>
<path d="M50.4272 11.4557L47.9373 11.3735L47.0244 13.013L49.732 14.1115L50.4272 11.4557Z" fill="#FFB7AD"/>
<path opacity="0.2" d="M62.0587 88.5156L62.4418 91.569L65.0144 91.6122L64.6313 88.5589L62.0587 88.5156Z" fill="#151414"/>
<path opacity="0.2" d="M51.4669 88.9219L49.1163 87.6201L48.2152 90.4572L50.5615 91.759L51.4669 88.9219Z" fill="#151414"/>
<path d="M74.9174 15.7244C72.1446 25.4293 72.7061 35.7268 72.4536 37.8113C70.4426 37.6686 62.8771 37.1064 58.7418 36.7993C57.4359 22.203 60.5439 14.7903 60.5439 14.7903C60.5439 14.7903 61.4145 14.6216 62.6246 14.5005C62.999 14.4616 63.4038 14.427 63.8261 14.4053C64.0611 14.4053 64.2962 14.3837 64.5356 14.3794C66.4867 14.4121 68.4342 14.5565 70.3686 14.8119C70.7342 14.8551 71.1042 14.9113 71.4655 14.9676C71.8268 15.0238 72.1272 15.0843 72.4362 15.1449C73.8335 15.4217 74.9174 15.7244 74.9174 15.7244Z" fill="#1E88E5"/>
<path d="M64.5354 14.3921C63.3819 15.0062 63.0467 17.2551 65.2798 17.3416C67.5129 17.4281 69.7285 15.8669 70.3684 14.8203L64.5354 14.3921Z" fill="#263238"/>
<path opacity="0.2" d="M71.9879 19.8894C71.7441 20.8279 72.0227 25.1095 73.0108 26.1691C73.1457 24.7981 73.3242 23.3622 73.5636 21.9004L71.9879 19.8894Z" fill="#151414"/>
<path d="M70.276 8.24683C69.7711 10.0806 69.1486 13.4669 70.3675 14.8076C69.2705 15.7418 68.0125 16.3948 65.7794 16.3083C63.5463 16.2218 63.8902 15.1406 64.5345 14.3794C66.6674 14.0378 66.711 12.4895 66.4715 11.0147L70.276 8.24683Z" fill="#FFB7AD"/>
<path opacity="0.2" d="M68.7269 9.37549L66.472 11.0146C66.5366 11.3585 66.5715 11.7071 66.5765 12.0569C67.3818 12.0007 68.5484 11.1919 68.6921 10.3832C68.7645 10.0521 68.7763 9.71073 68.7269 9.37549Z" fill="black"/>
<path d="M64.4693 7.54214C64.4693 7.54214 62.8935 5.34079 63.3549 3.61951C63.9469 1.41817 67.5163 4.11687 64.4693 7.54214Z" fill="#151414"/>
<path d="M70.7122 5.45745C70.3639 7.97018 70.2769 9.45792 68.9144 10.6473C66.838 12.455 63.7909 11.0797 63.3731 8.48484C62.9943 6.1797 63.6212 2.45602 66.1851 1.63862C66.7512 1.45399 67.3556 1.41678 67.9404 1.53056C68.5252 1.64434 69.0708 1.9053 69.525 2.28847C69.9792 2.67164 70.3269 3.16422 70.5348 3.71906C70.7426 4.2739 70.8037 4.87245 70.7122 5.45745Z" fill="#FFB7AD"/>
<path d="M68.7567 3.18672C67.1722 3.6538 62.7278 4.14251 63.2719 1.88927C64.0294 -1.26353 66.0317 0.379904 66.319 0.829687C67.5944 -0.0871782 73.2228 0.712915 72.0998 2.52502C73.323 2.71099 74.0325 4.03439 73.1532 4.68744C72.2739 5.34049 71.2074 8.00459 70.6198 7.92674C69.9089 7.82916 69.2147 7.63564 68.5565 7.35154L69.7666 5.7427C69.7666 5.7427 68.2996 4.35875 68.7567 3.18672Z" fill="#151414"/>
<path d="M71.5304 2.80172C72.401 2.5898 73.215 2.49466 73.9202 3.14338C73.8679 2.05353 72.3662 1.90215 71.5304 2.80172Z" fill="#151414"/>
<path d="M71.6477 8.33776C71.4595 8.59161 71.2226 8.80597 70.9507 8.96852C70.6787 9.13107 70.3771 9.23859 70.0632 9.2849C69.2188 9.406 68.9097 8.63185 69.2362 7.90095C69.5278 7.23925 70.3201 6.38294 71.121 6.6035C71.2941 6.65495 71.4516 6.74824 71.5795 6.875C71.7074 7.00177 71.8016 7.15806 71.8538 7.32989C71.906 7.50172 71.9145 7.68373 71.8785 7.85962C71.8426 8.03551 71.7633 8.19979 71.6477 8.33776Z" fill="#FFB7AD"/>
<path d="M61.484 90.968L65.837 91.0328C65.837 91.0328 63.3254 73.9454 63.7171 65.9964C63.8347 63.5788 63.4429 60.1968 64.0871 56.5726C64.9011 52.0012 65.2929 50.1805 66.342 44.4068C67.0907 40.2896 67.7567 37.4871 67.7567 37.4871L58.7417 36.821C58.7417 36.821 55.7947 57.4116 55.8818 65.2093C55.9732 73.2924 61.484 90.968 61.484 90.968Z" fill="#407BFF"/>
<path opacity="0.6" d="M61.484 90.968L65.837 91.0328C65.837 91.0328 63.3254 73.9454 63.7171 65.9964C63.8347 63.5788 63.4429 60.1968 64.0871 56.5726C64.9011 52.0012 65.2929 50.1805 66.342 44.4068C67.0907 40.2896 67.7567 37.4871 67.7567 37.4871L58.7417 36.821C58.7417 36.821 55.7947 57.4116 55.8818 65.2093C55.9732 73.2924 61.484 90.968 61.484 90.968Z" fill="#151414"/>
<path opacity="0.2" d="M64.086 56.5728C63.7803 58.4684 63.6535 60.3884 63.7073 62.3075C62.9586 64.4094 62.3056 66.4031 61.8486 68.1763C61.052 71.2772 59.7896 75.9826 58.5621 80.5021C57.2257 75.2085 55.9242 69.0888 55.885 65.1878L64.086 56.5728Z" fill="#151414"/>
<path d="M63.603 37.158C63.603 37.158 57.1258 53.4193 54.6707 60.5121C51.9805 68.2622 47.6406 89.1814 47.6406 89.1814L51.7368 91.4865C51.7368 91.4865 58.1182 74.2434 60.7605 66.6966C63.7727 58.0988 72.0782 44.5145 72.4526 37.8326L63.603 37.158Z" fill="#407BFF"/>
<path opacity="0.6" d="M63.603 37.158C63.603 37.158 57.1258 53.4193 54.6707 60.5121C51.9805 68.2622 47.6406 89.1814 47.6406 89.1814L51.7368 91.4865C51.7368 91.4865 58.1182 74.2434 60.7605 66.6966C63.7727 58.0988 72.0782 44.5145 72.4526 37.8326L63.603 37.158Z" fill="#151414"/>
<path d="M47.1011 88.9742L51.9242 91.6945L52.7425 90.263L47.4014 87.1318L47.1011 88.9742Z" fill="#1E88E5"/>
<path d="M60.9351 91.059L66.1238 91.1411L66.15 89.4761L60.3518 89.2944L60.9351 91.059Z" fill="#1E88E5"/>
<path d="M67.3256 5.87687C67.3256 6.08446 67.1863 6.24016 67.0514 6.23151C66.9165 6.22286 66.8207 6.04554 66.8381 5.84227C66.8555 5.63901 66.973 5.47899 67.108 5.48764C67.2429 5.49629 67.343 5.6736 67.3256 5.87687Z" fill="#151414"/>
<path d="M64.5736 5.70378C64.5736 5.91137 64.4387 6.06707 64.3037 6.05842C64.1688 6.04977 64.0687 5.87245 64.0861 5.66918C64.1035 5.46592 64.221 5.30589 64.356 5.31454C64.4909 5.32319 64.591 5.50052 64.5736 5.70378Z" fill="#151414"/>
<path d="M65.1968 5.86401C64.9021 6.47344 64.5242 7.03956 64.0737 7.54637C64.2074 7.65757 64.364 7.7384 64.5324 7.78322C64.7008 7.82805 64.8771 7.83578 65.0488 7.80587L65.1968 5.86401Z" fill="#FFA396"/>
<path d="M64.9702 9.12923C65.2032 9.11984 65.4317 9.06275 65.6414 8.96154C65.8512 8.86033 66.0376 8.71718 66.189 8.54105C66.1948 8.53541 66.1994 8.52868 66.2026 8.52126C66.2057 8.51383 66.2073 8.50585 66.2073 8.4978C66.2073 8.48974 66.2057 8.48177 66.2026 8.47434C66.1994 8.46692 66.1948 8.46019 66.189 8.45455C66.1778 8.44422 66.163 8.43848 66.1477 8.43848C66.1324 8.43848 66.1176 8.44422 66.1063 8.45455C65.9341 8.64554 65.7191 8.7936 65.4786 8.88676C65.2382 8.97992 64.979 9.01557 64.7221 8.99083C64.7062 8.99069 64.6908 8.99633 64.6788 9.00668C64.6667 9.01703 64.6589 9.03139 64.6568 9.04705C64.6555 9.05513 64.6561 9.06338 64.6583 9.07123C64.6606 9.07909 64.6646 9.08635 64.67 9.09253C64.6753 9.0987 64.682 9.10364 64.6895 9.10699C64.697 9.11034 64.7052 9.11202 64.7134 9.11192C64.7985 9.12351 64.8843 9.12929 64.9702 9.12923Z" fill="#151414"/>
<path d="M67.761 5.1803C67.7797 5.18403 67.7989 5.18403 67.8176 5.1803C67.8311 5.17156 67.8427 5.16024 67.8518 5.147C67.8609 5.13376 67.8672 5.11888 67.8704 5.10319C67.8737 5.0875 67.8737 5.07133 67.8707 5.05562C67.8676 5.0399 67.8614 5.02495 67.8524 5.01163C67.7518 4.84795 67.6131 4.71067 67.4479 4.61133C67.2828 4.51198 67.0961 4.45349 66.9035 4.44076C66.8873 4.44015 66.8712 4.44286 66.8561 4.44874C66.841 4.45461 66.8274 4.46351 66.8159 4.47487C66.8045 4.48624 66.7955 4.49983 66.7896 4.5148C66.7837 4.52977 66.781 4.54579 66.7816 4.56185C66.7816 4.59397 66.7944 4.62477 66.8173 4.64748C66.8401 4.67019 66.8711 4.68295 66.9035 4.68295C67.0551 4.69573 67.2016 4.74391 67.3309 4.82358C67.4603 4.90324 67.5688 5.01213 67.6478 5.14138C67.6617 5.157 67.6794 5.16878 67.6993 5.1756C67.7191 5.18242 67.7404 5.18404 67.761 5.1803Z" fill="#151414"/>
<path d="M63.555 4.79093C63.5753 4.79264 63.5957 4.78962 63.6146 4.78211C63.6335 4.7746 63.6504 4.76281 63.6639 4.74767C63.7604 4.62991 63.8838 4.5367 64.0239 4.47578C64.1639 4.41486 64.3166 4.38798 64.4692 4.39736C64.5009 4.40106 64.5327 4.39225 64.558 4.37285C64.5832 4.35344 64.5998 4.32497 64.6041 4.29357C64.6066 4.27764 64.6058 4.26139 64.6019 4.24577C64.5979 4.23014 64.5909 4.21545 64.5811 4.20256C64.5714 4.18967 64.5592 4.17885 64.5452 4.17071C64.5312 4.16257 64.5157 4.15729 64.4996 4.15517C64.3075 4.14149 64.1148 4.1736 63.9376 4.24882C63.7604 4.32405 63.6039 4.44021 63.481 4.58766C63.4695 4.59893 63.4603 4.61239 63.454 4.62724C63.4477 4.64209 63.4445 4.65804 63.4445 4.67415C63.4445 4.69026 63.4477 4.70621 63.454 4.72107C63.4603 4.73592 63.4695 4.74937 63.481 4.76065C63.5024 4.7773 63.528 4.78778 63.555 4.79093Z" fill="#151414"/>
<path d="M46.179 92.7844C46.3784 92.8918 46.5904 92.9746 46.8101 93.0309C46.819 93.0372 46.8297 93.0406 46.8406 93.0406C46.8516 93.0406 46.8622 93.0372 46.8711 93.0309C46.8772 93.0203 46.8804 93.0084 46.8804 92.9963C46.8804 92.9841 46.8772 92.9722 46.8711 92.9617C46.8188 92.8665 46.3487 92.0189 46.0266 92.0059C45.9913 92.0053 45.9564 92.0143 45.9257 92.0318C45.8951 92.0493 45.8698 92.0747 45.8525 92.1054C45.8167 92.1531 45.7935 92.209 45.7851 92.2679C45.7767 92.3269 45.7834 92.387 45.8046 92.4427C45.8882 92.5943 46.0198 92.7144 46.179 92.7844ZM46.697 92.8709C46.2617 92.7325 45.9918 92.5551 45.9265 92.3865C45.9122 92.3478 45.9079 92.3061 45.9139 92.2653C45.92 92.2245 45.9363 92.1859 45.9613 92.1529C45.9678 92.14 45.9777 92.1292 45.99 92.1215C46.0023 92.1139 46.0165 92.1098 46.031 92.1097C46.1964 92.1183 46.5011 92.5378 46.697 92.8709Z" fill="#1E88E5"/>
<path d="M46.7966 93.0265H46.827C46.8382 93.0265 46.8491 93.0232 46.8584 93.017C46.8677 93.0109 46.875 93.0021 46.8793 92.9919C46.8793 92.9616 47.2058 92.2912 47.0665 91.9366C47.0509 91.8923 47.0262 91.8518 46.994 91.8175C46.9617 91.7833 46.9227 91.7561 46.8793 91.7377C46.8388 91.7171 46.7927 91.7102 46.7479 91.718C46.7031 91.7258 46.6621 91.7479 46.6312 91.7809C46.444 92.0058 46.6312 92.741 46.7748 92.9962C46.778 93.0086 46.7858 93.0194 46.7966 93.0265ZM46.8575 91.8717C46.9025 91.898 46.9365 91.9395 46.9533 91.9885C46.994 92.2767 46.9471 92.5704 46.8183 92.8319C46.6877 92.5291 46.6137 92.0015 46.7269 91.8717C46.7269 91.8717 46.7574 91.8285 46.8314 91.8717H46.8575Z" fill="#1E88E5"/>
<path d="M62.489 94.4929C62.4997 94.4902 62.5094 94.4841 62.5164 94.4755C62.5234 94.467 62.5276 94.4564 62.5281 94.4454C62.5312 94.4333 62.5298 94.4206 62.5242 94.4095C62.5186 94.3984 62.5092 94.3896 62.4977 94.3848C62.3845 94.32 61.3572 93.7837 61.0438 93.9523C61.0143 93.9682 60.9892 93.9911 60.971 94.0191C60.9527 94.0471 60.9418 94.0791 60.9393 94.1124C60.9329 94.1671 60.9394 94.2225 60.9582 94.2743C60.9771 94.3261 61.0079 94.3728 61.0481 94.4108C61.3267 94.6616 62.0667 94.5708 62.4803 94.4973L62.489 94.4929ZM61.1221 94.0605C61.5315 94.0828 61.929 94.2046 62.28 94.4151C61.8991 94.5256 61.4907 94.4949 61.1308 94.3286C61.1044 94.304 61.0843 94.2736 61.0722 94.2397C61.0601 94.2058 61.0563 94.1696 61.0612 94.134C61.0607 94.1206 61.0641 94.1073 61.0711 94.0958C61.078 94.0842 61.0882 94.075 61.1004 94.0691L61.1221 94.0605Z" fill="#1E88E5"/>
<path d="M62.4895 94.4925C62.4979 94.4857 62.5047 94.4772 62.5092 94.4674C62.5138 94.4577 62.5159 94.447 62.5156 94.4362C62.4942 94.0739 62.3587 93.7274 62.1282 93.4459C62.083 93.4056 62.0298 93.3752 61.9721 93.3566C61.9144 93.338 61.8534 93.3315 61.793 93.3377C61.6276 93.3377 61.5754 93.4329 61.5667 93.5021C61.5144 93.7918 62.1195 94.367 62.4372 94.4968C62.4546 94.5017 62.4732 94.5002 62.4895 94.4925ZM61.7582 93.4631H61.8235C61.8673 93.4586 61.9116 93.4632 61.9536 93.4766C61.9956 93.49 62.0343 93.5119 62.0672 93.541C62.2575 93.7656 62.3718 94.044 62.3937 94.3368C62.0803 94.1422 61.6711 93.701 61.7016 93.528C61.703 93.5127 61.7092 93.4982 61.7194 93.4865C61.7295 93.4749 61.7431 93.4667 61.7582 93.4631Z" fill="#1E88E5"/>
<path d="M75.5526 17.2686C76.1185 18.3152 76.6061 19.3488 77.111 20.3997C77.616 21.4507 78.0556 22.5232 78.4996 23.6044C78.9436 24.6856 79.3441 25.7669 79.7141 26.9259L79.9796 27.7909L80.2147 28.6558C80.293 28.9499 80.354 29.2613 80.4236 29.5597L80.4759 29.7933L80.5237 30.1047C80.5523 30.2939 80.5712 30.4844 80.5803 30.6755C80.6071 31.3297 80.5795 31.985 80.4976 32.6347C80.428 33.2488 80.3409 33.8413 80.2364 34.4252C80.0232 35.5929 79.762 36.7303 79.4703 37.8548C78.8898 40.0944 78.1938 42.303 77.3853 44.4718L75.5265 43.9614C75.9139 41.7471 76.2883 39.5025 76.6191 37.2925C76.7802 36.1897 76.9282 35.0869 77.0283 33.997C77.0805 33.4564 77.1197 32.9201 77.1371 32.3968C77.1603 31.9136 77.1472 31.4293 77.098 30.948C77.098 30.8572 77.0762 30.7361 77.0544 30.6755L77.0283 30.5631L76.9761 30.3815C76.8977 30.1349 76.8368 29.8884 76.7497 29.6376L76.4929 28.8851L76.21 28.1282C75.8225 27.1119 75.3872 26.0999 74.9476 25.1008C74.5079 24.1018 74.0204 23.0768 73.5372 22.0734C73.054 21.0701 72.5578 20.0494 72.079 19.072L75.5526 17.2686Z" fill="#FFB7AD"/>
<path d="M74.9119 15.7289C76.7575 16.2998 79.1995 23.9029 80.1659 27.1378C80.7797 27.6871 80.4706 28.6905 80.4706 28.6905L76.714 30.3382C75.8434 29.9057 75.3036 29.0019 75.6301 28.5564C73.6626 24.8673 72.1173 22.1081 71.3729 19.9067C70.2716 16.6458 72.0737 14.825 74.9119 15.7289Z" fill="#1E88E5"/>
<path d="M75.7964 29.4341C75.4177 29.659 76.58 30.844 76.9543 31.19C77.3287 31.536 78.578 30.6321 79.3572 30.4072C80.1363 30.1823 80.9025 30.7618 81.0679 29.9488C81.1593 29.5163 81.0679 28.2794 80.7675 28.0199C80.058 27.4231 76.7106 28.8978 75.7964 29.4341Z" fill="#151414"/>
<path d="M76.0136 42.8713L74.0068 44.5321L76.5054 46.3225C76.5054 46.3225 78.1465 44.5926 77.4109 43.5633L76.0136 42.8713Z" fill="#FFB7AD"/>
<path d="M72.8616 46.8544L75.3341 48.0481L76.505 46.3225L74.0064 44.532L72.8616 46.8544Z" fill="#FFB7AD"/>
</svg>
