<svg width="1251" height="109" viewBox="0 0 1251 109" fill="none" xmlns="http://www.w3.org/2000/svg">
<path d="M1217.06 48.7891C1217.49 47.3638 1219.51 47.3638 1219.94 48.7891L1224.15 62.8418C1224.3 63.3247 1224.68 63.7026 1225.16 63.8475L1239.21 68.0633C1240.64 68.4909 1240.64 70.5091 1239.21 70.9367L1225.16 75.1525C1224.68 75.2974 1224.3 75.6753 1224.15 76.1582L1219.94 90.2109C1219.51 91.6362 1217.49 91.6362 1217.06 90.2109L1212.85 76.1582C1212.7 75.6753 1212.32 75.2974 1211.84 75.1525L1197.79 70.9367C1196.36 70.5091 1196.36 68.4909 1197.79 68.0633L1211.84 63.8475C1212.32 63.7026 1212.7 63.3247 1212.85 62.8418L1217.06 48.7891Z" fill="#FFB728"/>
<path d="M1236.01 82.3496C1236.12 81.8189 1236.88 81.8189 1236.99 82.3496L1238.93 91.6793C1238.97 91.8741 1239.13 92.0262 1239.32 92.0668L1248.65 94.0105C1249.18 94.1211 1249.18 94.8789 1248.65 94.9895L1239.32 96.9332C1239.13 96.9738 1238.97 97.1259 1238.93 97.3207L1236.99 106.65C1236.88 107.181 1236.12 107.181 1236.01 106.65L1234.07 97.3207C1234.03 97.1259 1233.87 96.9738 1233.68 96.9332L1224.35 94.9895C1223.82 94.8789 1223.82 94.1211 1224.35 94.0105L1233.68 92.0668C1233.87 92.0262 1234.03 91.8741 1234.07 91.6793L1236.01 82.3496Z" fill="#1E88E5"/>
<path d="M47.5441 3.1453C47.2566 2.19998 45.9182 2.19998 45.6307 3.1453L42.4554 13.5843C42.2304 14.3241 41.2867 14.5395 40.763 13.9706L33.3729 5.94307C32.7036 5.21612 31.4978 5.79681 31.6489 6.77328L33.3174 17.5562C33.4356 18.3204 32.6789 18.9239 31.9602 18.6385L21.8189 14.6125C20.9005 14.2479 20.0661 15.2942 20.6259 16.1084L26.8077 25.0996C27.2458 25.7368 26.8258 26.6088 26.0545 26.6636L15.1706 27.4364C14.185 27.5064 13.8872 28.8112 14.7449 29.3018L24.2155 34.7204C24.8867 35.1044 24.8867 36.0723 24.2155 36.4564L14.7449 41.8749C13.8872 42.3656 14.185 43.6704 15.1706 43.7404L26.0545 44.5131C26.8258 44.5679 27.2458 45.44 26.8077 46.0772L20.6259 55.0683C20.0661 55.8825 20.9005 56.9289 21.8189 56.5643L31.9602 52.5382C32.6789 52.2529 33.4356 52.8564 33.3174 53.6206L31.6489 64.4035C31.4978 65.3799 32.7036 65.9606 33.3729 65.2337L40.763 57.2062C41.2867 56.6373 42.2304 56.8526 42.4554 57.5925L45.6307 68.0314C45.9182 68.9768 47.2566 68.9768 47.5441 68.0314L50.7194 57.5925C50.9444 56.8526 51.8881 56.6373 52.4118 57.2062L59.802 65.2337C60.4712 65.9606 61.677 65.3799 61.5259 64.4035L59.8574 53.6206C59.7392 52.8564 60.4959 52.2529 61.2146 52.5382L71.3559 56.5643C72.2743 56.9289 73.1087 55.8825 72.5489 55.0683L66.3672 46.0772C65.929 45.44 66.349 44.5679 67.1204 44.5131L78.0042 43.7404C78.9898 43.6704 79.2876 42.3656 78.43 41.8749L68.9593 36.4564C68.2881 36.0723 68.2881 35.1044 68.9593 34.7204L78.43 29.3018C79.2876 28.8112 78.9898 27.5064 78.0042 27.4364L67.1204 26.6636C66.349 26.6088 65.929 25.7368 66.3672 25.0996L72.5489 16.1084C73.1087 15.2942 72.2743 14.2479 71.3559 14.6125L61.2146 18.6385C60.4959 18.9239 59.7392 18.3204 59.8574 17.5562L61.5259 6.77328C61.677 5.79682 60.4712 5.21612 59.802 5.94307L52.4118 13.9706C51.8881 14.5395 50.9444 14.3241 50.7194 13.5843L47.5441 3.1453Z" fill="#6889FF"/>
<path d="M1214.01 52.8077C1222.02 58.4145 1218.05 71 1208.28 71H31.7236C21.9465 71 17.9792 58.4145 25.989 52.8077L97.4176 2.80768C99.0984 1.6311 101.1 1 103.152 1H1136.85C1138.9 1 1140.9 1.6311 1142.58 2.80768L1214.01 52.8077Z" fill="#F7F7F7"/>
</svg>
