<svg width="44" height="44" viewBox="0 0 44 44" fill="none" xmlns="http://www.w3.org/2000/svg">
<g clip-path="url(#clip0_1095_68724)">
<path d="M22.0007 25.6673V40.334H7.33398C7.33398 36.4442 8.87922 32.7136 11.6298 29.9631C14.3803 27.2126 18.1108 25.6673 22.0007 25.6673ZM22.0007 23.834C15.9232 23.834 11.0007 18.9115 11.0007 12.834C11.0007 6.75649 15.9232 1.83398 22.0007 1.83398C28.0782 1.83398 33.0007 6.75649 33.0007 12.834C33.0007 18.9115 28.0782 23.834 22.0007 23.834ZM26.7582 34.4893C26.5257 33.5111 26.5257 32.492 26.7582 31.5138L24.9395 30.4633L26.7728 27.288L28.5915 28.3385C29.3214 27.6471 30.2038 27.1371 31.1673 26.8498V24.7507H34.834V26.8498C35.8093 27.1395 36.6893 27.6565 37.4098 28.3385L39.2285 27.288L41.0618 30.4633L39.2432 31.5138C39.4753 32.4915 39.4753 33.5099 39.2432 34.4875L41.0618 35.538L39.2285 38.7133L37.4098 37.6628C36.6799 38.3542 35.7975 38.8642 34.834 39.1515V41.2507H31.1673V39.1515C30.2038 38.8642 29.3214 38.3542 28.5915 37.6628L26.7728 38.7133L24.9395 35.538L26.7582 34.4893ZM33.0007 31.1673C32.5144 31.1673 32.0481 31.3605 31.7043 31.7043C31.3605 32.0481 31.1673 32.5144 31.1673 33.0007C31.1673 33.4869 31.3605 33.9532 31.7043 34.297C32.0481 34.6408 32.5144 34.834 33.0007 34.834C33.4869 34.834 33.9532 34.6408 34.297 34.297C34.6408 33.9532 34.834 33.4869 34.834 33.0007C34.834 32.5144 34.6408 32.0481 34.297 31.7043C33.9532 31.3605 33.4869 31.1673 33.0007 31.1673Z" fill="#48A43F"/>
</g>
<defs>
<clipPath id="clip0_1095_68724">
<rect width="44" height="44" fill="white"/>
</clipPath>
</defs>
</svg>
