<svg width="36" height="36" viewBox="0 0 36 36" fill="none" xmlns="http://www.w3.org/2000/svg">
<path d="M16.6537 4.55081C23.9897 3.909 30.4565 9.33536 31.0984 16.6713C31.7402 24.0073 26.3138 30.4742 18.9778 31.116C11.6419 31.7578 5.17499 26.3315 4.53317 18.9955C3.89136 11.6595 9.31771 5.19263 16.6537 4.55081ZM12.6189 19.6265L7.38837 20.0855C7.88907 22.4002 9.14554 24.4827 10.9599 26.0049C12.7742 27.5271 15.0434 28.4025 17.41 28.4933L16.9523 23.2627C15.8955 23.3551 14.8452 23.024 14.0326 22.3421C13.2199 21.6601 12.7114 20.6833 12.6189 19.6265ZM28.4758 18.2405L23.245 18.6968C23.3375 19.7537 23.0063 20.8039 22.3244 21.6166C21.6425 22.4293 20.6657 22.9378 19.6089 23.0302L20.0678 28.2608C22.3824 27.7602 24.4647 26.5039 25.9869 24.6898C27.5091 22.8758 28.3847 20.6069 28.4758 18.2405ZM16.8861 7.20733C14.2978 7.43382 11.8812 8.59708 10.0897 10.4788C8.2982 12.3605 7.25498 14.8314 7.15583 17.4276L12.3865 16.97C12.3557 16.6177 12.4661 16.2676 12.6934 15.9967C12.9207 15.7258 13.2463 15.5563 13.5986 15.5255L21.5681 14.8283C21.9204 14.7974 22.2705 14.9078 22.5414 15.1351C22.8123 15.3624 22.9818 15.688 23.0126 16.0403L28.2433 15.5827C27.6948 13.0431 26.2384 10.791 24.1473 9.24892C22.0563 7.70687 19.4744 6.98093 16.8861 7.20733Z" fill="#F7A299"/>
</svg>
