<svg width="36" height="35" viewBox="0 0 36 35" fill="none" xmlns="http://www.w3.org/2000/svg">
<path d="M31.6352 18.5843C31.3939 21.3427 30.34 23.9676 28.6068 26.1271C26.8737 28.2865 24.5391 29.8836 21.8983 30.7162C19.2576 31.5488 16.4292 31.5797 13.7709 30.8049C11.1125 30.03 8.74368 28.4843 6.96384 26.3632C5.184 24.2421 4.07312 21.6408 3.77168 18.8883C3.47023 16.1358 3.99176 13.3558 5.27031 10.8997C6.54887 8.44361 8.52702 6.42183 10.9546 5.09C13.3822 3.75817 16.1502 3.17612 18.9086 3.41745C20.7402 3.57746 22.5224 4.09672 24.1533 4.94557C25.7841 5.79443 27.2318 6.95625 28.4136 8.36467C29.5955 9.7731 30.4882 11.4005 31.041 13.1541C31.5938 14.9076 31.7957 16.7528 31.6352 18.5843ZM13.2392 15.6489C13.8705 15.7041 14.5039 15.571 15.0595 15.2662C15.6151 14.9615 16.0678 14.4988 16.3605 13.9368C16.6532 13.3748 16.7726 12.7386 16.7038 12.1087C16.6349 11.4788 16.3808 10.8834 15.9737 10.3979C15.5665 9.91236 15.0245 9.55846 14.4162 9.38094C13.8079 9.20341 13.1607 9.21023 12.5562 9.40052C11.9518 9.59082 11.4174 9.95605 11.0205 10.45C10.6237 10.944 10.3822 11.5446 10.3266 12.1758C10.253 13.0225 10.5184 13.8637 11.0645 14.5149C11.6106 15.1661 12.3927 15.5739 13.2392 15.6489ZM13.4102 13.6953C13.1649 13.6738 12.9315 13.5801 12.7394 13.426C12.5474 13.2719 12.4054 13.0643 12.3314 12.8295C12.2573 12.5946 12.2546 12.3431 12.3235 12.1067C12.3924 11.8704 12.5298 11.6597 12.7184 11.5014C12.9071 11.3432 13.1384 11.2444 13.3831 11.2176C13.6279 11.1908 13.8751 11.2372 14.0935 11.3508C14.3119 11.4645 14.4917 11.6404 14.6101 11.8563C14.7285 12.0722 14.7803 12.3183 14.7588 12.5636C14.7296 12.8923 14.5712 13.1961 14.3184 13.4082C14.0656 13.6203 13.739 13.7236 13.4102 13.6953ZM23.7027 12.1071C23.8252 11.9646 23.9177 11.799 23.9748 11.62C24.032 11.4411 24.0525 11.2524 24.0353 11.0654C24.018 10.8783 23.9633 10.6966 23.8744 10.5311C23.7854 10.3657 23.6641 10.2198 23.5177 10.1021C23.3712 9.98449 23.2026 9.89752 23.0218 9.8464C22.841 9.79527 22.6518 9.78104 22.4654 9.80454C22.2791 9.82804 22.0993 9.8888 21.9369 9.9832C21.7745 10.0776 21.6327 10.2037 21.52 10.354L11.7096 22.5818C11.4807 22.8718 11.3757 23.2405 11.4174 23.6076C11.4592 23.9747 11.6442 24.3104 11.9324 24.5417C12.2205 24.773 12.5884 24.881 12.9558 24.8423C13.3232 24.8036 13.6605 24.6212 13.8941 24.335L23.7027 12.1071ZM25.0685 22.5878C25.1238 21.9565 24.9905 21.323 24.6857 20.7674C24.3809 20.2117 23.9182 19.759 23.356 19.4664C22.7939 19.1737 22.1576 19.0544 21.5276 19.1234C20.8977 19.1924 20.3023 19.4466 19.8168 19.854C19.3314 20.2613 18.9776 20.8035 18.8002 21.4119C18.6229 22.0203 18.63 22.6677 18.8205 23.2721C19.0111 23.8765 19.3766 24.4108 19.8709 24.8075C20.3651 25.2042 20.9659 25.4454 21.5972 25.5006C22.4436 25.5737 23.2844 25.3081 23.9352 24.762C24.586 24.216 24.9935 23.434 25.0685 22.5878ZM23.1149 22.4169C23.0934 22.6623 22.9997 22.8957 22.8455 23.0878C22.6913 23.2799 22.4836 23.4219 22.2486 23.4958C22.0137 23.5698 21.7621 23.5724 21.5257 23.5034C21.2893 23.4343 21.0787 23.2967 20.9205 23.1079C20.7623 22.9192 20.6637 22.6877 20.6371 22.4428C20.6105 22.198 20.6571 21.9507 20.7711 21.7324C20.885 21.514 21.0612 21.3344 21.2773 21.2162C21.4934 21.098 21.7396 21.0466 21.985 21.0684C22.3134 21.098 22.6166 21.2566 22.8284 21.5093C23.0401 21.7621 23.1432 22.0884 23.1149 22.4169Z" fill="white"/>
</svg>
