<svg width="40" height="40" viewBox="0 0 40 40" fill="none" xmlns="http://www.w3.org/2000/svg">
<circle cx="20" cy="20" r="20" fill="#E82711"/>
<g clip-path="url(#clip0_1351_23071)">
<path d="M19.2305 11.8432C19.2272 11.6014 19.2732 11.3614 19.3657 11.1379C19.4582 10.9144 19.5953 10.7121 19.7685 10.5432C19.9371 10.3679 20.1399 10.2292 20.3645 10.1358C20.589 10.0424 20.8304 9.99624 21.0735 10.0002C21.6102 10.0002 22.0563 10.1749 22.412 10.5242C22.7677 10.8736 22.9455 11.3132 22.9455 11.8432C22.9506 12.0901 22.905 12.3354 22.8116 12.564C22.7182 12.7925 22.579 12.9996 22.4025 13.1722C22.2298 13.3487 22.0227 13.4878 21.7942 13.5812C21.5656 13.6746 21.3204 13.7202 21.0735 13.7152C20.8298 13.7189 20.5879 13.6719 20.3633 13.5772C20.1386 13.4825 19.9361 13.3422 19.7685 13.1652C19.5943 12.9925 19.4569 12.7864 19.3644 12.5592C19.272 12.332 19.2264 12.0885 19.2305 11.8432Z" fill="white"/>
<path d="M14.55 21.7955C14.3245 21.8275 14.138 21.856 13.969 21.9455C13.8053 22.0207 13.6648 22.1387 13.5623 22.2869C13.4598 22.4351 13.3991 22.6082 13.3865 22.788L14.0585 27.9295L14.223 29.2295C14.2294 29.3131 14.2451 29.3958 14.27 29.476C14.2902 29.5405 14.3199 29.6016 14.358 29.6575C14.4344 29.7699 14.54 29.8593 14.6635 29.916C14.7941 29.9756 14.9364 30.0051 15.08 30.0025C15.2235 29.9999 15.3646 29.9652 15.493 29.901C15.743 29.7705 15.893 29.5445 15.896 29.2835L15.3455 24.151L15.286 23.601L15.8415 23.542L19.044 23.201L19.844 23.121C20.0682 23.1022 20.2895 23.0576 20.5035 22.988C20.8885 22.852 21.095 22.6295 21.2405 22.2105C21.372 21.8195 21.4345 21.2335 21.5435 20.7195L21.826 19.1335L22.3915 15.961L22.5335 15.1805C22.5737 14.9709 22.5756 14.7557 22.539 14.5455C22.5276 14.4687 22.4996 14.3954 22.457 14.3307C22.4143 14.2659 22.358 14.2112 22.292 14.1705C22.1565 14.086 21.942 14.0445 21.714 14.0395C20.764 14.0245 19.764 14.421 19.138 15.182C18.8156 15.5624 18.5826 16.0102 18.456 16.4925C18.3977 16.7521 18.3547 17.0149 18.327 17.2795L18.218 18.094L17.7805 21.2585C16.924 21.4585 16.0565 21.5615 15.194 21.6985L14.55 21.7955Z" fill="white"/>
<path d="M26.6155 14.5078H23.86L23.5555 16.4308L23.5325 16.5713L23.3285 17.8213C23.076 19.3773 22.814 20.9868 22.539 22.5713C22.3655 23.5713 21.614 24.2668 20.578 24.3848C20.0385 24.4463 19.3615 24.5218 16.9555 24.5893L17.6 27.3438C19.5265 27.3348 20.525 27.1543 20.764 27.1188C23.217 26.7503 24.791 25.3918 25.196 23.2933C25.5405 21.5118 25.822 19.6933 26.099 17.9038C26.191 17.3068 26.283 16.7093 26.379 16.1113C26.383 16.0848 26.3815 16.0613 26.3845 16.0328L26.6155 14.5078Z" fill="white"/>
</g>
<defs>
<clipPath id="clip0_1351_23071">
<rect width="20" height="20" fill="white" transform="translate(10 10)"/>
</clipPath>
</defs>
</svg>
