<svg width="1240" height="560" viewBox="0 0 1240 560" fill="none" xmlns="http://www.w3.org/2000/svg">
<g clip-path="url(#clip0_1241_24578)">
<path d="M444.858 192.467H33.6758V603.719H444.858V192.467Z" fill="black"/>
<path d="M-268.896 608.668H921.026V183.166H-268.896V608.668Z" fill="white"/>
<path d="M29.206 635.654H1943.22C2101.87 579.106 2399.89 272.279 2267.38 237.785C2124.74 200.655 2365.59 82.5817 2145.86 40.9014C2002.4 13.6876 1413.95 170.416 1318.97 111.828C1207.39 42.9921 1022.02 -40.7925 676.779 24.3149C410.511 74.5297 192.549 19.3797 -243.17 48.5262C-467.221 63.5139 -411.175 350.558 -390.283 377.056C-372.088 400.134 -195.561 506.839 -362.86 557.251C-608.181 631.172 23.423 634.293 29.206 635.654Z" fill="#FDE5E2"/>
<path d="M140.667 458.998C140.667 458.998 241.182 380.796 300.962 381.047C360.742 381.299 425.863 432.557 510.936 476.333C606.272 525.392 481.786 527.451 474.602 527.855C467.417 528.259 219.54 522.881 215.406 520.233C211.272 517.585 145.088 483.666 145.088 483.666L140.667 458.998Z" fill="#F7A299"/>
<path d="M656.414 461.349H660.662V432.432H656.414V461.349Z" fill="#151313"/>
<path d="M658.538 376.334L672.403 445.154H644.673L658.538 376.334Z" fill="#9A1A0C"/>
<path opacity="0.2" d="M667.377 420.194L647.605 430.606L648.365 426.833L666.762 417.145L667.377 420.194Z" fill="white"/>
<path opacity="0.2" d="M664.338 405.107L652.23 407.65L652.8 404.825L663.814 402.512L664.338 405.107Z" fill="white"/>
<path d="M77.9353 410.434L90.3139 471.874H65.5566L77.9353 410.434Z" fill="#9A1A0C"/>
<path d="M99.744 419.457L109.172 466.25H90.3164L99.744 419.457Z" fill="#9A1A0C"/>
<path d="M118.598 433.393L128.026 480.186H109.171L118.598 433.393Z" fill="#9A1A0C"/>
<path d="M54.7781 424.154L67.1567 485.594H42.3994L54.7781 424.154Z" fill="#9A1A0C"/>
<path d="M101.58 443.263C208.958 454.236 370.076 552.848 492.794 552.848C615.511 552.848 641.935 529.262 687.954 534.249C733.973 539.237 795.752 552.848 795.752 552.848L-116.17 554.503C-116.17 554.503 -5.7975 432.291 101.58 443.263Z" fill="#F7A299"/>
<path d="M490.266 414.523L502.645 475.964H477.888L490.266 414.523Z" fill="#9A1A0C"/>
<path d="M519.745 432.611L529.173 479.404H510.317L519.745 432.611Z" fill="#9A1A0C"/>
<path d="M445.462 457.59L454.89 504.383H436.034L445.462 457.59Z" fill="#9A1A0C"/>
<path d="M467.106 428.244L479.485 489.684H454.728L467.106 428.244Z" fill="#9A1A0C"/>
<path d="M588.286 443.263C480.908 454.236 319.79 552.848 197.073 552.848C74.3557 552.848 47.9312 529.262 1.91219 534.249C-44.1072 539.237 -105.886 552.848 -105.886 552.848L806.036 554.503C806.036 554.503 695.664 432.291 588.286 443.263Z" fill="#F7A299"/>
<path d="M551.53 535.326H556.376V502.336H551.53V535.326Z" fill="#151313"/>
<path d="M553.953 438.336L569.771 516.849H538.135L553.953 438.336Z" fill="#9A1A0C"/>
<path opacity="0.2" d="M564.031 488.371L541.476 500.25L542.343 495.946L563.33 484.893L564.031 488.371Z" fill="white"/>
<path opacity="0.2" d="M560.568 471.161L546.756 474.061L547.405 470.838L559.971 468.199L560.568 471.161Z" fill="white"/>
<path d="M606.295 549.393H610.92V499.633H606.295V549.393Z" fill="#151313"/>
<path d="M607.392 410.916L630.177 511.356H584.607L607.392 410.916Z" fill="#9A1A0C"/>
<path opacity="0.2" d="M628.734 504.983L587.851 497.068L588.469 494.344L628.059 502.009L628.734 504.983Z" fill="white"/>
<path opacity="0.2" d="M621.535 473.25L594.442 468.005L595.06 465.281L620.86 470.276L621.535 473.25Z" fill="white"/>
<path d="M-116.17 554.504C-116.17 554.504 1.5582 491.698 153.357 487.84C204.331 486.544 413.055 512.519 588.819 532.926C596.208 533.784 612.183 542.183 619.664 543.047C702.872 552.652 780.417 554.683 805.498 555.303L-116.17 554.504Z" fill="#F6958A"/>
<path d="M830.223 485.423L830.392 480.015C830.392 476.004 825.408 472.752 819.26 472.752C803.766 472.752 791.206 480.946 791.206 491.055V498.444C791.206 501.682 788.407 504.493 784.301 505.904C780.573 507.185 778.293 509.745 778.293 512.494V516.39C778.293 520.608 781.328 524.546 786.37 527.186C789.319 528.73 791.206 531.101 791.206 533.76V539.276C791.206 545.375 798.785 550.319 808.132 550.319H813.466C822.814 550.319 830.392 545.375 830.392 539.276V539.276C828.858 531.573 832.577 527.127 836.867 524.586C843.175 520.849 846.868 515.594 846.868 510.035V509.255C846.868 503.388 842.72 497.895 835.784 494.16C832.722 492.511 830.223 489.819 830.223 485.423Z" fill="#F47B6D"/>
<path d="M847.644 556.721C847.644 556.721 804.427 521.465 777.23 516.058C750.034 510.65 775.666 532.126 775.666 532.126C775.666 532.126 727.42 499.726 709.716 502.647C693.487 505.325 709.716 525.408 709.716 525.408C709.716 525.408 691.437 514.287 669.27 514.287C647.104 514.287 686.403 555.929 686.403 555.929L847.644 556.721Z" fill="#F5887C"/>
<path d="M709.718 555.931C709.718 555.931 680.175 507.411 643.589 513.022C613.941 517.569 635.02 541.983 633.212 540.873C631.406 539.762 615.504 523.192 589.775 523.192C564.045 523.192 597.672 545.556 597.672 545.556C597.672 545.556 542.854 535.042 538.561 546.083C534.999 555.246 554.923 555.931 554.923 555.931H709.718Z" fill="#F5887C"/>
<path d="M34.3252 546.869C34.4915 546.264 34.5781 545.645 34.5781 545.016C34.5781 537.993 23.8619 532.301 10.6436 532.301C-2.57514 532.301 -13.291 537.993 -13.291 545.016C-13.291 545.645 -13.2044 546.264 -13.0381 546.869H34.3252Z" fill="#F6958A"/>
<path d="M61.4148 543.744C61.581 542.891 61.6676 542.018 61.6676 541.13C61.6676 531.227 50.9518 523.199 37.7334 523.199C24.5147 523.199 13.7988 531.227 13.7988 541.13C13.7988 542.018 13.8854 542.891 14.0517 543.744H61.4148Z" fill="#F5887C"/>
<path d="M52.6542 554.734C52.488 554.129 52.4014 553.51 52.4014 552.881C52.4014 545.859 63.1172 540.166 76.3356 540.166C89.5543 540.166 100.27 545.859 100.27 552.881C100.27 553.51 100.184 554.129 100.017 554.734H52.6542Z" fill="#F5887C"/>
<path d="M14.3485 554.732C14.1375 553.879 14.0273 553.006 14.0273 552.118C14.0273 542.215 27.6118 534.188 44.3691 534.188C61.1261 534.188 74.7109 542.215 74.7109 552.118C74.7109 553.006 74.6008 553.879 74.3898 554.732H14.3485Z" fill="#F6958A"/>
<path d="M37.6406 534.188C29.2654 534.188 21.7836 536.734 16.8459 540.729C14.3313 540.362 11.6594 540.164 8.88986 540.164C-5.97914 540.164 -18.0332 545.857 -18.0332 552.879C-18.0332 553.508 -17.9359 554.128 -17.7485 554.732H64.2789C64.4663 553.879 64.5636 553.006 64.5636 552.118C64.5636 542.215 52.5096 534.188 37.6406 534.188Z" fill="#F5887C"/>
<path d="M2.11247 493.617C0.52037 495.264 -1.7649 496.286 -4.08551 496.566C-4.47765 494.852 -3.90953 492.922 -2.31777 491.275C-0.725324 489.628 1.55995 488.606 3.88021 488.326C4.27269 490.04 3.70458 491.97 2.11247 493.617Z" fill="#F6958A"/>
<path d="M-4.56014 500.821C-2.18203 500.842 -0.101135 501.58 1.25922 502.728C-0.260484 503.85 -2.44218 504.549 -4.82029 504.527C-7.1984 504.506 -9.27929 503.768 -10.6396 502.62C-9.11994 501.498 -6.93825 500.799 -4.56014 500.821Z" fill="#F6958A"/>
<path d="M-86.4632 554.3C-86.4632 552.415 -67.9237 554.64 -66.3815 552.07C-64.8389 549.501 -82.2599 549.354 -82.2599 545.879C-82.2599 542.404 -73.3817 544.841 -68.1759 544.841C-62.9703 544.841 -78.4542 543.353 -78.4542 542.123C-78.4542 540.894 -73.0215 541.538 -73.0215 540.232C-73.0215 538.926 -101.55 537.941 -98.2114 534.744C-94.8727 531.548 -79.535 535.676 -75.3241 534.022C-71.1127 532.367 -97.8224 530.564 -98.483 528.105C-99.144 525.645 -78.8024 530.212 -75.922 528.443C-73.0416 526.674 -108.087 520.317 -106.619 515.644C-105.151 510.971 -80.056 521.628 -73.7825 520.48C-67.5087 519.333 -105.418 502.93 -96.6079 496.539C-87.798 490.148 -70.9794 517.693 -65.2393 516.709C-59.4997 515.726 -72.4274 499.304 -66.5644 496.448C-60.701 493.591 -43.8717 519.568 -42.8089 524.902C-41.7464 530.236 -39.6108 513.428 -30.4004 511.461C-21.1901 509.495 -30.1334 521.874 -28.5319 525.645C-26.9301 529.416 -19.4556 515.972 -9.37746 516.956C0.701021 517.939 -27.5973 530.236 -24.7941 533.843C-21.991 537.45 -0.139362 521.801 6.70779 526.007C13.555 530.212 -19.6122 541.883 -17.7984 545.077C-15.9842 548.272 3.91433 542.797 9.64432 546.316C15.3743 549.835 -11.7324 552.07 -15.3264 552.07C-18.9207 552.07 -32.657 554.845 -19.2415 554.3C-5.8264 553.754 -86.4632 556.185 -86.4632 554.3Z" fill="#F6958A"/>
<path d="M-33.6143 556.48C-33.6143 556.48 -11.2881 557.214 -4.78801 554.701C1.71204 552.188 -3.4183 550.231 -3.4183 550.231C-3.4183 550.231 17.2267 549.956 17.1751 546.951C17.1232 543.947 12.1193 544.121 12.1193 544.121C12.1193 544.121 22.5393 539.771 20.5959 537.06C17.6095 532.894 0.636436 540.147 0.636436 540.147C0.636436 540.147 6.20049 536.089 1.70477 535.141C-10.6368 532.538 -33.6143 556.48 -33.6143 556.48Z" fill="#F5887C"/>
<path d="M20.5963 537.061C22.5397 539.771 12.1189 544.121 12.1189 544.121C12.1189 544.121 19.6402 544.059 18.4191 546.981C17.2032 549.891 -1.70565 550.874 -1.70565 550.874C-1.70565 550.874 4.89625 551.667 -1.60415 554.18C-8.1042 556.694 -33.6143 556.48 -33.6143 556.48L20.5963 537.061Z" fill="#F6958A"/>
<path d="M-47.1544 413.487C-47.4305 411.269 -47.5742 409.001 -47.5742 406.694C-47.5742 380.959 -29.7898 360.098 -7.85162 360.098C14.0866 360.098 31.871 380.959 31.871 406.694C31.871 409.001 31.7272 411.269 31.4511 413.487H-47.1544Z" fill="#F6958A"/>
<path d="M-52.6537 367.008C-38.754 367.008 -26.3372 376.341 -18.1422 390.979C-13.9693 389.635 -9.53524 388.912 -4.93906 388.912C19.7386 388.912 39.7441 409.774 39.7441 435.508C39.7441 437.815 39.5824 440.083 39.2716 442.301H-96.8644C-97.1748 439.174 -97.3369 435.975 -97.3369 432.721C-97.3369 396.429 -77.3313 367.008 -52.6537 367.008Z" fill="#F5887C"/>
<path d="M1485.27 460.152C1485.27 460.152 1384.76 381.951 1324.98 382.202C1265.2 382.453 1200.08 433.711 1115 477.488C1019.67 526.546 1144.15 528.605 1151.34 529.009C1158.52 529.413 1406.4 524.036 1410.53 521.387C1414.67 518.739 1480.85 484.821 1480.85 484.821L1485.27 460.152Z" fill="#F7A299"/>
<path d="M969.522 462.507H965.274V433.59H969.522V462.507Z" fill="#151313"/>
<path d="M967.398 377.492L953.532 446.312H981.263L967.398 377.492Z" fill="#9A1A0C"/>
<path opacity="0.2" d="M958.562 421.35L978.333 431.762L977.573 427.989L959.176 418.301L958.562 421.35Z" fill="white"/>
<path opacity="0.2" d="M961.603 406.266L973.709 408.808L973.14 405.983L962.126 403.67L961.603 406.266Z" fill="white"/>
<path d="M1524.35 444.422C1416.98 455.394 1255.86 554.006 1133.14 554.006C1010.42 554.006 983.998 530.42 937.979 535.408C891.96 540.395 830.182 554.006 830.182 554.006L1742.1 555.661C1742.1 555.661 1631.73 433.449 1524.35 444.422Z" fill="#F7A299"/>
<path d="M1135.67 415.68L1123.29 477.12H1148.05L1135.67 415.68Z" fill="#9A1A0C"/>
<path d="M1106.2 433.768L1096.77 480.561H1115.62L1106.2 433.768Z" fill="#9A1A0C"/>
<path d="M1180.48 458.746L1171.05 505.539H1189.9L1180.48 458.746Z" fill="#9A1A0C"/>
<path d="M1158.83 429.4L1146.45 490.841H1171.21L1158.83 429.4Z" fill="#9A1A0C"/>
<path d="M1037.65 444.422C1145.03 455.394 1306.15 554.006 1428.87 554.006C1551.58 554.006 1578.01 530.42 1624.03 535.408C1670.04 540.395 1731.82 554.006 1731.82 554.006L819.901 555.661C819.901 555.661 930.274 433.449 1037.65 444.422Z" fill="#F7A299"/>
<path d="M1074.41 536.482H1069.56V503.492H1074.41V536.482Z" fill="#151313"/>
<path d="M1071.98 439.492L1056.17 518.005H1087.8L1071.98 439.492Z" fill="#9A1A0C"/>
<path opacity="0.2" d="M1061.9 489.529L1084.46 501.408L1083.59 497.104L1062.61 486.051L1061.9 489.529Z" fill="white"/>
<path opacity="0.2" d="M1065.37 472.319L1079.18 475.219L1078.53 471.996L1065.97 469.357L1065.37 472.319Z" fill="white"/>
<path d="M1019.64 550.549H1015.02V500.789H1019.64V550.549Z" fill="#151313"/>
<path d="M1018.54 412.072L995.754 512.512H1041.32L1018.54 412.072Z" fill="#9A1A0C"/>
<path opacity="0.2" d="M997.203 506.139L1038.09 498.224L1037.47 495.5L997.878 503.165L997.203 506.139Z" fill="white"/>
<path opacity="0.2" d="M1004.4 474.409L1031.49 469.163L1030.88 466.439L1005.08 471.435L1004.4 474.409Z" fill="white"/>
<path d="M1742.1 555.66C1742.1 555.66 1624.38 492.854 1472.58 488.996C1421.6 487.7 1212.88 513.675 1037.11 534.082C1029.73 534.94 1013.75 543.339 1006.27 544.203C923.062 553.809 845.516 555.839 820.436 556.459L1742.1 555.66Z" fill="#F6958A"/>
<path d="M795.714 486.579L795.544 481.171C795.544 477.16 800.529 473.908 806.677 473.908C822.171 473.908 834.73 482.102 834.73 492.211V499.601C834.73 502.838 837.53 505.649 841.635 507.06C845.364 508.341 847.644 510.901 847.644 513.65V517.546C847.644 521.764 844.609 525.702 839.567 528.342C836.618 529.886 834.73 532.257 834.73 534.916V540.433C834.73 546.531 827.152 551.475 817.804 551.475H812.471C803.123 551.475 795.544 546.531 795.544 540.433V540.432C797.079 532.729 793.36 528.283 789.07 525.742C782.761 522.005 779.068 516.75 779.068 511.191V510.411C779.068 504.544 783.217 499.051 790.152 495.316C793.214 493.667 795.714 490.975 795.714 486.579Z" fill="#F47B6D"/>
<path d="M778.293 557.88C778.293 557.88 821.51 522.623 848.707 517.216C875.903 511.808 850.271 533.285 850.271 533.285C850.271 533.285 898.517 500.884 916.221 503.805C932.451 506.483 916.221 526.566 916.221 526.566C916.221 526.566 934.5 515.445 956.667 515.445C978.833 515.445 939.534 557.087 939.534 557.087L778.293 557.88Z" fill="#F47B6D"/>
<path d="M916.223 557.088C916.223 557.088 945.765 508.567 982.351 514.178C1012 518.725 990.92 543.139 992.728 542.029C994.535 540.919 1010.44 524.348 1036.17 524.348C1061.9 524.348 1028.27 546.712 1028.27 546.712C1028.27 546.712 1083.09 536.198 1087.38 547.239C1090.94 556.402 1071.02 557.088 1071.02 557.088H916.223Z" fill="#F5887C"/>
<path opacity="0.2" d="M291.993 308.158C290.205 303.379 283.242 299.813 274.918 299.813C273.389 299.813 271.907 299.934 270.494 300.16C266.386 294.764 257.47 291.025 247.13 291.025C244.457 291.025 241.879 291.275 239.455 291.738C233.889 286.078 223.777 282.293 212.224 282.293C198.48 282.293 186.773 287.65 182.337 295.151C179.198 294.076 175.583 293.46 171.733 293.46C159.685 293.46 149.919 299.459 149.919 306.858C149.919 307.297 149.956 307.73 150.023 308.158H291.993Z" fill="white"/>
<path opacity="0.2" d="M485.535 391.739C486.396 389.437 489.749 387.72 493.758 387.72C494.494 387.72 495.207 387.778 495.888 387.887C497.866 385.289 502.16 383.488 507.139 383.488C508.426 383.488 509.668 383.608 510.835 383.832C513.515 381.106 518.385 379.283 523.948 379.283C530.567 379.283 536.205 381.863 538.341 385.475C539.852 384.957 541.593 384.661 543.447 384.661C549.249 384.661 553.952 387.549 553.952 391.113C553.952 391.324 553.934 391.533 553.901 391.739H485.535Z" fill="white"/>
<path opacity="0.2" d="M365.503 361.801C364.445 358.972 360.324 356.862 355.397 356.862C354.493 356.862 353.616 356.934 352.78 357.067C350.349 353.874 345.072 351.662 338.953 351.662C337.371 351.662 335.846 351.81 334.411 352.084C331.117 348.734 325.132 346.494 318.296 346.494C310.162 346.494 303.234 349.665 300.609 354.103C298.751 353.467 296.612 353.103 294.333 353.103C287.204 353.103 281.424 356.653 281.424 361.031C281.424 361.291 281.446 361.548 281.485 361.801H365.503Z" fill="white"/>
<path opacity="0.2" d="M529.17 328.582C527.741 324.762 522.176 321.913 515.522 321.913C514.301 321.913 513.117 322.009 511.988 322.189C508.704 317.877 501.578 314.889 493.314 314.889C491.178 314.889 489.118 315.089 487.18 315.459C482.732 310.935 474.65 307.91 465.417 307.91C454.433 307.91 445.076 312.192 441.531 318.186C439.022 317.327 436.133 316.836 433.056 316.836C423.428 316.836 415.622 321.629 415.622 327.543C415.622 327.893 415.652 328.24 415.705 328.582H529.17Z" fill="white"/>
<path opacity="0.2" d="M71.4453 375.23C72.1575 373.326 74.9319 371.906 78.2481 371.906C78.8571 371.906 79.4478 371.954 80.0107 372.044C81.6475 369.894 85.1996 368.405 89.3187 368.405C90.3836 368.405 91.4107 368.504 92.3765 368.689C94.5942 366.434 98.623 364.926 103.225 364.926C108.701 364.926 113.365 367.06 115.132 370.048C116.383 369.62 117.823 369.375 119.357 369.375C124.157 369.375 128.047 371.765 128.047 374.712C128.047 374.887 128.033 375.06 128.006 375.23H71.4453Z" fill="white"/>
<path opacity="0.2" d="M3.40184 237.047C2.1028 233.575 -2.95688 230.984 -9.00556 230.984C-10.1158 230.984 -11.1928 231.072 -12.2196 231.236C-15.2049 227.315 -21.6835 224.598 -29.1961 224.598C-31.1385 224.598 -33.0115 224.78 -34.7733 225.117C-38.8173 221.004 -46.1651 218.254 -54.5593 218.254C-64.546 218.254 -73.0524 222.147 -76.2755 227.596C-78.5569 226.815 -81.1831 226.368 -83.9807 226.368C-92.7345 226.368 -99.8311 230.727 -99.8311 236.103C-99.8311 236.422 -99.8044 236.737 -99.7555 237.047H3.40184Z" fill="white"/>
<path opacity="0.2" d="M652.227 264.438C649.44 256.987 638.583 251.428 625.605 251.428C623.223 251.428 620.912 251.616 618.709 251.968C612.304 243.556 598.403 237.727 582.283 237.727C578.116 237.727 574.097 238.117 570.317 238.839C561.639 230.014 545.873 224.113 527.862 224.113C506.434 224.113 488.182 232.466 481.267 244.159C476.372 242.483 470.736 241.524 464.734 241.524C445.951 241.524 430.725 250.876 430.725 262.411C430.725 263.095 430.782 263.771 430.887 264.438H652.227Z" fill="white"/>
<path opacity="0.2" d="M812.662 397.965C813.523 395.664 816.876 393.947 820.885 393.947C821.621 393.947 822.335 394.005 823.015 394.113C824.994 391.515 829.287 389.715 834.266 389.715C835.553 389.715 836.795 389.835 837.962 390.058C840.642 387.332 845.512 385.51 851.076 385.51C857.694 385.51 863.332 388.09 865.468 391.701C866.98 391.184 868.72 390.888 870.574 390.888C876.376 390.888 881.079 393.776 881.079 397.339C881.079 397.55 881.061 397.759 881.029 397.965H812.662Z" fill="white"/>
<path opacity="0.2" d="M732.142 341.687C731.27 339.356 727.872 337.616 723.811 337.616C723.065 337.616 722.342 337.675 721.653 337.785C719.648 335.153 715.298 333.328 710.253 333.328C708.95 333.328 707.692 333.45 706.509 333.677C703.793 330.915 698.859 329.068 693.222 329.068C686.517 329.068 680.805 331.682 678.641 335.341C677.109 334.817 675.346 334.517 673.467 334.517C667.589 334.517 662.824 337.444 662.824 341.053C662.824 341.268 662.842 341.479 662.875 341.687H732.142Z" fill="white"/>
<path opacity="0.2" d="M877.7 285.109C876.271 281.29 870.706 278.44 864.053 278.44C862.832 278.44 861.647 278.536 860.518 278.717C857.234 274.404 850.108 271.416 841.845 271.416C839.708 271.416 837.648 271.616 835.71 271.987C831.262 267.463 823.18 264.438 813.947 264.438C802.963 264.438 793.607 268.719 790.061 274.714C787.552 273.854 784.663 273.363 781.586 273.363C771.958 273.363 764.152 278.157 764.152 284.07C764.152 284.421 764.182 284.767 764.235 285.109H877.7Z" fill="white"/>
<path opacity="0.2" d="M449.427 355.74C450.04 354.102 452.425 352.881 455.277 352.881C455.8 352.881 456.308 352.922 456.792 353C458.199 351.151 461.254 349.87 464.796 349.87C465.712 349.87 466.595 349.956 467.425 350.115C469.332 348.175 472.796 346.879 476.754 346.879C481.462 346.879 485.473 348.714 486.992 351.283C488.068 350.915 489.306 350.705 490.625 350.705C494.753 350.705 498.099 352.759 498.099 355.294C498.099 355.444 498.086 355.593 498.063 355.74H449.427Z" fill="white"/>
<path opacity="0.2" d="M1373.58 318.294C1371.79 313.515 1364.82 309.95 1356.5 309.95C1354.97 309.95 1353.49 310.071 1352.08 310.296C1347.97 304.9 1339.05 301.162 1328.71 301.162C1326.04 301.162 1323.46 301.412 1321.04 301.875C1315.47 296.215 1305.36 292.43 1293.81 292.43C1280.06 292.43 1268.36 297.787 1263.92 305.287C1260.78 304.212 1257.17 303.597 1253.32 303.597C1241.27 303.597 1231.5 309.596 1231.5 316.995C1231.5 317.433 1231.54 317.867 1231.61 318.294H1373.58Z" fill="white"/>
<path opacity="0.2" d="M1153.02 385.367C1153.74 383.463 1156.51 382.043 1159.83 382.043C1160.44 382.043 1161.03 382.091 1161.59 382.181C1163.23 380.031 1166.78 378.541 1170.9 378.541C1171.96 378.541 1172.99 378.641 1173.95 378.826C1176.17 376.57 1180.2 375.062 1184.8 375.062C1190.28 375.062 1194.94 377.197 1196.71 380.185C1197.96 379.757 1199.4 379.512 1200.94 379.512C1205.74 379.512 1209.63 381.901 1209.63 384.849C1209.63 385.024 1209.61 385.196 1209.58 385.367H1153.02Z" fill="white"/>
<path opacity="0.2" d="M1084.98 247.182C1083.69 243.709 1078.63 241.119 1072.58 241.119C1071.47 241.119 1070.39 241.207 1069.36 241.371C1066.38 237.45 1059.9 234.733 1052.39 234.733C1050.44 234.733 1048.57 234.915 1046.81 235.252C1042.77 231.139 1035.42 228.389 1027.02 228.389C1017.04 228.389 1008.53 232.281 1005.31 237.731C1003.03 236.95 1000.4 236.503 997.602 236.503C988.848 236.503 981.752 240.861 981.752 246.238C981.752 246.556 981.779 246.871 981.828 247.182H1084.98Z" fill="white"/>
<path opacity="0.2" d="M820.928 350.816C822.898 345.549 830.574 341.619 839.748 341.619C841.432 341.619 843.066 341.752 844.623 342.001C849.152 336.054 858.979 331.933 870.374 331.933C873.32 331.933 876.162 332.208 878.834 332.719C884.969 326.48 896.115 322.309 908.847 322.309C923.996 322.309 936.899 328.214 941.788 336.48C945.248 335.295 949.232 334.617 953.476 334.617C966.754 334.617 977.518 341.228 977.518 349.383C977.518 349.867 977.478 350.344 977.404 350.816H820.928Z" fill="white"/>
<path d="M2031.96 559.941H-269.694C-274.519 559.941 -278.431 558.588 -278.431 556.92C-278.431 555.251 -274.519 553.898 -269.694 553.898H2031.96C2036.79 553.898 2040.7 555.251 2040.7 556.92C2040.7 558.588 2036.79 559.941 2031.96 559.941Z" fill="#F36E5F"/>
<path d="M213.149 444.477L216.542 444.495L216.538 445.369L213.145 445.35L213.149 444.477Z" fill="#1D87E4"/>
<path d="M211.944 464.598L210.542 464.591L210.559 461.619L211.96 461.627L211.944 464.598Z" fill="#1D87E4"/>
<path d="M225.682 480.508L225.603 494.695C225.593 496.539 227.199 498.062 229.241 498.145L278.456 500.153C279.586 500.199 280.695 499.758 281.348 498.925C282.238 497.79 282.35 495.915 277.953 493.375C270.307 488.959 250.844 479.39 243.63 478.435C239.038 477.827 233.027 477.54 229.264 477.412C227.313 477.346 225.692 478.748 225.682 480.508Z" fill="#E9FBFB"/>
<path d="M246.976 494.91C246.976 494.91 250.71 498.823 251.753 503.031L250.561 504.706L248.202 502.492L246.976 494.91Z" fill="#253C60"/>
<path d="M241.038 493.708C241.038 493.708 236.77 493.446 235.073 495.046C233.375 496.646 238.739 509.408 239.035 511.458C239.33 513.509 236.481 517.577 236.481 517.577C236.481 517.577 248.202 522.456 251.077 520.813C251.077 520.813 250.709 504.394 250.41 502.93C250.111 501.465 247.585 495.5 246.974 494.911C246.364 494.322 241.038 493.708 241.038 493.708Z" fill="#345389"/>
<path d="M160.746 491.923C160.706 491.677 160.601 491.447 160.447 491.235L154.35 496.516C154.35 496.516 149.752 502.822 159.784 502.961L162.544 502.999L160.746 491.923Z" fill="#95817D"/>
<path d="M249.406 486.743C249.069 487.309 248.506 487.621 248.149 487.439C247.792 487.257 247.776 486.65 248.113 486.083C248.451 485.517 249.014 485.205 249.371 485.387C249.728 485.569 249.744 486.176 249.406 486.743Z" fill="#F6A390"/>
<path d="M245.3 480.734C245.3 480.734 242.875 484.471 241.155 484.635C239.434 484.799 239.197 486.791 239.197 486.791C239.197 486.791 239.838 482.201 241.545 481.325C243.252 480.449 245.3 480.734 245.3 480.734Z" fill="#1A1A1A"/>
<path d="M235.409 511.891C235.399 511.856 237.05 505.848 237.711 504.521C238.372 503.195 240.947 497.03 240.947 497.03L237.662 496.382C237.662 496.382 235.515 501.206 234.536 503.387C233.557 505.567 233.948 509.6 233.898 510.737C233.897 510.754 233.751 511.699 233.75 511.715C233.716 511.84 233.685 511.945 233.671 511.966C233.631 512.021 233.517 512.402 233.511 512.435C233.506 512.468 233.409 512.596 233.369 512.651C233.33 512.707 233.236 513.479 233.216 513.604C233.196 513.729 233.258 514.011 233.258 514.011L233.22 514.529C233.193 514.909 233.643 514.812 233.643 514.812C233.632 514.991 233.703 515.085 233.817 515.119C233.933 515.154 234.069 515.126 234.091 515.134C234.112 515.141 234.121 515.198 234.121 515.198C234.108 515.312 234.254 515.4 234.349 515.417C234.444 515.434 234.613 515.38 234.661 515.33C234.709 515.281 234.742 515.289 234.742 515.289C234.838 515.361 235.205 515.36 235.291 515.256C235.376 515.153 235.456 514.607 235.495 514.558C235.533 514.509 235.616 514.426 235.628 514.347C235.641 514.268 235.945 513.71 235.963 513.598C235.981 513.486 235.797 513.108 235.757 512.882C235.717 512.656 235.467 512.303 235.407 512.202C235.384 512.163 235.391 512.034 235.409 511.891Z" fill="#F48B7E"/>
<path d="M231.271 489.774L230.239 495.557C230.239 495.557 233.851 502.469 236.033 501.884C237.865 501.392 236.774 495.288 236.774 495.288C236.774 495.288 235.795 492.008 236.103 490.37C236.411 488.733 231.271 489.774 231.271 489.774Z" fill="#F6A390"/>
<path d="M229.415 495.32C229.685 494.885 230.185 494.594 230.749 494.553C233.197 494.375 239.922 494.408 243.325 499.632C243.862 500.455 244.246 501.348 244.52 502.265L245.227 504.875L227.534 504.273L227.574 502.552C227.409 500.038 228.046 497.533 229.415 495.32Z" fill="#3C8F7C"/>
<path d="M271.39 505.973L274.01 496.852C274.186 496.241 273.762 495.62 273.064 495.465C272.366 495.311 271.658 495.681 271.483 496.291L268.736 505.853L271.39 505.973Z" fill="#1A1A1A"/>
<path d="M264.751 505.672C265.48 505.278 266.072 504.954 266.47 504.746C266.501 504.73 268.356 503.963 268.387 503.948C268.647 503.866 268.869 503.8 268.92 503.8C269.061 503.798 269.867 503.565 269.932 503.539C269.996 503.512 270.328 503.515 270.469 503.513C270.61 503.511 272.1 502.847 272.346 502.747C272.592 502.646 273.037 502.271 273.037 502.271L274.01 501.791C274.725 501.438 274.083 500.915 274.083 500.915C274.418 500.747 274.515 500.552 274.459 500.358C274.402 500.163 274.21 500.003 274.202 499.965C274.193 499.927 274.287 499.858 274.287 499.858C274.505 499.758 274.514 499.465 274.446 499.316C274.379 499.167 274.106 498.989 273.968 498.973C273.829 498.957 273.808 498.903 273.808 498.903C273.84 498.697 273.458 498.189 273.184 498.177C272.909 498.164 271.841 498.614 271.714 498.611C271.586 498.608 271.35 498.58 271.195 498.643C271.04 498.707 269.718 498.859 269.498 498.949C269.278 499.039 268.786 499.682 268.42 499.969C268.053 500.257 267.675 500.964 267.554 501.152C267.507 501.225 267.266 501.348 266.992 501.47L266.991 501.47C266.948 501.509 258.866 504.016 254.083 505.237L264.751 505.672Z" fill="#F6A390"/>
<path d="M239.603 504.647C239.118 502.016 238.517 499.25 237.862 497.971C236.427 495.166 231.54 493.473 229.13 495.198C227.843 496.119 228.372 500.538 229.442 504.357L239.603 504.647Z" fill="#4FBEA5"/>
<path d="M181.399 470.408C181.638 470.504 181.835 470.65 182.008 470.816C182.026 470.849 182.63 471.353 182.47 472.167C182.366 471.668 182.249 471.114 181.399 470.408Z" fill="#F48B7E"/>
<path d="M164.969 499.846C164.969 499.846 171.25 504.272 171.943 505.172C172.46 505.845 170.685 513.386 170.685 513.386C170.685 513.386 168.191 513.441 167.054 512.658C167.054 512.658 167.765 507.443 167.466 507.238C167.168 507.032 160.263 504.299 160.263 504.299L160.718 501.205L164.969 499.846Z" fill="#95817D"/>
<path d="M170.623 488.895C169.99 488.762 168.879 488.495 167.916 487.394L167.906 486.771L171.754 487.63C171.754 487.63 171.81 488.311 171.907 489.028C171.385 489.056 170.925 488.959 170.623 488.895Z" fill="#F48B7E"/>
<path d="M206.292 504.22L209.511 518.025L203.827 517.511L201.159 504.886L206.292 504.22Z" fill="#F6A390"/>
<path d="M202.293 485.48C202.293 485.48 200.718 484.731 199.542 484.822C198.365 484.912 194.52 487.331 193.964 486.919C193.409 486.508 194.14 484.354 194.586 484.044C195.032 483.733 196.814 482.801 196.966 482.785C197.118 482.768 198.729 482.803 199.005 482.866C199.28 482.93 201.269 483.774 201.269 483.774L202.293 485.48Z" fill="#8A99AA"/>
<path d="M179.168 519.125C179.202 519.042 179.283 519.039 179.366 519.035C180.175 518.995 180.982 518.946 181.781 518.823C181.914 518.803 182.045 518.773 182.167 518.728C182.388 518.645 182.608 518.642 182.835 518.692C182.958 518.718 183.082 518.721 183.208 518.718C183.615 518.707 184.765 518.336 185.358 518.232C185.493 518.208 185.599 518.116 185.629 517.998C186.154 515.954 187.274 511.369 187.391 509.867C187.542 507.946 188.791 499.274 188.791 499.274L192.864 500.172C192.864 500.172 191.393 506.586 191.027 509.689C190.744 512.084 188.173 517.211 187.363 518.686C186.978 519.78 186.043 519.831 185.826 519.859C185.702 519.875 185.589 519.931 185.51 520.016C185.367 520.17 185.202 520.305 185.012 520.416C184.871 520.498 184.763 520.604 184.673 520.727C184.508 520.95 184.361 521.183 184.216 521.416C184.12 521.571 184.016 521.622 183.865 521.589C183.704 521.554 183.624 521.452 183.622 521.281C183.618 521.028 183.704 520.797 183.842 520.578C183.972 520.373 183.958 520.256 183.795 520.073C183.7 519.969 183.604 519.867 183.482 519.784C183.358 519.701 183.228 519.638 183.064 519.662C182.776 519.732 182.484 519.79 182.187 519.825L181.944 519.874C181.935 519.876 181.811 519.902 181.811 519.902C181.791 519.907 181.361 519.958 181.214 519.961C181.096 519.964 180.905 519.975 180.742 519.986C180.594 519.995 180.28 519.934 180.27 519.934C180.126 519.935 179.997 519.892 179.888 519.81C179.843 519.777 179.8 519.739 179.82 519.68C179.839 519.625 179.887 519.601 179.949 519.59C180.046 519.573 180.546 519.508 180.54 519.49C180.391 519.493 179.924 519.494 179.774 519.494C179.573 519.493 179.397 519.434 179.255 519.307C179.198 519.257 179.134 519.207 179.168 519.125Z" fill="#F6A390"/>
<path d="M247.325 479.309L254.429 481.913L254.028 480.628L251.381 479.331C251.381 479.331 249.21 478.949 248.998 478.849C248.787 478.749 247.325 479.309 247.325 479.309Z" fill="#F04935"/>
<path d="M220.192 465.19L220.308 444.429C220.315 443.058 219.052 441.939 217.485 441.93L212.548 441.903C210.982 441.894 209.706 442.999 209.698 444.37L209.582 465.13C209.575 466.502 210.838 467.621 212.405 467.63L217.342 467.657C218.908 467.666 220.184 466.561 220.192 465.19Z" fill="#F47358"/>
<path d="M214.874 467.644L217.721 467.66C219.079 467.667 220.182 467.148 220.186 466.501L220.316 443.118C220.319 442.471 219.55 441.941 218.193 441.934L215.018 441.916L214.874 467.644Z" fill="#95817D"/>
<path d="M214.179 451.43L215.433 451.437L215.399 457.431L214.145 457.424L214.179 451.43Z" fill="#1A1A1A"/>
<path d="M230.296 465.21L230.38 450.104C230.388 448.713 229.106 447.577 227.516 447.568L222.662 447.541C221.073 447.533 219.778 448.653 219.77 450.045L219.686 465.151C219.678 466.543 220.961 467.678 222.55 467.687L227.404 467.714C228.993 467.723 230.288 466.602 230.296 465.21Z" fill="#345389"/>
<path d="M224.978 467.7L227.824 467.716C229.182 467.724 230.285 467.319 230.288 466.812L230.389 448.502C230.392 447.995 229.294 447.578 227.936 447.571L225.09 447.555L224.978 467.7Z" fill="#5083CD"/>
<path d="M223.227 449.557L226.62 449.576L226.616 450.26L223.223 450.241L223.227 449.557Z" fill="#1D87E4"/>
<path d="M224.27 455.004L225.524 455.011L225.497 459.704L224.243 459.697L224.27 455.004Z" fill="#1A1A1A"/>
<path d="M174.749 472.272L174.24 472.269L174.266 467.75L174.774 467.753L174.749 472.272Z" fill="#8A99AA"/>
<path d="M236.21 472.614L235.701 472.611L235.727 468.092L236.235 468.095L236.21 472.614Z" fill="#8A99AA"/>
<path d="M214.109 458.345L179.068 458.15C177.349 458.141 175.948 459.353 175.94 460.858L175.919 464.698C175.91 466.203 177.297 467.43 179.016 467.44L214.057 467.635C215.776 467.645 217.176 466.433 217.185 464.928L217.206 461.088C217.214 459.583 215.828 458.355 214.109 458.345Z" fill="#95817D"/>
<path d="M217.195 463.008L217.209 460.515C217.216 459.326 216.38 458.358 215.341 458.352L177.835 458.143C176.797 458.138 175.95 459.096 175.943 460.285L175.929 462.778L217.195 463.008Z" fill="#080403"/>
<path d="M182.564 464.436L181.162 464.428L181.179 461.457L182.58 461.465L182.564 464.436Z" fill="#6D6D6D"/>
<path d="M200.805 463.601L191.191 463.547L191.197 462.449L200.811 462.503L200.805 463.601Z" fill="#1A1A1A"/>
<path d="M207.992 449.02L185.291 448.894C183.446 448.883 181.943 450.185 181.934 451.8L181.915 455.24C181.906 456.856 183.394 458.173 185.239 458.184L207.94 458.31C209.785 458.32 211.288 457.019 211.297 455.404L211.316 451.964C211.325 450.348 209.837 449.03 207.992 449.02Z" fill="#4E9A86"/>
<path d="M211.306 453.684L211.32 451.191C211.327 450.002 210.733 449.035 209.993 449.031L183.289 448.882C182.55 448.878 181.945 449.839 181.938 451.028L181.924 453.52L211.306 453.684Z" fill="#3C8F7C"/>
<path d="M185.849 455.162L184.851 455.157L184.867 452.186L185.865 452.191L185.849 455.162Z" fill="#1F471C"/>
<path d="M233.991 467.738L209.683 467.59L209.345 458.105L234.044 458.243C237.039 458.26 239.454 460.399 239.439 463.021C239.425 465.643 236.986 467.754 233.991 467.738Z" fill="#FADFB1"/>
<path d="M214.895 462.885C214.88 465.507 212.632 467.62 209.874 467.605C207.115 467.59 204.891 465.451 204.905 462.829C204.92 460.207 207.168 458.094 209.927 458.11C212.685 458.125 214.91 460.263 214.895 462.885Z" fill="#F04935"/>
<path d="M220.02 468.105L220.015 468.102C219.791 467.949 219.749 467.669 219.914 467.468C221.571 465.441 222.041 463.277 221.311 461.029C220.905 459.778 220.215 458.822 219.826 458.349C219.669 458.158 219.704 457.893 219.906 457.737L219.912 457.733C220.145 457.553 220.503 457.589 220.685 457.809C221.123 458.34 221.864 459.372 222.315 460.74C222.9 462.511 223.082 465.178 220.773 468.007C220.598 468.221 220.257 468.267 220.02 468.105Z" fill="#F47358"/>
<path d="M228.902 468.154L228.898 468.15C228.674 467.997 228.632 467.718 228.797 467.517C230.454 465.49 230.924 463.326 230.194 461.077C229.788 459.827 229.098 458.871 228.709 458.398C228.551 458.206 228.587 457.942 228.789 457.786L228.795 457.781C229.028 457.602 229.386 457.638 229.568 457.858C230.006 458.389 230.747 459.421 231.198 460.788C231.783 462.56 231.964 465.227 229.656 468.056C229.481 468.27 229.139 468.316 228.902 468.154Z" fill="#F47358"/>
<path d="M214.04 462.031C213.782 460.534 212.864 459.775 212.138 459.402C211.059 458.847 209.669 458.762 208.418 459.175C207.229 459.567 206.276 460.471 205.93 461.534C205.622 462.479 205.841 463.444 206.546 464.249C207.73 465.602 209.558 465.4 210.452 465.068C211.262 464.766 211.874 464.044 212.009 463.229C212.118 462.569 211.781 461.929 211.128 461.559C210.471 461.187 209.662 461.18 209.016 461.54C208.546 461.803 208.077 462.323 208.512 463.316L208.871 463.196C208.592 462.56 208.708 462.112 209.223 461.824C209.741 461.535 210.391 461.542 210.919 461.841C211.444 462.139 211.716 462.652 211.628 463.18C211.512 463.881 210.991 464.501 210.301 464.758C209.509 465.053 207.891 465.234 206.851 464.045C206.045 463.123 206.106 462.221 206.3 461.626C206.608 460.678 207.493 459.839 208.554 459.49C209.697 459.113 210.965 459.188 211.944 459.692C212.881 460.173 213.474 461 213.66 462.081C213.902 463.49 213.595 464.611 212.746 465.412C211.152 466.916 207.794 466.876 207.217 466.857C207.425 466.984 207.644 467.096 207.872 467.193L207.902 467.193C208.924 467.199 211.52 467.063 213.027 465.642C213.96 464.762 214.301 463.547 214.04 462.031Z" fill="#F47358"/>
<path d="M207.565 455.284L206.567 455.278L206.584 452.307L207.582 452.312L207.565 455.284Z" fill="#1F471C"/>
<path d="M199.637 454.304L192.792 454.266L192.798 453.168L199.643 453.206L199.637 454.304Z" fill="#1A1A1A"/>
<path d="M179.311 467.803L178.981 467.648L190.645 448.529L190.975 448.684L179.311 467.803Z" fill="black"/>
<path d="M215.012 468.352L203.268 448.61L203.599 448.459L215.344 468.201L215.012 468.352Z" fill="black"/>
<path d="M237.153 468.111L227.663 447.42L228.01 447.299L237.5 467.99L237.153 468.111Z" fill="black"/>
<path d="M226.594 468.046L216.206 441.847L216.559 441.74L226.947 467.939L226.594 468.046Z" fill="black"/>
<path d="M238.602 468.364L172 467.993L172.004 467.379L238.605 467.75L238.602 468.364Z" fill="#8A99AA"/>
<path d="M129.519 536.848C129.462 546.982 138.795 555.249 150.364 555.313C161.933 555.378 171.358 547.215 171.414 537.082C171.471 526.948 162.137 518.681 150.569 518.617C139 518.552 129.575 526.715 129.519 536.848Z" fill="#1A1A1A"/>
<path d="M135.893 536.885C135.853 543.936 142.347 549.688 150.396 549.733C158.446 549.778 165.003 544.099 165.042 537.048C165.082 529.997 158.588 524.245 150.539 524.2C142.489 524.156 135.932 529.835 135.893 536.885Z" fill="#9D9DA2"/>
<path d="M140.721 536.911C140.695 541.626 145.037 545.473 150.421 545.503C155.804 545.533 160.189 541.735 160.215 537.019C160.241 532.304 155.899 528.457 150.516 528.427C145.132 528.397 140.747 532.196 140.721 536.911Z" fill="#D8D9DD"/>
<path d="M290.803 537.749C290.747 547.882 300.08 556.149 311.648 556.214C323.218 556.278 332.642 548.116 332.698 537.982C332.755 527.849 323.422 519.582 311.853 519.517C300.284 519.453 290.86 527.615 290.803 537.749Z" fill="#1A1A1A"/>
<path d="M297.175 537.782C297.136 544.833 303.629 550.585 311.678 550.63C319.728 550.674 326.285 544.995 326.325 537.944C326.364 530.894 319.87 525.142 311.821 525.097C303.771 525.052 297.214 530.731 297.175 537.782Z" fill="#9D9DA2"/>
<path d="M302.005 537.811C301.979 542.526 306.321 546.373 311.705 546.403C317.088 546.433 321.473 542.635 321.5 537.92C321.526 533.205 317.183 529.358 311.8 529.328C306.417 529.298 302.031 533.096 302.005 537.811Z" fill="#D8D9DD"/>
<path d="M359.941 520.669C358.227 510.434 352.514 508.254 335.595 505.194C316.927 501.817 293.261 491.014 293.261 491.014C293.261 491.014 252.897 473.43 242.996 471.382C233.095 469.335 208.717 469.768 188.242 469.797C167.767 469.825 155.714 474.738 145.275 481.794C134.836 488.85 116.768 494.157 116.768 494.157L113.489 494.651C110.116 495.159 107.649 497.711 107.632 500.708L107.491 526.083C107.475 528.956 109.671 531.481 112.839 532.233L124.666 535.038C125.629 535.189 126.529 534.593 126.641 533.742C127.995 523.369 138.288 515.536 150.509 515.617C163.504 515.703 174.109 525.112 174.038 536.491C174.029 537.784 173.885 539.049 173.619 540.274C173.343 541.54 174.448 542.714 175.92 542.722L284.904 543.33C287.022 543.341 288.676 541.721 288.405 539.882C288.275 538.997 288.209 538.094 288.211 537.178C288.235 525.938 298.666 516.679 311.501 516.519C324.805 516.353 335.623 525.784 335.558 537.378C335.554 538.146 335.502 538.903 335.405 539.648C335.129 541.759 336.986 543.62 339.412 543.633L355.084 543.721C357.933 543.737 360.255 541.727 360.269 539.232L360.343 525.941C360.352 524.178 360.233 522.414 359.941 520.669Z" fill="#F04935"/>
<path d="M108.305 503.716L121.213 503.788C122.319 503.794 123.062 504.785 122.629 505.675L121.163 508.696C119.764 511.577 116.527 513.438 112.951 513.418L108.251 513.392C107.332 513.387 106.589 512.73 106.594 511.924L106.632 505.166C106.636 504.36 107.385 503.711 108.305 503.716Z" fill="#9A1A0C"/>
<path d="M339.469 509.7C346.572 510.693 354.725 516.632 354.725 516.632C356.671 518.485 355.038 521.465 352.173 521.29L338.317 520.446C335.439 520.271 332.994 518.533 332.205 516.102C330.88 512.02 332.045 508.663 339.469 509.7Z" fill="#E9FBFB"/>
<path d="M107.561 527.029C106.673 527.005 106.038 527.783 106.362 528.509C107.278 530.559 109.257 532.178 111.796 532.78L125.047 535.923C126.127 536.092 127.136 535.425 127.26 534.471C127.517 532.505 128.063 530.623 128.857 528.849C129.125 528.249 128.628 527.597 127.891 527.577L107.561 527.029Z" fill="#D42410"/>
<path d="M335.695 533.084C334.687 533.057 333.904 533.827 334.029 534.703C334.166 535.677 334.235 536.669 334.23 537.677C334.225 538.528 334.167 539.369 334.059 540.196C333.754 542.538 335.813 544.603 338.506 544.618L355.896 544.715C359.057 544.732 361.633 542.502 361.648 539.734L361.67 535.793C361.676 534.676 360.663 533.757 359.388 533.723L335.695 533.084Z" fill="#D42410"/>
<path d="M293.26 496.89C293.029 496.777 270.054 485.582 254.812 479.301C239.721 473.083 222.833 473.639 222.105 473.667C220.165 473.617 179.774 472.625 167.336 475.945C154.807 479.29 138.426 494.752 137.735 495.409L137.545 495.59L141.826 513.617L142.295 513.597C155.041 513.038 164.779 516.062 170.453 522.341C174.743 527.087 175.248 532.078 175.253 532.128L175.292 532.556L221.229 533.846L221.229 533.849L221.759 533.861L222.325 533.877L222.325 533.874L286.334 535.324L286.345 534.842C286.767 516.628 293.449 497.642 293.517 497.453L293.65 497.08L293.26 496.89ZM176.289 531.623C176.076 530.271 175.131 525.991 171.35 521.786C167.275 517.254 159.005 512.011 142.709 512.619L138.734 495.881C140.63 494.117 156.122 479.943 167.657 476.864C179.198 473.783 216.624 474.505 221.559 474.615L221.234 532.885L176.289 531.623ZM285.261 534.339L222.331 532.913L222.655 474.613C225.617 474.555 240.734 474.561 254.345 480.17C268.466 485.989 289.254 496.042 292.34 497.541C291.408 500.282 285.749 517.554 285.261 534.339Z" fill="#D42410"/>
<path d="M106.359 528.51C107.275 530.56 109.254 532.179 111.793 532.782L125.045 535.925C126.125 536.094 127.133 535.427 127.258 534.473C127.357 533.714 127.5 532.968 127.683 532.235L106.359 528.51Z" fill="#AE1D0D"/>
<path d="M334.193 538.755C334.165 539.239 334.122 539.72 334.06 540.196C333.754 542.538 335.814 544.603 338.506 544.618L355.896 544.714C359.058 544.732 361.633 542.502 361.648 539.734L361.653 538.908L334.193 538.755Z" fill="#AE1D0D"/>
<path d="M289.23 538.504C289.232 537.465 289.323 536.443 289.494 535.443C289.701 534.241 288.683 533.146 287.296 533.108L173.955 530.054C172.719 530.021 171.822 531.049 172.153 532.093C172.731 533.914 173.035 535.83 173.023 537.805C173.014 539.114 172.87 540.394 172.601 541.635C172.32 542.932 173.431 544.139 174.939 544.147L285.864 544.766C288.04 544.778 289.695 543.102 289.421 541.211C289.293 540.324 289.228 539.421 289.23 538.504Z" fill="#D42410"/>
<path d="M289.233 538.502C289.233 538.485 289.234 538.468 289.234 538.451L173.026 537.803C173.018 539.112 172.873 540.392 172.604 541.633C172.323 542.93 173.434 544.137 174.942 544.146L285.867 544.764C288.043 544.776 289.698 543.1 289.424 541.209C289.296 540.322 289.231 539.419 289.233 538.502Z" fill="#AE1D0D"/>
<path d="M151.128 497.8L213.77 498.668C213.77 498.668 217.605 498.599 218.144 495.443C218.684 492.286 218.715 478.755 218.715 478.755C218.715 478.755 218.275 476.035 215.304 475.984C213.498 475.953 198.368 474.921 183.639 476.409C171.623 477.623 160.488 482.364 152.025 489.694L147.556 493.564C147.556 493.564 144.534 497.709 151.128 497.8Z" fill="#E9FBFB"/>
<path d="M160.445 491.233C160.445 491.233 201.287 487.39 202.158 488.1C203.029 488.81 208.637 500.465 209.649 503.649L161.573 502.984L158.213 498.494L160.445 491.233Z" fill="#95817D"/>
<path d="M251.042 484.723C250.345 480.61 246.119 477.631 241.67 479.6C240.67 480.043 239.314 480.946 238.62 481.717C236.745 483.802 236.254 486.388 234.318 488.412C235.022 488.886 235.875 489.383 236.89 489.862L238.097 488.469L237.674 490.214C240.646 491.479 244.847 492.533 250.602 492.536C251.341 489.686 251.413 486.916 251.042 484.723Z" fill="#1A1A1A"/>
<path d="M242.486 488.729C242.486 488.729 242.464 488.839 242.423 489.025C242.228 489.922 241.478 492.895 240.978 493.71C240.374 494.696 243.003 497.865 245.553 497.494C246.312 497.383 244.928 494.592 244.998 494.298C245.129 493.734 245.308 492.965 245.491 492.176C245.594 491.732 245.699 491.28 245.797 490.856C246.076 489.652 246.304 488.667 246.304 488.667L242.486 488.729Z" fill="#F6A390"/>
<path d="M242.424 489.025C242.465 488.839 242.488 488.729 242.488 488.729L246.306 488.667C246.306 488.667 246.078 489.652 245.799 490.857C245.701 491.278 245.597 491.727 245.494 492.169C244.905 492.09 244.291 491.836 243.676 491.36C243.006 490.841 242.568 490.219 242.305 489.557C242.354 489.346 242.394 489.164 242.424 489.025Z" fill="#F47358"/>
<path d="M245.097 481.155C245.097 481.155 243.298 480.964 242.164 482.233C241.029 483.502 239.791 487.439 242.581 489.6C245.37 491.76 248.152 489.348 248.577 486.776C249.002 484.205 249.178 481.085 245.097 481.155Z" fill="#F6A390"/>
<path d="M241.601 485.58C241.738 486.247 241.453 486.856 240.966 486.941C240.478 487.026 239.973 486.554 239.837 485.887C239.701 485.22 239.985 484.611 240.472 484.526C240.96 484.441 241.465 484.913 241.601 485.58Z" fill="#F6A390"/>
<path d="M246.401 488.012L243.64 487.871C243.64 487.871 243.644 488.793 244.856 488.886C246.334 488.998 246.401 488.012 246.401 488.012Z" fill="white"/>
<path d="M236.101 490.369C236.409 488.732 231.268 489.773 231.268 489.773L231.183 490.253C231.331 490.575 231.513 490.851 231.735 491.063C232.876 492.153 234.665 492.815 236.215 492.873C236.064 491.988 235.975 491.041 236.101 490.369Z" fill="#F47358"/>
<path d="M230.47 481.58C230.325 481.533 229.27 488.166 231.192 490.003C233.114 491.841 236.875 492.459 238.233 491.028C239.735 489.445 239.7 482.31 236.707 480.414C233.713 478.518 230.47 481.58 230.47 481.58Z" fill="#F6A390"/>
<path d="M235.585 476.858C233.261 477.261 231.75 478.499 231.195 479.027C230.14 479.131 228.704 479.635 227.212 481.779C225.378 484.415 226.706 487.355 228.816 488.806C230.926 490.256 230.887 491.918 230.887 491.918L231.227 491.06C231.477 490.411 231.582 489.721 231.503 489.037C231.456 488.627 231.358 488.184 231.167 487.818C230.663 486.854 232.27 486.225 232.724 485.428C233.074 484.814 233.099 483.406 233.65 482.392L234.306 481.619C234.306 481.619 235.814 480.6 237.283 480.898C238.752 481.196 238.567 476.341 235.585 476.858Z" fill="#8A99AA"/>
<path d="M232.621 486.608C232.632 487.418 232.209 488.078 231.677 488.083C231.145 488.088 230.704 487.436 230.693 486.626C230.683 485.816 231.105 485.155 231.638 485.15C232.17 485.145 232.61 485.797 232.621 486.608Z" fill="#F6A390"/>
<path d="M235.747 488.496L238.66 488.38C238.66 488.38 238.645 489.354 237.366 489.438C235.806 489.54 235.747 488.496 235.747 488.496Z" fill="white"/>
<path d="M168.568 489.034C168.568 489.034 162.573 488.871 160.529 490.039C158.486 491.208 158.67 502.95 158.67 502.95L160.645 503.29C160.645 503.29 161.318 511.373 162.847 511.803C164.377 512.233 174.461 509.584 176.566 507.322C178.67 505.06 172.241 488.274 172.241 488.274L168.568 489.034Z" fill="#3C8F7C"/>
<path d="M179.277 479.781C179.807 478.366 180.181 474.083 180.304 472.629C180.224 472.523 179.79 471.896 179.844 470.677C179.881 469.815 179.202 468.385 179.832 468.485C180.462 468.585 180.487 470.081 180.867 469.826C181.247 469.57 181.437 466.441 182.009 466.531C182.58 466.622 182.176 469.568 182.516 469.339C182.856 469.111 182.886 466.392 183.693 466.52C184.501 466.648 183.319 469.716 183.752 469.785C184.186 469.854 184.873 467.903 185.523 468.006C186.173 468.109 184.439 470.631 184.639 470.497C184.839 470.363 186.231 469.336 186.46 469.569C186.719 469.832 183.494 472.774 183.479 473.553C183.736 475.528 184.248 479.105 183.509 481.347C182.604 484.09 180.291 490.185 180.291 490.185L175.438 489.147C175.438 489.147 178.649 481.46 179.277 479.781Z" fill="#F6A390"/>
<path d="M150.219 491.232C150.219 491.232 150.347 490.548 149.702 489.487C149.289 488.807 149.172 487.425 148.734 487.72C148.296 488.015 148.945 489.227 148.54 489.151C148.135 489.074 146.593 486.621 146.196 486.888C145.799 487.155 147.423 489.388 147.061 489.32C146.699 489.252 145.463 487.074 144.902 487.452C144.341 487.829 146.615 489.896 146.314 490.099C146.013 490.302 144.616 488.965 144.165 489.269C143.713 489.573 146.166 491.013 145.953 490.973C145.739 490.933 144.217 490.58 144.145 490.845C144.064 491.145 147.244 492.042 147.602 492.664C147.96 493.285 153.401 499.497 154.964 499.509C156.528 499.52 163.576 495.397 164.093 494.046C164.611 492.696 163.983 491.257 162.96 491.064C161.938 490.871 155.366 494.963 155.045 494.903C154.724 494.842 150.219 491.232 150.219 491.232Z" fill="#F6A390"/>
<path d="M148.598 489.723C148.442 489.907 148.35 490.118 148.291 490.336C148.294 490.373 148.045 491.069 148.636 491.714C148.45 491.234 148.246 490.699 148.598 489.723Z" fill="#F48B7E"/>
<path d="M177.159 484.113C177.159 484.113 178.249 484.297 181.96 487.885L177.58 495.585L173.607 489.141L177.159 484.113Z" fill="#9AC1F9"/>
<path d="M170.089 489.521C170.089 489.521 172.941 488.98 173.942 488.557C174.943 488.135 184.074 507.242 181.741 507.902C176.869 509.28 164.219 512.924 164.219 512.924C164.219 512.924 163.862 511.817 164.331 509.81C165.145 506.334 164.926 498.565 164.766 497.206C164.673 496.407 159.271 498.687 159.271 498.687L157.182 492.653C157.182 492.653 163.343 490.852 165.41 490.284C165.987 490.125 170.089 489.521 170.089 489.521Z" fill="#9AC1F9"/>
<path d="M180.562 501.376C179.427 498.226 171.839 489.144 171.772 489.058L173.024 488.319C173.301 488.678 179.482 496.377 180.683 499.709L180.562 501.376Z" fill="#3C8F7C"/>
<path d="M163.967 507.119L163.18 506.236C163.233 506.2 168.57 502.501 168.737 498.37C168.905 494.196 165.085 490.165 165.046 490.124L166.023 489.404C166.194 489.582 170.2 493.8 170.014 498.411C169.827 503.066 164.206 506.956 163.967 507.119Z" fill="#3C8F7C"/>
<path d="M168.797 476.771C168.797 476.771 171.06 475.317 173.184 477.709C174.877 479.618 174.656 479.019 175.492 479.968C176.329 480.917 177.599 481.006 177.784 482.577C177.968 484.149 177.159 484.468 177.159 484.468C177.159 484.468 178.06 485.623 177.37 486.954C176.68 488.286 174.719 489.554 172.951 489.534C172.951 489.534 170.474 491.027 167.772 490.665C165.07 490.303 165.987 490.221 164.911 490.317C163.834 490.412 160.771 489.378 161.029 487.449C161.029 487.449 159.039 485.761 160.583 484.101C162.128 482.441 162.965 481.283 163.725 479.169C164.484 477.055 167.543 476.388 168.797 476.771Z" fill="#1A1A1A"/>
<path d="M171.754 487.63C171.754 487.63 171.985 490.42 172.313 490.655C172.642 490.89 173.11 491.286 172.749 491.988C172.388 492.691 170.434 492.436 169.502 492.135C168.608 491.846 167.979 491.216 167.979 491.216L167.906 486.771L171.754 487.63Z" fill="#F6A390"/>
<path d="M166.375 484.326C166.375 484.326 166.093 482.699 164.983 483.118C163.874 483.538 165.037 485.928 165.978 485.763C166.919 485.598 166.375 484.326 166.375 484.326Z" fill="#F6A390"/>
<path d="M169.863 478.025C169.863 478.025 171.654 477.831 172.714 478.972C173.775 480.114 175.181 483.518 173.948 486.062C172.715 488.606 170.711 488.184 169.885 488.01C169.059 487.836 167.42 487.434 166.359 485.252C165.297 483.07 165.282 477.955 169.863 478.025Z" fill="#F6A390"/>
<path d="M207.267 504.631L201.161 504.887C201.161 504.887 200.726 501.194 200.632 499.427C200.517 497.285 200.578 494.517 200.877 494.565C201.715 494.699 202.854 495.055 203.561 495.829C206.01 498.506 207.267 504.631 207.267 504.631Z" fill="#5083CD"/>
<path d="M203.284 498.96C203.427 499.609 207.194 517.647 207.194 517.647C198.015 521.991 191.049 518.202 191.049 518.202C191.049 518.202 191.465 506.092 191.006 504.409C190.702 503.296 189.617 495.968 190.437 495.727C191.489 495.416 193.08 494.959 194.406 494.785C195.538 494.637 199.955 494.401 200.758 494.602C200.758 494.602 202.683 496.23 203.284 498.96Z" fill="#E9FBFB"/>
<path d="M200.102 481.749C200.102 481.749 203.805 481.721 203.483 484.404C203.483 484.404 206.233 485.357 204.385 487.52C204.385 487.52 206.33 489.869 202.908 492.094C202.908 492.094 201.985 495.229 198.132 493.706C198.132 493.706 196.986 494.446 195.412 493.439C193.837 492.432 193.635 491.84 193.635 491.84C193.635 491.84 190.144 491.241 190.64 488.429C190.64 488.429 188.813 487.049 191.594 485.343C191.594 485.343 191.564 481.484 195.306 482.024C195.306 482.024 197.51 479.091 200.102 481.749Z" fill="#8A99AA"/>
<path d="M194.265 488.039C194.161 488.723 193.648 489.227 193.12 489.165C192.592 489.102 192.248 488.497 192.352 487.813C192.456 487.129 192.969 486.625 193.497 486.687C194.025 486.749 194.369 487.354 194.265 488.039Z" fill="#F6A390"/>
<path d="M202.944 490.177C202.616 490.804 201.957 491.155 201.472 490.96C200.988 490.765 200.861 490.099 201.189 489.471C201.518 488.844 202.177 488.494 202.661 488.688C203.145 488.883 203.272 489.55 202.944 490.177Z" fill="#F6A390"/>
<path d="M198.471 492.241C198.466 492.29 198.771 494.055 198.932 494.989C198.993 495.337 198.763 495.672 198.386 495.792C197.376 496.113 195.41 496.522 194.181 495.378C194.069 495.274 194.016 495.131 194.035 494.988L194.57 490.864L198.471 492.241Z" fill="#F6A390"/>
<path d="M198.767 494.02C197.695 494.402 194.604 494.049 194.38 492.342L194.573 490.864L198.473 492.242C198.471 492.265 198.676 493.481 198.767 494.02Z" fill="#F48B7E"/>
<path d="M199.517 483.84C199.517 483.84 197.89 483.522 196.328 484.36C194.767 485.197 192.223 488.511 194.319 491.415C196.414 494.319 200.01 492.923 201.286 490.639C202.561 488.355 203.117 484.948 199.517 483.84Z" fill="#F6A390"/>
<path d="M198.47 490.992L196.303 490.871C196.303 490.871 196.301 491.594 197.253 491.672C198.413 491.766 198.47 490.992 198.47 490.992Z" fill="white"/>
<path d="M186.037 504.482L191.93 507.016C191.93 507.016 192.879 503.222 193.585 500.878C194.191 498.862 191.267 495.253 190.284 495.739C188.084 496.827 186.037 504.482 186.037 504.482Z" fill="#5083CD"/>
<path d="M226.001 498.012L278.523 500.262C278.523 500.262 273.867 513.66 273.75 514.329C273.634 514.999 256.349 523.14 252.017 523.017C247.686 522.894 237.601 519.663 235.43 519.091C233.259 518.519 227.634 514.63 227.986 512.259C228.338 509.887 226.001 498.012 226.001 498.012Z" fill="#F04935"/>
<path d="M241.082 504.906L226.986 504.828C226.638 504.826 226.357 504.577 226.359 504.272L226.365 503.206C226.367 502.902 226.651 502.656 226.998 502.658L241.094 502.736C241.442 502.738 241.723 502.987 241.721 503.292L241.715 504.358C241.713 504.663 241.43 504.908 241.082 504.906Z" fill="#D42410"/>
<path d="M281.163 495.916L225.616 491.441L225.598 494.697C225.588 496.54 227.194 498.063 229.236 498.147L278.451 500.154C279.581 500.2 280.69 499.759 281.343 498.927C281.904 498.211 282.155 497.201 281.163 495.916Z" fill="#FDE5E2"/>
<path d="M225.617 491.44L225.619 490.973L280.965 495.674L281.163 495.915L225.617 491.44Z" fill="#FDE5E2"/>
<path d="M238.375 498.518L243.439 498.725L247.627 493.213L242.708 492.817L238.375 498.518Z" fill="white"/>
<path d="M247.36 498.886L251.436 493.521L249.566 493.371L245.434 498.807L247.36 498.886Z" fill="white"/>
<path d="M150.302 497.765L213.772 498.669L214.243 516.287C214.243 516.287 206.775 525.69 205.881 525.586C204.987 525.482 186.044 522.706 184.342 522.795C182.639 522.885 167.814 516.416 167.112 516.54C166.41 516.663 161.792 514.461 161.792 514.461L154.27 509.751L146.825 502.966L150.302 497.765Z" fill="#F04935"/>
<path d="M163.122 503.384L149.027 503.306C148.678 503.304 148.397 503.056 148.399 502.751L148.405 501.684C148.407 501.38 148.691 501.134 149.039 501.136L163.134 501.215C163.482 501.217 163.763 501.465 163.761 501.77L163.755 502.836C163.754 503.141 163.47 503.386 163.122 503.384Z" fill="#D42410"/>
<path d="M172.613 485.112L170.414 485.47C170.414 485.47 170.621 486.193 171.593 486.06C172.779 485.898 172.613 485.112 172.613 485.112Z" fill="white"/>
<path d="M165.819 483.232C165.819 483.232 170.789 481.271 171.297 478.158C171.806 475.045 167.223 477.995 167.223 477.995L165.367 479.537L165.819 483.232Z" fill="#1A1A1A"/>
<path d="M227.386 497.627C227.386 497.627 228.306 498.189 229.473 498.157C229.473 498.157 227.919 498.564 227.873 498.531C227.828 498.498 227.048 497.943 227.061 497.932C227.073 497.921 227.386 497.627 227.386 497.627Z" fill="#1D87E4"/>
<path d="M232.286 477.533L238.489 477.912C238.489 477.912 237.481 476.433 237.051 476.431L233.781 476.413L232.286 477.533Z" fill="#F04935"/>
<path d="M20.1604 263.755C19.7182 263.917 19.3645 263.786 18.9855 263.508C19.3694 264.005 19.7191 264.459 20.0687 264.912C20.0487 264.935 20.0288 264.958 20.0088 264.982C19.5045 264.909 19.1615 264.51 18.7544 264.148C19.0243 264.7 19.3568 265.168 19.4723 265.831C18.8992 265.488 18.5608 264.97 18.193 264.385C18.4165 265.035 18.6863 265.586 18.71 266.295C18.1943 265.862 17.9419 265.297 17.6533 264.708C17.6969 265.249 17.8987 265.735 17.8299 266.249C17.8017 266.266 17.7736 266.282 17.7454 266.298C17.536 265.978 17.3266 265.658 17.1269 265.353C17.104 265.462 17.0751 265.599 17.0332 265.798C16.8112 265.62 16.6371 265.481 16.4546 265.335C16.4204 265.353 16.3549 265.418 16.3205 265.401C15.9632 265.229 15.611 265.044 15.2015 264.833C14.9417 264.927 14.8126 264.841 14.73 264.416C14.5285 264.544 14.3227 264.683 14.1336 264.424C13.751 264.621 13.6967 264.611 13.5785 264.361C13.4272 264.359 13.2171 264.417 13.171 264.344C13.0344 264.129 12.5873 264.503 12.6559 264.023C12.4068 263.855 12.0957 263.887 11.897 263.593C11.619 263.628 11.619 263.628 11.5446 263.38C11.3838 263.382 11.1622 263.491 11.1706 263.156C10.7997 263.159 10.7997 263.159 10.8499 262.839C10.727 262.844 10.6036 262.849 10.4334 262.856C10.4728 262.698 10.5027 262.578 10.5345 262.451C10.4064 262.467 10.265 262.486 10.1101 262.505C10.1086 262.402 10.1076 262.329 10.1063 262.239C10.0259 262.235 9.94431 262.23 9.84065 262.224C9.85496 262.127 9.86765 262.041 9.87373 261.999C9.78743 261.925 9.71632 261.864 9.61229 261.775C9.60046 261.792 9.54231 261.851 9.51347 261.924C9.23697 262.626 8.96537 263.331 8.69243 264.035C8.68566 264.052 8.6827 264.073 8.67159 264.086C8.57121 264.2 8.46641 264.404 8.36879 264.4C8.25713 264.395 8.15151 264.205 8.01724 264.069C7.75056 264.184 7.56601 264.139 7.44147 263.911C7.26025 263.935 7.09166 263.957 6.9187 263.98C6.88933 263.839 6.86897 263.741 6.8442 263.621C6.77021 263.653 6.70454 263.701 6.63585 263.707C6.5414 263.716 6.38405 263.73 6.35937 263.678C6.24909 263.445 6.07616 263.363 5.8676 263.309C5.84586 263.304 5.82415 263.132 5.8546 263.069C5.92955 262.915 6.0349 262.78 6.14566 262.609C5.91871 262.704 5.68242 262.943 5.50383 262.68C5.42592 262.565 5.5274 262.297 5.54746 262.098C5.46466 262.089 5.31569 262.072 5.10539 262.049C5.1342 261.856 5.16049 261.68 5.19232 261.467C5.15702 261.446 5.07931 261.398 4.96765 261.329C5.03556 261.166 5.10291 261.005 5.17139 260.842C4.92043 260.631 4.94133 260.509 5.29841 260.188C5.17678 260.06 5.05383 259.931 4.9348 259.807C5.03442 259.567 5.19978 259.56 5.3742 259.561C5.78726 259.564 6.20031 259.56 6.61336 259.556C6.69184 259.555 6.77021 259.538 6.86498 259.479C6.65693 259.455 6.43489 259.476 6.45807 259.128C6.15198 259.225 6.07658 259.048 6.09005 258.778C5.98094 258.777 5.85403 258.818 5.78681 258.764C5.72395 258.714 5.72431 258.564 5.69101 258.435C5.40034 258.556 5.36983 258.34 5.38855 258.073C5.22622 258.091 5.03826 258.181 5.06658 257.857C5.07057 257.811 4.92833 257.749 4.88791 257.664C4.81951 257.569 4.73333 257.484 4.68797 257.377C4.647 257.28 4.6506 257.16 4.63137 257.028C4.49686 256.937 4.32004 256.834 4.1643 256.701C4.12295 256.665 4.14645 256.534 4.13918 256.433C3.90576 256.279 3.906 256.246 4.1714 255.857C4.08573 255.875 4.00736 255.911 3.9334 255.902C3.87815 255.895 3.78299 255.829 3.78398 255.792C3.78961 255.583 3.81889 255.375 3.84042 255.164C3.76397 255.15 3.63554 255.164 3.55661 255.1C3.48298 255.041 3.46199 254.899 3.39015 254.728C3.28513 254.679 3.06145 254.627 3.17446 254.323C2.94113 254.116 2.71113 253.912 2.42058 253.654C2.69517 253.567 2.94925 253.487 3.20294 253.407C2.83624 253.342 2.46684 253.276 2.09745 253.21C2.09254 253.182 2.0876 253.154 2.08266 253.127C2.24924 253.074 2.41366 253.009 2.58309 252.973C2.75647 252.937 2.93446 252.926 3.11086 252.913C3.29301 252.899 3.47582 252.895 3.65824 252.85C3.08921 252.764 2.5202 252.679 1.95117 252.593C2.48694 252.28 3.05468 252.367 3.62345 252.34C3.1591 252.206 2.69472 252.073 2.23037 251.939C2.54784 251.752 2.87699 251.783 3.20186 251.828C3.52427 251.872 3.84351 251.945 4.14205 252.002C3.5917 251.713 3.0209 251.414 2.4501 251.115C2.45987 251.083 2.4696 251.052 2.47936 251.02C3.19383 250.99 3.82386 251.372 4.49201 251.594C4.00392 251.157 3.45695 250.803 3.07831 250.221C3.87031 250.462 4.51285 251.021 5.22319 251.45C4.91986 251.106 4.61646 250.762 4.31309 250.418C4.32753 250.394 4.34196 250.37 4.35639 250.347C4.41323 250.365 4.47776 250.37 4.52555 250.404C4.88755 250.663 5.26041 250.906 5.60328 251.194C6.55497 251.994 7.50124 252.802 8.43221 253.632C8.65488 253.831 8.84505 254.102 8.98906 254.38C9.48994 255.346 10.0893 256.221 10.8268 256.97C11.2441 257.394 12.0744 257.454 12.59 257.177C12.7812 257.074 13.0051 257.025 13.2183 257.002C13.5136 256.97 13.6077 257.075 13.6721 257.378C13.5774 257.476 13.4778 257.543 13.4237 257.642C13.2741 257.914 13.1555 258.209 13.0004 258.477C12.9202 258.616 12.9377 258.705 13.038 258.787C13.2412 258.955 13.4414 259.131 13.6584 259.273C14.4452 259.79 15.2418 260.278 16.1025 260.638C16.5309 260.818 16.9062 261.154 17.31 261.411C17.8384 261.746 18.3695 262.077 18.9029 262.402C19.185 262.574 19.4746 262.731 19.7608 262.894C19.7794 262.873 19.798 262.851 19.8166 262.829C19.5344 262.856 19.2522 262.883 18.9742 262.909C19.3428 263.172 19.7354 263.452 20.1604 263.755Z" fill="white"/>
<path d="M231.7 208.22C231.719 208.203 231.737 208.186 231.754 208.169C231.787 208.163 231.821 208.156 231.907 208.139C231.393 208.767 230.774 209.201 230.172 209.652C230.185 209.671 230.198 209.689 230.212 209.708C230.889 209.267 231.566 208.827 232.243 208.386C231.824 209.01 231.128 209.279 230.552 209.7C230.56 209.713 230.567 209.726 230.574 209.739C231.264 209.429 231.953 209.118 232.642 208.808C232.649 208.822 232.657 208.836 232.664 208.85C232.166 209.264 231.548 209.472 231 209.809C231.481 209.67 231.962 209.532 232.443 209.394C232.45 209.414 232.458 209.435 232.465 209.456C232.1 209.616 231.735 209.776 231.369 209.936C231.373 209.951 231.377 209.966 231.381 209.981C231.59 209.941 231.798 209.902 232.007 209.862C232.016 209.882 232.025 209.901 232.034 209.921C231.923 209.997 231.808 210.067 231.704 210.151C231.662 210.185 231.649 210.252 231.615 210.299C231.568 210.366 231.519 210.434 231.462 210.493C231.407 210.549 231.34 210.594 231.261 210.657C231.429 210.726 231.388 210.796 231.278 210.872C231.163 210.953 231.013 211.01 231.042 211.199C231.046 211.224 231.006 211.268 230.976 211.282C230.782 211.378 230.641 211.532 230.504 211.693C230.381 211.838 230.259 211.984 230.132 212.124C230.097 212.162 230.043 212.185 229.995 212.207C229.901 212.251 229.802 212.284 229.71 212.33C229.303 212.535 228.898 212.746 228.49 212.95C228.305 213.042 228.114 213.122 227.929 213.215C227.883 213.239 227.856 213.3 227.811 213.326C227.735 213.368 227.652 213.397 227.571 213.428C227.529 213.445 227.484 213.455 227.44 213.467C227.348 213.493 227.256 213.518 227.157 213.519C227.045 213.625 226.937 213.747 226.751 213.652C226.507 214.007 226.09 213.864 225.769 214.043C225.806 214.24 225.591 214.248 225.429 214.367C225.501 214.405 225.549 214.452 225.6 214.454C226.268 214.489 226.936 214.517 227.604 214.549C227.71 214.554 227.815 214.575 227.921 214.589C227.935 214.615 227.948 214.641 227.962 214.667C227.884 214.723 227.806 214.779 227.748 214.82C227.805 214.917 227.917 215.026 227.896 215.095C227.868 215.189 227.739 215.253 227.652 215.329C227.868 215.67 227.868 215.67 227.615 215.881C227.733 216.189 227.725 216.198 227.272 216.291C227.25 216.392 227.256 216.539 227.207 216.559C227.1 216.604 226.964 216.602 226.843 216.588C226.76 216.577 226.684 216.514 226.581 216.463C226.62 216.591 226.656 216.688 226.678 216.787C226.705 216.904 226.644 216.95 226.529 216.964C226.456 216.973 226.388 217.022 226.315 217.045C226.265 217.06 226.211 217.064 226.158 217.068C226.13 217.07 226.101 217.055 226.073 217.058C225.741 217.089 225.741 217.089 225.526 216.937C225.145 217.382 224.921 216.858 224.602 216.79C224.674 216.908 224.746 217.017 224.807 217.132C224.822 217.159 224.811 217.23 224.791 217.241C224.709 217.285 224.614 217.35 224.534 217.339C224.374 217.318 224.258 217.214 224.216 217.045C224.199 216.975 224.176 216.907 224.156 216.838C223.759 216.927 223.626 216.823 223.608 216.425C223.606 216.389 223.605 216.352 223.605 216.315C223.605 216.149 223.654 215.964 223.594 215.824C223.538 215.692 223.368 215.609 223.215 215.475C223.154 215.543 223.096 215.62 223.024 215.681C222.98 215.718 222.915 215.73 222.859 215.753C222.583 215.868 222.306 215.98 222.032 216.099C221.744 216.224 221.459 216.354 221.173 216.485C221.14 216.5 221.11 216.528 221.084 216.555C221.065 216.577 221.062 216.622 221.04 216.632C220.795 216.742 220.548 216.849 220.3 216.953C220.214 216.989 220.124 217.02 220.033 217.042C219.821 217.094 219.607 217.141 219.394 217.188C219.359 217.196 219.297 217.18 219.288 217.197C219.129 217.495 218.761 217.415 218.54 217.609C218.479 217.663 218.341 217.628 218.239 217.636C218.189 217.641 218.136 217.644 218.091 217.663C217.92 217.732 217.771 217.881 217.558 217.789C217.53 217.777 217.474 217.827 217.433 217.852C217.288 217.937 217.144 218.023 216.955 218.136C216.963 217.992 216.967 217.907 216.974 217.79C216.708 218.016 216.464 218.224 216.22 218.43C216.205 218.419 216.19 218.407 216.174 218.395C216.311 218.148 216.447 217.9 216.583 217.652C216.569 217.643 216.555 217.635 216.541 217.626C216.155 217.952 215.77 218.279 215.385 218.605C215.364 218.584 215.343 218.563 215.322 218.542C215.624 218.201 215.926 217.861 216.228 217.52C216.22 217.512 216.212 217.503 216.204 217.495C215.711 217.842 215.218 218.189 214.725 218.536C214.709 218.515 214.693 218.494 214.677 218.473C215.106 218.121 215.535 217.769 215.963 217.418C215.953 217.404 215.942 217.39 215.932 217.376C215.399 217.712 214.896 218.102 214.282 218.293C214.811 217.954 215.34 217.614 215.87 217.275C215.861 217.261 215.853 217.247 215.845 217.233C215.266 217.514 214.686 217.794 214.107 218.075C214.094 218.051 214.081 218.027 214.068 218.003C215.212 217.548 216.229 216.885 217.187 216.122C217.123 216.137 217.059 216.154 216.995 216.167C216.936 216.178 216.876 216.185 216.802 216.154C216.913 216.105 217.029 216.064 217.135 216.005C217.548 215.774 217.957 215.536 218.37 215.306C218.504 215.232 218.642 215.162 218.786 215.11C219.41 214.887 220.036 214.667 220.664 214.454C220.983 214.345 221.311 214.263 221.63 214.153C221.889 214.063 221.904 214.012 221.921 213.737C221.925 213.666 221.983 213.583 222.041 213.536C222.098 213.488 222.187 213.457 222.262 213.457C222.685 213.461 223.031 213.18 223.441 213.144C223.447 213.143 223.452 213.138 223.458 213.137C224.034 213.09 224.482 212.773 224.954 212.477C225.33 212.24 225.776 212.118 226.168 211.902C226.53 211.702 226.868 211.454 227.204 211.211C227.456 211.029 227.688 210.821 227.929 210.624C227.941 210.655 227.961 210.709 227.978 210.752C228.846 210.459 229.284 209.786 229.549 208.963C229.598 208.812 229.65 208.663 229.708 208.493C229.835 208.816 229.699 209.169 229.113 210.062C229.175 210.029 229.21 210.017 229.237 209.995C229.866 209.475 230.372 208.856 230.733 208.121C230.783 208.02 230.854 207.928 230.915 207.832C230.919 208.177 230.809 208.488 230.591 208.748C230.324 209.067 230.036 209.369 229.757 209.678C229.729 209.709 229.703 209.742 229.676 209.774C230.425 209.343 231.048 208.764 231.7 208.22Z" fill="white"/>
</g>
<defs>
<clipPath id="clip0_1241_24578">
<rect width="1240" height="560" fill="white"/>
</clipPath>
</defs>
</svg>
