<svg width="44" height="44" viewBox="0 0 44 44" fill="none" xmlns="http://www.w3.org/2000/svg">
<g clip-path="url(#clip0_1095_68731)">
<path d="M6.9355 5.18067L22 1.83301L37.0645 5.18067C37.4716 5.27117 37.8357 5.49778 38.0967 5.82308C38.3577 6.14839 38.4999 6.55295 38.5 6.97001V25.2795C38.4999 27.0904 38.0527 28.8732 37.1981 30.4697C36.3436 32.0662 35.1081 33.4271 33.6013 34.4315L22 42.1663L10.3987 34.4315C8.89217 33.4273 7.65684 32.0667 6.8023 30.4705C5.94777 28.8743 5.50043 27.0919 5.5 25.2813V6.97001C5.50007 6.55295 5.64234 6.14839 5.90331 5.82308C6.16429 5.49778 6.52838 5.27117 6.9355 5.18067ZM22 20.1663C23.2156 20.1663 24.3814 19.6835 25.2409 18.8239C26.1004 17.9644 26.5833 16.7986 26.5833 15.583C26.5833 14.3674 26.1004 13.2016 25.2409 12.3421C24.3814 11.4826 23.2156 10.9997 22 10.9997C20.7844 10.9997 19.6186 11.4826 18.7591 12.3421C17.8996 13.2016 17.4167 14.3674 17.4167 15.583C17.4167 16.7986 17.8996 17.9644 18.7591 18.8239C19.6186 19.6835 20.7844 20.1663 22 20.1663ZM13.7995 29.333H30.2005C29.9783 27.3134 29.0186 25.4468 27.5054 24.091C25.9921 22.7352 24.0318 21.9854 22 21.9854C19.9682 21.9854 18.0079 22.7352 16.4946 24.091C14.9814 25.4468 14.0217 27.3134 13.7995 29.333Z" fill="#1E88E5"/>
</g>
<defs>
<clipPath id="clip0_1095_68731">
<rect width="44" height="44" fill="white"/>
</clipPath>
</defs>
</svg>
