<svg width="390" height="75" viewBox="0 0 390 75" fill="none" xmlns="http://www.w3.org/2000/svg">
<path d="M25.2973 10.9775C25.208 10.6837 24.792 10.6837 24.7027 10.9775L23.0717 16.3394C23.0018 16.5693 22.7085 16.6362 22.5457 16.4594L18.7499 12.3362C18.5419 12.1103 18.1671 12.2908 18.2141 12.5942L19.0711 18.1327C19.1078 18.3702 18.8726 18.5578 18.6493 18.4691L13.4404 16.4012C13.1549 16.2879 12.8956 16.6131 13.0696 16.8661L16.2448 21.4843C16.3809 21.6823 16.2504 21.9534 16.0107 21.9704L10.4203 22.3673C10.114 22.3891 10.0215 22.7946 10.288 22.9471L15.1525 25.7302C15.3611 25.8496 15.3611 26.1504 15.1525 26.2698L10.288 29.0529C10.0215 29.2054 10.114 29.611 10.4203 29.6327L16.0107 30.0296C16.2504 30.0466 16.3809 30.3177 16.2448 30.5157L13.0696 35.1339C12.8956 35.3869 13.1549 35.7121 13.4404 35.5988L18.6493 33.5309C18.8726 33.4422 19.1078 33.6298 19.0711 33.8673L18.2141 39.4058C18.1671 39.7092 18.5419 39.8897 18.7499 39.6638L22.5457 35.5406C22.7085 35.3638 23.0018 35.4307 23.0717 35.6606L24.7027 41.0225C24.792 41.3163 25.208 41.3163 25.2973 41.0225L26.9283 35.6606C26.9982 35.4307 27.2915 35.3638 27.4543 35.5406L31.2501 39.6638C31.4581 39.8897 31.8329 39.7092 31.7859 39.4058L30.9289 33.8673C30.8922 33.6298 31.1273 33.4422 31.3507 33.5309L36.5596 35.5988C36.8451 35.7121 37.1044 35.3869 36.9304 35.1339L33.7552 30.5157C33.6191 30.3177 33.7496 30.0466 33.9893 30.0296L39.5797 29.6327C39.886 29.611 39.9785 29.2054 39.712 29.0529L34.8475 26.2698C34.6389 26.1504 34.6389 25.8496 34.8475 25.7302L39.712 22.9471C39.9785 22.7946 39.886 22.3891 39.5797 22.3673L33.9893 21.9704C33.7496 21.9534 33.6191 21.6823 33.7552 21.4843L36.9304 16.8661C37.1044 16.6131 36.8451 16.2879 36.5596 16.4012L31.3507 18.4691C31.1273 18.5578 30.8922 18.3702 30.9289 18.1327L31.7859 12.5942C31.8329 12.2908 31.4581 12.1103 31.2501 12.3362L27.4543 16.4594C27.2915 16.6362 26.9982 16.5693 26.9283 16.3394L25.2973 10.9775Z" fill="#6889FF"/>
<path d="M368.526 36.0038C368.705 35.4063 369.551 35.4063 369.731 36.0038L372.753 46.0475C372.814 46.2502 372.972 46.4086 373.175 46.4693L383.241 49.4807C383.84 49.6598 383.84 50.5077 383.241 50.6868L373.175 53.6982C372.972 53.7589 372.814 53.9173 372.753 54.12L369.731 64.1637C369.551 64.7612 368.705 64.7612 368.526 64.1637L365.504 54.12C365.443 53.9173 365.284 53.7589 365.082 53.6982L355.016 50.6868C354.417 50.5077 354.417 49.6598 355.016 49.4807L365.082 46.4693C365.284 46.4086 365.443 46.2502 365.504 46.0475L368.526 36.0038Z" fill="#FFB728"/>
<path d="M380.305 57.6941C380.352 57.4716 380.67 57.4716 380.716 57.6941L382.064 64.1452C382.081 64.2269 382.145 64.2907 382.227 64.3077L388.693 65.6512C388.916 65.6975 388.916 66.0157 388.693 66.062L382.227 67.4055C382.145 67.4225 382.081 67.4863 382.064 67.568L380.716 74.0191C380.67 74.2416 380.352 74.2416 380.305 74.0191L378.958 67.568C378.941 67.4863 378.877 67.4225 378.795 67.4055L372.329 66.062C372.106 66.0157 372.106 65.6975 372.329 65.6512L378.795 64.3077C378.877 64.2907 378.941 64.2269 378.958 64.1452L380.305 57.6941Z" fill="#1E88E5"/>
<path d="M367.563 40.4284C371.816 44.044 369.26 51 363.677 51H16.3231C10.7404 51 8.18353 44.044 12.4372 40.4284L58.3196 1.42836C59.4044 0.506283 60.7817 0 62.2055 0H317.795C319.218 0 320.596 0.506283 321.68 1.42836L367.563 40.4284Z" fill="#F7F7F7"/>
</svg>
