<svg width="182" height="32" viewBox="0 0 182 32" fill="none" xmlns="http://www.w3.org/2000/svg">
<g clip-path="url(#clip0_1232_11974)">
<path d="M173.737 11.581L175.554 17.0057H171.67L173.863 11.581H173.737ZM165.436 22.9486H169.853L170.887 20.1753H176.463L177.496 22.9486H181.913L175.805 7.16194H171.513L165.436 22.9486ZM160.236 22.9486H164.653V7.16194H160.236V22.9486ZM145.952 17.5238C145.952 21.3029 149.053 22.9486 152.687 22.9486C156.07 22.9486 159.422 21.6991 159.422 17.8896C159.422 15.1162 157.072 14.1105 154.879 13.4705C152.405 12.8305 150.212 12.8305 150.212 11.581C150.212 10.5753 151.496 10.3315 152.154 10.3315C153.438 10.3315 154.754 10.6972 154.754 12.0991H158.638C158.638 8.68576 155.537 7.04004 152.405 7.04004C149.429 7.04004 145.92 8.28956 145.92 11.8248C145.92 14.5981 148.52 15.6038 150.588 16.1219C152.937 16.7619 155.13 17.0057 155.13 18.4077C155.13 19.6572 153.846 19.9315 152.53 19.9315C150.838 19.9315 149.679 19.2915 149.679 17.4019H145.795L145.952 17.5238ZM138.559 11.581L140.376 17.0057H136.491L138.684 11.581H138.559ZM130.414 22.9486H134.706L135.74 20.1753H141.441L142.475 22.9486H146.891L140.783 7.16194H136.366L130.414 22.9486ZM116.13 22.9486H117.822V9.56956L127.282 22.9486H129.099V7.16194H127.532V20.4191L117.947 7.31432H116.13V22.9486ZM112.747 22.9486H114.313V7.16194H112.747V22.9486ZM96.677 22.9486H100.937V16.64H106.513V22.9486H110.679V7.16194H106.513V12.8305H100.937V7.31432H96.6457V22.9486H96.677ZM95.3614 12.861C95.3614 9.32576 91.8529 7.19242 88.5011 7.19242C83.8336 7.19242 80.7324 10.7277 80.7324 15.1467C80.7324 19.4439 83.8336 22.9791 88.5011 22.9791C92.3854 22.9791 95.3614 20.6934 95.6433 16.6705H91.7589C91.5083 18.56 90.4746 19.5658 88.5011 19.5658C85.9011 19.5658 84.8674 17.28 84.8674 15.1467C84.8674 12.861 85.9011 10.6057 88.5011 10.6057C90.1927 10.6057 91.477 11.3677 91.6023 12.8915H95.4867H95.3614V12.861ZM67.2312 22.9486H80.4505V19.4134H71.3662V16.3962H79.4168V13.2267H71.6481V10.3315H80.1999V7.31432H67.2312V22.9486ZM65.9156 7.16194H52.2891V10.6972H57.0818V22.9486H61.3734V10.6972H66.1662V7.16194H65.9156Z" fill="#151414"/>
<path d="M32.9229 13.1051C33.2988 13.3489 33.7061 13.1051 33.5808 12.587L31.5133 9.05176H30.7302L17.7615 31.3908C17.2289 31.9089 16.4771 31.9089 16.1952 31.3908L11.7783 24.1984L11.5277 23.1927V16.8841C11.5277 16.2441 11.2771 15.8784 10.8699 15.6346L0.50124 6.79651C-0.156591 6.4308 0.125336 5.547 1.03377 5.547H19.5783L24.1205 8.07652C24.3711 8.32033 24.3711 8.59461 24.1205 8.71652L22.3036 12.0079C22.3036 12.2518 22.053 12.3737 21.9277 12.2518L18.294 10.3622L17.5109 10.1184H12.6868C12.3109 10.1184 12.1543 10.6365 12.4362 10.8803L15.694 13.4099C16.0699 13.7756 16.2265 14.2937 16.2265 14.6594V22.9794C16.2265 23.4975 16.8844 23.6194 17.135 23.2232L30.6362 0.518426C30.8868 0.152712 31.9205 0.152712 31.9205 0.518426L45.7976 23.8632C46.4555 24.6251 45.547 25.387 44.7639 25.1127L28.6627 15.9089C28.4121 15.9089 28.2868 15.5432 28.4121 15.3908L30.3542 12.2213C30.3542 11.9775 30.7302 11.9775 31.0121 11.9775L32.9543 13.227V13.1051H32.9229Z" fill="#F04935"/>
</g>
<defs>
<clipPath id="clip0_1232_11974">
<rect width="182" height="32" fill="white"/>
</clipPath>
</defs>
</svg>
