<svg width="135" height="141" viewBox="0 0 135 141" fill="none" xmlns="http://www.w3.org/2000/svg">
<g clip-path="url(#clip0_1095_68651)">
<g clip-path="url(#clip1_1095_68651)">
<path d="M83.784 115.009L87.3772 112.291C87.5454 112.166 87.6874 112.007 87.7951 111.826C87.9028 111.644 87.9741 111.443 88.005 111.234C88.0358 111.024 88.0256 110.811 87.9748 110.606C87.9241 110.4 87.8338 110.207 87.7092 110.037L36.4853 40.1267C36.2314 39.7855 35.8541 39.5603 35.4361 39.5004C35.0181 39.4406 34.5936 39.5511 34.2556 39.8075L30.6623 42.5246C30.4942 42.6506 30.3522 42.8088 30.2445 42.9904C30.1367 43.1719 30.0654 43.3731 30.0346 43.5824C30.0038 43.7918 30.014 44.0052 30.0648 44.2105C30.1155 44.4158 30.2058 44.6089 30.3304 44.7787L81.5551 114.699C81.8104 115.038 82.1882 115.262 82.6059 115.32C83.0236 115.378 83.4472 115.266 83.784 115.009Z" fill="#C1200F"/>
<path d="M36.34 38.2948L32.7433 40.9977C32.4036 41.2531 32.1778 41.6344 32.1157 42.058C32.0535 42.4816 32.1601 42.9126 32.412 43.2563L83.6421 113.161C83.8932 113.504 84.2686 113.731 84.6857 113.793C85.1028 113.856 85.5275 113.748 85.8662 113.493L89.4629 110.79C89.8026 110.535 90.0284 110.154 90.0905 109.73C90.1526 109.306 90.046 108.875 89.7942 108.532L38.5641 38.627C38.3129 38.2843 37.9375 38.0568 37.5204 37.9945C37.1033 37.9322 36.6787 38.0402 36.34 38.2948Z" fill="#9A1A0C"/>
<path d="M95.6086 116.672L132.177 89.8472C133.219 89.1124 133.935 87.9937 134.172 86.7313C134.408 85.4688 134.147 84.1632 133.444 83.0945L77.9132 2.20037C77.5353 1.67331 77.0573 1.22786 76.5072 0.890055C75.9571 0.552245 75.346 0.328842 74.7094 0.232892C74.0729 0.136941 73.4237 0.170369 72.7998 0.331218C72.1759 0.492068 71.5898 0.777117 71.0757 1.16972L31.4733 30.2209C30.9451 30.5931 30.4954 31.0681 30.1504 31.6181C29.8054 32.1682 29.5721 32.7822 29.4641 33.4243C29.3562 34.0664 29.3757 34.7237 29.5216 35.3579C29.6674 35.992 29.9367 36.5902 30.3137 37.1175L88.8982 115.798C89.6828 116.8 90.8232 117.452 92.0766 117.616C93.3299 117.779 94.5972 117.44 95.6086 116.672Z" fill="#F04935"/>
<path d="M95.6102 116.673L132.179 89.8482C134.357 88.2495 134.95 85.2866 133.501 83.1912L79.4145 4.33066C77.9363 2.17549 74.8882 1.7566 72.6518 3.39882L33.0494 32.45C30.822 34.0866 30.2567 37.1525 31.815 39.2478L88.9495 115.881C90.4695 117.917 93.4317 118.272 95.6102 116.673Z" fill="#F04935"/>
<path d="M90.6793 101.71L119.678 80.4301C120.718 79.6666 121.422 78.5203 121.637 77.2379C121.852 75.9554 121.561 74.6393 120.826 73.5728L73.8906 5.33695C73.5185 4.79605 73.0436 4.33575 72.4937 3.98295C71.9437 3.63014 71.3297 3.3919 70.6875 3.28216C70.0453 3.17242 69.3878 3.19337 68.7535 3.34379C68.1191 3.49422 67.5206 3.77109 66.9929 4.15824L35.5483 27.2285C35.0203 27.6149 34.5736 28.104 34.2344 28.6672C33.8952 29.2304 33.6703 29.8563 33.5728 30.5082C33.4754 31.1602 33.5074 31.8252 33.6669 32.4643C33.8264 33.1033 34.1103 33.7037 34.5019 34.2301L83.8892 100.68C84.6605 101.719 85.8045 102.409 87.0746 102.602C88.3447 102.795 89.6393 102.474 90.6793 101.71Z" fill="#D42410"/>
<path d="M91.3305 102.617L120.329 81.3376C121.363 80.5999 122.071 79.4814 122.3 78.2222C122.529 76.9631 122.261 75.6636 121.555 74.6029L76.039 8.34516C75.6649 7.8184 75.1907 7.37249 74.6442 7.03349C74.0977 6.69449 73.4899 6.46919 72.8562 6.37075C72.2225 6.27231 71.5757 6.30271 70.9535 6.46016C70.3313 6.61761 69.7462 6.89896 69.2324 7.28779L37.771 30.3835C37.2454 30.7569 36.7986 31.2325 36.4567 31.7826C36.1147 32.3328 35.8846 32.9463 35.7796 33.5873C35.6746 34.2283 35.6969 34.884 35.8452 35.5159C35.9935 36.1479 36.2649 36.7434 36.6434 37.2677L84.6212 101.7C85.3982 102.711 86.5356 103.373 87.7897 103.544C89.0438 103.716 90.3149 103.383 91.3305 102.617Z" fill="#C1200F"/>
<path d="M90.679 101.709L119.677 80.4293C120.714 79.692 121.423 78.5732 121.654 77.313C121.885 76.0528 121.618 74.7516 120.912 73.689L75.3965 7.43124C75.0219 6.90435 74.5472 6.45839 74.0003 6.11937C73.4534 5.78035 72.8452 5.55507 72.2111 5.45668C71.5771 5.35829 70.9298 5.38876 70.3073 5.5463C69.6847 5.70385 69.0993 5.98532 68.5851 6.37428L37.1203 29.4847C36.5953 29.8585 36.1489 30.3343 35.8073 30.8845C35.4658 31.4346 35.2358 32.048 35.1308 32.6888C35.0259 33.3297 35.048 33.9851 35.196 34.617C35.344 35.2488 35.6148 35.8444 35.9927 36.3689L83.9747 100.796C84.7508 101.807 85.8877 102.468 87.1413 102.639C88.3949 102.81 89.6651 102.476 90.679 101.709Z" fill="#D42410"/>
<path d="M44.0552 38.4287L74.8266 15.855C75.5717 15.3084 76.6129 15.4763 77.1521 16.2301L118.364 73.8413C118.903 74.5951 118.736 75.6493 117.991 76.1959L87.2199 98.7696C86.4748 99.3162 85.4336 99.1483 84.8944 98.3945L43.6824 40.7833C43.1432 40.0295 43.3101 38.9753 44.0552 38.4287Z" fill="#9A1A0C"/>
<path d="M124.309 83.1146L119.658 86.5269C119.416 86.7038 119.254 86.9705 119.207 87.2682C119.16 87.566 119.232 87.8703 119.406 88.1144L120.963 90.2912C121.138 90.5353 121.401 90.6991 121.695 90.7465C121.989 90.7939 122.29 90.7211 122.531 90.5442L127.183 87.1319C127.424 86.9549 127.586 86.6882 127.633 86.3905C127.68 86.0928 127.609 85.7884 127.434 85.5443L125.877 83.3675C125.703 83.1245 125.441 82.9614 125.148 82.9142C124.855 82.8669 124.556 82.9394 124.316 83.1156L124.309 83.1146Z" fill="#AE1D0D"/>
<path d="M115.126 89.8529L110.463 93.2735C110.222 93.4498 110.061 93.7153 110.014 94.0118C109.967 94.3083 110.038 94.6114 110.212 94.8544L111.77 97.0313C111.944 97.2753 112.207 97.4391 112.501 97.4865C112.795 97.5339 113.096 97.4612 113.337 97.2842L117.997 93.8663C118.238 93.6893 118.4 93.4226 118.447 93.1249C118.494 92.8272 118.422 92.5228 118.248 92.2788L116.691 90.1019C116.517 89.8589 116.255 89.6958 115.962 89.6486C115.669 89.6014 115.37 89.6738 115.129 89.8501L115.126 89.8529Z" fill="#AE1D0D"/>
<path d="M105.945 96.5893L101.293 100.002C101.174 100.089 101.073 100.199 100.996 100.326C100.919 100.452 100.868 100.593 100.845 100.74C100.821 100.887 100.827 101.037 100.861 101.181C100.895 101.326 100.957 101.462 101.043 101.582L102.6 103.759C102.686 103.88 102.795 103.982 102.92 104.059C103.045 104.137 103.184 104.189 103.329 104.213C103.474 104.236 103.622 104.23 103.765 104.196C103.908 104.161 104.042 104.098 104.161 104.011L108.813 100.599C109.053 100.423 109.214 100.157 109.261 99.8606C109.308 99.5641 109.237 99.261 109.063 99.018L107.506 96.8411C107.331 96.5971 107.068 96.4333 106.774 96.3859C106.48 96.3384 106.179 96.4112 105.938 96.5882L105.945 96.5893Z" fill="#AE1D0D"/>
<path d="M92.0991 106.744L96.7543 103.329C97.2546 102.962 97.9536 103.074 98.3157 103.58L99.8756 105.761C100.238 106.267 100.126 106.975 99.6253 107.342L94.9701 110.757C94.4698 111.124 93.7708 111.011 93.4087 110.505L91.8488 108.325C91.4867 107.818 91.5988 107.111 92.0991 106.744Z" fill="#AE1D0D"/>
<path d="M114.627 89.1536L109.976 92.5658C109.735 92.7421 109.574 93.0076 109.527 93.3041C109.48 93.6006 109.552 93.9037 109.725 94.1467L111.283 96.3235C111.456 96.5666 111.719 96.7297 112.011 96.7769C112.304 96.8241 112.604 96.7516 112.844 96.5754L117.495 93.1631C117.737 92.9862 117.899 92.7195 117.946 92.4217C117.993 92.124 117.921 91.8197 117.747 91.5756L116.19 89.3987C116.015 89.1547 115.752 88.9909 115.458 88.9435C115.164 88.8961 114.863 88.9688 114.622 89.1458L114.627 89.1536Z" fill="white"/>
<path d="M105.442 95.8905L100.79 99.3027C100.549 99.4797 100.387 99.7464 100.34 100.044C100.293 100.342 100.364 100.646 100.539 100.89L102.096 103.067C102.27 103.31 102.532 103.473 102.825 103.52C103.118 103.568 103.417 103.495 103.657 103.319L108.313 99.9039C108.549 99.7256 108.707 99.4599 108.751 99.1646C108.795 98.8694 108.723 98.5686 108.549 98.3276L107 96.1623C106.825 95.9183 106.562 95.7545 106.268 95.7071C105.974 95.6597 105.673 95.7324 105.432 95.9094L105.442 95.8905Z" fill="white"/>
<path d="M96.2455 102.642L91.594 106.054C91.3528 106.231 91.1907 106.498 91.1436 106.796C91.0965 107.093 91.1681 107.398 91.3427 107.642L92.8999 109.819C92.9859 109.939 93.0946 110.041 93.2197 110.119C93.3447 110.196 93.4837 110.248 93.6287 110.272C93.7737 110.295 93.9218 110.29 94.0647 110.255C94.2075 110.22 94.3422 110.158 94.4612 110.07L99.1165 106.655C99.3577 106.478 99.5197 106.212 99.5669 105.914C99.614 105.616 99.5424 105.312 99.3678 105.068L97.8106 102.891C97.636 102.647 97.3728 102.483 97.0787 102.436C96.7847 102.388 96.4839 102.461 96.2427 102.638L96.2455 102.642Z" fill="white"/>
<path d="M46.215 38.2606L74.0157 17.8688C74.4772 17.5308 75.0522 17.3921 75.6143 17.4832C76.1763 17.5743 76.6794 17.8877 77.0128 18.3546L78.5198 20.4592L47.2476 43.4422L45.7403 41.3328C45.5689 41.1009 45.4452 40.8367 45.3762 40.5556C45.3073 40.2746 45.2945 39.9823 45.3388 39.6961C45.383 39.4099 45.4833 39.1354 45.6338 38.8889C45.7843 38.6424 45.9819 38.4287 46.215 38.2606Z" fill="#EDEDED"/>
<path d="M78.5243 20.483L117.723 75.2793L86.4468 98.2231L47.2484 43.4268L78.5243 20.483Z" fill="white"/>
<path d="M47.7296 24.6241L60.7284 15.0882C61.3616 14.6237 62.2465 14.7664 62.7048 15.407L64.0407 17.2746C64.499 17.9152 64.3571 18.8111 63.7239 19.2757L50.725 28.8115C50.0918 29.2761 49.2069 29.1333 48.7487 28.4927L47.4127 26.6252C46.9545 25.9845 47.0963 25.0886 47.7296 24.6241Z" fill="#151414"/>
<path d="M47.3849 39.4229L49.8349 37.6257C50.0037 37.5018 50.2397 37.5399 50.3619 37.7107L50.9787 38.5729C51.1009 38.7438 51.0631 38.9827 50.8942 39.1065L48.4443 40.9038C48.2754 41.0277 48.0394 40.9896 47.9172 40.8188L47.3004 39.9566C47.1782 39.7857 47.2161 39.5468 47.3849 39.4229Z" fill="#DBDBDB"/>
<path d="M47.2516 43.4262L86.4492 98.2228L117.725 75.2779L47.2516 43.4262Z" fill="#F7F7F7"/>
<path d="M68.2489 24.1255L74.9872 19.1823C75.1561 19.0584 75.392 19.0965 75.5142 19.2673L76.131 20.1296C76.2532 20.3004 76.2154 20.5393 76.0466 20.6632L69.3083 25.6064C69.1394 25.7302 68.9034 25.6922 68.7812 25.5213L68.1644 24.6591C68.0422 24.4883 68.0801 24.2494 68.2489 24.1255Z" fill="#DBDBDB"/>
<path d="M123.813 82.4155L119.161 85.8278C118.92 86.0047 118.758 86.2714 118.711 86.5692C118.664 86.8669 118.736 87.1712 118.91 87.4153L120.467 89.5922C120.641 89.8352 120.903 89.9983 121.196 90.0455C121.489 90.0927 121.788 90.0203 122.029 89.844L126.684 86.4289C126.924 86.2527 127.086 85.9871 127.132 85.6907C127.179 85.3942 127.108 85.0911 126.934 84.8481L125.377 82.6712C125.291 82.5502 125.183 82.4475 125.057 82.3691C124.932 82.2907 124.793 82.2381 124.648 82.2144C124.502 82.1906 124.354 82.1962 124.211 82.2307C124.067 82.2652 123.932 82.328 123.813 82.4155Z" fill="white"/>
<mask id="mask0_1095_68651" style="mask-type:luminance" maskUnits="userSpaceOnUse" x="-42" y="-57" width="299" height="209">
<path d="M-41.0268 -31.6343L240.98 -56.75L256.678 125.9L-25.3291 151.016L-41.0268 -31.6343Z" fill="white"/>
</mask>
<g mask="url(#mask0_1095_68651)">
<path d="M49.4968 92.7155C49.4968 92.7155 51.9511 93.7194 52.7854 95.3806C53.035 95.8297 53.1692 96.3352 53.1754 96.8506C53.1816 97.3661 53.0598 97.875 52.821 98.3306C53.4383 98.8751 53.8227 99.6408 53.8937 100.467C53.9647 101.293 53.7167 102.115 53.2017 102.76C51.3945 105.318 43.7466 100.424 43.7466 100.424L42.3214 93.5942L49.4968 92.7155Z" fill="#EDA987"/>
<path d="M13.2786 83.9262C13.2786 83.9262 15.271 98.5675 17.4335 103.284C19.5959 108.001 21.3791 111.941 23.0769 113.842C24.7748 115.742 29.4364 119.34 34.6284 121.999C39.8203 124.657 46.9779 127.649 50.2009 130.708C53.4239 133.768 64.962 121.104 64.962 121.104L57.5231 111.699" fill="#FFBE9D"/>
<path d="M32.9771 67.3762C32.8781 67.2329 32.752 67.1109 32.606 67.0173C32.4601 66.9237 32.2972 66.8604 32.1269 66.831C31.9565 66.8015 31.7821 66.8066 31.6136 66.8459C31.4451 66.8852 31.286 66.958 31.1455 67.0599L30.1963 67.7533C30.0551 67.8541 29.9349 67.9821 29.8427 68.13C29.7505 68.2778 29.688 68.4426 29.6588 68.6149C29.6296 68.7872 29.6343 68.9636 29.6726 69.134C29.7109 69.3044 29.7821 69.4655 29.882 69.6079L32.9228 73.8532C33.0222 73.996 33.1485 74.1175 33.2945 74.2107C33.4404 74.304 33.6032 74.3671 33.7734 74.3965C33.9435 74.4259 34.1178 74.4209 34.2862 74.382C34.4545 74.343 34.6136 74.2708 34.7544 74.1695L35.7032 73.4713C35.984 73.2642 36.1723 72.9528 36.2268 72.6056C36.2813 72.2583 36.1976 71.9034 35.9939 71.6188" fill="#B65F52"/>
<path d="M15.723 66.042L29.1385 56.2006C29.4762 55.9528 29.9481 56.0289 30.1925 56.3706L30.1953 56.3745C30.4397 56.7161 30.3641 57.194 30.0263 57.4417L16.6109 67.2832C16.2732 67.531 15.8012 67.4548 15.5568 67.1132L15.5541 67.1093C15.3097 66.7676 15.3853 66.2898 15.723 66.042Z" fill="#DBDBDB"/>
<path d="M15.9016 74.8762L33.3455 62.0795C33.6832 61.8317 34.1552 61.9078 34.3996 62.2495L34.4023 62.2534C34.6468 62.595 34.5711 63.0729 34.2334 63.3206L16.7895 76.1173C16.4517 76.3651 15.9798 76.289 15.7354 75.9473L15.7326 75.9434C15.4882 75.6018 15.5639 75.1239 15.9016 74.8762Z" fill="#DBDBDB"/>
<path d="M15.4516 79.0769L35.1619 64.6176C35.4997 64.3698 35.9716 64.4459 36.216 64.7876L36.2187 64.7915C36.4632 65.1331 36.3875 65.6109 36.0498 65.8587L16.3394 80.3181C16.0017 80.5658 15.5298 80.4897 15.2854 80.1481L15.2826 80.1442C15.0382 79.8025 15.1138 79.3247 15.4516 79.0769Z" fill="#DBDBDB"/>
<path d="M21.9346 78.1839L36.9744 67.1508C37.3122 66.903 37.7841 66.9791 38.0285 67.3208L38.0312 67.3247C38.2757 67.6663 38.2 68.1441 37.8623 68.3919L22.8225 79.425C22.4847 79.6728 22.0128 79.5966 21.7684 79.255L21.7656 79.2511C21.5212 78.9094 21.5969 78.4316 21.9346 78.1839Z" fill="#DBDBDB"/>
<path d="M20.2978 89.1144L41.5408 73.5306C41.8786 73.2829 42.3505 73.359 42.5949 73.7007L42.5977 73.7045C42.8421 74.0462 42.7664 74.524 42.4287 74.7718L21.1857 90.3555C20.8479 90.6033 20.376 90.5272 20.1316 90.1855L20.1288 90.1816C19.8844 89.84 19.9601 89.3621 20.2978 89.1144Z" fill="#DBDBDB"/>
<path d="M27.5911 87.625L43.3494 76.0648C43.6871 75.8171 44.1591 75.8932 44.4035 76.2349L44.4062 76.2387C44.6507 76.5804 44.575 77.0582 44.2373 77.306L28.4789 88.8662C28.1412 89.114 27.6693 89.0378 27.4249 88.6962L27.4221 88.6923C27.1777 88.3506 27.2533 87.8728 27.5911 87.625Z" fill="#DBDBDB"/>
<path d="M27.1602 91.8107L45.1697 78.599C45.5075 78.3512 45.9794 78.4274 46.2238 78.769L46.2266 78.7729C46.471 79.1146 46.3953 79.5924 46.0576 79.8402L28.048 93.0518C27.7103 93.2996 27.2384 93.2235 26.994 92.8818L26.9912 92.8779C26.7468 92.5363 26.8225 92.0584 27.1602 91.8107Z" fill="#DBDBDB"/>
<path d="M70.0604 124.365L65.0741 117.872L48.278 130.193L52.6682 137.3L70.0604 124.365Z" fill="white"/>
<path d="M30.5212 80.7025C29.3521 80.1594 27.0006 82.0611 27.4597 83.6551C27.9187 85.249 29.8492 88.2029 30.7565 88.9514C31.6639 89.7 34.5952 86.8309 35.1758 85.7053C35.7563 84.5797 31.6685 81.2667 30.5212 80.7025Z" fill="#F2F2F4"/>
<path d="M70.0651 124.35L52.6682 137.285L49.2565 131.754C55.8843 129.157 62.2042 125.815 68.0977 121.792L70.0651 124.35Z" fill="#F2F2F4"/>
<path d="M96.1732 155.796L69.9904 121.611L50.0177 136.262L73.6298 173.38L96.1732 155.796Z" fill="#005C64"/>
<rect width="33.2353" height="48.4529" rx="2" transform="matrix(0.804789 -0.595879 0.5936 0.803047 1.65625 67.8594)" fill="white"/>
<g clip-path="url(#clip2_1095_68651)">
<path d="M7.94731 67.8309C7.9126 67.7852 7.88756 67.733 7.87373 67.6773C7.85989 67.6216 7.85755 67.5636 7.86684 67.507C7.87433 67.4497 7.89352 67.3946 7.92323 67.345C7.95294 67.2955 7.99253 67.2525 8.03953 67.2189C8.14201 67.143 8.25183 67.1132 8.36898 67.1296C8.48613 67.1459 8.58205 67.2045 8.65674 67.3056C8.69249 67.3519 8.71836 67.4051 8.73274 67.4619C8.74711 67.5187 8.7497 67.5779 8.74033 67.6357C8.73221 67.6938 8.71229 67.7496 8.6818 67.7997C8.65131 67.8498 8.61091 67.8932 8.56306 67.9272C8.51703 67.9623 8.46422 67.9876 8.40798 68.0013C8.35175 68.015 8.2933 68.0169 8.23635 68.0068C8.17875 67.9985 8.12345 67.9787 8.07378 67.9484C8.02411 67.9182 7.98109 67.8782 7.94731 67.8309Z" fill="#B6B6B6"/>
<path d="M8.45588 70.3904C8.41733 70.4284 8.38573 70.4602 8.36607 70.5012C8.34541 70.5387 8.3352 70.581 8.33652 70.6238C8.33784 70.6665 8.35064 70.7081 8.37356 70.7441L9.22646 71.6294L9.44107 71.8539C9.45408 71.869 9.46874 71.8825 9.48479 71.8943C9.49774 71.9037 9.51202 71.9112 9.52717 71.9165C9.55759 71.9271 9.59036 71.9292 9.62194 71.9225C9.65528 71.9154 9.68662 71.901 9.71367 71.8802C9.74071 71.8594 9.76277 71.8328 9.77823 71.8024C9.80758 71.7422 9.80438 71.6779 9.76817 71.6277L8.93974 70.727L8.85087 70.6306L8.94864 70.5408L9.51215 70.023L9.65364 69.8946C9.69382 69.8593 9.72979 69.8195 9.76084 69.776C9.8152 69.6956 9.82327 69.624 9.79201 69.5235C9.76202 69.4304 9.69138 69.3099 9.63975 69.1964L9.4702 68.8541L9.1311 68.1693L9.04823 68.0005C9.02637 67.9548 8.99641 67.9135 8.95979 67.8786C8.9468 67.8656 8.93113 67.8556 8.91385 67.8493C8.89657 67.8429 8.87812 67.8405 8.85977 67.842C8.82199 67.8451 8.77518 67.8675 8.73094 67.8988C8.54741 68.0303 8.41232 68.2472 8.40002 68.4808C8.39206 68.599 8.41067 68.7173 8.45446 68.8271C8.47992 68.8849 8.50873 68.941 8.54074 68.9954L8.63471 69.1661L8.99712 69.8313C8.86174 69.9905 8.71059 70.1328 8.56519 70.2809L8.45588 70.3904Z" fill="#B6B6B6"/>
<path d="M9.73522 67.2943L9.20901 67.6839L9.42186 68.0936L9.43727 68.1236L9.57447 68.3908C9.74553 68.7231 9.92232 69.067 10.0931 69.408C10.2009 69.6232 10.1554 69.862 9.97419 70.031C9.87983 70.119 9.76118 70.2291 9.31124 70.5822L9.82249 71.0162C10.1891 70.7421 10.3544 70.5665 10.395 70.5259C10.8115 70.1089 10.9206 69.6273 10.7022 69.17C10.517 68.7816 10.3145 68.3951 10.1152 68.0148C10.0486 67.8879 9.98197 67.761 9.91603 67.6334C9.91305 67.6278 9.90946 67.6236 9.90601 67.6177L9.73522 67.2943Z" fill="#B6B6B6"/>
</g>
<rect width="16.6476" height="1.89513" rx="0.947563" transform="matrix(0.804794 -0.595872 0.593608 0.803042 12.1133 65.9805)" fill="#EDEDED"/>
<rect width="25.9498" height="1.42086" rx="0.710431" transform="matrix(0.804793 -0.595874 0.593606 0.803043 10.3516 75.5625)" fill="#EDEDED"/>
<rect width="24.7626" height="1.42087" rx="0.710436" transform="matrix(0.804791 -0.595876 0.593604 0.803045 28.9961 100.783)" fill="#EDEDED"/>
<rect width="18.9447" height="1.42105" rx="0.710526" transform="matrix(0.804796 -0.59587 0.593609 0.803041 12.0508 77.624)" fill="#EDEDED"/>
<rect width="18.4627" height="1.42107" rx="0.710534" transform="matrix(0.804795 -0.59587 0.593609 0.803041 15.7188 82.8232)" fill="#EDEDED"/>
<rect width="13.0845" height="1.42131" rx="0.710653" transform="matrix(0.804794 -0.595872 0.593608 0.803042 17.6953 85.4961)" fill="#EDEDED"/>
<rect width="16.6655" height="1.42113" rx="0.710566" transform="matrix(0.804795 -0.595871 0.593609 0.803041 19.6758 88.1719)" fill="#EDEDED"/>
<rect width="12.5238" height="1.42134" rx="0.710671" transform="matrix(0.804794 -0.595872 0.593608 0.803042 21.6523 90.8486)" fill="#EDEDED"/>
<rect width="16.8254" height="1.42113" rx="0.710563" transform="matrix(0.804795 -0.595871 0.593609 0.803041 23.9102 93.9053)" fill="#EDEDED"/>
<path d="M64.6993 120.513C64.6993 120.513 57.5057 107.074 54.3244 102.405C51.143 97.7355 48.1719 96.9454 45.4892 93.6702C42.8065 90.3949 34.3214 81.9314 31.0343 79.7792C27.7472 77.6269 24.2915 81.2283 25.3833 85.6663C26.4752 90.1044 31.4801 92.7365 33.8243 98.1896C36.1684 103.643 35.7256 104.166 34.7352 105.923C33.7447 107.68 32.1792 108.145 30.6341 108.407" fill="#FFBE9D"/>
</g>
</g>
</g>
<defs>
<clipPath id="clip0_1095_68651">
<rect width="135" height="141" rx="16" transform="matrix(-1 0 0 1 135 0)" fill="white"/>
</clipPath>
<clipPath id="clip1_1095_68651">
<rect width="164.683" height="183.371" fill="white" transform="matrix(-0.996059 0.0887095 0.0856283 0.996328 122.957 -46.377)"/>
</clipPath>
<clipPath id="clip2_1095_68651">
<rect width="4.74569" height="4.74815" fill="white" transform="matrix(0.804789 -0.59588 0.593599 0.803048 5.92578 68.7842)"/>
</clipPath>
</defs>
</svg>
