<svg width="58" height="65" viewBox="0 0 58 65" fill="none" xmlns="http://www.w3.org/2000/svg">
<path d="M24.0633 4.78913C24.4909 3.36383 26.5091 3.36383 26.9367 4.78913L31.1525 18.8418C31.2974 19.3247 31.6753 19.7026 32.1582 19.8475L46.2109 24.0633C47.6362 24.4909 47.6362 26.5091 46.2109 26.9367L32.1582 31.1525C31.6753 31.2974 31.2974 31.6753 31.1525 32.1582L26.9367 46.2109C26.5091 47.6362 24.4909 47.6362 24.0633 46.2109L19.8475 32.1582C19.7026 31.6753 19.3247 31.2974 18.8418 31.1525L4.78913 26.9367C3.36383 26.5091 3.36383 24.4909 4.78913 24.0633L18.8418 19.8475C19.3247 19.7026 19.7026 19.3247 19.8475 18.8418L24.0633 4.78913Z" fill="#FFB728"/>
<path d="M43.0105 38.3496C43.1211 37.8189 43.8789 37.8189 43.9895 38.3496L45.9332 47.6793C45.9738 47.8741 46.1259 48.0262 46.3207 48.0668L55.6504 50.0105C56.1811 50.1211 56.1811 50.8789 55.6504 50.9895L46.3207 52.9332C46.1259 52.9738 45.9738 53.1259 45.9332 53.3207L43.9895 62.6504C43.8789 63.1811 43.1211 63.1811 43.0105 62.6504L41.0668 53.3207C41.0262 53.1259 40.8741 52.9738 40.6793 52.9332L31.3496 50.9895C30.8189 50.8789 30.8189 50.1211 31.3496 50.0105L40.6793 48.0668C40.8741 48.0262 41.0262 47.8741 41.0668 47.6793L43.0105 38.3496Z" fill="#1E88E5"/>
</svg>
