<svg width="65" height="67" viewBox="0 0 65 67" fill="none" xmlns="http://www.w3.org/2000/svg">
<path d="M33.5441 1.1453C33.2566 0.199979 31.9182 0.199978 31.6307 1.1453L28.4554 11.5843C28.2304 12.3241 27.2867 12.5395 26.763 11.9706L19.3729 3.94307C18.7036 3.21612 17.4978 3.79681 17.6489 4.77328L19.3174 15.5562C19.4356 16.3204 18.6789 16.9239 17.9602 16.6385L7.8189 12.6125C6.90054 12.2479 6.06609 13.2942 6.62588 14.1084L12.8077 23.0996C13.2458 23.7368 12.8258 24.6088 12.0545 24.6636L1.17064 25.4364C0.18504 25.5064 -0.112766 26.8112 0.744862 27.3018L10.2155 32.7204C10.8867 33.1044 10.8867 34.0723 10.2155 34.4564L0.744862 39.8749C-0.112774 40.3656 0.18504 41.6704 1.17064 41.7404L12.0545 42.5131C12.8258 42.5679 13.2458 43.44 12.8077 44.0772L6.62589 53.0683C6.06609 53.8825 6.90054 54.9289 7.8189 54.5643L17.9602 50.5382C18.6789 50.2529 19.4356 50.8564 19.3174 51.6206L17.6489 62.4035C17.4978 63.3799 18.7036 63.9606 19.3729 63.2337L26.763 55.2062C27.2867 54.6373 28.2304 54.8526 28.4554 55.5925L31.6307 66.0314C31.9182 66.9768 33.2566 66.9768 33.5441 66.0314L36.7194 55.5925C36.9444 54.8526 37.8881 54.6373 38.4118 55.2062L45.802 63.2337C46.4712 63.9606 47.677 63.3799 47.5259 62.4035L45.8574 51.6206C45.7392 50.8564 46.4959 50.2529 47.2146 50.5382L57.3559 54.5643C58.2743 54.9289 59.1087 53.8825 58.5489 53.0683L52.3672 44.0772C51.929 43.44 52.349 42.5679 53.1204 42.5131L64.0042 41.7404C64.9898 41.6704 65.2876 40.3656 64.43 39.8749L54.9593 34.4564C54.2881 34.0723 54.2881 33.1044 54.9593 32.7204L64.43 27.3018C65.2876 26.8112 64.9898 25.5064 64.0042 25.4364L53.1204 24.6636C52.349 24.6088 51.929 23.7368 52.3672 23.0996L58.5489 14.1084C59.1087 13.2942 58.2743 12.2479 57.3559 12.6125L47.2146 16.6385C46.4959 16.9239 45.7392 16.3204 45.8574 15.5562L47.5259 4.77328C47.677 3.79682 46.4712 3.21612 45.802 3.94307L38.4118 11.9706C37.8881 12.5395 36.9444 12.3241 36.7194 11.5843L33.5441 1.1453Z" fill="#6889FF"/>
</svg>
